<?xml version="1.0" standalone="no"?>
<!DOCTYPE svg PUBLIC "-//W3C//DTD SVG 1.1//EN" "http://www.w3.org/Graphics/SVG/1.1/DTD/svg11.dtd">
<svg width="540" height="150" viewBox="0 -150 540 150" xmlns="http://www.w3.org/2000/svg" version="1.1">
<title>OpenSCAD Model</title>
<path d="
M 540,-150 L 0,-150 L 0,-0 L 540,-0 z
M 0.5,-0.5 L 0.5,-149.5 L 539.5,-149.5 L 539.5,-0.5 z
M 24.091,-125.909 L 24.75,-127.5 L 24.091,-129.091 L 22.5,-129.75 L 20.909,-129.091 L 20.25,-127.5
 L 20.909,-125.909 L 22.5,-125.25 z
M 414.091,-125.909 L 414.75,-127.5 L 414.091,-129.091 L 412.5,-129.75 L 410.909,-129.091 L 410.25,-127.5
 L 410.909,-125.909 L 412.5,-125.25 z
M 519.091,-125.909 L 519.75,-127.5 L 519.091,-129.091 L 517.5,-129.75 L 515.909,-129.091 L 515.25,-127.5
 L 515.909,-125.909 L 517.5,-125.25 z
M 284.091,-125.909 L 284.75,-127.5 L 284.091,-129.091 L 282.5,-129.75 L 280.909,-129.091 L 280.25,-127.5
 L 280.909,-125.909 L 282.5,-125.25 z
M 389.091,-125.909 L 389.75,-127.5 L 389.091,-129.091 L 387.5,-129.75 L 385.909,-129.091 L 385.25,-127.5
 L 385.909,-125.909 L 387.5,-125.25 z
M 154.091,-125.909 L 154.75,-127.5 L 154.091,-129.091 L 152.5,-129.75 L 150.909,-129.091 L 150.25,-127.5
 L 150.909,-125.909 L 152.5,-125.25 z
M 259.091,-125.909 L 259.75,-127.5 L 259.091,-129.091 L 257.5,-129.75 L 255.909,-129.091 L 255.25,-127.5
 L 255.909,-125.909 L 257.5,-125.25 z
M 129.091,-125.909 L 129.75,-127.5 L 129.091,-129.091 L 127.5,-129.75 L 125.909,-129.091 L 125.25,-127.5
 L 125.909,-125.909 L 127.5,-125.25 z
M 351.996,-22.6919 L 362.5,-27.3686 L 371.802,-34.127 L 379.496,-42.6718 L 385.245,-52.6295 L 388.798,-63.5648
 L 390,-75 L 388.798,-86.4351 L 385.245,-97.3705 L 379.496,-107.328 L 371.802,-115.873 L 362.5,-122.631
 L 351.996,-127.308 L 340.749,-129.699 L 329.251,-129.699 L 318.004,-127.308 L 307.5,-122.631 L 298.198,-115.873
 L 290.504,-107.328 L 284.755,-97.3705 L 281.202,-86.4351 L 280,-75 L 281.202,-63.5648 L 284.755,-52.6295
 L 290.504,-42.6718 L 298.198,-34.127 L 307.5,-27.3686 L 318.004,-22.6919 L 329.251,-20.3013 L 340.749,-20.3013
 z
M 481.996,-22.6919 L 492.5,-27.3686 L 501.802,-34.127 L 509.496,-42.6718 L 515.245,-52.6295 L 518.798,-63.5648
 L 520,-75 L 518.798,-86.4351 L 515.245,-97.3705 L 509.496,-107.328 L 501.802,-115.873 L 492.5,-122.631
 L 481.996,-127.308 L 470.749,-129.699 L 459.251,-129.699 L 448.004,-127.308 L 437.5,-122.631 L 428.198,-115.873
 L 420.504,-107.328 L 414.755,-97.3705 L 411.202,-86.4351 L 410,-75 L 411.202,-63.5648 L 414.755,-52.6295
 L 420.504,-42.6718 L 428.198,-34.127 L 437.5,-27.3686 L 448.004,-22.6919 L 459.251,-20.3013 L 470.749,-20.3013
 z
M 91.9959,-22.6919 L 102.5,-27.3686 L 111.802,-34.127 L 119.496,-42.6718 L 125.245,-52.6295 L 128.798,-63.5648
 L 130,-75 L 128.798,-86.4351 L 125.245,-97.3705 L 119.496,-107.328 L 111.802,-115.873 L 102.5,-122.631
 L 91.9959,-127.308 L 80.7491,-129.699 L 69.2509,-129.699 L 58.0041,-127.308 L 47.5,-122.631 L 38.1978,-115.873
 L 30.5041,-107.328 L 24.755,-97.3705 L 21.2019,-86.4351 L 20,-75 L 21.2019,-63.5648 L 24.755,-52.6295
 L 30.5041,-42.6718 L 38.1978,-34.127 L 47.5,-27.3686 L 58.0041,-22.6919 L 69.2509,-20.3013 L 80.7491,-20.3013
 z
M 221.996,-22.6919 L 232.5,-27.3686 L 241.802,-34.127 L 249.496,-42.6718 L 255.245,-52.6295 L 258.798,-63.5648
 L 260,-75 L 258.798,-86.4351 L 255.245,-97.3705 L 249.496,-107.328 L 241.802,-115.873 L 232.5,-122.631
 L 221.996,-127.308 L 210.749,-129.699 L 199.251,-129.699 L 188.004,-127.308 L 177.5,-122.631 L 168.198,-115.873
 L 160.504,-107.328 L 154.755,-97.3705 L 151.202,-86.4351 L 150,-75 L 151.202,-63.5648 L 154.755,-52.6295
 L 160.504,-42.6718 L 168.198,-34.127 L 177.5,-27.3686 L 188.004,-22.6919 L 199.251,-20.3013 L 210.749,-20.3013
 z
M 154.091,-20.909 L 154.75,-22.5 L 154.091,-24.091 L 152.5,-24.75 L 150.909,-24.091 L 150.25,-22.5
 L 150.909,-20.909 L 152.5,-20.25 z
M 259.091,-20.909 L 259.75,-22.5 L 259.091,-24.091 L 257.5,-24.75 L 255.909,-24.091 L 255.25,-22.5
 L 255.909,-20.909 L 257.5,-20.25 z
M 129.091,-20.909 L 129.75,-22.5 L 129.091,-24.091 L 127.5,-24.75 L 125.909,-24.091 L 125.25,-22.5
 L 125.909,-20.909 L 127.5,-20.25 z
M 24.091,-20.909 L 24.75,-22.5 L 24.091,-24.091 L 22.5,-24.75 L 20.909,-24.091 L 20.25,-22.5
 L 20.909,-20.909 L 22.5,-20.25 z
M 284.091,-20.909 L 284.75,-22.5 L 284.091,-24.091 L 282.5,-24.75 L 280.909,-24.091 L 280.25,-22.5
 L 280.909,-20.909 L 282.5,-20.25 z
M 389.091,-20.909 L 389.75,-22.5 L 389.091,-24.091 L 387.5,-24.75 L 385.909,-24.091 L 385.25,-22.5
 L 385.909,-20.909 L 387.5,-20.25 z
M 414.091,-20.909 L 414.75,-22.5 L 414.091,-24.091 L 412.5,-24.75 L 410.909,-24.091 L 410.25,-22.5
 L 410.909,-20.909 L 412.5,-20.25 z
M 519.091,-20.909 L 519.75,-22.5 L 519.091,-24.091 L 517.5,-24.75 L 515.909,-24.091 L 515.25,-22.5
 L 515.909,-20.909 L 517.5,-20.25 z
" stroke="black" fill="lightgray" stroke-width="0.5"/></svg>
