<?xml version="1.0" encoding="UTF-8" standalone="no"?>
<!-- Created with Inkscape (http://www.inkscape.org/) -->

<svg
   xmlns:dc="http://purl.org/dc/elements/1.1/"
   xmlns:cc="http://creativecommons.org/ns#"
   xmlns:rdf="http://www.w3.org/1999/02/22-rdf-syntax-ns#"
   xmlns:svg="http://www.w3.org/2000/svg"
   xmlns="http://www.w3.org/2000/svg"
   xmlns:sodipodi="http://sodipodi.sourceforge.net/DTD/sodipodi-0.dtd"
   xmlns:inkscape="http://www.inkscape.org/namespaces/inkscape"
   width="210mm"
   height="297mm"
   viewBox="0 0 744.09448819 1052.3622047"
   id="svg7778"
   version="1.1"
   inkscape:version="0.91 r13725"
   sodipodi:docname="Radiation-Traced.svg">
  <defs
     id="defs7780" />
  <sodipodi:namedview
     id="base"
     pagecolor="#ffffff"
     bordercolor="#666666"
     borderopacity="1.0"
     inkscape:pageopacity="0.0"
     inkscape:pageshadow="2"
     inkscape:zoom="0.98994949"
     inkscape:cx="-105.77812"
     inkscape:cy="455.81461"
     inkscape:document-units="mm"
     inkscape:current-layer="layer2"
     showgrid="true"
     inkscape:window-width="2560"
     inkscape:window-height="1335"
     inkscape:window-x="2552"
     inkscape:window-y="1072"
     inkscape:window-maximized="1">
    <inkscape:grid
       type="xygrid"
       id="grid8330" />
  </sodipodi:namedview>
  <metadata
     id="metadata7783">
    <rdf:RDF>
      <cc:Work
         rdf:about="">
        <dc:format>image/svg+xml</dc:format>
        <dc:type
           rdf:resource="http://purl.org/dc/dcmitype/StillImage" />
        <dc:title></dc:title>
      </cc:Work>
    </rdf:RDF>
  </metadata>
  <g
     inkscape:groupmode="layer"
     id="layer2"
     inkscape:label="Back"
     style="display:inline">
    <path
       style="fill:#000000"
       d="m 344.6962,940.16171 c -15.45297,-1.46594 -33.55056,-6.17518 -47.71593,-12.41633 -5.93843,-2.61643 -13.61385,-6.51995 -14.55186,-7.4007 -0.52378,-0.49179 -0.16172,-1.39047 2.23155,-5.53902 1.57122,-2.72358 4.33892,-7.52041 6.15045,-10.65962 1.81152,-3.13921 5.67706,-9.85183 8.59009,-14.91695 2.91302,-5.06512 8.72229,-15.1334 12.90948,-22.37397 14.64213,-25.3195 16.07459,-27.80417 18.25113,-31.65745 1.20576,-2.13466 2.23883,-3.94602 2.29569,-4.02526 0.0569,-0.0792 1.36269,0.49164 2.90182,1.2686 6.78504,3.42508 15.65473,5.49873 23.49481,5.49288 8.93503,-0.007 17.01214,-2.10629 25.91106,-6.73548 0.3595,-0.18701 1.85238,2.33409 19.80787,33.45071 2.31865,4.01819 6.46944,11.20982 9.22398,15.98141 2.75454,4.7716 7.43006,12.88787 10.39005,18.03617 2.95999,5.1483 6.82183,11.80187 8.58186,14.78571 1.76004,2.98385 3.22411,5.75431 3.25349,6.15658 0.0729,0.998 -10.76258,6.56484 -19.58089,10.05988 -14.79187,5.86261 -27.37341,8.90559 -43.54064,10.53077 -5.49204,0.55208 -22.62405,0.52936 -28.60401,-0.0379 z m 10.95868,-110.72305 c -17.76279,-1.70765 -32.38194,-13.20512 -37.9631,-29.85671 -8.30454,-24.77688 6.68082,-51.16091 32.3224,-56.90857 4.97952,-1.11618 14.14215,-1.02526 19.11075,0.18964 11.31285,2.76615 20.39411,9.10731 26.83686,18.73933 6.97945,10.43438 9.00186,23.66001 5.52324,36.11933 -4.22129,15.11934 -17.17019,27.34427 -32.58841,30.76639 -3.3944,0.7534 -10.20626,1.24241 -13.24174,0.95059 z M 204.25886,785.42699 c -0.16613,-1.29954 0.16239,-10.01692 0.53344,-14.15497 1.77638,-19.81068 7.99137,-40.78135 17.18618,-57.98969 7.85298,-14.69707 15.93472,-25.51008 28.15781,-37.67391 9.46166,-9.41578 19.97536,-17.66707 29.49614,-23.14893 l 2.05816,-1.18505 2.57073,4.40632 c 5.98108,10.25175 16.3221,28.10696 19.34462,33.40115 1.79221,3.1392 5.99671,10.43358 9.34332,16.20972 12.57145,21.69786 20.16596,35.01901 20.02288,35.1211 -0.0813,0.058 -1.68891,1.11597 -3.57243,2.35101 -6.18965,4.05861 -12.38583,11.06055 -16.41805,18.5531 -3.23309,6.00763 -5.95593,16.01176 -5.95593,21.883 l 0,2.21936 -51.36884,0.11804 c -28.25287,0.0649 -51.38198,0.0153 -51.39803,-0.11025 z m 207.3292,-1.82645 c -0.003,-3.10156 -1.14072,-9.48418 -2.45428,-13.7636 -3.38401,-11.02462 -11.90751,-22.24207 -21.28777,-28.016 -1.13011,-0.69563 -2.12613,-1.32563 -2.21336,-1.39999 -0.15844,-0.13508 3.0315,-5.79319 12.72596,-22.5725 5.27088,-9.12293 9.77759,-16.9417 18.55483,-32.19113 19.95065,-34.66194 19.83822,-34.47914 20.87589,-33.94474 0.53289,0.27444 3.84554,2.41123 7.36145,4.74842 32.6468,21.70188 55.43305,54.19532 64.82359,92.43914 2.58607,10.53201 4.34808,23.70302 4.35153,32.5276 l 0.001,3.99146 -51.36884,0.11804 -51.36885,0.11805 -0.002,-2.05475 z"
       id="path8532"
       inkscape:connector-curvature="0" />
  </g>
  <g
     inkscape:label="Layer 1"
     inkscape:groupmode="layer"
     id="layer1">
    <g
       id="g8405"
       transform="translate(137.14286,-38.571429)"
       style="stroke:#ff0000;stroke-opacity:1">
      <path
         style="opacity:1;fill:none;fill-opacity:1;fill-rule:evenodd;stroke:#ff0000;stroke-width:2;stroke-linejoin:miter;stroke-miterlimit:4;stroke-dasharray:none;stroke-opacity:1"
         d="m 42.405512,1016.9291 a 6.9724412,6.9724412 0 0 1 -6.972441,6.9724 6.9724412,6.9724412 0 0 1 -6.972441,-6.9724 6.9724412,6.9724412 0 0 1 6.972441,-6.9725 6.9724412,6.9724412 0 0 1 6.972441,6.9725 z"
         id="path8332" />
      <path
         style="opacity:1;fill:none;fill-opacity:1;fill-rule:evenodd;stroke:#ff0000;stroke-width:2;stroke-linejoin:miter;stroke-miterlimit:4;stroke-dasharray:none;stroke-opacity:1"
         d="m 414.45276,1016.9291 a 6.9724412,6.9724412 0 0 1 -6.97244,6.9724 6.9724412,6.9724412 0 0 1 -6.97245,-6.9724 6.9724412,6.9724412 0 0 1 6.97245,-6.9725 6.9724412,6.9724412 0 0 1 6.97244,6.9725 z"
         id="path8332-0" />
      <path
         style="opacity:1;fill:none;fill-opacity:1;fill-rule:evenodd;stroke:#ff0000;stroke-width:2;stroke-linejoin:miter;stroke-miterlimit:4;stroke-dasharray:none;stroke-opacity:1"
         d="m 42.405512,644.8819 a 6.9724412,6.9724412 0 0 1 -6.972441,6.97244 6.9724412,6.9724412 0 0 1 -6.972441,-6.97244 6.9724412,6.9724412 0 0 1 6.972441,-6.97244 6.9724412,6.9724412 0 0 1 6.972441,6.97244 z"
         id="path8332-7" />
      <path
         style="opacity:1;fill:none;fill-opacity:1;fill-rule:evenodd;stroke:#ff0000;stroke-width:2;stroke-linejoin:miter;stroke-miterlimit:4;stroke-dasharray:none;stroke-opacity:1"
         d="m 414.45276,644.8819 a 6.9724412,6.9724412 0 0 1 -6.97244,6.97244 6.9724412,6.9724412 0 0 1 -6.97245,-6.97244 6.9724412,6.9724412 0 0 1 6.97245,-6.97244 6.9724412,6.9724412 0 0 1 6.97244,6.97244 z"
         id="path8332-6" />
      <path
         style="opacity:1;fill:none;fill-opacity:1;fill-rule:evenodd;stroke:#ff0000;stroke-width:2;stroke-linejoin:miter;stroke-miterlimit:4;stroke-dasharray:none;stroke-opacity:1"
         d="m 71.866142,608.44879 301.181108,0 c 39.25984,0 70.86614,31.6063 70.86614,70.86614 l 0,301.18111 c 0,39.25986 -31.6063,70.86616 -70.86614,70.86616 l -301.181108,0 C 32.606299,1051.3622 1,1019.7559 1,980.49604 L 1,679.31493 c 0,-39.25984 31.606299,-70.86614 70.866142,-70.86614 z"
         id="rect8361" />
    </g>
  </g>
</svg>
