<?xml version="1.0" encoding="UTF-8" standalone="no"?>
<!-- Created with Inkscape (http://www.inkscape.org/) -->

<svg
   xmlns:dc="http://purl.org/dc/elements/1.1/"
   xmlns:cc="http://creativecommons.org/ns#"
   xmlns:rdf="http://www.w3.org/1999/02/22-rdf-syntax-ns#"
   xmlns:svg="http://www.w3.org/2000/svg"
   xmlns="http://www.w3.org/2000/svg"
   xmlns:sodipodi="http://sodipodi.sourceforge.net/DTD/sodipodi-0.dtd"
   xmlns:inkscape="http://www.inkscape.org/namespaces/inkscape"
   width="210mm"
   height="297mm"
   viewBox="0 0 744.09448819 1052.3622047"
   id="svg7778"
   version="1.1"
   inkscape:version="0.91 r13725"
   sodipodi:docname="Thermometer-Traced.svg">
  <defs
     id="defs7780" />
  <sodipodi:namedview
     id="base"
     pagecolor="#ffffff"
     bordercolor="#666666"
     borderopacity="1.0"
     inkscape:pageopacity="0.0"
     inkscape:pageshadow="2"
     inkscape:zoom="0.98994949"
     inkscape:cx="-184.52385"
     inkscape:cy="537.59525"
     inkscape:document-units="mm"
     inkscape:current-layer="layer2"
     showgrid="true"
     inkscape:window-width="2560"
     inkscape:window-height="1335"
     inkscape:window-x="2552"
     inkscape:window-y="1072"
     inkscape:window-maximized="1">
    <inkscape:grid
       type="xygrid"
       id="grid8330" />
  </sodipodi:namedview>
  <metadata
     id="metadata7783">
    <rdf:RDF>
      <cc:Work
         rdf:about="">
        <dc:format>image/svg+xml</dc:format>
        <dc:type
           rdf:resource="http://purl.org/dc/dcmitype/StillImage" />
        <dc:title />
      </cc:Work>
    </rdf:RDF>
  </metadata>
  <g
     inkscape:groupmode="layer"
     id="layer2"
     inkscape:label="Back">
    <path
       style="fill:#00ee00;fill-opacity:1"
       d="m 341.67209,925.72454 c -11.47481,-2.41347 -21.78531,-7.14391 -30.45432,-13.97236 -17.63747,-13.89278 -27.12442,-33.3427 -27.12442,-55.60986 0,-19.67915 6.90894,-36.48093 20.60657,-50.11292 l 3.97315,-3.95411 0.2129,-56.9283 0.21289,-56.92829 1.55578,-4.93641 c 5.05476,-16.03851 16.28911,-27.5096 32.01592,-32.6906 5.5928,-1.84248 22.10258,-1.64431 27.55769,0.33078 7.27527,2.63409 12.49456,6.00953 18.38447,11.88966 8.70827,8.69384 12.99575,18.08087 13.859,30.34298 l 0.44018,6.25279 10.87643,0.32909 10.87642,0.32909 1.60452,1.84672 c 2.2563,2.5969 2.24211,7.12639 -0.0294,9.3724 -1.60305,1.58508 -1.84155,1.61555 -12.64735,1.61555 l -11.01348,0 0,12.17648 0,12.17648 11.01348,0 c 10.8058,0 11.0443,0.0305 12.64735,1.61556 2.11322,2.08952 2.30836,7.28684 0.36289,9.66527 -1.22272,1.49485 -1.69654,1.56633 -12.48094,1.88294 l -11.20996,0.32909 -0.15023,11.61259 -0.15023,11.61259 2.29174,0.42511 c 1.26046,0.23382 6.05163,0.3832 10.64706,0.33197 11.22858,-0.12519 13.06845,1.10791 12.11713,8.12107 -0.56797,4.18701 -1.28159,4.42611 -13.2104,4.42611 -9.32337,0 -10.56817,0.12905 -11.1104,1.15183 -0.33586,0.63351 -0.65787,3.74643 -0.71558,6.91762 l -0.10494,5.76578 4.5315,4.76523 c 5.53478,5.82023 8.49435,9.83027 12.01794,16.28351 19.40021,35.53044 5.2417,79.41704 -31.47354,97.55735 -10.12556,5.00284 -19.93014,7.1193 -32.61686,7.04079 -4.91441,-0.0304 -10.66678,-0.477 -13.313,-1.03358 z m 27.84507,-16.038 c 16.14331,-4.18093 29.31531,-14.75703 36.76326,-29.51808 6.64769,-13.17502 7.41571,-30.41293 1.96748,-44.15928 -3.50754,-8.84983 -11.04038,-18.79502 -18.21717,-24.05111 l -2.69611,-1.97457 -0.2217,-59.56602 c -0.17275,-46.40988 -0.41172,-60.14752 -1.08202,-62.19878 -4.23701,-12.96633 -14.20256,-21.84198 -26.4288,-23.53837 -14.04365,-1.94856 -27.52061,6.67461 -33.16075,21.21773 -1.39453,3.59581 -1.41259,4.31673 -1.59375,63.63561 l -0.18323,59.9986 -4.47632,3.68185 c -5.066,4.16688 -5.00861,4.10661 -9.50274,9.97761 -7.23239,9.44821 -10.84807,20.39157 -10.85854,32.86494 -0.0131,15.51378 5.52529,28.25433 17.16686,39.49129 14.08856,13.5989 33.9568,18.94716 52.52353,14.13858 z m -24.70618,-11.8472 c -14.03874,-3.6369 -25.68292,-14.33707 -30.58624,-28.10655 -1.64859,-4.62957 -1.82078,-5.97028 -1.79866,-14.00521 0.022,-7.9904 0.20699,-9.38207 1.83633,-13.81422 0.99653,-2.71077 2.7787,-6.56117 3.96037,-8.55645 2.75215,-4.64703 9.85509,-11.68268 14.66831,-14.52931 l 3.75009,-2.21788 0.18567,-62.22095 0.18569,-62.22094 1.86657,-3.94913 c 2.39269,-5.06223 5.23317,-7.99715 9.63487,-9.95525 9.97145,-4.4358 21.32391,0.91002 25.03374,11.78827 0.95803,2.80918 1.07405,9.81881 1.07405,64.89042 l 0,61.74104 1.68788,0.76043 c 6.2665,2.8232 15.22861,11.86219 18.56608,18.72535 7.59583,15.61999 6.22702,31.49567 -3.92892,45.56839 -9.9971,13.85262 -29.09268,20.51722 -46.13583,16.10199 z"
       id="path9110"
       inkscape:connector-curvature="0" />
  </g>
  <g
     inkscape:label="Layer 1"
     inkscape:groupmode="layer"
     id="layer1">
    <g
       id="g8405"
       transform="translate(137.14286,-38.571429)">
      <path
         style="opacity:1;fill:none;fill-opacity:1;fill-rule:evenodd;stroke:#000000;stroke-width:2;stroke-linejoin:miter;stroke-miterlimit:4;stroke-dasharray:none;stroke-opacity:1"
         d="m 42.405512,1016.9291 a 6.9724412,6.9724412 0 0 1 -6.972441,6.9724 6.9724412,6.9724412 0 0 1 -6.972441,-6.9724 6.9724412,6.9724412 0 0 1 6.972441,-6.9725 6.9724412,6.9724412 0 0 1 6.972441,6.9725 z"
         id="path8332" />
      <path
         style="opacity:1;fill:none;fill-opacity:1;fill-rule:evenodd;stroke:#000000;stroke-width:2;stroke-linejoin:miter;stroke-miterlimit:4;stroke-dasharray:none;stroke-opacity:1"
         d="m 414.45276,1016.9291 a 6.9724412,6.9724412 0 0 1 -6.97244,6.9724 6.9724412,6.9724412 0 0 1 -6.97245,-6.9724 6.9724412,6.9724412 0 0 1 6.97245,-6.9725 6.9724412,6.9724412 0 0 1 6.97244,6.9725 z"
         id="path8332-0" />
      <path
         style="opacity:1;fill:none;fill-opacity:1;fill-rule:evenodd;stroke:#000000;stroke-width:2;stroke-linejoin:miter;stroke-miterlimit:4;stroke-dasharray:none;stroke-opacity:1"
         d="m 42.405512,644.8819 a 6.9724412,6.9724412 0 0 1 -6.972441,6.97244 6.9724412,6.9724412 0 0 1 -6.972441,-6.97244 6.9724412,6.9724412 0 0 1 6.972441,-6.97244 6.9724412,6.9724412 0 0 1 6.972441,6.97244 z"
         id="path8332-7" />
      <path
         style="opacity:1;fill:none;fill-opacity:1;fill-rule:evenodd;stroke:#000000;stroke-width:2;stroke-linejoin:miter;stroke-miterlimit:4;stroke-dasharray:none;stroke-opacity:1"
         d="m 414.45276,644.8819 a 6.9724412,6.9724412 0 0 1 -6.97244,6.97244 6.9724412,6.9724412 0 0 1 -6.97245,-6.97244 6.9724412,6.9724412 0 0 1 6.97245,-6.97244 6.9724412,6.9724412 0 0 1 6.97244,6.97244 z"
         id="path8332-6" />
      <path
         style="opacity:1;fill:none;fill-opacity:1;fill-rule:evenodd;stroke:#000000;stroke-width:2;stroke-linejoin:miter;stroke-miterlimit:4;stroke-dasharray:none;stroke-opacity:1"
         d="m 71.866142,608.44879 301.181108,0 c 39.25984,0 70.86614,31.6063 70.86614,70.86614 l 0,301.18111 c 0,39.25986 -31.6063,70.86616 -70.86614,70.86616 l -301.181108,0 C 32.606299,1051.3622 1,1019.7559 1,980.49604 L 1,679.31493 c 0,-39.25984 31.606299,-70.86614 70.866142,-70.86614 z"
         id="rect8361" />
    </g>
  </g>
</svg>
