  0
SECTION
  2
HEADER
  9
$ACADVER
  1
AC1014
  9
$HANDSEED
  5
FFFF
  9
$MEASUREMENT
 70
     1
  0
ENDSEC
  0
SECTION
  2
TABLES
  0
TABLE
  2
VPORT
  5
8
330
0
100
AcDbSymbolTable
 70
     4
  0
VPORT
  5
2E
330
8
100
AcDbSymbolTableRecord
100
AcDbViewportTableRecord
  2
*ACTIVE
 70
     0
 10
0.0
 20
0.0
 11
1.0
 21
1.0
 12
210.0
 22
148.5
 13
0.0
 23
0.0
 14
10.0
 24
10.0
 15
10.0
 25
10.0
 16
0.0
 26
0.0
 36
1.0
 17
0.0
 27
0.0
 37
0.0
 40
341.0
 41
1.24
 42
50.0
 43
0.0
 44
0.0
 50
0.0
 51
0.0
 71
     0
 72
   100
 73
     1
 74
     3
 75
     0
 76
     0
 77
     0
 78
     0
  0
ENDTAB
  0
TABLE
  2
LTYPE
  5
5
330
0
100
AcDbSymbolTable
 70
     1
  0
LTYPE
  5
14
330
5
100
AcDbSymbolTableRecord
100
AcDbLinetypeTableRecord
  2
BYBLOCK
 70
     0
  3

 72
    65
 73
     0
 40
0.0
  0
LTYPE
  5
15
330
5
100
AcDbSymbolTableRecord
100
AcDbLinetypeTableRecord
  2
BYLAYER
 70
     0
  3

 72
    65
 73
     0
 40
0.0
  0
LTYPE
  5
16
330
5
100
AcDbSymbolTableRecord
100
AcDbLinetypeTableRecord
  2
CONTINUOUS
 70
     0
  3
Solid line
 72
    65
 73
     0
 40
0.0
  0
ENDTAB
  0
TABLE
  2
LAYER
  5
2
100
AcDbSymbolTable
 70
3
  0
LAYER
  5
50
100
AcDbSymbolTableRecord
100
AcDbLayerTableRecord
  2
0
 70
0
  6
CONTINUOUS
  0
LAYER
  5
51
100
AcDbSymbolTableRecord
100
AcDbLayerTableRecord
  2
Back
 70
0
  6
CONTINUOUS
  0
LAYER
  5
52
100
AcDbSymbolTableRecord
100
AcDbLayerTableRecord
  2
Layer_1
 70
0
  6
CONTINUOUS
  0
ENDTAB
  0
TABLE
  2
STYLE
  5
3
330
0
100
AcDbSymbolTable
 70
     1
  0
STYLE
  5
11
330
3
100
AcDbSymbolTableRecord
100
AcDbTextStyleTableRecord
  2
STANDARD
 70
     0
 40
0.0
 41
1.0
 50
0.0
 71
     0
 42
2.5
  3
txt
  4

  0
ENDTAB
  0
TABLE
  2
VIEW
  5
6
330
0
100
AcDbSymbolTable
 70
     0
  0
ENDTAB
  0
TABLE
  2
UCS
  5
7
330
0
100
AcDbSymbolTable
 70
     0
  0
ENDTAB
  0
TABLE
  2
APPID
  5
9
330
0
100
AcDbSymbolTable
 70
     2
  0
APPID
  5
12
330
9
100
AcDbSymbolTableRecord
100
AcDbRegAppTableRecord
  2
ACAD
 70
     0
  0
ENDTAB
  0
TABLE
  2
DIMSTYLE
  5
A
330
0
100
AcDbSymbolTable
 70
     1
  0
DIMSTYLE
105
27
330
A
100
AcDbSymbolTableRecord
100
AcDbDimStyleTableRecord
  2
ISO-25
 70
     0
  3

  4

  5

  6

  7

 40
1.0
 41
2.5
 42
0.625
 43
3.75
 44
1.25
 45
0.0
 46
0.0
 47
0.0
 48
0.0
140
2.5
141
2.5
142
0.0
143
0.03937007874016
144
1.0
145
0.0
146
1.0
147
0.625
 71
     0
 72
     0
 73
     0
 74
     0
 75
     0
 76
     0
 77
     1
 78
     8
170
     0
171
     3
172
     1
173
     0
174
     0
175
     0
176
     0
177
     0
178
     0
270
     2
271
     2
272
     2
273
     2
274
     3
340
11
275
     0
280
     0
281
     0
282
     0
283
     0
284
     8
285
     0
286
     0
287
     3
288
     0
  0
ENDTAB
  0
TABLE
  2
BLOCK_RECORD
  5
1
330
0
100
AcDbSymbolTable
 70
     1
  0
BLOCK_RECORD
  5
1F
330
1
100
AcDbSymbolTableRecord
100
AcDbBlockTableRecord
  2
*MODEL_SPACE
  0
BLOCK_RECORD
  5
1B
330
1
100
AcDbSymbolTableRecord
100
AcDbBlockTableRecord
  2
*PAPER_SPACE
  0
ENDTAB
  0
ENDSEC
  0
SECTION
  2
BLOCKS
  0
BLOCK
  5
20
330
1F
100
AcDbEntity
  8
0
100
AcDbBlockBegin
  2
*MODEL_SPACE
 70
     0
 10
0.0
 20
0.0
 30
0.0
  3
*MODEL_SPACE
  1

  0
ENDBLK
  5
21
330
1F
100
AcDbEntity
  8
0
100
AcDbBlockEnd
  0
BLOCK
  5
1C
330
1B
100
AcDbEntity
 67
     1
  8
0
100
AcDbBlockBegin
  2
*PAPER_SPACE
  1

  0
ENDBLK
  5
1D
330
1B
100
AcDbEntity
 67
     1
  8
0
100
AcDbBlockEnd
  0
ENDSEC
  0
SECTION
  2
ENTITIES
  0
SPLINE
  5
100
100
AcDbEntity
  8
Back
 62
7
100
AcDbSpline
 70
0
 71
3
 72
16
 73
12
 74
10
 40
0.000000
 40
0.000000
 40
0.000000
 40
0.000000
 40
3.250107
 40
6.413185
 40
9.531442
 40
15.622968
 40
21.507283
 40
27.561974
 40
32.881824
 40
37.985769
 40
43.236072
 40
43.236072
 40
43.236072
 40
43.236072
 10
96.427457
 20
35.739963
 30
0.0
 10
95.375390
 20
36.006225
 30
0.0
 10
93.299428
 20
36.531620
 30
0.0
 10
90.400834
 20
37.879732
 30
0.0
 10
86.959638
 20
40.171295
 30
0.0
 10
83.419152
 20
43.862596
 30
0.0
 10
80.732315
 20
49.348551
 30
0.0
 10
79.935406
 20
55.136976
 30
0.0
 10
80.585593
 20
60.633910
 30
0.0
 10
82.543634
 20
65.584431
 30
0.0
 10
84.832486
 20
68.196232
 30
0.0
 10
85.993089
 20
69.520592
 30
0.0
 11
96.427457
 21
35.739963
 31
0.0
 11
93.303529
 21
36.636776
 31
0.0
 11
90.428592
 21
37.955790
 31
0.0
 11
87.832571
 21
39.683274
 31
0.0
 11
83.635607
 21
44.098268
 31
0.0
 11
81.055963
 21
49.386993
 31
0.0
 11
80.177457
 21
55.377612
 31
0.0
 11
80.826152
 21
60.657763
 31
0.0
 11
82.767210
 21
65.378203
 31
0.0
 11
85.993089
 21
69.520592
 31
0.0
  0
LWPOLYLINE
  5
101
100
AcDbEntity
  8
Back
 62
7
100
AcDbPolyline
 90
5
 70
1
 10
85.993089
 20
69.520592
 30
0.0
 10
87.114400
 20
70.636529
 30
0.0
 10
87.174485
 20
86.702961
 30
0.0
 10
87.234567
 20
102.769389
 30
0.0
 10
87.673643
 20
104.162554
 30
0.0
  0
SPLINE
  5
102
100
AcDbEntity
  8
Back
 62
7
100
AcDbSpline
 70
0
 71
3
 72
19
 73
15
 74
13
 40
0.000000
 40
0.000000
 40
0.000000
 40
0.000000
 40
4.538426
 40
8.893372
 40
13.380080
 40
15.778750
 40
18.830759
 40
21.212343
 40
23.275665
 40
25.267453
 40
27.442213
 40
30.708913
 40
33.796908
 40
37.061137
 40
37.061137
 40
37.061137
 40
37.061137
 10
87.673643
 20
104.162554
 30
0.0
 10
88.246774
 20
105.580102
 30
0.0
 10
89.369867
 20
108.357888
 30
0.0
 10
92.624450
 20
111.532410
 30
0.0
 10
95.980307
 20
113.421078
 30
0.0
 10
99.305909
 20
113.787813
 30
0.0
 10
101.910218
 20
113.747704
 30
0.0
 10
104.418980
 20
113.440094
 30
0.0
 10
106.377017
 20
112.511052
 30
0.0
 10
108.130855
 20
111.391800
 30
0.0
 10
109.974634
 20
109.723191
 30
0.0
 10
111.809284
 20
107.527645
 30
0.0
 10
113.188766
 20
104.572973
 30
0.0
 10
113.451468
 20
102.461336
 30
0.0
 10
113.586463
 20
101.376225
 30
0.0
 11
87.673643
 21
104.162554
 31
0.0
 11
89.663913
 21
108.241295
 31
0.0
 11
92.711051
 21
111.352646
 31
0.0
 11
96.709247
 21
113.388567
 31
0.0
 11
99.085002
 21
113.719341
 31
0.0
 11
102.136791
 21
113.682710
 31
0.0
 11
104.486639
 21
113.295214
 31
0.0
 11
106.374968
 21
112.463642
 31
0.0
 11
108.047470
 21
111.381996
 31
0.0
 11
109.675145
 21
109.939688
 31
0.0
 11
111.727348
 21
107.398075
 31
0.0
 11
113.010287
 21
104.589201
 31
0.0
 11
113.586463
 21
101.376225
 31
0.0
  0
LWPOLYLINE
  5
103
100
AcDbEntity
  8
Back
 62
7
100
AcDbPolyline
 90
5
 70
1
 10
113.586463
 20
101.376225
 30
0.0
 10
113.710692
 20
99.611548
 30
0.0
 10
116.780262
 20
99.518672
 30
0.0
 10
119.849829
 20
99.425795
 30
0.0
 10
120.302661
 20
98.904610
 30
0.0
  0
SPLINE
  5
104
100
AcDbEntity
  8
Back
 62
7
100
AcDbSpline
 70
0
 71
3
 72
13
 73
9
 74
7
 40
0.000000
 40
0.000000
 40
0.000000
 40
0.000000
 40
0.968099
 40
1.937942
 40
2.849585
 40
3.399038
 40
4.347028
 40
6.527356
 40
6.527356
 40
6.527356
 40
6.527356
 10
120.302661
 20
98.904610
 30
0.0
 10
120.473075
 20
98.624222
 30
0.0
 10
120.814210
 20
98.062941
 30
0.0
 10
120.797769
 20
97.063938
 30
0.0
 10
120.421515
 20
96.311856
 30
0.0
 10
119.747545
 20
95.819415
 30
0.0
 10
118.473398
 20
95.826561
 30
0.0
 10
117.443089
 20
95.813010
 30
0.0
 10
116.725000
 20
95.803566
 30
0.0
 11
120.302661
 21
98.904610
 31
0.0
 11
120.725982
 21
98.033969
 31
0.0
 11
120.722941
 21
97.064131
 31
0.0
 11
120.294363
 21
96.259510
 31
0.0
 11
119.845596
 21
95.942483
 31
0.0
 11
118.905248
 21
95.822364
 31
0.0
 11
116.725000
 21
95.803566
 31
0.0
  0
LWPOLYLINE
  5
105
100
AcDbEntity
  8
Back
 62
7
100
AcDbPolyline
 90
5
 70
1
 10
116.725000
 20
95.803566
 30
0.0
 10
113.616751
 20
95.803566
 30
0.0
 10
113.616751
 20
92.367093
 30
0.0
 10
113.616751
 20
88.930620
 30
0.0
 10
116.725000
 20
88.930620
 30
0.0
  0
SPLINE
  5
106
100
AcDbEntity
  8
Back
 62
7
100
AcDbSpline
 70
0
 71
3
 72
16
 73
12
 74
10
 40
0.000000
 40
0.000000
 40
0.000000
 40
0.000000
 40
2.180329
 40
3.128318
 40
3.677770
 40
4.596297
 40
5.630175
 40
6.572099
 40
7.067637
 40
8.021238
 40
10.212079
 40
10.212079
 40
10.212079
 40
10.212079
 10
116.725000
 20
88.930620
 30
0.0
 10
117.443555
 20
88.921523
 30
0.0
 10
118.474532
 20
88.908470
 30
0.0
 10
119.746083
 20
88.913676
 30
0.0
 10
120.427288
 20
88.423789
 30
0.0
 10
120.781610
 20
87.625084
 30
0.0
 10
120.807864
 20
86.651791
 30
0.0
 10
120.547449
 20
85.823161
 30
0.0
 10
119.894022
 20
85.305908
 30
0.0
 10
118.627552
 20
85.302560
 30
0.0
 10
117.594290
 20
85.251256
 30
0.0
 10
116.874380
 20
85.215511
 30
0.0
 11
116.725000
 21
88.930620
 31
0.0
 11
118.905248
 21
88.911820
 31
0.0
 11
119.845596
 21
88.791699
 31
0.0
 11
120.294363
 21
88.474673
 31
0.0
 11
120.707993
 21
87.654550
 31
0.0
 11
120.746784
 21
86.621399
 31
0.0
 11
120.396779
 21
85.746919
 31
0.0
 11
120.006551
 21
85.441501
 31
0.0
 11
119.063621
 21
85.299245
 31
0.0
 11
116.874380
 21
85.215511
 31
0.0
  0
LWPOLYLINE
  5
107
100
AcDbEntity
  8
Back
 62
7
100
AcDbPolyline
 90
5
 70
1
 10
116.874380
 20
85.215511
 30
0.0
 10
113.710680
 20
85.122635
 30
0.0
 10
113.668282
 20
81.845304
 30
0.0
 10
113.625884
 20
78.567973
 30
0.0
 10
114.272664
 20
78.447997
 30
0.0
  0
SPLINE
  5
108
100
AcDbEntity
  8
Back
 62
7
100
AcDbSpline
 70
0
 71
3
 72
22
 73
18
 74
16
 40
0.000000
 40
0.000000
 40
0.000000
 40
0.000000
 40
0.651411
 40
1.731450
 40
3.007849
 40
5.366611
 40
6.572822
 40
8.055898
 40
8.953000
 40
10.019600
 40
12.447596
 40
14.396077
 40
15.291855
 40
15.656454
 40
16.053717
 40
16.758843
 40
17.623892
 40
17.623892
 40
17.623892
 40
17.623892
 10
114.272664
 20
78.447997
 30
0.0
 10
114.488841
 20
78.426712
 30
0.0
 10
115.063441
 20
78.370137
 30
0.0
 10
116.066470
 20
78.358055
 30
0.0
 10
117.639953
 20
78.326388
 30
0.0
 10
119.241894
 20
78.516953
 30
0.0
 10
120.941094
 20
77.594308
 30
0.0
 10
120.731461
 20
76.270513
 30
0.0
 10
120.530044
 20
75.028615
 30
0.0
 10
118.854354
 20
74.771124
 30
0.0
 10
117.151566
 20
74.845419
 30
0.0
 10
115.374616
 20
74.765717
 30
0.0
 10
114.294945
 20
74.821249
 30
0.0
 10
113.771977
 20
74.512156
 30
0.0
 10
113.738549
 20
73.985512
 30
0.0
 10
113.651439
 20
73.353110
 30
0.0
 10
113.638519
 20
72.826152
 30
0.0
 10
113.631401
 20
72.535837
 30
0.0
 11
114.272664
 21
78.447997
 31
0.0
 11
114.921591
 21
78.391166
 31
0.0
 11
116.001106
 21
78.357508
 31
0.0
 11
117.277501
 21
78.354308
 31
0.0
 11
119.632183
 21
78.215640
 31
0.0
 11
120.634168
 21
77.544097
 31
0.0
 11
120.697224
 21
76.062362
 31
0.0
 11
120.407522
 21
75.213323
 31
0.0
 11
119.396179
 21
74.874475
 31
0.0
 11
116.968956
 21
74.813215
 31
0.0
 11
115.020579
 21
74.793082
 31
0.0
 11
114.129576
 21
74.700710
 31
0.0
 11
113.833354
 21
74.488143
 31
0.0
 11
113.742488
 21
74.101412
 31
0.0
 11
113.669934
 21
73.400028
 31
0.0
 11
113.631401
 21
72.535837
 31
0.0
  0
LWPOLYLINE
  5
109
100
AcDbEntity
  8
Back
 62
7
100
AcDbPolyline
 90
3
 70
1
 10
113.631401
 20
72.535837
 30
0.0
 10
113.601785
 20
70.908606
 30
0.0
 10
114.880675
 20
69.563752
 30
0.0
  0
SPLINE
  5
10a
100
AcDbEntity
  8
Back
 62
7
100
AcDbSpline
 70
0
 71
3
 72
19
 73
15
 74
13
 40
0.000000
 40
0.000000
 40
0.000000
 40
0.000000
 40
2.032260
 40
3.825633
 40
5.729602
 40
16.466062
 40
26.858573
 40
37.704783
 40
40.787314
 40
43.857885
 40
47.206190
 40
48.631446
 40
49.970324
 40
50.978398
 40
50.978398
 40
50.978398
 40
50.978398
 10
114.880675
 20
69.563752
 30
0.0
 10
115.342026
 20
69.067137
 30
0.0
 10
116.210498
 20
68.132282
 30
0.0
 10
117.344216
 20
66.589291
 30
0.0
 10
119.800068
 20
62.452917
 30
0.0
 10
121.723132
 20
54.574544
 30
0.0
 10
118.260595
 20
43.954987
 30
0.0
 10
111.824642
 20
38.339854
 30
0.0
 10
106.560746
 20
36.202283
 30
0.0
 10
103.445628
 20
35.542486
 30
0.0
 10
100.824761
 20
35.414590
 30
0.0
 10
98.788821
 20
35.484172
 30
0.0
 10
97.532677
 20
35.566334
 30
0.0
 10
96.759531
 20
35.687793
 30
0.0
 10
96.427445
 20
35.739963
 30
0.0
 11
114.880675
 21
69.563752
 31
0.0
 11
116.233266
 21
68.046986
 31
0.0
 11
117.298216
 21
66.604049
 31
0.0
 11
118.272405
 21
64.968183
 31
0.0
 11
120.705570
 21
54.511067
 31
0.0
 11
117.514725
 21
44.620526
 31
0.0
 11
109.389872
 21
37.435331
 31
0.0
 11
106.528929
 21
36.287725
 31
0.0
 11
103.527490
 21
35.639823
 31
0.0
 11
100.184670
 21
35.448264
 31
0.0
 11
98.760110
 21
35.492796
 31
0.0
 11
97.425249
 21
35.596431
 31
0.0
 11
96.427445
 21
35.739963
 31
0.0
  0
LWPOLYLINE
  5
10b
100
AcDbEntity
  8
Back
 62
7
100
AcDbPolyline
 90
2
 70
1
 10
96.427445
 20
35.739963
 30
0.0
 10
96.427457
 20
35.739963
 30
0.0
  0
SPLINE
  5
10c
100
AcDbEntity
  8
Back
 62
7
100
AcDbSpline
 70
0
 71
3
 72
16
 73
12
 74
10
 40
0.000000
 40
0.000000
 40
0.000000
 40
0.000000
 40
4.597304
 40
9.106430
 40
13.675527
 40
17.907992
 40
22.224441
 40
26.462772
 40
29.326752
 40
32.316810
 40
35.060426
 40
35.060426
 40
35.060426
 40
35.060426
 10
104.285954
 20
40.266243
 30
0.0
 10
105.744809
 20
40.769439
 30
0.0
 10
108.634539
 20
41.766178
 30
0.0
 10
112.214879
 20
44.729517
 30
0.0
 10
114.811183
 20
48.394024
 30
0.0
 10
116.178178
 20
52.614953
 30
0.0
 10
116.359913
 20
56.915598
 30
0.0
 10
115.536254
 20
60.696923
 30
0.0
 10
113.928455
 20
63.670279
 30
0.0
 10
112.223153
 20
65.998922
 30
0.0
 10
110.770464
 20
67.249146
 30
0.0
 10
110.075339
 20
67.847389
 30
0.0
 11
104.285954
 21
40.266243
 31
0.0
 11
108.533658
 21
42.024711
 31
0.0
 11
112.049675
 21
44.847803
 31
0.0
 11
114.661363
 21
48.596901
 31
0.0
 11
115.980846
 21
52.618433
 31
0.0
 11
116.172971
 21
56.930605
 31
0.0
 11
115.216630
 21
61.059631
 31
0.0
 11
113.893844
 21
63.599832
 31
0.0
 11
112.088487
 21
65.983344
 31
0.0
 11
110.075339
 21
67.847389
 31
0.0
  0
LWPOLYLINE
  5
10d
100
AcDbEntity
  8
Back
 62
7
100
AcDbPolyline
 90
3
 70
1
 10
110.075339
 20
67.847389
 30
0.0
 10
109.314437
 20
68.404657
 30
0.0
 10
109.251869
 20
85.215511
 30
0.0
  0
SPLINE
  5
10e
100
AcDbEntity
  8
Back
 62
7
100
AcDbSpline
 70
0
 71
3
 72
19
 73
15
 74
13
 40
0.000000
 40
0.000000
 40
0.000000
 40
0.000000
 40
10.243816
 40
15.657211
 40
17.560976
 40
21.221173
 40
24.647648
 40
28.040107
 40
31.894627
 40
35.778555
 40
39.940056
 40
41.354992
 40
46.057816
 40
57.929042
 40
57.929042
 40
57.929042
 40
57.929042
 10
109.251869
 20
85.215511
 30
0.0
 10
109.245003
 20
88.634680
 30
0.0
 10
109.234509
 20
93.860725
 30
0.0
 10
109.122638
 20
99.685893
 30
0.0
 10
109.048955
 20
103.386568
 30
0.0
 10
107.411792
 20
106.071643
 30
0.0
 10
104.831870
 20
108.481928
 30
0.0
 10
101.372218
 20
109.702249
 30
0.0
 10
97.523987
 20
109.313868
 30
0.0
 10
94.150073
 20
107.048961
 30
0.0
 10
92.241097
 20
104.347172
 30
0.0
 10
91.630285
 20
100.953241
 30
0.0
 10
91.835330
 20
94.936418
 30
0.0
 10
91.744365
 20
89.417726
 30
0.0
 10
91.679212
 20
85.464942
 30
0.0
 11
109.251869
 21
85.215511
 31
0.0
 11
109.193069
 21
95.459158
 31
0.0
 11
109.098911
 21
100.871734
 31
0.0
 11
108.946498
 21
102.769389
 31
0.0
 11
107.248061
 21
106.011665
 31
0.0
 11
104.689300
 21
108.290583
 31
0.0
 11
101.487704
 21
109.412440
 31
0.0
 11
97.653577
 21
109.016465
 31
0.0
 11
94.382025
 21
106.923180
 31
0.0
 11
92.129003
 21
103.424325
 31
0.0
 11
91.848833
 21
102.037405
 31
0.0
 11
91.731088
 21
97.336055
 31
0.0
 11
91.679212
 21
85.464942
 31
0.0
  0
LWPOLYLINE
  5
10f
100
AcDbEntity
  8
Back
 62
7
100
AcDbPolyline
 90
3
 70
1
 10
91.679212
 20
85.464942
 30
0.0
 10
91.627500
 20
68.532004
 30
0.0
 10
90.364183
 20
67.492904
 30
0.0
  0
SPLINE
  5
110
100
AcDbEntity
  8
Back
 62
7
100
AcDbSpline
 70
0
 71
3
 72
19
 73
15
 74
13
 40
0.000000
 40
0.000000
 40
0.000000
 40
0.000000
 40
1.372047
 40
2.375003
 40
3.904177
 40
7.186799
 40
10.442153
 40
13.836144
 40
18.000003
 40
22.022002
 40
26.316802
 40
31.703622
 40
36.973917
 40
42.279054
 40
42.279054
 40
42.279054
 40
42.279054
 10
90.364183
 20
67.492904
 30
0.0
 10
90.006081
 20
67.207431
 30
0.0
 10
89.386209
 20
66.713279
 30
0.0
 10
88.492423
 20
65.762630
 30
0.0
 10
87.317868
 20
64.220447
 30
0.0
 10
85.858343
 20
61.939873
 30
0.0
 10
84.831969
 20
58.754416
 30
0.0
 10
84.486052
 20
55.147886
 30
0.0
 10
84.929298
 20
51.263808
 30
0.0
 10
86.628981
 20
47.400755
 30
0.0
 10
89.578041
 20
43.844765
 30
0.0
 10
93.734451
 20
40.971974
 30
0.0
 10
99.001874
 20
39.458949
 30
0.0
 10
102.520730
 20
39.996555
 30
0.0
 10
104.285954
 20
40.266243
 30
0.0
 11
90.364183
 21
67.492904
 31
0.0
 11
89.315295
 21
66.608400
 31
0.0
 11
88.623591
 21
65.882131
 31
0.0
 11
87.682299
 21
64.677001
 31
0.0
 11
85.981276
 21
61.869487
 31
0.0
 11
84.960009
 21
58.778477
 31
0.0
 11
84.617777
 21
55.401784
 31
0.0
 11
85.142098
 21
51.271069
 31
0.0
 11
86.745521
 21
47.582504
 31
0.0
 11
89.462647
 21
44.256465
 31
0.0
 11
93.908452
 21
41.214649
 31
0.0
 11
98.997589
 21
39.844725
 31
0.0
 11
104.285954
 21
40.266243
 31
0.0
  0
LWPOLYLINE
  5
111
100
AcDbEntity
  8
Back
 62
7
100
AcDbPolyline
 90
2
 70
1
 10
104.285954
 20
40.266243
 30
0.0
 10
104.285954
 20
40.266243
 30
0.0
  0
SPLINE
  5
112
100
AcDbEntity
  8
Back
 62
7
100
AcDbSpline
 70
0
 71
3
 72
22
 73
18
 74
16
 40
0.000000
 40
0.000000
 40
0.000000
 40
0.000000
 40
4.042982
 40
8.074132
 40
12.140202
 40
13.292937
 40
14.410871
 40
16.153290
 40
17.888697
 40
18.996404
 40
20.114108
 40
21.021434
 40
21.977403
 40
22.777338
 40
24.621303
 40
26.758960
 40
28.639696
 40
28.639696
 40
28.639696
 40
28.639696
 10
97.313321
 20
43.609786
 30
0.0
 10
96.037916
 20
44.079050
 30
0.0
 10
93.490840
 20
45.016205
 30
0.0
 10
90.469836
 20
47.872596
 30
0.0
 10
88.975633
 20
50.611898
 30
0.0
 10
88.304428
 20
52.623332
 30
0.0
 10
88.158344
 20
53.960424
 30
0.0
 10
88.179794
 20
55.492401
 30
0.0
 10
88.168398
 20
57.020559
 30
0.0
 10
88.314404
 20
58.340422
 30
0.0
 10
88.659694
 20
59.331350
 30
0.0
 10
89.031527
 20
60.252272
 30
0.0
 10
89.406149
 20
61.057193
 30
0.0
 10
89.953655
 20
62.127780
 30
0.0
 10
90.970750
 20
63.369449
 30
0.0
 10
92.340386
 20
64.771137
 30
0.0
 10
93.436328
 20
65.545996
 30
0.0
 10
93.949263
 20
65.908655
 30
0.0
 11
97.313321
 21
43.609786
 31
0.0
 11
93.621973
 21
45.258923
 31
0.0
 11
90.653740
 21
47.986516
 31
0.0
 11
88.681204
 21
51.542079
 31
0.0
 11
88.341425
 21
52.643600
 31
0.0
 11
88.199021
 21
53.752428
 31
0.0
 11
88.173583
 21
55.494661
 31
0.0
 11
88.208518
 21
57.229715
 31
0.0
 11
88.354482
 21
58.327764
 31
0.0
 11
88.691836
 21
59.393341
 31
0.0
 11
89.032498
 21
60.234287
 31
0.0
 11
89.434044
 21
61.101833
 31
0.0
 11
89.809540
 21
61.808161
 31
0.0
 11
90.926143
 21
63.275609
 31
0.0
 11
92.444873
 21
64.779949
 31
0.0
 11
93.949263
 21
65.908655
 31
0.0
  0
LWPOLYLINE
  5
113
100
AcDbEntity
  8
Back
 62
7
100
AcDbPolyline
 90
5
 70
1
 10
93.949263
 20
65.908655
 30
0.0
 10
95.007622
 20
66.534590
 30
0.0
 10
95.060022
 20
84.094725
 30
0.0
 10
95.112428
 20
101.654857
 30
0.0
 10
95.639215
 20
102.769389
 30
0.0
  0
SPLINE
  5
114
100
AcDbEntity
  8
Back
 62
7
100
AcDbSpline
 70
0
 71
3
 72
16
 73
12
 74
10
 40
0.000000
 40
0.000000
 40
0.000000
 40
0.000000
 40
1.438929
 40
2.708776
 40
3.995845
 40
6.870317
 40
9.681896
 40
12.693621
 40
14.352011
 40
19.540287
 40
31.019818
 40
31.019818
 40
31.019818
 40
31.019818
 10
95.639215
 20
102.769389
 30
0.0
 10
95.861574
 20
103.196577
 30
0.0
 10
96.280161
 20
104.000755
 30
0.0
 10
97.221542
 20
104.972769
 30
0.0
 10
98.792908
 20
105.896648
 30
0.0
 10
101.243643
 20
106.248077
 30
0.0
 10
103.955771
 20
104.913720
 30
0.0
 10
105.508589
 20
102.734482
 30
0.0
 10
105.696927
 20
99.415195
 30
0.0
 10
105.715426
 20
93.333235
 30
0.0
 10
105.722036
 20
87.770053
 30
0.0
 10
105.726588
 20
83.938552
 30
0.0
 11
95.639215
 21
102.769389
 31
0.0
 11
96.368250
 21
104.009964
 31
0.0
 11
97.251364
 21
104.922443
 31
0.0
 11
98.358390
 21
105.578982
 31
0.0
 11
101.208151
 21
105.955082
 31
0.0
 11
103.751819
 21
104.757280
 31
0.0
 11
105.423468
 21
102.252070
 31
0.0
 11
105.622222
 21
100.605633
 31
0.0
 11
105.708085
 21
95.418068
 31
0.0
 11
105.726588
 21
83.938552
 31
0.0
  0
LWPOLYLINE
  5
115
100
AcDbEntity
  8
Back
 62
7
100
AcDbPolyline
 90
3
 70
1
 10
105.726588
 20
83.938552
 30
0.0
 10
105.726588
 20
66.513858
 30
0.0
 10
106.202946
 20
66.299248
 30
0.0
  0
SPLINE
  5
116
100
AcDbEntity
  8
Back
 62
7
100
AcDbSpline
 70
0
 71
3
 72
16
 73
12
 74
10
 40
0.000000
 40
0.000000
 40
0.000000
 40
0.000000
 40
2.327826
 40
5.055533
 40
7.532265
 40
12.131324
 40
16.477229
 40
21.073371
 40
25.855842
 40
30.699676
 40
35.592265
 40
35.592265
 40
35.592265
 40
35.592265
 10
106.202946
 20
66.299248
 30
0.0
 10
106.866841
 20
65.892618
 30
0.0
 10
108.308676
 20
65.009507
 30
0.0
 10
110.059681
 20
63.174360
 30
0.0
 10
111.931412
 20
60.478886
 30
0.0
 10
113.011980
 20
56.707644
 30
0.0
 10
112.626646
 20
52.119999
 30
0.0
 10
110.532639
 20
47.919061
 30
0.0
 10
106.928107
 20
44.689856
 30
0.0
 10
102.206212
 20
42.968100
 30
0.0
 10
98.949720
 20
43.395178
 30
0.0
 10
97.313321
 20
43.609786
 30
0.0
 11
106.202946
 21
66.299248
 31
0.0
 11
108.138109
 21
65.005448
 31
0.0
 11
110.058634
 21
63.068449
 31
0.0
 11
111.442706
 21
61.014538
 31
0.0
 11
112.744933
 21
56.603694
 31
0.0
 11
112.371613
 21
52.273853
 31
0.0
 11
110.333877
 21
48.154126
 31
0.0
 11
106.773099
 21
44.961495
 31
0.0
 11
102.199800
 21
43.365355
 31
0.0
 11
97.313321
 21
43.609786
 31
0.0
  0
LWPOLYLINE
  5
117
100
AcDbEntity
  8
Back
 62
7
100
AcDbPolyline
 90
2
 70
1
 10
97.313321
 20
43.609786
 30
0.0
 10
97.313321
 20
43.609786
 30
0.0
  0
SPLINE
  5
118
100
AcDbEntity
  8
Back
 62
7
100
AcDbSpline
 70
0
 71
3
 72
25
 73
21
 74
19
 40
0.000000
 40
0.000000
 40
0.000000
 40
0.000000
 40
1.194071
 40
2.381611
 40
3.366926
 40
4.929502
 40
6.872534
 40
9.425935
 40
11.773284
 40
14.401656
 40
15.845125
 40
15.934062
 40
16.113506
 40
16.361531
 40
18.894000
 40
21.093335
 40
23.044848
 40
25.727590
 40
27.645790
 40
29.428283
 40
29.428283
 40
29.428283
 40
29.428283
 10
82.964680
 20
175.783778
 30
0.0
 10
82.602860
 20
175.954162
 30
0.0
 10
81.881197
 20
176.293999
 30
0.0
 10
81.027582
 20
177.036130
 30
0.0
 10
80.265527
 20
178.061297
 30
0.0
 10
80.279543
 20
179.682045
 30
0.0
 10
81.352713
 20
181.454534
 30
0.0
 10
83.013665
 20
182.992946
 30
0.0
 10
85.139301
 20
184.538763
 30
0.0
 10
86.842764
 20
185.137106
 30
0.0
 10
88.256522
 20
186.703878
 30
0.0
 10
88.669714
 20
186.269197
 30
0.0
 10
88.672355
 20
186.085965
 30
0.0
 10
88.653723
 20
185.115436
 30
0.0
 10
88.404004
 20
183.450419
 30
0.0
 10
88.032451
 20
181.261061
 30
0.0
 10
87.411132
 20
179.058367
 30
0.0
 10
86.570708
 20
177.057359
 30
0.0
 10
84.859424
 20
175.439455
 30
0.0
 10
83.580630
 20
175.671844
 30
0.0
 10
82.964680
 20
175.783778
 30
0.0
 11
82.964680
 21
175.783778
 31
0.0
 11
81.908844
 21
176.341464
 31
0.0
 11
81.008454
 21
177.115769
 31
0.0
 11
80.462216
 21
177.935812
 31
0.0
 11
80.399545
 21
179.497131
 31
0.0
 11
81.299664
 21
181.219094
 31
0.0
 11
83.116392
 21
183.013351
 31
0.0
 11
85.041190
 21
184.356928
 31
0.0
 11
87.283450
 21
185.728281
 31
0.0
 11
88.582960
 21
186.356674
 31
0.0
 11
88.640905
 21
186.289206
 31
0.0
 11
88.671145
 21
186.112328
 31
0.0
 11
88.667133
 21
185.864335
 31
0.0
 11
88.379915
 21
183.348206
 31
0.0
 11
87.977506
 21
181.185998
 31
0.0
 11
87.446931
 21
179.307997
 31
0.0
 11
86.253929
 21
176.905113
 31
0.0
 11
84.746014
 21
175.719497
 31
0.0
 11
82.964680
 21
175.783778
 31
0.0
  0
LWPOLYLINE
  5
119
100
AcDbEntity
  8
Back
 62
7
100
AcDbPolyline
 90
2
 70
1
 10
82.964680
 20
175.783778
 30
0.0
 10
82.964680
 20
175.783778
 30
0.0
  0
SPLINE
  5
11a
100
AcDbEntity
  8
Back
 62
7
100
AcDbSpline
 70
0
 71
3
 72
28
 73
24
 74
22
 40
0.000000
 40
0.000000
 40
0.000000
 40
0.000000
 40
0.348072
 40
0.787424
 40
1.224971
 40
4.003478
 40
6.933644
 40
11.789653
 40
12.474740
 40
12.974848
 40
13.182019
 40
13.368227
 40
13.812069
 40
14.417742
 40
15.031399
 40
15.496430
 40
15.713336
 40
16.351810
 40
17.864352
 40
19.660056
 40
24.069499
 40
26.936973
 40
29.197130
 40
29.197130
 40
29.197130
 40
29.197130
 10
115.305947
 20
175.768876
 30
0.0
 10
115.199111
 20
175.814190
 30
0.0
 10
114.957420
 20
175.916701
 30
0.0
 10
114.600101
 20
176.117697
 30
0.0
 10
113.571560
 20
176.750706
 30
0.0
 10
111.991143
 20
178.639125
 30
0.0
 10
113.999497
 20
182.155862
 30
0.0
 10
116.286530
 20
183.697977
 30
0.0
 10
117.988118
 20
184.779953
 30
0.0
 10
118.380458
 20
185.027614
 30
0.0
 10
118.639861
 20
185.174528
 30
0.0
 10
118.894222
 20
185.289701
 30
0.0
 10
119.252154
 20
185.495921
 30
0.0
 10
119.732845
 20
185.763388
 30
0.0
 10
120.233212
 20
186.049786
 30
0.0
 10
120.590111
 20
186.222039
 30
0.0
 10
121.058475
 20
186.478111
 30
0.0
 10
120.853787
 20
185.186504
 30
0.0
 10
120.866966
 20
184.219229
 30
0.0
 10
120.425746
 20
181.479277
 30
0.0
 10
119.763598
 20
178.750653
 30
0.0
 10
117.940047
 20
175.577564
 30
0.0
 10
116.111801
 20
175.710348
 30
0.0
 10
115.305947
 20
175.768876
 30
0.0
 11
115.305947
 21
175.768876
 31
0.0
 11
114.987783
 21
175.910033
 31
0.0
 11
114.601846
 21
176.119994
 31
0.0
 11
114.231691
 21
176.353302
 31
0.0
 11
112.634960
 21
178.627186
 31
0.0
 11
113.721471
 21
181.348466
 31
0.0
 11
117.462317
 21
184.444737
 31
0.0
 11
118.040266
 21
184.812596
 31
0.0
 11
118.466024
 21
185.074965
 31
0.0
 11
118.647419
 21
185.175044
 31
0.0
 11
118.815170
 21
185.255873
 31
0.0
 11
119.205160
 21
185.467775
 31
0.0
 11
119.732958
 21
185.764877
 31
0.0
 11
120.269825
 21
186.062112
 31
0.0
 11
120.683591
 21
186.274366
 31
0.0
 11
120.884676
 21
186.355687
 31
0.0
 11
120.946358
 21
185.720200
 31
0.0
 11
120.824176
 21
184.212601
 31
0.0
 11
120.566956
 21
182.435414
 31
0.0
 11
119.335179
 21
178.201514
 31
0.0
 11
117.558791
 21
175.950547
 31
0.0
 11
115.305947
 21
175.768876
 31
0.0
  0
LWPOLYLINE
  5
11b
100
AcDbEntity
  8
Back
 62
7
100
AcDbPolyline
 90
2
 70
1
 10
115.305947
 20
175.768876
 30
0.0
 10
115.305947
 20
175.768876
 30
0.0
  0
SPLINE
  5
11c
100
AcDbEntity
  8
Back
 62
7
100
AcDbSpline
 70
0
 71
3
 72
25
 73
21
 74
19
 40
0.000000
 40
0.000000
 40
0.000000
 40
0.000000
 40
1.028651
 40
2.072552
 40
3.289460
 40
7.459004
 40
11.928212
 40
19.066275
 40
22.100972
 40
25.437662
 40
27.182616
 40
28.746161
 40
32.218017
 40
35.732310
 40
40.156657
 40
43.638787
 40
46.209530
 40
47.251263
 40
48.285027
 40
49.297474
 40
49.297474
 40
49.297474
 40
49.297474
 10
99.999998
 20
179.313494
 30
0.0
 10
99.670298
 20
179.409992
 30
0.0
 10
99.006011
 20
179.604417
 30
0.0
 10
98.030802
 20
180.125080
 30
0.0
 10
96.269192
 20
181.301747
 30
0.0
 10
93.934175
 20
184.352066
 30
0.0
 10
96.765480
 20
189.629983
 30
0.0
 10
100.538895
 20
192.434094
 30
0.0
 10
104.500512
 20
195.002157
 30
0.0
 10
106.501186
 20
195.881901
 30
0.0
 10
109.182012
 20
197.920986
 30
0.0
 10
108.607070
 20
194.676215
 30
0.0
 10
108.445626
 20
192.360650
 30
0.0
 10
107.743935
 20
188.428890
 30
0.0
 10
106.704367
 20
184.809900
 30
0.0
 10
105.189361
 20
181.640018
 30
0.0
 10
103.509946
 20
179.835216
 30
0.0
 10
102.043028
 20
179.288226
 30
0.0
 10
101.010155
 20
179.138767
 30
0.0
 10
100.334370
 20
179.255658
 30
0.0
 10
99.999998
 20
179.313494
 30
0.0
 11
99.999998
 21
179.313494
 31
0.0
 11
99.023179
 21
179.635902
 31
0.0
 11
98.092944
 21
180.109604
 31
0.0
 11
97.088254
 21
180.796236
 31
0.0
 11
94.843120
 21
184.309706
 31
0.0
 11
96.421185
 21
188.491037
 31
0.0
 11
101.774368
 21
193.212834
 31
0.0
 11
104.344382
 21
194.826655
 31
0.0
 11
107.237357
 21
196.489242
 31
0.0
 11
108.805881
 21
197.253830
 31
0.0
 11
108.800886
 21
195.690293
 31
0.0
 11
108.372905
 21
192.244917
 31
0.0
 11
107.753960
 21
188.785558
 31
0.0
 11
106.485960
 21
184.546806
 31
0.0
 11
104.873043
 21
181.460751
 31
0.0
 11
103.003471
 21
179.696264
 31
0.0
 11
102.030701
 21
179.323536
 31
0.0
 11
101.005231
 21
179.192848
 31
0.0
 11
99.999998
 21
179.313494
 31
0.0
  0
LWPOLYLINE
  5
11d
100
AcDbEntity
  8
Back
 62
7
100
AcDbPolyline
 90
2
 70
1
 10
99.999998
 20
179.313494
 30
0.0
 10
99.999998
 20
179.313494
 30
0.0
  0
SPLINE
  5
11e
100
AcDbEntity
  8
Back
 62
7
100
AcDbSpline
 70
0
 71
3
 72
34
 73
30
 74
28
 40
0.000000
 40
0.000000
 40
0.000000
 40
0.000000
 40
1.814006
 40
3.730193
 40
5.490573
 40
11.147434
 40
16.657033
 40
22.286819
 40
23.582731
 40
24.685543
 40
25.986317
 40
27.758809
 40
29.538741
 40
31.419066
 40
31.685298
 40
32.050887
 40
32.747955
 40
35.274627
 40
38.049732
 40
40.730725
 40
47.054118
 40
53.279421
 40
59.579270
 40
61.223809
 40
63.079753
 40
64.591533
 40
66.956194
 40
69.400885
 40
71.525769
 40
71.525769
 40
71.525769
 40
71.525769
 10
90.470973
 20
188.286329
 30
0.0
 10
89.881039
 20
188.423367
 30
0.0
 10
88.667942
 20
188.705160
 30
0.0
 10
86.978990
 20
189.434616
 30
0.0
 10
84.297378
 20
191.028231
 30
0.0
 10
81.507363
 20
194.599749
 30
0.0
 10
80.446181
 20
200.318428
 30
0.0
 10
81.878535
 20
204.414666
 30
0.0
 10
83.408090
 20
206.612250
 30
0.0
 10
84.239568
 20
207.528330
 30
0.0
 10
85.309389
 20
208.424351
 30
0.0
 10
86.640903
 20
209.342462
 30
0.0
 10
88.298767
 20
210.137419
 30
0.0
 10
89.560390
 20
210.378739
 30
0.0
 10
90.383778
 20
210.669557
 30
0.0
 10
90.566069
 20
211.109752
 30
0.0
 10
90.889492
 20
212.232954
 30
0.0
 10
91.654439
 20
214.114772
 30
0.0
 10
93.010888
 20
216.403994
 30
0.0
 10
95.437615
 20
219.508061
 30
0.0
 10
99.618504
 20
222.604442
 30
0.0
 10
105.729432
 20
224.458828
 30
0.0
 10
110.573778
 20
224.246374
 30
0.0
 10
113.699371
 20
223.286093
 30
0.0
 10
115.261619
 20
222.693014
 30
0.0
 10
117.004357
 20
221.896903
 30
0.0
 10
118.731416
 20
220.675138
 30
0.0
 10
120.533614
 20
219.218234
 30
0.0
 10
121.543050
 20
218.074073
 30
0.0
 10
122.012445
 20
217.542029
 30
0.0
 11
90.470973
 21
188.286329
 31
0.0
 11
88.716699
 21
188.747999
 31
0.0
 11
86.951332
 21
189.493153
 31
0.0
 11
85.446751
 21
190.407032
 31
0.0
 11
81.913037
 21
194.824377
 31
0.0
 11
80.939830
 21
200.247342
 31
0.0
 11
82.722472
 21
205.587443
 31
0.0
 11
83.468850
 21
206.646833
 31
0.0
 11
84.210975
 21
207.462580
 31
0.0
 11
85.198554
 21
208.309163
 31
0.0
 11
86.666104
 21
209.303159
 31
0.0
 11
88.282109
 21
210.049271
 31
0.0
 11
90.089643
 21
210.567387
 31
0.0
 11
90.329832
 21
210.682228
 31
0.0
 11
90.514678
 21
210.997645
 31
0.0
 11
90.730270
 21
211.660535
 31
0.0
 11
91.673823
 21
214.004417
 31
0.0
 11
93.077821
 21
216.398157
 31
0.0
 11
94.741921
 21
218.500180
 31
0.0
 11
99.803765
 21
222.290039
 31
0.0
 11
105.759932
 21
224.100691
 31
0.0
 11
112.050669
 21
223.761973
 31
0.0
 11
113.626353
 21
223.291092
 31
0.0
 11
115.361046
 21
222.631268
 31
0.0
 11
116.726911
 21
221.983276
 31
0.0
 11
118.694062
 21
220.671050
 31
0.0
 11
120.565730
 21
219.098355
 31
0.0
 11
122.012445
 21
217.542029
 31
0.0
  0
LWPOLYLINE
  5
11f
100
AcDbEntity
  8
Back
 62
7
100
AcDbPolyline
 90
3
 70
1
 10
122.012445
 20
217.542029
 30
0.0
 10
122.575046
 20
216.813594
 30
0.0
 10
123.981422
 20
216.898916
 30
0.0
  0
SPLINE
  5
120
100
AcDbEntity
  8
Back
 62
7
100
AcDbSpline
 70
0
 71
3
 72
19
 73
15
 74
13
 40
0.000000
 40
0.000000
 40
0.000000
 40
0.000000
 40
5.384658
 40
10.724974
 40
16.195713
 40
20.063970
 40
24.002551
 40
27.883278
 40
33.097909
 40
38.243407
 40
43.377851
 40
44.799668
 40
47.630407
 40
52.433946
 40
52.433946
 40
52.433946
 40
52.433946
 10
123.981422
 20
216.898916
 30
0.0
 10
125.796685
 20
216.803027
 30
0.0
 10
129.412262
 20
216.612039
 30
0.0
 10
134.221526
 20
213.773100
 30
0.0
 10
137.415267
 20
209.930813
 30
0.0
 10
138.946505
 20
205.714804
 30
0.0
 10
139.274781
 20
201.789368
 30
0.0
 10
138.497908
 20
197.460525
 30
0.0
 10
136.088978
 20
193.229089
 30
0.0
 10
132.080497
 20
189.843745
 30
0.0
 10
128.316232
 20
188.416389
 30
0.0
 10
125.188337
 20
188.233691
 30
0.0
 10
122.170214
 20
188.202673
 30
0.0
 10
119.625345
 20
188.198379
 30
0.0
 10
118.024097
 20
188.195677
 30
0.0
 11
123.981422
 21
216.898916
 31
0.0
 11
129.318610
 21
216.185503
 31
0.0
 11
133.973400
 21
213.567888
 31
0.0
 11
137.436256
 21
209.332606
 31
0.0
 11
138.771186
 21
205.701990
 31
0.0
 11
139.102438
 21
201.777363
 31
0.0
 11
138.396018
 21
197.961474
 31
0.0
 11
135.842251
 21
193.414975
 31
0.0
 11
131.915428
 21
190.089887
 31
0.0
 11
127.075571
 21
188.375740
 31
0.0
 11
125.657785
 21
188.268737
 31
0.0
 11
122.827606
 21
188.212435
 31
0.0
 11
118.024097
 21
188.195677
 31
0.0
  0
LWPOLYLINE
  5
121
100
AcDbEntity
  8
Back
 62
7
100
AcDbPolyline
 90
3
 70
1
 10
118.024097
 20
188.195677
 30
0.0
 10
110.155538
 20
188.194830
 30
0.0
 10
110.233358
 20
188.490235
 30
0.0
  0
SPLINE
  5
122
100
AcDbEntity
  8
Back
 62
7
100
AcDbSpline
 70
0
 71
3
 72
13
 73
9
 74
7
 40
0.000000
 40
0.000000
 40
0.000000
 40
0.000000
 40
0.390413
 40
1.120980
 40
2.033689
 40
2.945921
 40
3.675184
 40
4.063609
 40
4.063609
 40
4.063609
 40
4.063609
 10
110.233358
 20
188.490235
 30
0.0
 10
110.259631
 20
188.617699
 30
0.0
 10
110.335066
 20
188.983684
 30
0.0
 10
110.448900
 20
189.652064
 30
0.0
 10
110.589729
 20
190.492139
 30
0.0
 10
110.726563
 20
191.332483
 30
0.0
 10
110.836865
 20
192.000079
 30
0.0
 10
110.901060
 20
192.367071
 30
0.0
 10
110.923369
 20
192.494610
 30
0.0
 11
110.233358
 21
188.490235
 31
0.0
 11
110.310636
 21
188.872923
 31
0.0
 11
110.438423
 21
189.592227
 31
0.0
 11
110.589054
 21
190.492421
 31
0.0
 11
110.736754
 21
191.392617
 31
0.0
 11
110.856859
 21
192.111921
 31
0.0
 11
110.923369
 21
192.494610
 31
0.0
  0
LWPOLYLINE
  5
123
100
AcDbEntity
  8
Back
 62
7
100
AcDbPolyline
 90
3
 70
1
 10
110.923369
 20
192.494610
 30
0.0
 10
110.979814
 20
192.790015
 30
0.0
 10
118.148190
 20
192.790015
 30
0.0
  0
SPLINE
  5
124
100
AcDbEntity
  8
Back
 62
7
100
AcDbSpline
 70
0
 71
3
 72
19
 73
15
 74
13
 40
0.000000
 40
0.000000
 40
0.000000
 40
0.000000
 40
3.995141
 40
6.756063
 40
8.116325
 40
12.104844
 40
16.087176
 40
20.049743
 40
25.722507
 40
31.175744
 40
36.820337
 40
37.916993
 40
38.855785
 40
40.261263
 40
40.261263
 40
40.261263
 40
40.261263
 10
118.148190
 20
192.790015
 30
0.0
 10
119.480251
 20
192.791096
 30
0.0
 10
121.732860
 20
192.792925
 30
0.0
 10
124.435300
 20
192.842568
 30
0.0
 10
127.144787
 20
192.914559
 30
0.0
 10
130.130466
 20
194.165712
 30
0.0
 10
133.055567
 20
196.982086
 30
0.0
 10
134.866265
 20
201.294870
 30
0.0
 10
134.208416
 20
206.594597
 30
0.0
 10
130.447837
 20
211.153318
 30
0.0
 10
126.290580
 20
212.301884
 30
0.0
 10
123.729769
 20
212.261469
 30
0.0
 10
122.594418
 20
212.072288
 30
0.0
 10
121.844090
 20
211.852480
 30
0.0
 10
121.394240
 20
211.720697
 30
0.0
 11
118.148190
 21
192.790015
 31
0.0
 11
122.143294
 21
192.807070
 31
0.0
 11
124.903779
 21
192.856241
 31
0.0
 11
126.261786
 21
192.934541
 31
0.0
 11
129.983056
 21
194.369961
 31
0.0
 11
132.836544
 21
197.147834
 31
0.0
 11
134.351130
 21
200.809523
 31
0.0
 11
133.676379
 21
206.442014
 31
0.0
 11
130.178100
 21
210.625295
 31
0.0
 11
124.775462
 21
212.260210
 31
0.0
 11
123.679189
 21
212.231263
 31
0.0
 11
122.752120
 21
212.083365
 31
0.0
 11
121.394240
 21
211.720697
 31
0.0
  0
LWPOLYLINE
  5
125
100
AcDbEntity
  8
Back
 62
7
100
AcDbPolyline
 90
3
 70
1
 10
121.394240
 20
211.720697
 30
0.0
 10
120.444562
 20
211.451855
 30
0.0
 10
119.761979
 20
212.580670
 30
0.0
  0
SPLINE
  5
126
100
AcDbEntity
  8
Back
 62
7
100
AcDbSpline
 70
0
 71
3
 72
22
 73
18
 74
16
 40
0.000000
 40
0.000000
 40
0.000000
 40
0.000000
 40
3.574314
 40
6.890169
 40
10.284042
 40
11.782467
 40
13.257811
 40
15.024072
 40
16.140381
 40
17.047246
 40
17.811901
 40
21.700316
 40
25.517106
 40
29.347051
 40
30.754939
 40
32.069997
 40
33.742234
 40
33.742234
 40
33.742234
 40
33.742234
 10
119.761979
 20
212.580670
 30
0.0
 10
119.092783
 20
213.572773
 30
0.0
 10
117.802780
 20
215.485239
 30
0.0
 10
115.101284
 20
217.679411
 30
0.0
 10
112.588749
 20
218.819266
 30
0.0
 10
110.541369
 20
219.398249
 30
0.0
 10
108.964918
 20
219.577096
 30
0.0
 10
107.510465
 20
219.552343
 30
0.0
 10
106.249541
 20
219.480137
 30
0.0
 10
105.324951
 20
219.372326
 30
0.0
 10
103.517543
 20
218.952834
 30
0.0
 10
100.907581
 20
217.764081
 30
0.0
 10
97.894803
 20
215.301885
 30
0.0
 10
96.196285
 20
212.755873
 30
0.0
 10
95.292654
 20
210.764232
 30
0.0
 10
94.872833
 20
209.355530
 30
0.0
 10
94.707690
 20
208.372893
 30
0.0
 10
94.615246
 20
207.822830
 30
0.0
 11
119.761979
 21
212.580670
 31
0.0
 11
117.614465
 21
215.437925
 31
0.0
 11
115.050638
 21
217.540705
 31
0.0
 11
111.972228
 21
218.969608
 31
0.0
 11
110.525602
 21
219.360184
 31
0.0
 11
109.060888
 21
219.536970
 31
0.0
 11
107.294629
 21
219.534177
 31
0.0
 11
106.180524
 21
219.464063
 31
0.0
 11
105.281022
 21
219.348732
 31
0.0
 11
104.535134
 21
219.180363
 31
0.0
 11
100.977668
 21
217.610585
 31
0.0
 11
98.038449
 21
215.175656
 31
0.0
 11
95.881091
 21
212.011120
 31
0.0
 11
95.310703
 21
210.723951
 31
0.0
 11
94.930244
 21
209.465130
 31
0.0
 11
94.615246
 21
207.822830
 31
0.0
  0
LWPOLYLINE
  5
127
100
AcDbEntity
  8
Back
 62
7
100
AcDbPolyline
 90
3
 70
1
 10
94.615246
 20
207.822830
 30
0.0
 10
94.334937
 20
206.116046
 30
0.0
 10
92.698683
 20
206.100495
 30
0.0
  0
SPLINE
  5
128
100
AcDbEntity
  8
Back
 62
7
100
AcDbSpline
 70
0
 71
3
 72
22
 73
18
 74
16
 40
0.000000
 40
0.000000
 40
0.000000
 40
0.000000
 40
1.078227
 40
1.836195
 40
2.516154
 40
4.618503
 40
6.588042
 40
8.704118
 40
10.084370
 40
11.522526
 40
12.901910
 40
15.192214
 40
17.402579
 40
19.626673
 40
20.479110
 40
21.599295
 40
23.427368
 40
23.427368
 40
23.427368
 40
23.427368
 10
92.698683
 20
206.100495
 30
0.0
 10
92.339387
 20
206.095888
 30
0.0
 10
91.727515
 20
206.088041
 30
0.0
 10
90.889716
 20
206.001154
 30
0.0
 10
89.754657
 20
205.669702
 30
0.0
 10
88.300544
 20
204.980486
 30
0.0
 10
86.801672
 20
203.513485
 30
0.0
 10
85.932851
 20
201.877809
 30
0.0
 10
85.542436
 20
200.268904
 30
0.0
 10
85.520655
 20
198.857549
 30
0.0
 10
85.860154
 20
197.176207
 30
0.0
 10
86.811750
 20
195.415772
 30
0.0
 10
88.459216
 20
193.840991
 30
0.0
 10
90.107583
 20
193.115846
 30
0.0
 10
91.483799
 20
192.849868
 30
0.0
 10
92.752236
 20
192.791532
 30
0.0
 10
93.734612
 20
192.790599
 30
0.0
 10
94.343736
 20
192.790020
 30
0.0
 11
92.698683
 21
206.100495
 31
0.0
 11
91.620961
 21
206.067515
 31
0.0
 11
90.868678
 21
205.974851
 31
0.0
 11
90.213121
 21
205.794326
 31
0.0
 11
88.329140
 21
204.861326
 31
0.0
 11
86.916228
 21
203.489189
 31
0.0
 11
85.918133
 21
201.623288
 31
0.0
 11
85.596991
 21
200.280916
 31
0.0
 11
85.572950
 21
198.842961
 31
0.0
 11
85.849056
 21
197.491492
 31
0.0
 11
86.921598
 21
195.467846
 31
0.0
 11
88.529448
 21
193.951096
 31
0.0
 11
90.561200
 21
193.046340
 31
0.0
 11
91.398138
 21
192.884530
 31
0.0
 11
92.515760
 21
192.808795
 31
0.0
 11
94.343736
 21
192.790020
 31
0.0
  0
LWPOLYLINE
  5
129
100
AcDbEntity
  8
Back
 62
7
100
AcDbPolyline
 90
3
 70
1
 10
94.343736
 20
192.790020
 30
0.0
 10
97.122973
 20
192.790020
 30
0.0
 10
95.962761
 20
191.586088
 30
0.0
  0
SPLINE
  5
12a
100
AcDbEntity
  8
Back
 62
7
100
AcDbSpline
 70
0
 71
3
 72
10
 73
6
 74
4
 40
0.000000
 40
0.000000
 40
0.000000
 40
0.000000
 40
1.021283
 40
2.093288
 40
2.986143
 40
2.986143
 40
2.986143
 40
2.986143
 10
95.962761
 20
191.586088
 30
0.0
 10
95.731941
 20
191.335845
 30
0.0
 10
95.258837
 20
190.822929
 30
0.0
 10
94.620747
 20
190.057878
 30
0.0
 10
94.234402
 20
189.528878
 30
0.0
 10
94.058842
 20
189.288495
 30
0.0
 11
95.962761
 21
191.586088
 31
0.0
 11
95.276443
 21
190.829791
 31
0.0
 11
94.592442
 21
190.004359
 31
0.0
 11
94.058842
 21
189.288495
 31
0.0
  0
LWPOLYLINE
  5
12b
100
AcDbEntity
  8
Back
 62
7
100
AcDbPolyline
 90
3
 70
1
 10
94.058842
 20
189.288495
 30
0.0
 10
93.315132
 20
188.194833
 30
0.0
 10
92.057347
 20
188.212726
 30
0.0
  0
SPLINE
  5
12c
100
AcDbEntity
  8
Back
 62
7
100
AcDbSpline
 70
0
 71
3
 72
10
 73
6
 74
4
 40
0.000000
 40
0.000000
 40
0.000000
 40
0.000000
 40
0.678785
 40
1.249319
 40
1.588573
 40
1.588573
 40
1.588573
 40
1.588573
 10
92.057347
 20
188.212726
 30
0.0
 10
91.831164
 20
188.217734
 30
0.0
 10
91.414870
 20
188.226951
 30
0.0
 10
90.885392
 20
188.245672
 30
0.0
 10
90.583534
 20
188.275356
 30
0.0
 10
90.470973
 20
188.286425
 30
0.0
 11
92.057347
 21
188.212726
 31
0.0
 11
91.378767
 21
188.229375
 31
0.0
 11
90.808847
 21
188.255855
 31
0.0
 11
90.470973
 21
188.286425
 31
0.0
  0
LWPOLYLINE
  5
12d
100
AcDbEntity
  8
Back
 62
7
100
AcDbPolyline
 90
2
 70
1
 10
90.470973
 20
188.286425
 30
0.0
 10
90.470973
 20
188.286329
 30
0.0
  0
SPLINE
  5
12e
100
AcDbEntity
  8
Back
 62
7
100
AcDbSpline
 70
0
 71
3
 72
40
 73
36
 74
34
 40
0.000000
 40
0.000000
 40
0.000000
 40
0.000000
 40
2.434296
 40
4.881898
 40
7.438617
 40
11.455980
 40
15.517744
 40
19.606936
 40
23.519766
 40
27.322682
 40
31.345267
 40
31.578170
 40
31.788517
 40
32.063041
 40
33.259861
 40
34.851673
 40
36.376811
 40
40.760322
 40
45.124776
 40
49.432189
 40
51.465838
 40
53.358455
 40
55.451093
 40
59.049161
 40
62.526857
 40
66.168006
 40
67.722440
 40
69.339756
 40
70.163159
 40
70.282850
 40
70.537669
 40
70.878718
 40
72.024784
 40
73.386255
 40
74.449518
 40
74.449518
 40
74.449518
 40
74.449518
 10
70.339212
 20
195.418796
 30
0.0
 10
69.545461
 20
195.603956
 30
0.0
 10
67.953619
 20
195.975289
 30
0.0
 10
65.769740
 20
197.209609
 30
0.0
 10
63.456810
 20
199.155984
 30
0.0
 10
61.499223
 20
202.219824
 30
0.0
 10
60.679518
 20
206.281221
 30
0.0
 10
61.326108
 20
210.340877
 30
0.0
 10
63.281604
 20
213.836872
 30
0.0
 10
66.318355
 20
216.477708
 30
0.0
 10
68.875044
 20
217.319341
 30
0.0
 10
70.343088
 20
217.718649
 30
0.0
 10
70.504742
 20
217.913326
 30
0.0
 10
70.628950
 20
218.465028
 30
0.0
 10
70.955288
 20
219.430903
 30
0.0
 10
71.516903
 20
220.757017
 30
0.0
 10
72.625295
 20
222.999926
 30
0.0
 10
74.710600
 20
225.766929
 30
0.0
 10
78.069041
 20
228.593524
 30
0.0
 10
81.318990
 20
230.157993
 30
0.0
 10
83.958942
 20
230.924469
 30
0.0
 10
85.945762
 20
231.242451
 30
0.0
 10
88.475880
 20
231.328269
 30
0.0
 10
91.536096
 20
231.090579
 30
0.0
 10
94.998136
 20
230.024041
 30
0.0
 10
97.486337
 20
228.654018
 30
0.0
 10
99.443406
 20
227.265927
 30
0.0
 10
100.095289
 20
226.441092
 30
0.0
 10
101.315755
 20
225.791438
 30
0.0
 10
100.996957
 20
225.498580
 30
0.0
 10
100.782612
 20
225.402595
 30
0.0
 10
100.243357
 20
225.180656
 30
0.0
 10
99.372843
 20
224.805950
 30
0.0
 10
98.304091
 20
224.277603
 30
0.0
 10
97.606535
 20
223.869210
 30
0.0
 10
97.300652
 20
223.690128
 30
0.0
 11
70.339212
 21
195.418796
 31
0.0
 11
67.997387
 21
196.083365
 31
0.0
 11
65.846323
 21
197.251131
 31
0.0
 11
63.903191
 21
198.912772
 31
0.0
 11
61.740504
 21
202.298327
 31
0.0
 11
60.926197
 21
206.277628
 31
0.0
 11
61.569713
 21
210.315868
 31
0.0
 11
63.484455
 21
213.728199
 31
0.0
 11
66.369761
 21
216.205531
 31
0.0
 11
70.120964
 21
217.658000
 31
0.0
 11
70.337835
 21
217.742915
 31
0.0
 11
70.476477
 21
217.901107
 31
0.0
 11
70.562504
 21
218.161804
 31
0.0
 11
70.925357
 21
219.302293
 31
0.0
 11
71.539879
 21
220.770703
 31
0.0
 11
72.224629
 21
222.133480
 31
0.0
 11
74.833650
 21
225.656005
 31
0.0
 11
78.185485
 21
228.451297
 31
0.0
 11
82.059145
 21
230.335061
 31
0.0
 11
84.014134
 21
230.895190
 31
0.0
 11
85.882923
 21
231.194571
 31
0.0
 11
87.973710
 21
231.282574
 31
0.0
 11
91.556634
 21
230.952807
 31
0.0
 11
94.883895
 21
229.941022
 31
0.0
 11
98.085941
 21
228.207569
 31
0.0
 11
99.330809
 21
227.276671
 31
0.0
 11
100.560807
 21
226.226521
 31
0.0
 11
101.117194
 21
225.619540
 31
0.0
 11
101.031640
 21
225.535836
 31
0.0
 11
100.807349
 21
225.414895
 31
0.0
 11
100.492879
 21
225.282900
 31
0.0
 11
99.441965
 21
224.825682
 31
0.0
 11
98.223719
 21
224.217835
 31
0.0
 11
97.300652
 21
223.690128
 31
0.0
  0
LWPOLYLINE
  5
12f
100
AcDbEntity
  8
Back
 62
7
100
AcDbPolyline
 90
3
 70
1
 10
97.300652
 20
223.690128
 30
0.0
 10
96.811894
 20
223.367037
 30
0.0
 10
95.974402
 20
223.999356
 30
0.0
  0
SPLINE
  5
130
100
AcDbEntity
  8
Back
 62
7
100
AcDbSpline
 70
0
 71
3
 72
16
 73
12
 74
10
 40
0.000000
 40
0.000000
 40
0.000000
 40
0.000000
 40
2.852246
 40
5.688743
 40
8.563014
 40
12.182826
 40
15.736738
 40
19.329474
 40
22.119698
 40
24.864004
 40
27.886037
 40
27.886037
 40
27.886037
 40
27.886037
 10
95.974402
 20
223.999356
 30
0.0
 10
95.178362
 20
224.526026
 30
0.0
 10
93.590677
 20
225.576459
 30
0.0
 10
90.839497
 20
226.456937
 30
0.0
 10
87.730074
 20
226.791106
 30
0.0
 10
84.366891
 20
226.350182
 30
0.0
 10
81.018281
 20
224.941266
 30
0.0
 10
78.400950
 20
222.845888
 30
0.0
 10
76.491199
 20
220.453854
 30
0.0
 10
75.235422
 20
217.857539
 30
0.0
 10
74.850522
 20
215.968258
 30
0.0
 10
74.648802
 20
214.978120
 30
0.0
 11
95.974402
 21
223.999356
 31
0.0
 11
93.525941
 21
225.462347
 31
0.0
 11
90.834777
 21
226.358646
 31
0.0
 11
87.976668
 21
226.663020
 31
0.0
 11
84.388104
 21
226.188419
 31
0.0
 11
81.114527
 21
224.804949
 31
0.0
 11
78.299096
 21
222.573112
 31
0.0
 11
76.569472
 21
220.383647
 31
0.0
 11
75.380683
 21
217.910190
 31
0.0
 11
74.648802
 21
214.978120
 31
0.0
  0
LWPOLYLINE
  5
131
100
AcDbEntity
  8
Back
 62
7
100
AcDbPolyline
 90
3
 70
1
 10
74.648802
 20
214.978120
 30
0.0
 10
74.356259
 20
213.205691
 30
0.0
 10
72.717835
 20
213.184496
 30
0.0
  0
SPLINE
  5
132
100
AcDbEntity
  8
Back
 62
7
100
AcDbSpline
 70
0
 71
3
 72
19
 73
15
 74
13
 40
0.000000
 40
0.000000
 40
0.000000
 40
0.000000
 40
2.093483
 40
3.836245
 40
5.668768
 40
7.437109
 40
9.101116
 40
10.874847
 40
13.662960
 40
16.335712
 40
19.267176
 40
19.938192
 40
21.251729
 40
23.721909
 40
23.721909
 40
23.721909
 40
23.721909
 10
72.717835
 20
213.184496
 30
0.0
 10
72.017443
 20
213.156632
 30
0.0
 10
70.733994
 20
213.105574
 30
0.0
 10
68.924229
 20
212.441352
 30
0.0
 10
67.529172
 20
211.302855
 30
0.0
 10
66.387050
 20
209.949927
 30
0.0
 10
65.707895
 20
208.319799
 30
0.0
 10
65.496265
 20
206.240328
 30
0.0
 10
65.922572
 20
203.785746
 30
0.0
 10
67.649912
 20
201.494289
 30
0.0
 10
69.487358
 20
200.333556
 30
0.0
 10
71.093271
 20
199.976995
 30
0.0
 10
72.584139
 20
199.951575
 30
0.0
 10
73.843663
 20
199.926057
 30
0.0
 10
74.665936
 20
199.909397
 30
0.0
 11
72.717835
 21
213.184496
 31
0.0
 11
70.634145
 21
212.982249
 31
0.0
 11
69.002311
 21
212.370415
 31
0.0
 11
67.553578
 21
211.248226
 31
0.0
 11
66.443202
 21
209.871964
 31
0.0
 11
65.799904
 21
208.337334
 31
0.0
 11
65.594828
 21
206.575498
 31
0.0
 11
66.138479
 21
203.840902
 31
0.0
 11
67.707542
 21
201.677191
 31
0.0
 11
70.230009
 21
200.183658
 31
0.0
 11
70.885194
 21
200.038759
 31
0.0
 11
72.196228
 21
199.957702
 31
0.0
 11
74.665936
 21
199.909397
 31
0.0
  0
LWPOLYLINE
  5
133
100
AcDbEntity
  8
Back
 62
7
100
AcDbPolyline
 90
3
 70
1
 10
74.665936
 20
199.909397
 30
0.0
 10
78.510404
 20
199.858851
 30
0.0
 10
78.512379
 20
198.851750
 30
0.0
  0
SPLINE
  5
134
100
AcDbEntity
  8
Back
 62
7
100
AcDbSpline
 70
0
 71
3
 72
16
 73
12
 74
10
 40
0.000000
 40
0.000000
 40
0.000000
 40
0.000000
 40
0.677437
 40
1.488226
 40
2.259317
 40
2.900931
 40
3.370262
 40
3.565740
 40
5.689698
 40
9.746127
 40
12.264806
 40
12.264806
 40
12.264806
 40
12.264806
 10
78.512379
 20
198.851750
 30
0.0
 10
78.521835
 20
198.626088
 30
0.0
 10
78.542607
 20
198.130344
 30
0.0
 10
78.635755
 20
197.381751
 30
0.0
 10
78.760612
 20
196.652756
 30
0.0
 10
78.899238
 20
196.035566
 30
0.0
 10
78.976754
 20
195.618368
 30
0.0
 10
79.203800
 20
194.655868
 30
0.0
 10
75.568499
 20
195.835257
 30
0.0
 10
73.494641
 20
195.200252
 30
0.0
 10
71.213103
 20
195.358271
 30
0.0
 10
70.339131
 20
195.418802
 30
0.0
 11
78.512379
 21
198.851750
 31
0.0
 11
78.549155
 21
198.175312
 31
0.0
 11
78.643594
 21
197.370042
 31
0.0
 11
78.775250
 21
196.610273
 31
0.0
 11
78.906620
 21
195.982253
 31
0.0
 11
79.000319
 21
195.522370
 31
0.0
 11
79.036060
 21
195.330187
 31
0.0
 11
76.912492
 21
195.289493
 31
0.0
 11
72.856273
 21
195.330824
 31
0.0
 11
70.339131
 21
195.418802
 31
0.0
  0
LWPOLYLINE
  5
135
100
AcDbEntity
  8
Back
 62
7
100
AcDbPolyline
 90
2
 70
1
 10
70.339131
 20
195.418802
 30
0.0
 10
70.339212
 20
195.418796
 30
0.0
  0
SPLINE
  5
136
100
AcDbEntity
  8
Layer_1
 62
7
100
AcDbSpline
 70
0
 71
3
 72
25
 73
21
 74
19
 40
0.000000
 40
0.000000
 40
0.000000
 40
0.000000
 40
1.028867
 40
2.027218
 40
3.056085
 40
4.084951
 40
5.083302
 40
6.112169
 40
6.627287
 40
7.138141
 40
7.653259
 40
8.168377
 40
8.679231
 40
9.194349
 40
9.709466
 40
10.220321
 40
10.735439
 40
11.250556
 40
11.761411
 40
12.276529
 40
12.276529
 40
12.276529
 40
12.276529
 10
50.672541
 20
20.885724
 30
0.0
 10
50.618454
 20
20.538837
 30
0.0
 10
50.511886
 20
19.855353
 30
0.0
 10
49.728489
 20
19.102918
 30
0.0
 10
48.706548
 20
18.824028
 30
0.0
 10
47.674002
 20
19.103143
 30
0.0
 10
46.921791
 20
19.854475
 30
0.0
 10
46.690811
 20
20.715197
 30
0.0
 10
46.782403
 20
21.400666
 30
0.0
 10
46.981028
 20
21.880928
 30
0.0
 10
47.297263
 20
22.293222
 30
0.0
 10
47.709619
 20
22.609432
 30
0.0
 10
48.189597
 20
22.808239
 30
0.0
 10
48.704754
 20
22.876252
 30
0.0
 10
49.219963
 20
22.808240
 30
0.0
 10
49.699787
 20
22.609428
 30
0.0
 10
50.112710
 20
22.293239
 30
0.0
 10
50.426832
 20
21.880866
 30
0.0
 10
50.633300
 20
21.400893
 30
0.0
 10
50.659424
 20
21.057922
 30
0.0
 10
50.672541
 20
20.885724
 30
0.0
 11
50.672541
 21
20.885724
 31
0.0
 11
50.403877
 21
19.892554
 31
0.0
 11
49.697934
 21
19.186615
 31
0.0
 11
48.704763
 21
18.917958
 31
0.0
 11
47.711591
 21
19.186615
 31
0.0
 11
47.005648
 21
19.892554
 31
0.0
 11
46.736985
 21
20.885724
 31
0.0
 11
46.804398
 21
21.396411
 31
0.0
 11
46.999891
 21
21.868381
 31
0.0
 11
47.313328
 21
22.277164
 31
0.0
 11
47.722108
 21
22.590604
 31
0.0
 11
48.194076
 21
22.786101
 31
0.0
 11
48.704763
 21
22.853518
 31
0.0
 11
49.215449
 21
22.786101
 31
0.0
 11
49.687417
 21
22.590604
 31
0.0
 11
50.096198
 21
22.277164
 31
0.0
 11
50.409634
 21
21.868381
 31
0.0
 11
50.605127
 21
21.396411
 31
0.0
 11
50.672541
 21
20.885724
 31
0.0
  0
LWPOLYLINE
  5
137
100
AcDbEntity
  8
Layer_1
 62
7
100
AcDbPolyline
 90
2
 70
1
 10
50.672541
 20
20.885724
 30
0.0
 10
50.672541
 20
20.885724
 30
0.0
  0
SPLINE
  5
138
100
AcDbEntity
  8
Layer_1
 62
7
100
AcDbSpline
 70
0
 71
3
 72
25
 73
21
 74
19
 40
0.000000
 40
0.000000
 40
0.000000
 40
0.000000
 40
1.028867
 40
2.027218
 40
3.056084
 40
4.084952
 40
5.083304
 40
6.112171
 40
6.627289
 40
7.138144
 40
7.653262
 40
8.168380
 40
8.679236
 40
9.194354
 40
9.709471
 40
10.220326
 40
10.735443
 40
11.250561
 40
11.761416
 40
12.276533
 40
12.276533
 40
12.276533
 40
12.276533
 10
155.672542
 20
20.885724
 30
0.0
 10
155.618456
 20
20.538837
 30
0.0
 10
155.511888
 20
19.855353
 30
0.0
 10
154.728490
 20
19.102918
 30
0.0
 10
153.706549
 20
18.824029
 30
0.0
 10
152.674002
 20
19.103141
 30
0.0
 10
151.921790
 20
19.854475
 30
0.0
 10
151.690810
 20
20.715197
 30
0.0
 10
151.782402
 20
21.400667
 30
0.0
 10
151.981028
 20
21.880928
 30
0.0
 10
152.297263
 20
22.293223
 30
0.0
 10
152.709619
 20
22.609433
 30
0.0
 10
153.189598
 20
22.808239
 30
0.0
 10
153.704755
 20
22.876252
 30
0.0
 10
154.219964
 20
22.808240
 30
0.0
 10
154.699788
 20
22.609428
 30
0.0
 10
155.112711
 20
22.293238
 30
0.0
 10
155.426833
 20
21.880866
 30
0.0
 10
155.633301
 20
21.400893
 30
0.0
 10
155.659425
 20
21.057922
 30
0.0
 10
155.672542
 20
20.885724
 30
0.0
 11
155.672542
 21
20.885724
 31
0.0
 11
155.403878
 21
19.892554
 31
0.0
 11
154.697936
 21
19.186615
 31
0.0
 11
153.704764
 21
18.917958
 31
0.0
 11
152.711591
 21
19.186614
 31
0.0
 11
152.005647
 21
19.892553
 31
0.0
 11
151.736984
 21
20.885724
 31
0.0
 11
151.804397
 21
21.396412
 31
0.0
 11
151.999890
 21
21.868381
 31
0.0
 11
152.313328
 21
22.277165
 31
0.0
 11
152.722109
 21
22.590605
 31
0.0
 11
153.194077
 21
22.786101
 31
0.0
 11
153.704764
 21
22.853518
 31
0.0
 11
154.215451
 21
22.786101
 31
0.0
 11
154.687419
 21
22.590604
 31
0.0
 11
155.096199
 21
22.277164
 31
0.0
 11
155.409636
 21
21.868381
 31
0.0
 11
155.605128
 21
21.396411
 31
0.0
 11
155.672542
 21
20.885724
 31
0.0
  0
LWPOLYLINE
  5
139
100
AcDbEntity
  8
Layer_1
 62
7
100
AcDbPolyline
 90
2
 70
1
 10
155.672542
 20
20.885724
 30
0.0
 10
155.672542
 20
20.885724
 30
0.0
  0
SPLINE
  5
13a
100
AcDbEntity
  8
Layer_1
 62
7
100
AcDbSpline
 70
0
 71
3
 72
19
 73
15
 74
13
 40
0.000000
 40
0.000000
 40
0.000000
 40
0.000000
 40
1.028870
 40
2.027225
 40
3.056095
 40
4.084966
 40
5.083320
 40
6.112191
 40
7.141061
 40
8.139416
 40
9.168286
 40
10.197157
 40
11.195511
 40
12.224382
 40
12.224382
 40
12.224382
 40
12.224382
 10
50.672541
 20
125.885712
 30
0.0
 10
50.618456
 20
125.538825
 30
0.0
 10
50.511892
 20
124.855340
 30
0.0
 10
49.728487
 20
124.102879
 30
0.0
 10
48.706569
 20
123.824070
 30
0.0
 10
47.673921
 20
124.102879
 30
0.0
 10
46.922067
 20
124.855340
 30
0.0
 10
46.643051
 20
125.885712
 30
0.0
 10
46.922067
 20
126.916083
 30
0.0
 10
47.673921
 20
127.668544
 30
0.0
 10
48.706569
 20
127.947354
 30
0.0
 10
49.728487
 20
127.668544
 30
0.0
 10
50.511892
 20
126.916083
 30
0.0
 10
50.618456
 20
126.232598
 30
0.0
 10
50.672541
 20
125.885712
 30
0.0
 11
50.672541
 21
125.885712
 31
0.0
 11
50.403881
 21
124.892537
 31
0.0
 11
49.697938
 21
124.186593
 31
0.0
 11
48.704763
 21
123.917934
 31
0.0
 11
47.711588
 21
124.186593
 31
0.0
 11
47.005644
 21
124.892537
 31
0.0
 11
46.736985
 21
125.885712
 31
0.0
 11
47.005644
 21
126.878887
 31
0.0
 11
47.711588
 21
127.584830
 31
0.0
 11
48.704763
 21
127.853489
 31
0.0
 11
49.697938
 21
127.584830
 31
0.0
 11
50.403881
 21
126.878887
 31
0.0
 11
50.672541
 21
125.885712
 31
0.0
  0
LWPOLYLINE
  5
13b
100
AcDbEntity
  8
Layer_1
 62
7
100
AcDbPolyline
 90
2
 70
1
 10
50.672541
 20
125.885712
 30
0.0
 10
50.672541
 20
125.885712
 30
0.0
  0
LWPOLYLINE
  5
13c
100
AcDbEntity
  8
Layer_1
 62
7
100
AcDbPolyline
 90
2
 70
1
 10
155.672542
 20
125.885712
 30
0.0
 10
155.672542
 20
125.885712
 30
0.0
  0
SPLINE
  5
13d
100
AcDbEntity
  8
Layer_1
 62
7
100
AcDbSpline
 70
0
 71
3
 72
25
 73
21
 74
19
 40
0.000000
 40
0.000000
 40
0.000000
 40
0.000000
 40
1.028870
 40
2.027225
 40
3.056095
 40
3.571210
 40
4.082063
 40
4.597178
 40
5.112293
 40
5.623146
 40
6.138261
 40
6.653376
 40
7.164228
 40
7.679343
 40
8.194459
 40
8.705311
 40
9.220426
 40
10.249297
 40
11.247651
 40
12.276521
 40
12.276521
 40
12.276521
 40
12.276521
 10
155.672542
 20
125.885712
 30
0.0
 10
155.618395
 20
125.538848
 30
0.0
 10
155.511709
 20
124.855410
 30
0.0
 10
154.729211
 20
124.102606
 30
0.0
 10
153.876150
 20
123.871775
 30
0.0
 10
153.189665
 20
123.963352
 30
0.0
 10
152.709610
 20
124.161983
 30
0.0
 10
152.297264
 20
124.478217
 30
0.0
 10
151.981071
 20
124.890573
 30
0.0
 10
151.782262
 20
125.370546
 30
0.0
 10
151.714250
 20
125.885712
 30
0.0
 10
151.782262
 20
126.400877
 30
0.0
 10
151.981071
 20
126.880850
 30
0.0
 10
152.297264
 20
127.293206
 30
0.0
 10
152.709610
 20
127.609440
 30
0.0
 10
153.189665
 20
127.808071
 30
0.0
 10
153.876150
 20
127.899648
 30
0.0
 10
154.729211
 20
127.668817
 30
0.0
 10
155.511709
 20
126.916013
 30
0.0
 10
155.618395
 20
126.232575
 30
0.0
 10
155.672542
 20
125.885712
 30
0.0
 11
155.672542
 21
125.885712
 31
0.0
 11
155.403882
 21
124.892537
 31
0.0
 11
154.697939
 21
124.186593
 31
0.0
 11
153.704764
 21
123.917934
 31
0.0
 11
153.194080
 21
123.985351
 31
0.0
 11
152.722113
 21
124.180845
 31
0.0
 11
152.313334
 21
124.494282
 31
0.0
 11
151.999896
 21
124.903061
 31
0.0
 11
151.804401
 21
125.375027
 31
0.0
 11
151.736984
 21
125.885712
 31
0.0
 11
151.804401
 21
126.396396
 31
0.0
 11
151.999896
 21
126.868362
 31
0.0
 11
152.313334
 21
127.277141
 31
0.0
 11
152.722113
 21
127.590578
 31
0.0
 11
153.194080
 21
127.786072
 31
0.0
 11
153.704764
 21
127.853489
 31
0.0
 11
154.697939
 21
127.584830
 31
0.0
 11
155.403882
 21
126.878886
 31
0.0
 11
155.672542
 21
125.885712
 31
0.0
  0
LWPOLYLINE
  5
13e
100
AcDbEntity
  8
Layer_1
 62
7
100
AcDbPolyline
 90
2
 70
1
 10
58.986985
 20
136.167945
 30
0.0
 10
143.986987
 20
136.167945
 30
0.0
  0
SPLINE
  5
13f
100
AcDbEntity
  8
Layer_1
 62
7
100
AcDbSpline
 70
0
 71
3
 72
10
 73
6
 74
4
 40
0.000000
 40
0.000000
 40
0.000000
 40
0.000000
 40
10.469915
 40
20.606160
 40
31.076076
 40
31.076076
 40
31.076076
 40
31.076076
 10
143.986987
 20
136.167945
 30
0.0
 10
147.497035
 20
135.622163
 30
0.0
 10
154.405269
 20
134.547992
 30
0.0
 10
162.367034
 20
126.586227
 30
0.0
 10
163.441204
 20
119.677994
 30
0.0
 10
163.986986
 20
116.167945
 30
0.0
 11
143.986987
 21
136.167945
 31
0.0
 11
154.096616
 21
133.444982
 31
0.0
 11
161.264023
 21
126.277574
 31
0.0
 11
163.986986
 21
116.167945
 31
0.0
  0
LWPOLYLINE
  5
140
100
AcDbEntity
  8
Layer_1
 62
7
100
AcDbPolyline
 90
2
 70
1
 10
163.986986
 20
116.167945
 30
0.0
 10
163.986986
 20
31.167943
 30
0.0
  0
SPLINE
  5
141
100
AcDbEntity
  8
Layer_1
 62
7
100
AcDbSpline
 70
0
 71
3
 72
10
 73
6
 74
4
 40
0.000000
 40
0.000000
 40
0.000000
 40
0.000000
 40
10.469919
 40
20.606165
 40
31.076080
 40
31.076080
 40
31.076080
 40
31.076080
 10
163.986986
 20
31.167943
 30
0.0
 10
163.441204
 20
27.657893
 30
0.0
 10
162.367034
 20
20.749658
 30
0.0
 10
154.405269
 20
12.787891
 30
0.0
 10
147.497035
 20
11.713720
 30
0.0
 10
143.986987
 20
11.167938
 30
0.0
 11
163.986986
 21
31.167943
 31
0.0
 11
161.264023
 21
21.058310
 31
0.0
 11
154.096616
 21
13.890901
 31
0.0
 11
143.986987
 21
11.167938
 31
0.0
  0
LWPOLYLINE
  5
142
100
AcDbEntity
  8
Layer_1
 62
7
100
AcDbPolyline
 90
2
 70
1
 10
143.986987
 20
11.167938
 30
0.0
 10
58.986985
 20
11.167938
 30
0.0
  0
SPLINE
  5
143
100
AcDbEntity
  8
Layer_1
 62
7
100
AcDbSpline
 70
0
 71
3
 72
10
 73
6
 74
4
 40
0.000000
 40
0.000000
 40
0.000000
 40
0.000000
 40
10.469916
 40
20.606162
 40
31.076081
 40
31.076081
 40
31.076081
 40
31.076081
 10
58.986985
 20
11.167938
 30
0.0
 10
55.476936
 20
11.713720
 30
0.0
 10
48.568702
 20
12.787891
 30
0.0
 10
40.606937
 20
20.749658
 30
0.0
 10
39.532767
 20
27.657893
 30
0.0
 10
38.986985
 20
31.167943
 30
0.0
 11
58.986985
 21
11.167938
 31
0.0
 11
48.877355
 21
13.890901
 31
0.0
 11
41.709948
 21
21.058310
 31
0.0
 11
38.986985
 21
31.167943
 31
0.0
  0
LWPOLYLINE
  5
144
100
AcDbEntity
  8
Layer_1
 62
7
100
AcDbPolyline
 90
2
 70
1
 10
38.986985
 20
31.167943
 30
0.0
 10
38.986985
 20
116.167945
 30
0.0
  0
SPLINE
  5
145
100
AcDbEntity
  8
Layer_1
 62
7
100
AcDbSpline
 70
0
 71
3
 72
10
 73
6
 74
4
 40
0.000000
 40
0.000000
 40
0.000000
 40
0.000000
 40
10.469915
 40
20.606160
 40
31.076076
 40
31.076076
 40
31.076076
 40
31.076076
 10
38.986985
 20
116.167945
 30
0.0
 10
39.532767
 20
119.677994
 30
0.0
 10
40.606937
 20
126.586227
 30
0.0
 10
48.568702
 20
134.547992
 30
0.0
 10
55.476936
 20
135.622163
 30
0.0
 10
58.986985
 20
136.167945
 30
0.0
 11
38.986985
 21
116.167945
 31
0.0
 11
41.709948
 21
126.277574
 31
0.0
 11
48.877355
 21
133.444982
 31
0.0
 11
58.986985
 21
136.167945
 31
0.0
  0
LWPOLYLINE
  5
146
100
AcDbEntity
  8
Layer_1
 62
7
100
AcDbPolyline
 90
2
 70
1
 10
58.986985
 20
136.167945
 30
0.0
 10
58.986985
 20
136.167945
 30
0.0
  0
SPLINE
  5
147
100
AcDbEntity
  8
Layer_1
 62
7
100
AcDbSpline
 70
0
 71
3
 72
25
 73
21
 74
19
 40
0.000000
 40
0.000000
 40
0.000000
 40
0.000000
 40
1.028867
 40
2.027218
 40
3.056085
 40
4.084951
 40
5.083302
 40
6.112169
 40
6.627287
 40
7.138141
 40
7.653259
 40
8.168377
 40
8.679231
 40
9.194349
 40
9.709466
 40
10.220321
 40
10.735439
 40
11.250556
 40
11.761411
 40
12.276529
 40
12.276529
 40
12.276529
 40
12.276529
 10
50.672541
 20
150.885718
 30
0.0
 10
50.618454
 20
150.538832
 30
0.0
 10
50.511886
 20
149.855347
 30
0.0
 10
49.728489
 20
149.102913
 30
0.0
 10
48.706548
 20
148.824023
 30
0.0
 10
47.674002
 20
149.103137
 30
0.0
 10
46.921791
 20
149.854470
 30
0.0
 10
46.690811
 20
150.715192
 30
0.0
 10
46.782403
 20
151.400660
 30
0.0
 10
46.981028
 20
151.880922
 30
0.0
 10
47.297263
 20
152.293216
 30
0.0
 10
47.709619
 20
152.609426
 30
0.0
 10
48.189597
 20
152.808233
 30
0.0
 10
48.704754
 20
152.876246
 30
0.0
 10
49.219963
 20
152.808234
 30
0.0
 10
49.699787
 20
152.609422
 30
0.0
 10
50.112710
 20
152.293233
 30
0.0
 10
50.426832
 20
151.880861
 30
0.0
 10
50.633300
 20
151.400887
 30
0.0
 10
50.659424
 20
151.057916
 30
0.0
 10
50.672541
 20
150.885718
 30
0.0
 11
50.672541
 21
150.885718
 31
0.0
 11
50.403877
 21
149.892548
 31
0.0
 11
49.697934
 21
149.186609
 31
0.0
 11
48.704763
 21
148.917952
 31
0.0
 11
47.711591
 21
149.186609
 31
0.0
 11
47.005648
 21
149.892548
 31
0.0
 11
46.736985
 21
150.885718
 31
0.0
 11
46.804398
 21
151.396406
 31
0.0
 11
46.999891
 21
151.868375
 31
0.0
 11
47.313328
 21
152.277158
 31
0.0
 11
47.722108
 21
152.590598
 31
0.0
 11
48.194076
 21
152.786095
 31
0.0
 11
48.704763
 21
152.853513
 31
0.0
 11
49.215449
 21
152.786095
 31
0.0
 11
49.687417
 21
152.590598
 31
0.0
 11
50.096198
 21
152.277158
 31
0.0
 11
50.409634
 21
151.868375
 31
0.0
 11
50.605127
 21
151.396406
 31
0.0
 11
50.672541
 21
150.885718
 31
0.0
  0
LWPOLYLINE
  5
148
100
AcDbEntity
  8
Layer_1
 62
7
100
AcDbPolyline
 90
2
 70
1
 10
50.672541
 20
150.885718
 30
0.0
 10
50.672541
 20
150.885718
 30
0.0
  0
SPLINE
  5
149
100
AcDbEntity
  8
Layer_1
 62
7
100
AcDbSpline
 70
0
 71
3
 72
25
 73
21
 74
19
 40
0.000000
 40
0.000000
 40
0.000000
 40
0.000000
 40
1.028867
 40
2.027218
 40
3.056084
 40
4.084952
 40
5.083304
 40
6.112171
 40
6.627289
 40
7.138144
 40
7.653262
 40
8.168380
 40
8.679236
 40
9.194354
 40
9.709471
 40
10.220326
 40
10.735443
 40
11.250561
 40
11.761416
 40
12.276533
 40
12.276533
 40
12.276533
 40
12.276533
 10
155.672542
 20
150.885718
 30
0.0
 10
155.618456
 20
150.538832
 30
0.0
 10
155.511888
 20
149.855347
 30
0.0
 10
154.728490
 20
149.102913
 30
0.0
 10
153.706549
 20
148.824023
 30
0.0
 10
152.674002
 20
149.103136
 30
0.0
 10
151.921790
 20
149.854469
 30
0.0
 10
151.690810
 20
150.715192
 30
0.0
 10
151.782402
 20
151.400661
 30
0.0
 10
151.981028
 20
151.880923
 30
0.0
 10
152.297263
 20
152.293217
 30
0.0
 10
152.709619
 20
152.609427
 30
0.0
 10
153.189598
 20
152.808234
 30
0.0
 10
153.704755
 20
152.876246
 30
0.0
 10
154.219964
 20
152.808234
 30
0.0
 10
154.699788
 20
152.609422
 30
0.0
 10
155.112711
 20
152.293233
 30
0.0
 10
155.426833
 20
151.880861
 30
0.0
 10
155.633301
 20
151.400887
 30
0.0
 10
155.659425
 20
151.057916
 30
0.0
 10
155.672542
 20
150.885718
 30
0.0
 11
155.672542
 21
150.885718
 31
0.0
 11
155.403878
 21
149.892548
 31
0.0
 11
154.697936
 21
149.186609
 31
0.0
 11
153.704764
 21
148.917952
 31
0.0
 11
152.711591
 21
149.186609
 31
0.0
 11
152.005647
 21
149.892547
 31
0.0
 11
151.736984
 21
150.885718
 31
0.0
 11
151.804397
 21
151.396406
 31
0.0
 11
151.999890
 21
151.868376
 31
0.0
 11
152.313328
 21
152.277159
 31
0.0
 11
152.722109
 21
152.590599
 31
0.0
 11
153.194077
 21
152.786095
 31
0.0
 11
153.704764
 21
152.853513
 31
0.0
 11
154.215451
 21
152.786095
 31
0.0
 11
154.687419
 21
152.590598
 31
0.0
 11
155.096199
 21
152.277158
 31
0.0
 11
155.409636
 21
151.868375
 31
0.0
 11
155.605128
 21
151.396406
 31
0.0
 11
155.672542
 21
150.885718
 31
0.0
  0
LWPOLYLINE
  5
14a
100
AcDbEntity
  8
Layer_1
 62
7
100
AcDbPolyline
 90
2
 70
1
 10
155.672542
 20
150.885718
 30
0.0
 10
155.672542
 20
150.885718
 30
0.0
  0
SPLINE
  5
14b
100
AcDbEntity
  8
Layer_1
 62
7
100
AcDbSpline
 70
0
 71
3
 72
19
 73
15
 74
13
 40
0.000000
 40
0.000000
 40
0.000000
 40
0.000000
 40
1.028870
 40
2.027225
 40
3.056095
 40
4.084966
 40
5.083320
 40
6.112191
 40
7.141061
 40
8.139416
 40
9.168286
 40
10.197157
 40
11.195511
 40
12.224382
 40
12.224382
 40
12.224382
 40
12.224382
 10
50.672541
 20
255.885706
 30
0.0
 10
50.618456
 20
255.538819
 30
0.0
 10
50.511892
 20
254.855334
 30
0.0
 10
49.728487
 20
254.102873
 30
0.0
 10
48.706569
 20
253.824064
 30
0.0
 10
47.673921
 20
254.102873
 30
0.0
 10
46.922067
 20
254.855334
 30
0.0
 10
46.643051
 20
255.885706
 30
0.0
 10
46.922067
 20
256.916077
 30
0.0
 10
47.673921
 20
257.668538
 30
0.0
 10
48.706569
 20
257.947348
 30
0.0
 10
49.728487
 20
257.668538
 30
0.0
 10
50.511892
 20
256.916077
 30
0.0
 10
50.618456
 20
256.232593
 30
0.0
 10
50.672541
 20
255.885706
 30
0.0
 11
50.672541
 21
255.885706
 31
0.0
 11
50.403881
 21
254.892531
 31
0.0
 11
49.697938
 21
254.186588
 31
0.0
 11
48.704763
 21
253.917928
 31
0.0
 11
47.711588
 21
254.186588
 31
0.0
 11
47.005644
 21
254.892531
 31
0.0
 11
46.736985
 21
255.885706
 31
0.0
 11
47.005644
 21
256.878881
 31
0.0
 11
47.711588
 21
257.584824
 31
0.0
 11
48.704763
 21
257.853483
 31
0.0
 11
49.697938
 21
257.584824
 31
0.0
 11
50.403881
 21
256.878881
 31
0.0
 11
50.672541
 21
255.885706
 31
0.0
  0
LWPOLYLINE
  5
14c
100
AcDbEntity
  8
Layer_1
 62
7
100
AcDbPolyline
 90
2
 70
1
 10
50.672541
 20
255.885706
 30
0.0
 10
50.672541
 20
255.885706
 30
0.0
  0
LWPOLYLINE
  5
14d
100
AcDbEntity
  8
Layer_1
 62
7
100
AcDbPolyline
 90
2
 70
1
 10
155.672542
 20
255.885706
 30
0.0
 10
155.672542
 20
255.885706
 30
0.0
  0
SPLINE
  5
14e
100
AcDbEntity
  8
Layer_1
 62
7
100
AcDbSpline
 70
0
 71
3
 72
25
 73
21
 74
19
 40
0.000000
 40
0.000000
 40
0.000000
 40
0.000000
 40
1.028870
 40
2.027225
 40
3.056095
 40
3.571210
 40
4.082063
 40
4.597178
 40
5.112293
 40
5.623146
 40
6.138261
 40
6.653376
 40
7.164228
 40
7.679343
 40
8.194459
 40
8.705311
 40
9.220426
 40
10.249297
 40
11.247651
 40
12.276521
 40
12.276521
 40
12.276521
 40
12.276521
 10
155.672542
 20
255.885706
 30
0.0
 10
155.618395
 20
255.538843
 30
0.0
 10
155.511709
 20
254.855404
 30
0.0
 10
154.729211
 20
254.102601
 30
0.0
 10
153.876150
 20
253.871769
 30
0.0
 10
153.189665
 20
253.963346
 30
0.0
 10
152.709610
 20
254.161978
 30
0.0
 10
152.297264
 20
254.478212
 30
0.0
 10
151.981071
 20
254.890567
 30
0.0
 10
151.782262
 20
255.370540
 30
0.0
 10
151.714250
 20
255.885706
 30
0.0
 10
151.782262
 20
256.400871
 30
0.0
 10
151.981071
 20
256.880845
 30
0.0
 10
152.297264
 20
257.293200
 30
0.0
 10
152.709610
 20
257.609434
 30
0.0
 10
153.189665
 20
257.808065
 30
0.0
 10
153.876150
 20
257.899642
 30
0.0
 10
154.729211
 20
257.668811
 30
0.0
 10
155.511709
 20
256.916008
 30
0.0
 10
155.618395
 20
256.232569
 30
0.0
 10
155.672542
 20
255.885706
 30
0.0
 11
155.672542
 21
255.885706
 31
0.0
 11
155.403882
 21
254.892531
 31
0.0
 11
154.697939
 21
254.186588
 31
0.0
 11
153.704764
 21
253.917928
 31
0.0
 11
153.194080
 21
253.985345
 31
0.0
 11
152.722113
 21
254.180839
 31
0.0
 11
152.313334
 21
254.494276
 31
0.0
 11
151.999896
 21
254.903055
 31
0.0
 11
151.804401
 21
255.375021
 31
0.0
 11
151.736984
 21
255.885706
 31
0.0
 11
151.804401
 21
256.396390
 31
0.0
 11
151.999896
 21
256.868356
 31
0.0
 11
152.313334
 21
257.277136
 31
0.0
 11
152.722113
 21
257.590572
 31
0.0
 11
153.194080
 21
257.786067
 31
0.0
 11
153.704764
 21
257.853483
 31
0.0
 11
154.697939
 21
257.584824
 31
0.0
 11
155.403882
 21
256.878881
 31
0.0
 11
155.672542
 21
255.885706
 31
0.0
  0
LWPOLYLINE
  5
14f
100
AcDbEntity
  8
Layer_1
 62
7
100
AcDbPolyline
 90
2
 70
1
 10
58.986985
 20
266.167939
 30
0.0
 10
143.986987
 20
266.167939
 30
0.0
  0
SPLINE
  5
150
100
AcDbEntity
  8
Layer_1
 62
7
100
AcDbSpline
 70
0
 71
3
 72
10
 73
6
 74
4
 40
0.000000
 40
0.000000
 40
0.000000
 40
0.000000
 40
10.469915
 40
20.606160
 40
31.076076
 40
31.076076
 40
31.076076
 40
31.076076
 10
143.986987
 20
266.167939
 30
0.0
 10
147.497035
 20
265.622157
 30
0.0
 10
154.405269
 20
264.547987
 30
0.0
 10
162.367034
 20
256.586222
 30
0.0
 10
163.441204
 20
249.677988
 30
0.0
 10
163.986986
 20
246.167940
 30
0.0
 11
143.986987
 21
266.167939
 31
0.0
 11
154.096616
 21
263.444976
 31
0.0
 11
161.264023
 21
256.277569
 31
0.0
 11
163.986986
 21
246.167940
 31
0.0
  0
LWPOLYLINE
  5
151
100
AcDbEntity
  8
Layer_1
 62
7
100
AcDbPolyline
 90
2
 70
1
 10
163.986986
 20
246.167940
 30
0.0
 10
163.986986
 20
161.167937
 30
0.0
  0
SPLINE
  5
152
100
AcDbEntity
  8
Layer_1
 62
7
100
AcDbSpline
 70
0
 71
3
 72
10
 73
6
 74
4
 40
0.000000
 40
0.000000
 40
0.000000
 40
0.000000
 40
10.469919
 40
20.606165
 40
31.076080
 40
31.076080
 40
31.076080
 40
31.076080
 10
163.986986
 20
161.167937
 30
0.0
 10
163.441204
 20
157.657888
 30
0.0
 10
162.367034
 20
150.749652
 30
0.0
 10
154.405269
 20
142.787885
 30
0.0
 10
147.497035
 20
141.713714
 30
0.0
 10
143.986987
 20
141.167932
 30
0.0
 11
163.986986
 21
161.167937
 31
0.0
 11
161.264023
 21
151.058304
 31
0.0
 11
154.096616
 21
143.890895
 31
0.0
 11
143.986987
 21
141.167932
 31
0.0
  0
LWPOLYLINE
  5
153
100
AcDbEntity
  8
Layer_1
 62
7
100
AcDbPolyline
 90
2
 70
1
 10
143.986987
 20
141.167932
 30
0.0
 10
58.986985
 20
141.167932
 30
0.0
  0
SPLINE
  5
154
100
AcDbEntity
  8
Layer_1
 62
7
100
AcDbSpline
 70
0
 71
3
 72
10
 73
6
 74
4
 40
0.000000
 40
0.000000
 40
0.000000
 40
0.000000
 40
10.469916
 40
20.606162
 40
31.076081
 40
31.076081
 40
31.076081
 40
31.076081
 10
58.986985
 20
141.167932
 30
0.0
 10
55.476936
 20
141.713714
 30
0.0
 10
48.568702
 20
142.787885
 30
0.0
 10
40.606937
 20
150.749652
 30
0.0
 10
39.532767
 20
157.657888
 30
0.0
 10
38.986985
 20
161.167937
 30
0.0
 11
58.986985
 21
141.167932
 31
0.0
 11
48.877355
 21
143.890895
 31
0.0
 11
41.709948
 21
151.058304
 31
0.0
 11
38.986985
 21
161.167937
 31
0.0
  0
LWPOLYLINE
  5
155
100
AcDbEntity
  8
Layer_1
 62
7
100
AcDbPolyline
 90
2
 70
1
 10
38.986985
 20
161.167937
 30
0.0
 10
38.986985
 20
246.167940
 30
0.0
  0
SPLINE
  5
156
100
AcDbEntity
  8
Layer_1
 62
7
100
AcDbSpline
 70
0
 71
3
 72
10
 73
6
 74
4
 40
0.000000
 40
0.000000
 40
0.000000
 40
0.000000
 40
10.469915
 40
20.606160
 40
31.076076
 40
31.076076
 40
31.076076
 40
31.076076
 10
38.986985
 20
246.167940
 30
0.0
 10
39.532767
 20
249.677988
 30
0.0
 10
40.606937
 20
256.586222
 30
0.0
 10
48.568702
 20
264.547987
 30
0.0
 10
55.476936
 20
265.622157
 30
0.0
 10
58.986985
 20
266.167939
 30
0.0
 11
38.986985
 21
246.167940
 31
0.0
 11
41.709948
 21
256.277569
 31
0.0
 11
48.877355
 21
263.444976
 31
0.0
 11
58.986985
 21
266.167939
 31
0.0
  0
LWPOLYLINE
  5
157
100
AcDbEntity
  8
Layer_1
 62
7
100
AcDbPolyline
 90
2
 70
1
 10
58.986985
 20
266.167939
 30
0.0
 10
58.986985
 20
266.167939
 30
0.0
  0
ENDSEC
  0
SECTION
  2
OBJECTS
  0
DICTIONARY
  5
C
330
0
100
AcDbDictionary
  3
ACAD_GROUP
350
D
  3
ACAD_MLINESTYLE
350
17
  0
DICTIONARY
  5
D
330
C
100
AcDbDictionary
  0
DICTIONARY
  5
1A
330
C
100
AcDbDictionary
  0
DICTIONARY
  5
17
330
C
100
AcDbDictionary
  3
STANDARD
350
18
  0
DICTIONARY
  5
19
330
C
100
AcDbDictionary
  0
ENDSEC
  0
EOF
