<svg xmlns="http://www.w3.org/2000/svg" version="1.1" width="1292.7mm" height="352.7mm" viewBox = " 0 0 4580.436837 1249.725437" >
<!-- Front--> 
<g transform="translate(22.5000185, 22.5000185) " > 
 <circle cx="283.46479999999997" cy="283.46479999999997" r="212.5986" style="stroke:#000000;stroke-width:0.90000074;fill:none" /> 
 <circle cx="97.441025" cy="97.441025" r="7.9724474999999995" style="stroke:#000000;stroke-width:0.90000074;fill:none" /> 
 <circle cx="97.441025" cy="469.48857499999997" r="7.9724474999999995" style="stroke:#000000;stroke-width:0.90000074;fill:none" /> 
 <circle cx="469.48857499999997" cy="469.48857499999997" r="7.9724474999999995" style="stroke:#000000;stroke-width:0.90000074;fill:none" /> 
 <circle cx="469.48857499999997" cy="97.441025" r="7.9724474999999995" style="stroke:#000000;stroke-width:0.90000074;fill:none" /> 
 <circle cx="744.0951" cy="283.46479999999997" r="212.5986" style="stroke:#000000;stroke-width:0.90000074;fill:none" /> 
 <circle cx="1204.7254" cy="283.46479999999997" r="212.5986" style="stroke:#000000;stroke-width:0.90000074;fill:none" /> 
 <circle cx="1665.3557" cy="283.46479999999997" r="212.5986" style="stroke:#000000;stroke-width:0.90000074;fill:none" /> 
 <circle cx="558.071325" cy="97.441025" r="7.9724474999999995" style="stroke:#000000;stroke-width:0.90000074;fill:none" /> 
 <circle cx="930.118875" cy="97.441025" r="7.9724474999999995" style="stroke:#000000;stroke-width:0.90000074;fill:none" /> 
 <circle cx="1018.701625" cy="97.441025" r="7.9724474999999995" style="stroke:#000000;stroke-width:0.90000074;fill:none" /> 
 <circle cx="1390.749175" cy="97.441025" r="7.9724474999999995" style="stroke:#000000;stroke-width:0.90000074;fill:none" /> 
 <circle cx="1479.331925" cy="97.441025" r="7.9724474999999995" style="stroke:#000000;stroke-width:0.90000074;fill:none" /> 
 <circle cx="1851.379475" cy="97.441025" r="7.9724474999999995" style="stroke:#000000;stroke-width:0.90000074;fill:none" /> 
 <circle cx="1851.379475" cy="469.48857499999997" r="7.9724474999999995" style="stroke:#000000;stroke-width:0.90000074;fill:none" /> 
 <circle cx="1479.331925" cy="469.48857499999997" r="7.9724474999999995" style="stroke:#000000;stroke-width:0.90000074;fill:none" /> 
 <circle cx="1390.749175" cy="469.48857499999997" r="7.9724474999999995" style="stroke:#000000;stroke-width:0.90000074;fill:none" /> 
 <circle cx="1018.701625" cy="469.48857499999997" r="7.9724474999999995" style="stroke:#000000;stroke-width:0.90000074;fill:none" /> 
 <circle cx="930.118875" cy="469.48857499999997" r="7.9724474999999995" style="stroke:#000000;stroke-width:0.90000074;fill:none" /> 
 <circle cx="558.071325" cy="469.48857499999997" r="7.9724474999999995" style="stroke:#000000;stroke-width:0.90000074;fill:none" /> 
<polygon style="stroke:#000000; fill:none; stroke-width:0.90000074" points="17.716549999999998, 0 141.73239999999998, 0 141.73239999999998, 17.716549999999998 205.33481449999996, 17.716549999999998 205.33481449999996, 19.488204999999997 200.01984949999996, 19.488204999999997 200.01984949999996, 31.181127999999998 205.33481449999996, 31.181127999999998 205.33481449999996, 42.874050999999994 219.8623855, 42.874050999999994 219.8623855, 31.181127999999998 225.1773505, 31.181127999999998 225.1773505, 19.488204999999997 219.8623855, 19.488204999999997 219.8623855, 17.716549999999998 283.46479999999997, 17.716549999999998 283.46479999999997, 0 389.7641, 0 389.7641, 17.716549999999998 496.0634, 17.716549999999998 496.0634, 0 602.3626999999999, 0 602.3626999999999, 17.716549999999998 708.662, 17.716549999999998 708.662, 0 814.9612999999999, 0 814.9612999999999, 17.716549999999998 921.2606, 17.716549999999998 921.2606, 0 1027.5599, 0 1027.5599, 17.716549999999998 1133.8591999999999, 17.716549999999998 1133.8591999999999, 0 1240.1585, 0 1240.1585, 17.716549999999998 1346.4578, 17.716549999999998 1346.4578, 0 1452.7571, 0 1452.7571, 17.716549999999998 1559.0564, 17.716549999999998 1559.0564, 0 1665.3557, 0 1665.3557, 17.716549999999998 1728.9581145, 17.716549999999998 1728.9581145, 19.488204999999997 1723.6431495, 19.488204999999997 1723.6431495, 31.181127999999998 1728.9581145, 31.181127999999998 1728.9581145, 42.874050999999994 1743.4856855, 42.874050999999994 1743.4856855, 31.181127999999998 1748.8006505, 31.181127999999998 1748.8006505, 19.488204999999997 1743.4856855, 19.488204999999997 1743.4856855, 17.716549999999998 1807.0881, 17.716549999999998 1807.0881, 0 1931.10395, 0 1931.10395, 113.38592 1948.8205, 113.38592 1948.8205, 226.77184 1931.10395, 226.77184 1931.10395, 276.2010145 1929.332295, 276.2010145 1929.332295, 270.88604949999996 1917.6393719999999, 270.88604949999996 1917.6393719999999, 276.2010145 1905.946449, 276.2010145 1905.946449, 290.72858549999995 1917.6393719999999, 290.72858549999995 1917.6393719999999, 296.0435505 1929.332295, 296.0435505 1929.332295, 290.72858549999995 1931.10395, 290.72858549999995 1931.10395, 340.15776 1948.8205, 340.15776 1948.8205, 453.54368 1931.10395, 453.54368 1931.10395, 566.9295999999999 1807.0881, 566.9295999999999 1807.0881, 549.21305 1743.4856855, 549.21305 1743.4856855, 547.4413949999999 1748.8006505, 547.4413949999999 1748.8006505, 535.748472 1743.4856855, 535.748472 1743.4856855, 524.0555489999999 1728.9581145, 524.0555489999999 1728.9581145, 535.748472 1723.6431495, 535.748472 1723.6431495, 547.4413949999999 1728.9581145, 547.4413949999999 1728.9581145, 549.21305 1665.3557, 549.21305 1665.3557, 566.9295999999999 1559.0564, 566.9295999999999 1559.0564, 549.21305 1452.7571, 549.21305 1452.7571, 566.9295999999999 1346.4578, 566.9295999999999 1346.4578, 549.21305 1240.1585, 549.21305 1240.1585, 566.9295999999999 1133.8591999999999, 566.9295999999999 1133.8591999999999, 549.21305 1027.5599, 549.21305 1027.5599, 566.9295999999999 921.2606, 566.9295999999999 921.2606, 549.21305 814.9612999999999, 549.21305 814.9612999999999, 566.9295999999999 708.662, 566.9295999999999 708.662, 549.21305 602.3626999999999, 549.21305 602.3626999999999, 566.9295999999999 496.0634, 566.9295999999999 496.0634, 549.21305 389.7641, 549.21305 389.7641, 566.9295999999999 283.46479999999997, 566.9295999999999 283.46479999999997, 549.21305 219.8623855, 549.21305 219.8623855, 547.4413949999999 225.1773505, 547.4413949999999 225.1773505, 535.748472 219.8623855, 535.748472 219.8623855, 524.0555489999999 205.33481449999996, 524.0555489999999 205.33481449999996, 535.748472 200.01984949999996, 535.748472 200.01984949999996, 547.4413949999999 205.33481449999996, 547.4413949999999 205.33481449999996, 549.21305 141.73239999999998, 549.21305 141.73239999999998, 566.9295999999999 17.716549999999998, 566.9295999999999 17.716549999999998, 453.54368 0, 453.54368 0, 340.15776 17.716549999999998, 340.15776 17.716549999999998, 290.72858549999995 19.488204999999997, 290.72858549999995 19.488204999999997, 296.0435505 31.181127999999998, 296.0435505 31.181127999999998, 290.72858549999995 42.874050999999994, 290.72858549999995 42.874050999999994, 276.2010145 31.181127999999998, 276.2010145 31.181127999999998, 270.88604949999996 19.488204999999997, 270.88604949999996 19.488204999999997, 276.2010145 17.716549999999998, 276.2010145 17.716549999999998, 226.77184 0, 226.77184 0, 113.38592 17.716549999999998, 113.38592 "/> 
</g>
<!-- Back--> 
<g transform="translate(1971.3205185000002, 22.5000185) " > 
 <circle cx="106.2993" cy="460.6303" r="21.25986" style="stroke:#000000;stroke-width:0.90000074;fill:none" /> 
 <rect x="946.06377" y="430.512165" width="56.69296" height="28.34648" rx="0.8858275" ry="0.8858275" style="stroke:#000000;stroke-width:0.90000074;fill:none" /> 
<polygon style="stroke:#000000; fill:none; stroke-width:0.90000074" points="17.716549999999998, 0 141.73239999999998, 0 141.73239999999998, 17.716549999999998 205.33481449999996, 17.716549999999998 205.33481449999996, 19.488204999999997 200.01984949999996, 19.488204999999997 200.01984949999996, 31.181127999999998 205.33481449999996, 31.181127999999998 205.33481449999996, 42.874050999999994 219.8623855, 42.874050999999994 219.8623855, 31.181127999999998 225.1773505, 31.181127999999998 225.1773505, 19.488204999999997 219.8623855, 19.488204999999997 219.8623855, 17.716549999999998 283.46479999999997, 17.716549999999998 283.46479999999997, 0 389.7641, 0 389.7641, 17.716549999999998 496.0634, 17.716549999999998 496.0634, 0 602.3626999999999, 0 602.3626999999999, 17.716549999999998 708.662, 17.716549999999998 708.662, 0 814.9612999999999, 0 814.9612999999999, 17.716549999999998 921.2606, 17.716549999999998 921.2606, 0 1027.5599, 0 1027.5599, 17.716549999999998 1133.8591999999999, 17.716549999999998 1133.8591999999999, 0 1240.1585, 0 1240.1585, 17.716549999999998 1346.4578, 17.716549999999998 1346.4578, 0 1452.7571, 0 1452.7571, 17.716549999999998 1559.0564, 17.716549999999998 1559.0564, 0 1665.3557, 0 1665.3557, 17.716549999999998 1728.9581145, 17.716549999999998 1728.9581145, 19.488204999999997 1723.6431495, 19.488204999999997 1723.6431495, 31.181127999999998 1728.9581145, 31.181127999999998 1728.9581145, 42.874050999999994 1743.4856855, 42.874050999999994 1743.4856855, 31.181127999999998 1748.8006505, 31.181127999999998 1748.8006505, 19.488204999999997 1743.4856855, 19.488204999999997 1743.4856855, 17.716549999999998 1807.0881, 17.716549999999998 1807.0881, 0 1931.10395, 0 1931.10395, 113.38592 1948.8205, 113.38592 1948.8205, 226.77184 1931.10395, 226.77184 1931.10395, 276.2010145 1929.332295, 276.2010145 1929.332295, 270.88604949999996 1917.6393719999999, 270.88604949999996 1917.6393719999999, 276.2010145 1905.946449, 276.2010145 1905.946449, 290.72858549999995 1917.6393719999999, 290.72858549999995 1917.6393719999999, 296.0435505 1929.332295, 296.0435505 1929.332295, 290.72858549999995 1931.10395, 290.72858549999995 1931.10395, 340.15776 1948.8205, 340.15776 1948.8205, 453.54368 1931.10395, 453.54368 1931.10395, 566.9295999999999 1807.0881, 566.9295999999999 1807.0881, 549.21305 1743.4856855, 549.21305 1743.4856855, 547.4413949999999 1748.8006505, 547.4413949999999 1748.8006505, 535.748472 1743.4856855, 535.748472 1743.4856855, 524.0555489999999 1728.9581145, 524.0555489999999 1728.9581145, 535.748472 1723.6431495, 535.748472 1723.6431495, 547.4413949999999 1728.9581145, 547.4413949999999 1728.9581145, 549.21305 1665.3557, 549.21305 1665.3557, 566.9295999999999 1559.0564, 566.9295999999999 1559.0564, 549.21305 1452.7571, 549.21305 1452.7571, 566.9295999999999 1346.4578, 566.9295999999999 1346.4578, 549.21305 1240.1585, 549.21305 1240.1585, 566.9295999999999 1133.8591999999999, 566.9295999999999 1133.8591999999999, 549.21305 1027.5599, 549.21305 1027.5599, 566.9295999999999 921.2606, 566.9295999999999 921.2606, 549.21305 814.9612999999999, 549.21305 814.9612999999999, 566.9295999999999 708.662, 566.9295999999999 708.662, 549.21305 602.3626999999999, 549.21305 602.3626999999999, 566.9295999999999 496.0634, 566.9295999999999 496.0634, 549.21305 389.7641, 549.21305 389.7641, 566.9295999999999 283.46479999999997, 566.9295999999999 283.46479999999997, 549.21305 219.8623855, 549.21305 219.8623855, 547.4413949999999 225.1773505, 547.4413949999999 225.1773505, 535.748472 219.8623855, 535.748472 219.8623855, 524.0555489999999 205.33481449999996, 524.0555489999999 205.33481449999996, 535.748472 200.01984949999996, 535.748472 200.01984949999996, 547.4413949999999 205.33481449999996, 547.4413949999999 205.33481449999996, 549.21305 141.73239999999998, 549.21305 141.73239999999998, 566.9295999999999 17.716549999999998, 566.9295999999999 17.716549999999998, 453.54368 0, 453.54368 0, 340.15776 17.716549999999998, 340.15776 17.716549999999998, 290.72858549999995 19.488204999999997, 290.72858549999995 19.488204999999997, 296.0435505 31.181127999999998, 296.0435505 31.181127999999998, 290.72858549999995 42.874050999999994, 290.72858549999995 42.874050999999994, 276.2010145 31.181127999999998, 276.2010145 31.181127999999998, 270.88604949999996 19.488204999999997, 270.88604949999996 19.488204999999997, 276.2010145 17.716549999999998, 276.2010145 17.716549999999998, 226.77184 0, 226.77184 0, 113.38592 17.716549999999998, 113.38592 "/> 
</g>
<!-- Left--> 
<g transform="translate(3920.1410184999995, 22.5000185) " > 
<polygon style="stroke:#000000; fill:none; stroke-width:0.90000074" points="0, 17.716549999999998 132.874125, 17.716549999999998 132.874125, 0 192.75606399999998, 0 192.75606399999998, 13.110247000000001 205.866311, 13.110247000000001 205.866311, 0 265.74825, 0 265.74825, 17.716549999999998 372.04755, 17.716549999999998 372.04755, 0 431.92948900000005, 0 431.92948900000005, 13.110247000000001 445.039736, 13.110247000000001 445.039736, 0 504.921675, 0 504.921675, 17.716549999999998 637.7958, 17.716549999999998 637.7958, 113.38592 620.07925, 113.38592 620.07925, 226.77184 637.7958, 226.77184 637.7958, 276.9096765 624.685553, 276.9096765 624.685553, 290.01992349999995 637.7958, 290.01992349999995 637.7958, 340.15776 620.07925, 340.15776 620.07925, 453.54368 637.7958, 453.54368 637.7958, 549.21305 504.921675, 549.21305 504.921675, 566.9295999999999 445.039736, 566.9295999999999 445.039736, 553.819353 431.92948900000005, 553.819353 431.92948900000005, 566.9295999999999 372.04755, 566.9295999999999 372.04755, 549.21305 265.74825, 549.21305 265.74825, 566.9295999999999 205.866311, 566.9295999999999 205.866311, 553.819353 192.75606399999998, 553.819353 192.75606399999998, 566.9295999999999 132.874125, 566.9295999999999 132.874125, 549.21305 0, 549.21305 0, 453.54368 17.716549999999998, 453.54368 17.716549999999998, 340.15776 0, 340.15776 0, 290.01992349999995 13.110247000000001, 290.01992349999995 13.110247000000001, 276.9096765 0, 276.9096765 0, 226.77184 17.716549999999998, 226.77184 17.716549999999998, 113.38592 0, 113.38592 "/> 
</g>
<!-- Right--> 
<g transform="translate(3920.1410184999995, 589.4296185) " > 
<polygon style="stroke:#000000; fill:none; stroke-width:0.90000074" points="0, 17.716549999999998 132.874125, 17.716549999999998 132.874125, 0 192.75606399999998, 0 192.75606399999998, 13.110247000000001 205.866311, 13.110247000000001 205.866311, 0 265.74825, 0 265.74825, 17.716549999999998 372.04755, 17.716549999999998 372.04755, 0 431.92948900000005, 0 431.92948900000005, 13.110247000000001 445.039736, 13.110247000000001 445.039736, 0 504.921675, 0 504.921675, 17.716549999999998 637.7958, 17.716549999999998 637.7958, 113.38592 620.07925, 113.38592 620.07925, 226.77184 637.7958, 226.77184 637.7958, 276.9096765 624.685553, 276.9096765 624.685553, 290.01992349999995 637.7958, 290.01992349999995 637.7958, 340.15776 620.07925, 340.15776 620.07925, 453.54368 637.7958, 453.54368 637.7958, 549.21305 504.921675, 549.21305 504.921675, 566.9295999999999 445.039736, 566.9295999999999 445.039736, 553.819353 431.92948900000005, 553.819353 431.92948900000005, 566.9295999999999 372.04755, 566.9295999999999 372.04755, 549.21305 265.74825, 549.21305 265.74825, 566.9295999999999 205.866311, 566.9295999999999 205.866311, 553.819353 192.75606399999998, 553.819353 192.75606399999998, 566.9295999999999 132.874125, 566.9295999999999 132.874125, 549.21305 0, 549.21305 0, 453.54368 17.716549999999998, 453.54368 17.716549999999998, 340.15776 0, 340.15776 0, 290.01992349999995 13.110247000000001, 290.01992349999995 13.110247000000001, 276.9096765 0, 276.9096765 0, 226.77184 17.716549999999998, 226.77184 17.716549999999998, 113.38592 0, 113.38592 "/> 
</g>
<!-- Top--> 
<g transform="translate(22.5000185, 589.4296185) " > 
 <rect x="77.95282" y="70.86619999999999" width="389.7641" height="425.1972" rx="17.716549999999998" ry="17.716549999999998" style="stroke:#000000;stroke-width:0.90000074;fill:none" /> 
 <rect x="545.66974" y="70.86619999999999" width="389.7641" height="425.1972" rx="17.716549999999998" ry="17.716549999999998" style="stroke:#000000;stroke-width:0.90000074;fill:none" /> 
 <rect x="1013.38666" y="70.86619999999999" width="389.7641" height="425.1972" rx="17.716549999999998" ry="17.716549999999998" style="stroke:#000000;stroke-width:0.90000074;fill:none" /> 
 <rect x="1481.10358" y="70.86619999999999" width="389.7641" height="425.1972" rx="17.716549999999998" ry="17.716549999999998" style="stroke:#000000;stroke-width:0.90000074;fill:none" /> 
 <circle cx="113.38592" cy="53.14965" r="6.2007925" style="stroke:#000000;stroke-width:0.90000074;fill:none" /> 
 <circle cx="113.38592" cy="513.77995" r="6.2007925" style="stroke:#000000;stroke-width:0.90000074;fill:none" /> 
 <circle cx="432.28382" cy="53.14965" r="6.2007925" style="stroke:#000000;stroke-width:0.90000074;fill:none" /> 
 <circle cx="432.28382" cy="513.77995" r="6.2007925" style="stroke:#000000;stroke-width:0.90000074;fill:none" /> 
 <circle cx="581.10284" cy="53.14965" r="6.2007925" style="stroke:#000000;stroke-width:0.90000074;fill:none" /> 
 <circle cx="581.10284" cy="513.77995" r="6.2007925" style="stroke:#000000;stroke-width:0.90000074;fill:none" /> 
 <circle cx="900.00074" cy="53.14965" r="6.2007925" style="stroke:#000000;stroke-width:0.90000074;fill:none" /> 
 <circle cx="900.00074" cy="513.77995" r="6.2007925" style="stroke:#000000;stroke-width:0.90000074;fill:none" /> 
 <circle cx="1048.81976" cy="53.14965" r="6.2007925" style="stroke:#000000;stroke-width:0.90000074;fill:none" /> 
 <circle cx="1048.81976" cy="513.77995" r="6.2007925" style="stroke:#000000;stroke-width:0.90000074;fill:none" /> 
 <circle cx="1367.71766" cy="53.14965" r="6.2007925" style="stroke:#000000;stroke-width:0.90000074;fill:none" /> 
 <circle cx="1367.71766" cy="513.77995" r="6.2007925" style="stroke:#000000;stroke-width:0.90000074;fill:none" /> 
 <circle cx="1516.53668" cy="53.14965" r="6.2007925" style="stroke:#000000;stroke-width:0.90000074;fill:none" /> 
 <circle cx="1516.53668" cy="513.77995" r="6.2007925" style="stroke:#000000;stroke-width:0.90000074;fill:none" /> 
 <circle cx="1835.4345799999999" cy="53.14965" r="6.2007925" style="stroke:#000000;stroke-width:0.90000074;fill:none" /> 
 <circle cx="1835.4345799999999" cy="513.77995" r="6.2007925" style="stroke:#000000;stroke-width:0.90000074;fill:none" /> 
<polygon style="stroke:#000000; fill:none; stroke-width:0.90000074" points="0, 17.716549999999998 141.73239999999998, 17.716549999999998 141.73239999999998, 0 206.04347649999997, 0 206.04347649999997, 13.110247000000001 219.15372349999998, 13.110247000000001 219.15372349999998, 0 283.46479999999997, 0 283.46479999999997, 17.716549999999998 389.7641, 17.716549999999998 389.7641, 0 496.0634, 0 496.0634, 17.716549999999998 602.3626999999999, 17.716549999999998 602.3626999999999, 0 708.662, 0 708.662, 17.716549999999998 814.9612999999999, 17.716549999999998 814.9612999999999, 0 921.2606, 0 921.2606, 17.716549999999998 1027.5599, 17.716549999999998 1027.5599, 0 1133.8591999999999, 0 1133.8591999999999, 17.716549999999998 1240.1585, 17.716549999999998 1240.1585, 0 1346.4578, 0 1346.4578, 17.716549999999998 1452.7571, 17.716549999999998 1452.7571, 0 1559.0564, 0 1559.0564, 17.716549999999998 1665.3557, 17.716549999999998 1665.3557, 0 1729.6667765, 0 1729.6667765, 13.110247000000001 1742.7770235, 13.110247000000001 1742.7770235, 0 1807.0881, 0 1807.0881, 17.716549999999998 1948.8205, 17.716549999999998 1948.8205, 132.874125 1931.10395, 132.874125 1931.10395, 192.04740199999998 1929.332295, 192.04740199999998 1929.332295, 186.73243699999998 1917.6393719999999, 186.73243699999998 1917.6393719999999, 192.04740199999998 1905.946449, 192.04740199999998 1905.946449, 206.574973 1917.6393719999999, 206.574973 1917.6393719999999, 211.889938 1929.332295, 211.889938 1929.332295, 206.574973 1931.10395, 206.574973 1931.10395, 265.74825 1948.8205, 265.74825 1948.8205, 372.04755 1931.10395, 372.04755 1931.10395, 431.22082700000004 1929.332295, 431.22082700000004 1929.332295, 425.905862 1917.6393719999999, 425.905862 1917.6393719999999, 431.22082700000004 1905.946449, 431.22082700000004 1905.946449, 445.748398 1917.6393719999999, 445.748398 1917.6393719999999, 451.06336300000004 1929.332295, 451.06336300000004 1929.332295, 445.748398 1931.10395, 445.748398 1931.10395, 504.921675 1948.8205, 504.921675 1948.8205, 620.07925 1807.0881, 620.07925 1807.0881, 637.7958 1742.7770235, 637.7958 1742.7770235, 624.685553 1729.6667765, 624.685553 1729.6667765, 637.7958 1665.3557, 637.7958 1665.3557, 620.07925 1559.0564, 620.07925 1559.0564, 637.7958 1452.7571, 637.7958 1452.7571, 620.07925 1346.4578, 620.07925 1346.4578, 637.7958 1240.1585, 637.7958 1240.1585, 620.07925 1133.8591999999999, 620.07925 1133.8591999999999, 637.7958 1027.5599, 637.7958 1027.5599, 620.07925 921.2606, 620.07925 921.2606, 637.7958 814.9612999999999, 637.7958 814.9612999999999, 620.07925 708.662, 620.07925 708.662, 637.7958 602.3626999999999, 637.7958 602.3626999999999, 620.07925 496.0634, 620.07925 496.0634, 637.7958 389.7641, 637.7958 389.7641, 620.07925 283.46479999999997, 620.07925 283.46479999999997, 637.7958 219.15372349999998, 637.7958 219.15372349999998, 624.685553 206.04347649999997, 624.685553 206.04347649999997, 637.7958 141.73239999999998, 637.7958 141.73239999999998, 620.07925 0, 620.07925 0, 504.921675 17.716549999999998, 504.921675 17.716549999999998, 445.748398 19.488204999999997, 445.748398 19.488204999999997, 451.06336300000004 31.181127999999998, 451.06336300000004 31.181127999999998, 445.748398 42.874050999999994, 445.748398 42.874050999999994, 431.22082700000004 31.181127999999998, 431.22082700000004 31.181127999999998, 425.905862 19.488204999999997, 425.905862 19.488204999999997, 431.22082700000004 17.716549999999998, 431.22082700000004 17.716549999999998, 372.04755 0, 372.04755 0, 265.74825 17.716549999999998, 265.74825 17.716549999999998, 206.574973 19.488204999999997, 206.574973 19.488204999999997, 211.889938 31.181127999999998, 211.889938 31.181127999999998, 206.574973 42.874050999999994, 206.574973 42.874050999999994, 192.04740199999998 31.181127999999998, 192.04740199999998 31.181127999999998, 186.73243699999998 19.488204999999997, 186.73243699999998 19.488204999999997, 192.04740199999998 17.716549999999998, 192.04740199999998 17.716549999999998, 132.874125 0, 132.874125 "/> 
</g>
<!-- Bottom--> 
<g transform="translate(1971.3205185000002, 589.4296185) " > 
 <circle cx="814.9612999999999" cy="591.73277" r="6.2007925" style="stroke:#000000;stroke-width:0.90000074;fill:none" /> 
 <circle cx="814.9612999999999" cy="272.83487" r="6.2007925" style="stroke:#000000;stroke-width:0.90000074;fill:none" /> 
 <circle cx="814.9612999999999" cy="531.4965" r="6.2007925" style="stroke:#000000;stroke-width:0.90000074;fill:none" /> 
 <circle cx="814.9612999999999" cy="212.5986" r="6.2007925" style="stroke:#000000;stroke-width:0.90000074;fill:none" /> 
 <circle cx="1133.8591999999999" cy="591.73277" r="6.2007925" style="stroke:#000000;stroke-width:0.90000074;fill:none" /> 
 <circle cx="1133.8591999999999" cy="272.83487" r="6.2007925" style="stroke:#000000;stroke-width:0.90000074;fill:none" /> 
 <circle cx="1133.8591999999999" cy="531.4965" r="6.2007925" style="stroke:#000000;stroke-width:0.90000074;fill:none" /> 
 <circle cx="1133.8591999999999" cy="212.5986" r="6.2007925" style="stroke:#000000;stroke-width:0.90000074;fill:none" /> 
 <circle cx="70.86619999999999" cy="70.86619999999999" r="7.9724474999999995" style="stroke:#000000;stroke-width:0.90000074;fill:none" /> 
 <circle cx="1877.9542999999999" cy="70.86619999999999" r="7.9724474999999995" style="stroke:#000000;stroke-width:0.90000074;fill:none" /> 
 <circle cx="1877.9542999999999" cy="566.9295999999999" r="7.9724474999999995" style="stroke:#000000;stroke-width:0.90000074;fill:none" /> 
 <circle cx="70.86619999999999" cy="566.9295999999999" r="7.9724474999999995" style="stroke:#000000;stroke-width:0.90000074;fill:none" /> 
<polygon style="stroke:#000000; fill:none; stroke-width:0.90000074" points="0, 17.716549999999998 141.73239999999998, 17.716549999999998 141.73239999999998, 0 206.04347649999997, 0 206.04347649999997, 13.110247000000001 219.15372349999998, 13.110247000000001 219.15372349999998, 0 283.46479999999997, 0 283.46479999999997, 17.716549999999998 389.7641, 17.716549999999998 389.7641, 0 496.0634, 0 496.0634, 17.716549999999998 602.3626999999999, 17.716549999999998 602.3626999999999, 0 708.662, 0 708.662, 17.716549999999998 814.9612999999999, 17.716549999999998 814.9612999999999, 0 921.2606, 0 921.2606, 17.716549999999998 1027.5599, 17.716549999999998 1027.5599, 0 1133.8591999999999, 0 1133.8591999999999, 17.716549999999998 1240.1585, 17.716549999999998 1240.1585, 0 1346.4578, 0 1346.4578, 17.716549999999998 1452.7571, 17.716549999999998 1452.7571, 0 1559.0564, 0 1559.0564, 17.716549999999998 1665.3557, 17.716549999999998 1665.3557, 0 1729.6667765, 0 1729.6667765, 13.110247000000001 1742.7770235, 13.110247000000001 1742.7770235, 0 1807.0881, 0 1807.0881, 17.716549999999998 1948.8205, 17.716549999999998 1948.8205, 132.874125 1931.10395, 132.874125 1931.10395, 192.04740199999998 1929.332295, 192.04740199999998 1929.332295, 186.73243699999998 1917.6393719999999, 186.73243699999998 1917.6393719999999, 192.04740199999998 1905.946449, 192.04740199999998 1905.946449, 206.574973 1917.6393719999999, 206.574973 1917.6393719999999, 211.889938 1929.332295, 211.889938 1929.332295, 206.574973 1931.10395, 206.574973 1931.10395, 265.74825 1948.8205, 265.74825 1948.8205, 372.04755 1931.10395, 372.04755 1931.10395, 431.22082700000004 1929.332295, 431.22082700000004 1929.332295, 425.905862 1917.6393719999999, 425.905862 1917.6393719999999, 431.22082700000004 1905.946449, 431.22082700000004 1905.946449, 445.748398 1917.6393719999999, 445.748398 1917.6393719999999, 451.06336300000004 1929.332295, 451.06336300000004 1929.332295, 445.748398 1931.10395, 445.748398 1931.10395, 504.921675 1948.8205, 504.921675 1948.8205, 620.07925 1807.0881, 620.07925 1807.0881, 637.7958 1742.7770235, 637.7958 1742.7770235, 624.685553 1729.6667765, 624.685553 1729.6667765, 637.7958 1665.3557, 637.7958 1665.3557, 620.07925 1559.0564, 620.07925 1559.0564, 637.7958 1452.7571, 637.7958 1452.7571, 620.07925 1346.4578, 620.07925 1346.4578, 637.7958 1240.1585, 637.7958 1240.1585, 620.07925 1133.8591999999999, 620.07925 1133.8591999999999, 637.7958 1027.5599, 637.7958 1027.5599, 620.07925 921.2606, 620.07925 921.2606, 637.7958 814.9612999999999, 637.7958 814.9612999999999, 620.07925 708.662, 620.07925 708.662, 637.7958 602.3626999999999, 637.7958 602.3626999999999, 620.07925 496.0634, 620.07925 496.0634, 637.7958 389.7641, 637.7958 389.7641, 620.07925 283.46479999999997, 620.07925 283.46479999999997, 637.7958 219.15372349999998, 637.7958 219.15372349999998, 624.685553 206.04347649999997, 624.685553 206.04347649999997, 637.7958 141.73239999999998, 637.7958 141.73239999999998, 620.07925 0, 620.07925 0, 504.921675 17.716549999999998, 504.921675 17.716549999999998, 445.748398 19.488204999999997, 445.748398 19.488204999999997, 451.06336300000004 31.181127999999998, 451.06336300000004 31.181127999999998, 445.748398 42.874050999999994, 445.748398 42.874050999999994, 431.22082700000004 31.181127999999998, 431.22082700000004 31.181127999999998, 425.905862 19.488204999999997, 425.905862 19.488204999999997, 431.22082700000004 17.716549999999998, 431.22082700000004 17.716549999999998, 372.04755 0, 372.04755 0, 265.74825 17.716549999999998, 265.74825 17.716549999999998, 206.574973 19.488204999999997, 206.574973 19.488204999999997, 211.889938 31.181127999999998, 211.889938 31.181127999999998, 206.574973 42.874050999999994, 206.574973 42.874050999999994, 192.04740199999998 31.181127999999998, 192.04740199999998 31.181127999999998, 186.73243699999998 19.488204999999997, 186.73243699999998 19.488204999999997, 192.04740199999998 17.716549999999998, 192.04740199999998 17.716549999999998, 132.874125 0, 132.874125 "/> 
</g></svg>