<?xml version="1.0" encoding="UTF-8" standalone="no"?>
<!-- Created with Inkscape (http://www.inkscape.org/) -->

<svg
   xmlns:dc="http://purl.org/dc/elements/1.1/"
   xmlns:cc="http://creativecommons.org/ns#"
   xmlns:rdf="http://www.w3.org/1999/02/22-rdf-syntax-ns#"
   xmlns:svg="http://www.w3.org/2000/svg"
   xmlns="http://www.w3.org/2000/svg"
   xmlns:sodipodi="http://sodipodi.sourceforge.net/DTD/sodipodi-0.dtd"
   xmlns:inkscape="http://www.inkscape.org/namespaces/inkscape"
   width="600mm"
   height="400mm"
   viewBox="0 0 2125.9842 1417.3228"
   id="svg2"
   version="1.1"
   inkscape:version="0.91 r13725"
   sodipodi:docname="Sheet1.svg">
  <defs
     id="defs4" />
  <sodipodi:namedview
     id="base"
     pagecolor="#ffffff"
     bordercolor="#666666"
     borderopacity="1.0"
     inkscape:pageopacity="0.0"
     inkscape:pageshadow="2"
     inkscape:zoom="0.7"
     inkscape:cx="1014.5425"
     inkscape:cy="606.18584"
     inkscape:document-units="mm"
     inkscape:current-layer="layer1"
     showgrid="true"
     width="600mm"
     inkscape:showpageshadow="false"
     inkscape:window-width="2560"
     inkscape:window-height="1335"
     inkscape:window-x="2552"
     inkscape:window-y="1072"
     inkscape:window-maximized="1">
    <inkscape:grid
       type="xygrid"
       id="grid4136" />
  </sodipodi:namedview>
  <metadata
     id="metadata7">
    <rdf:RDF>
      <cc:Work
         rdf:about="">
        <dc:format>image/svg+xml</dc:format>
        <dc:type
           rdf:resource="http://purl.org/dc/dcmitype/StillImage" />
        <dc:title></dc:title>
      </cc:Work>
    </rdf:RDF>
  </metadata>
  <g
     inkscape:label="Layer 1"
     inkscape:groupmode="layer"
     id="layer1"
     transform="translate(0,364.96063)">
    <g
       transform="translate(95.030931,-262.91625)"
       id="g7010">
      <path
         style="fill:none;stroke:#000000;stroke-width:0.90000075"
         d="M 496.06342,283.46481 A 212.5986,212.5986 0 0 1 283.46481,496.06342 212.5986,212.5986 0 0 1 70.866211,283.46481 212.5986,212.5986 0 0 1 283.46481,70.866211 212.5986,212.5986 0 0 1 496.06342,283.46481 Z"
         id="circle7012" />
      <path
         style="fill:none;stroke:#000000;stroke-width:0.90000075"
         d="m 105.41347,97.441025 a 7.9724474,7.9724474 0 0 1 -7.972445,7.972445 7.9724474,7.9724474 0 0 1 -7.972448,-7.972445 7.9724474,7.9724474 0 0 1 7.972448,-7.972448 7.9724474,7.9724474 0 0 1 7.972445,7.972448 z"
         id="circle7014" />
      <path
         style="fill:none;stroke:#000000;stroke-width:0.90000075"
         d="m 105.41347,469.48859 a 7.9724474,7.9724474 0 0 1 -7.972445,7.97244 7.9724474,7.9724474 0 0 1 -7.972448,-7.97244 7.9724474,7.9724474 0 0 1 7.972448,-7.97245 7.9724474,7.9724474 0 0 1 7.972445,7.97245 z"
         id="circle7016" />
      <path
         style="fill:none;stroke:#000000;stroke-width:0.90000075"
         d="m 477.46103,469.48859 a 7.9724474,7.9724474 0 0 1 -7.97244,7.97244 7.9724474,7.9724474 0 0 1 -7.97245,-7.97244 7.9724474,7.9724474 0 0 1 7.97245,-7.97245 7.9724474,7.9724474 0 0 1 7.97244,7.97245 z"
         id="circle7018" />
      <path
         style="fill:none;stroke:#000000;stroke-width:0.90000075"
         d="m 477.46103,97.441025 a 7.9724474,7.9724474 0 0 1 -7.97244,7.972445 7.9724474,7.9724474 0 0 1 -7.97245,-7.972445 7.9724474,7.9724474 0 0 1 7.97245,-7.972448 7.9724474,7.9724474 0 0 1 7.97244,7.972448 z"
         id="circle7020" />
      <path
         style="fill:none;stroke:#000000;stroke-width:0.90000075"
         d="M 956.6937,283.46481 A 212.5986,212.5986 0 0 1 744.09509,496.06342 212.5986,212.5986 0 0 1 531.49649,283.46481 212.5986,212.5986 0 0 1 744.09509,70.866211 212.5986,212.5986 0 0 1 956.6937,283.46481 Z"
         id="circle7022" />
      <path
         style="fill:none;stroke:#000000;stroke-width:0.90000075"
         d="M 1417.3239,283.46481 A 212.5986,212.5986 0 0 1 1204.7253,496.06342 212.5986,212.5986 0 0 1 992.12674,283.46481 212.5986,212.5986 0 0 1 1204.7253,70.866211 212.5986,212.5986 0 0 1 1417.3239,283.46481 Z"
         id="circle7024" />
      <path
         style="fill:none;stroke:#000000;stroke-width:0.90000075"
         d="M 1877.9543,283.46481 A 212.5986,212.5986 0 0 1 1665.3557,496.06342 212.5986,212.5986 0 0 1 1452.7571,283.46481 212.5986,212.5986 0 0 1 1665.3557,70.866211 212.5986,212.5986 0 0 1 1877.9543,283.46481 Z"
         id="circle7026" />
      <path
         style="fill:none;stroke:#000000;stroke-width:0.90000075"
         d="m 566.0438,97.441025 a 7.9724474,7.9724474 0 0 1 -7.97245,7.972445 7.9724474,7.9724474 0 0 1 -7.97245,-7.972445 7.9724474,7.9724474 0 0 1 7.97245,-7.972448 7.9724474,7.9724474 0 0 1 7.97245,7.972448 z"
         id="circle7028" />
      <path
         style="fill:none;stroke:#000000;stroke-width:0.90000075"
         d="m 938.09134,97.441025 a 7.9724474,7.9724474 0 0 1 -7.97244,7.972445 7.9724474,7.9724474 0 0 1 -7.97245,-7.972445 7.9724474,7.9724474 0 0 1 7.97245,-7.972448 7.9724474,7.9724474 0 0 1 7.97244,7.972448 z"
         id="circle7030" />
      <path
         style="fill:none;stroke:#000000;stroke-width:0.90000075"
         d="m 1026.674,97.441025 a 7.9724474,7.9724474 0 0 1 -7.9724,7.972445 7.9724474,7.9724474 0 0 1 -7.9724,-7.972445 7.9724474,7.9724474 0 0 1 7.9724,-7.972448 7.9724474,7.9724474 0 0 1 7.9724,7.972448 z"
         id="circle7032" />
      <path
         style="fill:none;stroke:#000000;stroke-width:0.90000075"
         d="m 1398.7216,97.441025 a 7.9724474,7.9724474 0 0 1 -7.9725,7.972445 7.9724474,7.9724474 0 0 1 -7.9724,-7.972445 7.9724474,7.9724474 0 0 1 7.9724,-7.972448 7.9724474,7.9724474 0 0 1 7.9725,7.972448 z"
         id="circle7034" />
      <path
         style="fill:none;stroke:#000000;stroke-width:0.90000075"
         d="m 1487.3044,97.441025 a 7.9724474,7.9724474 0 0 1 -7.9725,7.972445 7.9724474,7.9724474 0 0 1 -7.9724,-7.972445 7.9724474,7.9724474 0 0 1 7.9724,-7.972448 7.9724474,7.9724474 0 0 1 7.9725,7.972448 z"
         id="circle7036" />
      <path
         style="fill:none;stroke:#000000;stroke-width:0.90000075"
         d="m 1859.352,97.441025 a 7.9724474,7.9724474 0 0 1 -7.9725,7.972445 7.9724474,7.9724474 0 0 1 -7.9724,-7.972445 7.9724474,7.9724474 0 0 1 7.9724,-7.972448 7.9724474,7.9724474 0 0 1 7.9725,7.972448 z"
         id="circle7038" />
      <path
         style="fill:none;stroke:#000000;stroke-width:0.90000075"
         d="m 1859.352,469.48859 a 7.9724474,7.9724474 0 0 1 -7.9725,7.97244 7.9724474,7.9724474 0 0 1 -7.9724,-7.97244 7.9724474,7.9724474 0 0 1 7.9724,-7.97245 7.9724474,7.9724474 0 0 1 7.9725,7.97245 z"
         id="circle7040" />
      <path
         style="fill:none;stroke:#000000;stroke-width:0.90000075"
         d="m 1487.3044,469.48859 a 7.9724474,7.9724474 0 0 1 -7.9725,7.97244 7.9724474,7.9724474 0 0 1 -7.9724,-7.97244 7.9724474,7.9724474 0 0 1 7.9724,-7.97245 7.9724474,7.9724474 0 0 1 7.9725,7.97245 z"
         id="circle7042" />
      <path
         style="fill:none;stroke:#000000;stroke-width:0.90000075"
         d="m 1398.7216,469.48859 a 7.9724474,7.9724474 0 0 1 -7.9725,7.97244 7.9724474,7.9724474 0 0 1 -7.9724,-7.97244 7.9724474,7.9724474 0 0 1 7.9724,-7.97245 7.9724474,7.9724474 0 0 1 7.9725,7.97245 z"
         id="circle7044" />
      <path
         style="fill:none;stroke:#000000;stroke-width:0.90000075"
         d="m 1026.674,469.48859 a 7.9724474,7.9724474 0 0 1 -7.9724,7.97244 7.9724474,7.9724474 0 0 1 -7.9724,-7.97244 7.9724474,7.9724474 0 0 1 7.9724,-7.97245 7.9724474,7.9724474 0 0 1 7.9724,7.97245 z"
         id="circle7046" />
      <path
         style="fill:none;stroke:#000000;stroke-width:0.90000075"
         d="m 938.09134,469.48859 a 7.9724474,7.9724474 0 0 1 -7.97244,7.97244 7.9724474,7.9724474 0 0 1 -7.97245,-7.97244 7.9724474,7.9724474 0 0 1 7.97245,-7.97245 7.9724474,7.9724474 0 0 1 7.97244,7.97245 z"
         id="circle7048" />
      <path
         style="fill:none;stroke:#000000;stroke-width:0.90000075"
         d="m 566.0438,469.48859 a 7.9724474,7.9724474 0 0 1 -7.97245,7.97244 7.9724474,7.9724474 0 0 1 -7.97245,-7.97244 7.9724474,7.9724474 0 0 1 7.97245,-7.97245 7.9724474,7.9724474 0 0 1 7.97245,7.97245 z"
         id="circle7050" />
      <path
         style="fill:none;stroke:#000000;stroke-width:0.90000075"
         d="m 200.01985,31.181128 5.31496,0 0,11.692923 14.52758,0 0,-11.692923 5.31496,0 0,-11.692923 -5.31496,0 0,-1.771655 63.60241,0 0,-17.71655 106.2993,0 0,17.71655 106.2993,0 0,-17.71655 106.2993,0 0,17.71655 106.2993,0 0,-17.71655 106.2993,0 0,17.71655 106.2993,0 0,-17.71655 106.2993,0 0,17.71655 106.2993,0 0,-17.71655 106.2993,0 0,17.71655 106.2993,0 0,-17.71655 106.2993,0 0,17.71655 106.2993,0 0,-17.71655 106.2993,0 0,17.71655 63.6024,0 0,1.771655 -5.315,0 0,11.692923 5.315,0 0,11.692923 14.5276,0 0,-11.692923 5.315,0 0,-11.692923 -5.315,0 0,-1.771655 63.6024,0 0,-17.71655 124.0158,0 0,113.38592 17.7166,0 0,113.38592 -17.7166,0 0,49.42917 -1.7716,0 0,-5.31496 -11.6929,0 0,5.31496 -11.693,0 0,14.52758 11.693,0 0,5.31496 11.6929,0 0,-5.31496 1.7716,0 0,49.42917 17.7166,0 0,113.38592 -17.7166,0 0,113.38592 -124.0158,0 0,-17.71655 -63.6024,0 0,-1.77166 5.315,0 0,-11.69292 -5.315,0 0,-11.69292 -14.5276,0 0,11.69292 -5.315,0 0,11.69292 5.315,0 0,1.77166 -63.6024,0 0,17.71655 -106.2993,0 0,-17.71655 -106.2993,0 0,17.71655 -106.2993,0 0,-17.71655 -106.2993,0 0,17.71655 -106.2993,0 0,-17.71655 -106.2993,0 0,17.71655 -106.2993,0 0,-17.71655 -106.2993,0 0,17.71655 -106.2993,0 0,-17.71655 -106.2993,0 0,17.71655 -106.2993,0 0,-17.71655 -106.2993,0 0,17.71655 -106.2993,0 0,-17.71655 -63.60241,0 0,-1.77166 5.31496,0 0,-11.69292 -5.31496,0 0,-11.69292 -14.52758,0 0,11.69292 -5.31496,0 0,11.69292 5.31496,0 0,1.77166 -63.60241,0 0,17.71655 -124.01585,0 0,-113.38592 -17.71655,0 0,-113.38592 17.71655,0 0,-49.42917 1.771655,0 0,5.31496 11.692923,0 0,-5.31496 11.692923,0 0,-14.52758 -11.692923,0 0,-5.31496 -11.692923,0 0,5.31496 -1.771655,0 0,-49.42917 -17.71655,0 0,-113.38592 17.71655,0 0,-113.38592 124.01585,0 0,17.71655 63.60241,0 0,1.771655 -5.31496,0 z"
         id="polygon7052" />
    </g>
    <g
       transform="translate(95.030931,304.01284)"
       id="g7070">
      <path
         style="fill:none;stroke:#000000;stroke-width:0.90000075"
         d="m 95.669371,70.866203 354.330999,0 c 9.81497,0 17.71655,7.901582 17.71655,17.716551 l 0,389.764106 c 0,9.81497 -7.90158,17.71655 -17.71655,17.71655 l -354.330999,0 c -9.81497,0 -17.716551,-7.90158 -17.716551,-17.71655 l 0,-389.764106 c 0,-9.814969 7.901581,-17.716551 17.716551,-17.716551 z"
         id="rect7072" />
      <path
         style="fill:none;stroke:#000000;stroke-width:0.90000075"
         d="m 563.38629,70.866203 354.331,0 c 9.81497,0 17.71655,7.901582 17.71655,17.716551 l 0,389.764106 c 0,9.81497 -7.90158,17.71655 -17.71655,17.71655 l -354.331,0 c -9.81497,0 -17.71655,-7.90158 -17.71655,-17.71655 l 0,-389.764106 c 0,-9.814969 7.90158,-17.716551 17.71655,-17.716551 z"
         id="rect7074" />
      <path
         style="fill:none;stroke:#000000;stroke-width:0.90000075"
         d="m 1031.1033,70.866203 354.331,0 c 9.8149,0 17.7165,7.901582 17.7165,17.716551 l 0,389.764106 c 0,9.81497 -7.9016,17.71655 -17.7165,17.71655 l -354.331,0 c -9.815,0 -17.7166,-7.90158 -17.7166,-17.71655 l 0,-389.764106 c 0,-9.814969 7.9016,-17.716551 17.7166,-17.716551 z"
         id="rect7076" />
      <path
         style="fill:none;stroke:#000000;stroke-width:0.90000075"
         d="m 1498.8202,70.866203 354.331,0 c 9.815,0 17.7165,7.901582 17.7165,17.716551 l 0,389.764106 c 0,9.81497 -7.9015,17.71655 -17.7165,17.71655 l -354.331,0 c -9.815,0 -17.7166,-7.90158 -17.7166,-17.71655 l 0,-389.764106 c 0,-9.814969 7.9016,-17.716551 17.7166,-17.716551 z"
         id="rect7078" />
      <path
         style="fill:none;stroke:#000000;stroke-width:0.90000075"
         d="m 119.58671,53.149651 a 6.2007923,6.2007923 0 0 1 -6.20079,6.200792 6.2007923,6.2007923 0 0 1 -6.20079,-6.200792 6.2007923,6.2007923 0 0 1 6.20079,-6.200793 6.2007923,6.2007923 0 0 1 6.20079,6.200793 z"
         id="circle7080" />
      <path
         style="fill:none;stroke:#000000;stroke-width:0.90000075"
         d="m 119.58671,513.77997 a 6.2007923,6.2007923 0 0 1 -6.20079,6.20079 6.2007923,6.2007923 0 0 1 -6.20079,-6.20079 6.2007923,6.2007923 0 0 1 6.20079,-6.20079 6.2007923,6.2007923 0 0 1 6.20079,6.20079 z"
         id="circle7082" />
      <path
         style="fill:none;stroke:#000000;stroke-width:0.90000075"
         d="m 438.48461,53.149651 a 6.2007923,6.2007923 0 0 1 -6.2008,6.200792 6.2007923,6.2007923 0 0 1 -6.20079,-6.200792 6.2007923,6.2007923 0 0 1 6.20079,-6.200793 6.2007923,6.2007923 0 0 1 6.2008,6.200793 z"
         id="circle7084" />
      <path
         style="fill:none;stroke:#000000;stroke-width:0.90000075"
         d="m 438.48461,513.77997 a 6.2007923,6.2007923 0 0 1 -6.2008,6.20079 6.2007923,6.2007923 0 0 1 -6.20079,-6.20079 6.2007923,6.2007923 0 0 1 6.20079,-6.20079 6.2007923,6.2007923 0 0 1 6.2008,6.20079 z"
         id="circle7086" />
      <path
         style="fill:none;stroke:#000000;stroke-width:0.90000075"
         d="m 587.30364,53.149651 a 6.2007923,6.2007923 0 0 1 -6.2008,6.200792 6.2007923,6.2007923 0 0 1 -6.20079,-6.200792 6.2007923,6.2007923 0 0 1 6.20079,-6.200793 6.2007923,6.2007923 0 0 1 6.2008,6.200793 z"
         id="circle7088" />
      <path
         style="fill:none;stroke:#000000;stroke-width:0.90000075"
         d="m 587.30364,513.77997 a 6.2007923,6.2007923 0 0 1 -6.2008,6.20079 6.2007923,6.2007923 0 0 1 -6.20079,-6.20079 6.2007923,6.2007923 0 0 1 6.20079,-6.20079 6.2007923,6.2007923 0 0 1 6.2008,6.20079 z"
         id="circle7090" />
      <path
         style="fill:none;stroke:#000000;stroke-width:0.90000075"
         d="m 906.20152,53.149651 a 6.2007923,6.2007923 0 0 1 -6.20079,6.200792 6.2007923,6.2007923 0 0 1 -6.20079,-6.200792 6.2007923,6.2007923 0 0 1 6.20079,-6.200793 6.2007923,6.2007923 0 0 1 6.20079,6.200793 z"
         id="circle7092" />
      <path
         style="fill:none;stroke:#000000;stroke-width:0.90000075"
         d="m 906.20152,513.77997 a 6.2007923,6.2007923 0 0 1 -6.20079,6.20079 6.2007923,6.2007923 0 0 1 -6.20079,-6.20079 6.2007923,6.2007923 0 0 1 6.20079,-6.20079 6.2007923,6.2007923 0 0 1 6.20079,6.20079 z"
         id="circle7094" />
      <path
         style="fill:none;stroke:#000000;stroke-width:0.90000075"
         d="m 1055.0205,53.149651 a 6.2007923,6.2007923 0 0 1 -6.2008,6.200792 6.2007923,6.2007923 0 0 1 -6.2008,-6.200792 6.2007923,6.2007923 0 0 1 6.2008,-6.200793 6.2007923,6.2007923 0 0 1 6.2008,6.200793 z"
         id="circle7096" />
      <path
         style="fill:none;stroke:#000000;stroke-width:0.90000075"
         d="m 1055.0205,513.77997 a 6.2007923,6.2007923 0 0 1 -6.2008,6.20079 6.2007923,6.2007923 0 0 1 -6.2008,-6.20079 6.2007923,6.2007923 0 0 1 6.2008,-6.20079 6.2007923,6.2007923 0 0 1 6.2008,6.20079 z"
         id="circle7098" />
      <path
         style="fill:none;stroke:#000000;stroke-width:0.90000075"
         d="m 1373.9184,53.149651 a 6.2007923,6.2007923 0 0 1 -6.2007,6.200792 6.2007923,6.2007923 0 0 1 -6.2008,-6.200792 6.2007923,6.2007923 0 0 1 6.2008,-6.200793 6.2007923,6.2007923 0 0 1 6.2007,6.200793 z"
         id="circle7100" />
      <path
         style="fill:none;stroke:#000000;stroke-width:0.90000075"
         d="m 1373.9184,513.77997 a 6.2007923,6.2007923 0 0 1 -6.2007,6.20079 6.2007923,6.2007923 0 0 1 -6.2008,-6.20079 6.2007923,6.2007923 0 0 1 6.2008,-6.20079 6.2007923,6.2007923 0 0 1 6.2007,6.20079 z"
         id="circle7102" />
      <path
         style="fill:none;stroke:#000000;stroke-width:0.90000075"
         d="m 1522.7374,53.149651 a 6.2007923,6.2007923 0 0 1 -6.2008,6.200792 6.2007923,6.2007923 0 0 1 -6.2008,-6.200792 6.2007923,6.2007923 0 0 1 6.2008,-6.200793 6.2007923,6.2007923 0 0 1 6.2008,6.200793 z"
         id="circle7104" />
      <path
         style="fill:none;stroke:#000000;stroke-width:0.90000075"
         d="m 1522.7374,513.77997 a 6.2007923,6.2007923 0 0 1 -6.2008,6.20079 6.2007923,6.2007923 0 0 1 -6.2008,-6.20079 6.2007923,6.2007923 0 0 1 6.2008,-6.20079 6.2007923,6.2007923 0 0 1 6.2008,6.20079 z"
         id="circle7106" />
      <path
         style="fill:none;stroke:#000000;stroke-width:0.90000075"
         d="m 1841.6354,53.149651 a 6.2007923,6.2007923 0 0 1 -6.2008,6.200792 6.2007923,6.2007923 0 0 1 -6.2008,-6.200792 6.2007923,6.2007923 0 0 1 6.2008,-6.200793 6.2007923,6.2007923 0 0 1 6.2008,6.200793 z"
         id="circle7108" />
      <path
         style="fill:none;stroke:#000000;stroke-width:0.90000075"
         d="m 1841.6354,513.77997 a 6.2007923,6.2007923 0 0 1 -6.2008,6.20079 6.2007923,6.2007923 0 0 1 -6.2008,-6.20079 6.2007923,6.2007923 0 0 1 6.2008,-6.20079 6.2007923,6.2007923 0 0 1 6.2008,6.20079 z"
         id="circle7110" />
      <path
         style="fill:none;stroke:#000000;stroke-width:0.90000075"
         d="m 219.15372,0 64.31108,0 0,17.71655 106.2993,0 0,-17.71655 106.2993,0 0,17.71655 106.2993,0 0,-17.71655 106.2993,0 0,17.71655 106.2993,0 0,-17.71655 106.2993,0 0,17.71655 106.2993,0 0,-17.71655 106.2993,0 0,17.71655 106.2993,0 0,-17.71655 106.2993,0 0,17.71655 106.2993,0 0,-17.71655 106.2993,0 0,17.71655 106.2993,0 0,-17.71655 64.3111,0 0,13.110247 13.1102,0 0,-13.110247 64.3111,0 0,17.71655 141.7324,0 0,115.15757 -17.7166,0 0,59.17328 -1.7716,0 0,-5.31496 -11.6929,0 0,5.31496 -11.693,0 0,14.52757 11.693,0 0,5.31497 11.6929,0 0,-5.31497 1.7716,0 0,59.17328 17.7166,0 0,106.2993 -17.7166,0 0,59.17328 -1.7716,0 0,-5.31497 -11.6929,0 0,5.31497 -11.693,0 0,14.52757 11.693,0 0,5.31496 11.6929,0 0,-5.31496 1.7716,0 0,59.17327 17.7166,0 0,115.15758 -141.7324,0 0,17.71655 -64.3111,0 0,-13.11025 -13.1102,0 0,13.11025 -64.3111,0 0,-17.71655 -106.2993,0 0,17.71655 -106.2993,0 0,-17.71655 -106.2993,0 0,17.71655 -106.2993,0 0,-17.71655 -106.2993,0 0,17.71655 -106.2993,0 0,-17.71655 -106.2993,0 0,17.71655 -106.2993,0 0,-17.71655 -106.2993,0 0,17.71655 -106.2993,0 0,-17.71655 -106.2993,0 0,17.71655 -106.2993,0 0,-17.71655 -106.2993,0 0,17.71655 -64.31108,0 0,-13.11025 -13.11024,0 0,13.11025 -64.31108,0 0,-17.71655 -141.7324,0 0,-115.15758 17.71655,0 0,-59.17327 1.771655,0 0,5.31496 11.692923,0 0,-5.31496 11.692923,0 0,-14.52757 -11.692923,0 0,-5.31497 -11.692923,0 0,5.31497 -1.771655,0 0,-59.17328 -17.71655,0 0,-106.2993 17.71655,0 0,-59.17328 1.771655,0 0,5.31497 11.692923,0 0,-5.31497 11.692923,0 0,-14.52757 -11.692923,0 0,-5.31496 -11.692923,0 0,5.31496 -1.771655,0 0,-59.17328 -17.71655,0 0,-115.15757 141.7324,0 0,-17.71655 64.31108,0 0,13.110247 13.11024,0 z"
         id="polygon7112" />
    </g>
  </g>
</svg>
