  0
SECTION
  2
HEADER
  9
$ACADVER
  1
AC1014
  9
$HANDSEED
  5
FFFF
  9
$MEASUREMENT
 70
     1
  0
ENDSEC
  0
SECTION
  2
TABLES
  0
TABLE
  2
VPORT
  5
8
330
0
100
AcDbSymbolTable
 70
     4
  0
VPORT
  5
2E
330
8
100
AcDbSymbolTableRecord
100
AcDbViewportTableRecord
  2
*ACTIVE
 70
     0
 10
0.0
 20
0.0
 11
1.0
 21
1.0
 12
210.0
 22
148.5
 13
0.0
 23
0.0
 14
10.0
 24
10.0
 15
10.0
 25
10.0
 16
0.0
 26
0.0
 36
1.0
 17
0.0
 27
0.0
 37
0.0
 40
341.0
 41
1.24
 42
50.0
 43
0.0
 44
0.0
 50
0.0
 51
0.0
 71
     0
 72
   100
 73
     1
 74
     3
 75
     0
 76
     0
 77
     0
 78
     0
  0
ENDTAB
  0
TABLE
  2
LTYPE
  5
5
330
0
100
AcDbSymbolTable
 70
     1
  0
LTYPE
  5
14
330
5
100
AcDbSymbolTableRecord
100
AcDbLinetypeTableRecord
  2
BYBLOCK
 70
     0
  3

 72
    65
 73
     0
 40
0.0
  0
LTYPE
  5
15
330
5
100
AcDbSymbolTableRecord
100
AcDbLinetypeTableRecord
  2
BYLAYER
 70
     0
  3

 72
    65
 73
     0
 40
0.0
  0
LTYPE
  5
16
330
5
100
AcDbSymbolTableRecord
100
AcDbLinetypeTableRecord
  2
CONTINUOUS
 70
     0
  3
Solid line
 72
    65
 73
     0
 40
0.0
  0
ENDTAB
  0
TABLE
  2
LAYER
  5
2
100
AcDbSymbolTable
 70
2
  0
LAYER
  5
50
100
AcDbSymbolTableRecord
100
AcDbLayerTableRecord
  2
0
 70
0
  6
CONTINUOUS
  0
LAYER
  5
51
100
AcDbSymbolTableRecord
100
AcDbLayerTableRecord
  2
Layer_1
 70
0
  6
CONTINUOUS
  0
ENDTAB
  0
TABLE
  2
STYLE
  5
3
330
0
100
AcDbSymbolTable
 70
     1
  0
STYLE
  5
11
330
3
100
AcDbSymbolTableRecord
100
AcDbTextStyleTableRecord
  2
STANDARD
 70
     0
 40
0.0
 41
1.0
 50
0.0
 71
     0
 42
2.5
  3
txt
  4

  0
ENDTAB
  0
TABLE
  2
VIEW
  5
6
330
0
100
AcDbSymbolTable
 70
     0
  0
ENDTAB
  0
TABLE
  2
UCS
  5
7
330
0
100
AcDbSymbolTable
 70
     0
  0
ENDTAB
  0
TABLE
  2
APPID
  5
9
330
0
100
AcDbSymbolTable
 70
     2
  0
APPID
  5
12
330
9
100
AcDbSymbolTableRecord
100
AcDbRegAppTableRecord
  2
ACAD
 70
     0
  0
ENDTAB
  0
TABLE
  2
DIMSTYLE
  5
A
330
0
100
AcDbSymbolTable
 70
     1
  0
DIMSTYLE
105
27
330
A
100
AcDbSymbolTableRecord
100
AcDbDimStyleTableRecord
  2
ISO-25
 70
     0
  3

  4

  5

  6

  7

 40
1.0
 41
2.5
 42
0.625
 43
3.75
 44
1.25
 45
0.0
 46
0.0
 47
0.0
 48
0.0
140
2.5
141
2.5
142
0.0
143
0.03937007874016
144
1.0
145
0.0
146
1.0
147
0.625
 71
     0
 72
     0
 73
     0
 74
     0
 75
     0
 76
     0
 77
     1
 78
     8
170
     0
171
     3
172
     1
173
     0
174
     0
175
     0
176
     0
177
     0
178
     0
270
     2
271
     2
272
     2
273
     2
274
     3
340
11
275
     0
280
     0
281
     0
282
     0
283
     0
284
     8
285
     0
286
     0
287
     3
288
     0
  0
ENDTAB
  0
TABLE
  2
BLOCK_RECORD
  5
1
330
0
100
AcDbSymbolTable
 70
     1
  0
BLOCK_RECORD
  5
1F
330
1
100
AcDbSymbolTableRecord
100
AcDbBlockTableRecord
  2
*MODEL_SPACE
  0
BLOCK_RECORD
  5
1B
330
1
100
AcDbSymbolTableRecord
100
AcDbBlockTableRecord
  2
*PAPER_SPACE
  0
ENDTAB
  0
ENDSEC
  0
SECTION
  2
BLOCKS
  0
BLOCK
  5
20
330
1F
100
AcDbEntity
  8
0
100
AcDbBlockBegin
  2
*MODEL_SPACE
 70
     0
 10
0.0
 20
0.0
 30
0.0
  3
*MODEL_SPACE
  1

  0
ENDBLK
  5
21
330
1F
100
AcDbEntity
  8
0
100
AcDbBlockEnd
  0
BLOCK
  5
1C
330
1B
100
AcDbEntity
 67
     1
  8
0
100
AcDbBlockBegin
  2
*PAPER_SPACE
  1

  0
ENDBLK
  5
1D
330
1B
100
AcDbEntity
 67
     1
  8
0
100
AcDbBlockEnd
  0
ENDSEC
  0
SECTION
  2
ENTITIES
  0
SPLINE
  5
100
100
AcDbEntity
  8
Layer_1
 62
7
100
AcDbSpline
 70
0
 71
3
 72
28
 73
24
 74
22
 40
0.000000
 40
0.000000
 40
0.000000
 40
0.000000
 40
15.706507
 40
31.283036
 40
46.989543
 40
62.696050
 40
78.272580
 40
93.979086
 40
109.685592
 40
125.262122
 40
140.968628
 40
156.675134
 40
172.251663
 40
187.958169
 40
219.329743
 40
249.770845
 40
281.142419
 40
296.848925
 40
312.425454
 40
328.131960
 40
343.838467
 40
359.414996
 40
375.121502
 40
375.121502
 40
375.121502
 40
375.121502
 10
166.819961
 20
291.200740
 30
0.0
 10
166.419987
 20
285.950237
 30
0.0
 10
165.623347
 20
275.492681
 30
0.0
 10
159.327828
 20
260.857792
 30
0.0
 10
149.749827
 20
248.284157
 30
0.0
 10
137.159318
 20
238.643241
 30
0.0
 10
122.528924
 20
232.581275
 30
0.0
 10
106.819647
 20
230.507517
 30
0.0
 10
91.111942
 20
232.581309
 30
0.0
 10
76.476858
 20
238.643111
 30
0.0
 10
63.903656
 20
248.284654
 30
0.0
 10
54.261210
 20
260.855945
 30
0.0
 10
48.204906
 20
275.499538
 30
0.0
 10
45.411469
 20
296.400656
 30
0.0
 10
52.458171
 20
322.642681
 30
0.0
 10
75.378145
 20
345.562428
 30
0.0
 10
101.619454
 20
352.609186
 30
0.0
 10
122.522042
 20
349.815742
 30
0.0
 10
137.161171
 20
343.759438
 30
0.0
 10
149.749328
 20
334.116998
 30
0.0
 10
159.327959
 20
321.543772
 30
0.0
 10
165.623313
 20
306.908777
 30
0.0
 10
166.419975
 20
296.451235
 30
0.0
 10
166.819961
 20
291.200739
 30
0.0
 11
166.819961
 21
291.200740
 31
0.0
 11
164.764328
 21
275.629332
 31
0.0
 11
158.803449
 21
261.238495
 31
0.0
 11
149.246354
 21
248.774295
 31
0.0
 11
136.782154
 21
239.217200
 31
0.0
 11
122.391316
 21
233.256320
 31
0.0
 11
106.819909
 21
231.200688
 31
0.0
 11
91.248502
 21
233.256321
 31
0.0
 11
76.857666
 21
239.217201
 31
0.0
 11
64.393467
 21
248.774296
 31
0.0
 11
54.836372
 21
261.238496
 31
0.0
 11
48.875493
 21
275.629333
 31
0.0
 11
46.819860
 21
291.200739
 31
0.0
 11
55.011626
 21
321.483913
 31
0.0
 11
76.536735
 21
343.009023
 31
0.0
 11
106.819909
 21
351.200789
 31
0.0
 11
122.391316
 21
349.145156
 31
0.0
 11
136.782153
 21
343.184277
 31
0.0
 11
149.246353
 21
333.627182
 31
0.0
 11
158.803448
 21
321.162983
 31
0.0
 11
164.764328
 21
306.772146
 31
0.0
 11
166.819961
 21
291.200739
 31
0.0
  0
LWPOLYLINE
  5
101
100
AcDbEntity
  8
Layer_1
 62
7
100
AcDbPolyline
 90
2
 70
1
 10
166.819961
 20
291.200739
 30
0.0
 10
166.819961
 20
291.200740
 30
0.0
  0
SPLINE
  5
102
100
AcDbEntity
  8
Layer_1
 62
7
100
AcDbSpline
 70
0
 71
3
 72
22
 73
18
 74
16
 40
0.000000
 40
0.000000
 40
0.000000
 40
0.000000
 40
1.176434
 40
2.317974
 40
3.494408
 40
4.670842
 40
5.812383
 40
6.988817
 40
7.577811
 40
8.161931
 40
8.750925
 40
9.339919
 40
9.924039
 40
10.513033
 40
11.689466
 40
12.831008
 40
14.007441
 40
14.007441
 40
14.007441
 40
14.007441
 10
56.569864
 20
343.700786
 30
0.0
 10
56.508023
 20
343.304146
 30
0.0
 10
56.386174
 20
342.522631
 30
0.0
 10
55.490419
 20
341.662274
 30
0.0
 10
54.321904
 20
341.343383
 30
0.0
 10
53.141263
 20
341.662531
 30
0.0
 10
52.281168
 20
342.521627
 30
0.0
 10
52.017063
 20
343.505800
 30
0.0
 10
52.121798
 20
344.289578
 30
0.0
 10
52.348911
 20
344.838719
 30
0.0
 10
52.710509
 20
345.310127
 30
0.0
 10
53.181979
 20
345.671740
 30
0.0
 10
53.730888
 20
345.898854
 30
0.0
 10
54.515829
 20
346.003568
 30
0.0
 10
55.491239
 20
345.739629
 30
0.0
 10
56.385965
 20
344.878856
 30
0.0
 10
56.507952
 20
344.097397
 30
0.0
 10
56.569864
 20
343.700786
 30
0.0
 11
56.569864
 21
343.700786
 31
0.0
 11
56.262673
 21
342.565167
 31
0.0
 11
55.455482
 21
341.757976
 31
0.0
 11
54.319863
 21
341.450785
 31
0.0
 11
53.184244
 21
341.757976
 31
0.0
 11
52.377053
 21
342.565167
 31
0.0
 11
52.069861
 21
343.700786
 31
0.0
 11
52.146947
 21
344.284713
 31
0.0
 11
52.370480
 21
344.824370
 31
0.0
 11
52.728871
 21
345.291777
 31
0.0
 11
53.196279
 21
345.650168
 31
0.0
 11
53.735935
 21
345.873701
 31
0.0
 11
54.319863
 21
345.950788
 31
0.0
 11
55.455482
 21
345.643596
 31
0.0
 11
56.262673
 21
344.836405
 31
0.0
 11
56.569864
 21
343.700786
 31
0.0
  0
LWPOLYLINE
  5
103
100
AcDbEntity
  8
Layer_1
 62
7
100
AcDbPolyline
 90
2
 70
1
 10
56.569864
 20
343.700786
 30
0.0
 10
56.569864
 20
343.700786
 30
0.0
  0
SPLINE
  5
104
100
AcDbEntity
  8
Layer_1
 62
7
100
AcDbSpline
 70
0
 71
3
 72
25
 73
21
 74
19
 40
0.000000
 40
0.000000
 40
0.000000
 40
0.000000
 40
1.176433
 40
2.317974
 40
3.494407
 40
4.670840
 40
5.812381
 40
6.988814
 40
7.577808
 40
8.161928
 40
8.750922
 40
9.339916
 40
9.924036
 40
10.513030
 40
11.102024
 40
11.686144
 40
12.275138
 40
12.864132
 40
13.448252
 40
14.037246
 40
14.037246
 40
14.037246
 40
14.037246
 10
56.569864
 20
238.700695
 30
0.0
 10
56.508023
 20
238.304056
 30
0.0
 10
56.386173
 20
237.522541
 30
0.0
 10
55.490418
 20
236.662185
 30
0.0
 10
54.321904
 20
236.343294
 30
0.0
 10
53.141264
 20
236.662441
 30
0.0
 10
52.281168
 20
237.521537
 30
0.0
 10
52.017063
 20
238.505709
 30
0.0
 10
52.121797
 20
239.289488
 30
0.0
 10
52.348912
 20
239.838626
 30
0.0
 10
52.710503
 20
240.310049
 30
0.0
 10
53.181999
 20
240.671607
 30
0.0
 10
53.730814
 20
240.898924
 30
0.0
 10
54.319853
 20
240.976692
 30
0.0
 10
54.908951
 20
240.898925
 30
0.0
 10
55.457591
 20
240.671602
 30
0.0
 10
55.929735
 20
240.310067
 30
0.0
 10
56.288910
 20
239.838556
 30
0.0
 10
56.524991
 20
239.289747
 30
0.0
 10
56.554865
 20
238.897589
 30
0.0
 10
56.569864
 20
238.700695
 30
0.0
 11
56.569864
 21
238.700695
 31
0.0
 11
56.262672
 21
237.565077
 31
0.0
 11
55.455481
 21
236.757886
 31
0.0
 11
54.319863
 21
236.450695
 31
0.0
 11
53.184245
 21
236.757886
 31
0.0
 11
52.377053
 21
237.565077
 31
0.0
 11
52.069861
 21
238.700695
 31
0.0
 11
52.146947
 21
239.284623
 31
0.0
 11
52.370480
 21
239.824280
 31
0.0
 11
52.728871
 21
240.291687
 31
0.0
 11
53.196279
 21
240.650078
 31
0.0
 11
53.735935
 21
240.873611
 31
0.0
 11
54.319863
 21
240.950698
 31
0.0
 11
54.903791
 21
240.873611
 31
0.0
 11
55.443447
 21
240.650078
 31
0.0
 11
55.910855
 21
240.291687
 31
0.0
 11
56.269245
 21
239.824279
 31
0.0
 11
56.492778
 21
239.284623
 31
0.0
 11
56.569864
 21
238.700695
 31
0.0
  0
LWPOLYLINE
  5
105
100
AcDbEntity
  8
Layer_1
 62
7
100
AcDbPolyline
 90
2
 70
1
 10
56.569864
 20
238.700695
 30
0.0
 10
56.569864
 20
238.700695
 30
0.0
  0
SPLINE
  5
106
100
AcDbEntity
  8
Layer_1
 62
7
100
AcDbSpline
 70
0
 71
3
 72
22
 73
18
 74
16
 40
0.000000
 40
0.000000
 40
0.000000
 40
0.000000
 40
1.176433
 40
2.317973
 40
3.494405
 40
4.670839
 40
5.812380
 40
6.988813
 40
7.577808
 40
8.161928
 40
8.750922
 40
9.339916
 40
9.924036
 40
10.513030
 40
11.689464
 40
12.831005
 40
14.007438
 40
14.007438
 40
14.007438
 40
14.007438
 10
161.569953
 20
238.700695
 30
0.0
 10
161.508112
 20
238.304056
 30
0.0
 10
161.386263
 20
237.522541
 30
0.0
 10
160.490508
 20
236.662186
 30
0.0
 10
159.321995
 20
236.343294
 30
0.0
 10
158.141354
 20
236.662441
 30
0.0
 10
157.281259
 20
237.521537
 30
0.0
 10
157.017153
 20
238.505710
 30
0.0
 10
157.121888
 20
239.289488
 30
0.0
 10
157.349001
 20
239.838629
 30
0.0
 10
157.710599
 20
240.310037
 30
0.0
 10
158.182069
 20
240.671650
 30
0.0
 10
158.730978
 20
240.898764
 30
0.0
 10
159.515920
 20
241.003478
 30
0.0
 10
160.491330
 20
240.739538
 30
0.0
 10
161.386054
 20
239.878766
 30
0.0
 10
161.508042
 20
239.097306
 30
0.0
 10
161.569953
 20
238.700695
 30
0.0
 11
161.569953
 21
238.700695
 31
0.0
 11
161.262762
 21
237.565078
 31
0.0
 11
160.455571
 21
236.757887
 31
0.0
 11
159.319954
 21
236.450695
 31
0.0
 11
158.184335
 21
236.757886
 31
0.0
 11
157.377143
 21
237.565077
 31
0.0
 11
157.069951
 21
238.700695
 31
0.0
 11
157.147037
 21
239.284623
 31
0.0
 11
157.370570
 21
239.824280
 31
0.0
 11
157.728961
 21
240.291687
 31
0.0
 11
158.196369
 21
240.650079
 31
0.0
 11
158.736026
 21
240.873612
 31
0.0
 11
159.319954
 21
240.950698
 31
0.0
 11
160.455572
 21
240.643506
 31
0.0
 11
161.262763
 21
239.836314
 31
0.0
 11
161.569953
 21
238.700695
 31
0.0
  0
LWPOLYLINE
  5
107
100
AcDbEntity
  8
Layer_1
 62
7
100
AcDbPolyline
 90
2
 70
1
 10
161.569953
 20
238.700695
 30
0.0
 10
161.569953
 20
238.700695
 30
0.0
  0
SPLINE
  5
108
100
AcDbEntity
  8
Layer_1
 62
7
100
AcDbSpline
 70
0
 71
3
 72
25
 73
21
 74
19
 40
0.000000
 40
0.000000
 40
0.000000
 40
0.000000
 40
1.176433
 40
2.317974
 40
3.494407
 40
4.083401
 40
4.667520
 40
5.256514
 40
5.845508
 40
6.429628
 40
7.018622
 40
7.607616
 40
8.191736
 40
8.780730
 40
9.369724
 40
9.953844
 40
10.542839
 40
11.719272
 40
12.860813
 40
14.037246
 40
14.037246
 40
14.037246
 40
14.037246
 10
161.569953
 20
343.700786
 30
0.0
 10
161.508041
 20
343.304175
 30
0.0
 10
161.386054
 20
342.522716
 30
0.0
 10
160.491329
 20
341.661944
 30
0.0
 10
159.515920
 20
341.398005
 30
0.0
 10
158.730978
 20
341.502717
 30
0.0
 10
158.182073
 20
341.729837
 30
0.0
 10
157.710587
 20
342.091426
 30
0.0
 10
157.349046
 20
342.562922
 30
0.0
 10
157.121724
 20
343.111734
 30
0.0
 10
157.043957
 20
343.700786
 30
0.0
 10
157.121724
 20
344.289837
 30
0.0
 10
157.349046
 20
344.838650
 30
0.0
 10
157.710587
 20
345.310146
 30
0.0
 10
158.182072
 20
345.671735
 30
0.0
 10
158.730977
 20
345.898855
 30
0.0
 10
159.515920
 20
346.003567
 30
0.0
 10
160.491329
 20
345.739628
 30
0.0
 10
161.386054
 20
344.878856
 30
0.0
 10
161.508041
 20
344.097397
 30
0.0
 10
161.569953
 20
343.700786
 30
0.0
 11
161.569953
 21
343.700786
 31
0.0
 11
161.262762
 21
342.565168
 31
0.0
 11
160.455572
 21
341.757976
 31
0.0
 11
159.319954
 21
341.450785
 31
0.0
 11
158.736026
 21
341.527871
 31
0.0
 11
158.196370
 21
341.751403
 31
0.0
 11
157.728962
 21
342.109794
 31
0.0
 11
157.370571
 21
342.577202
 31
0.0
 11
157.147038
 21
343.116858
 31
0.0
 11
157.069951
 21
343.700786
 31
0.0
 11
157.147037
 21
344.284714
 31
0.0
 11
157.370570
 21
344.824370
 31
0.0
 11
157.728962
 21
345.291778
 31
0.0
 11
158.196369
 21
345.650169
 31
0.0
 11
158.736026
 21
345.873702
 31
0.0
 11
159.319954
 21
345.950788
 31
0.0
 11
160.455572
 21
345.643596
 31
0.0
 11
161.262763
 21
344.836404
 31
0.0
 11
161.569953
 21
343.700786
 31
0.0
  0
LWPOLYLINE
  5
109
100
AcDbEntity
  8
Layer_1
 62
7
100
AcDbPolyline
 90
2
 70
1
 10
161.569953
 20
343.700786
 30
0.0
 10
161.569953
 20
343.700786
 30
0.0
  0
SPLINE
  5
10a
100
AcDbEntity
  8
Layer_1
 62
7
100
AcDbSpline
 70
0
 71
3
 72
31
 73
27
 74
25
 40
0.000000
 40
0.000000
 40
0.000000
 40
0.000000
 40
15.706507
 40
31.283036
 40
46.989543
 40
62.696050
 40
78.272580
 40
93.979086
 40
109.685592
 40
125.262122
 40
140.968628
 40
156.675134
 40
172.251663
 40
187.958169
 40
203.664675
 40
219.241204
 40
234.947710
 40
250.654215
 40
266.230744
 40
281.937250
 40
297.643756
 40
313.220285
 40
328.926792
 40
344.633298
 40
360.209827
 40
375.916333
 40
375.916333
 40
375.916333
 40
375.916333
 10
296.820063
 20
291.200740
 30
0.0
 10
296.420088
 20
285.950237
 30
0.0
 10
295.623448
 20
275.492681
 30
0.0
 10
289.327930
 20
260.857792
 30
0.0
 10
279.749928
 20
248.284156
 30
0.0
 10
267.159419
 20
238.643241
 30
0.0
 10
252.529023
 20
232.581272
 30
0.0
 10
236.819754
 20
230.507527
 30
0.0
 10
221.112020
 20
232.581273
 30
0.0
 10
206.477045
 20
238.643242
 30
0.0
 10
193.903434
 20
248.284157
 30
0.0
 10
184.262513
 20
260.857793
 30
0.0
 10
178.200546
 20
275.492681
 30
0.0
 10
176.126800
 20
291.200739
 30
0.0
 10
178.200547
 20
306.908798
 30
0.0
 10
184.262514
 20
321.543685
 30
0.0
 10
193.903435
 20
334.117320
 30
0.0
 10
206.477046
 20
343.758234
 30
0.0
 10
221.112020
 20
349.820203
 30
0.0
 10
236.819754
 20
351.893949
 30
0.0
 10
252.529023
 20
349.820204
 30
0.0
 10
267.159418
 20
343.758235
 30
0.0
 10
279.749927
 20
334.117321
 30
0.0
 10
289.327929
 20
321.543686
 30
0.0
 10
295.623448
 20
306.908798
 30
0.0
 10
296.420088
 20
296.451242
 30
0.0
 10
296.820063
 20
291.200739
 30
0.0
 11
296.820063
 21
291.200740
 31
0.0
 11
294.764430
 21
275.629332
 31
0.0
 11
288.803550
 21
261.238495
 31
0.0
 11
279.246455
 21
248.774295
 31
0.0
 11
266.782255
 21
239.217200
 31
0.0
 11
252.391418
 21
233.256320
 31
0.0
 11
236.820010
 21
231.200688
 31
0.0
 11
221.248604
 21
233.256321
 31
0.0
 11
206.857767
 21
239.217201
 31
0.0
 11
194.393568
 21
248.774296
 31
0.0
 11
184.836473
 21
261.238496
 31
0.0
 11
178.875594
 21
275.629333
 31
0.0
 11
176.819961
 21
291.200739
 31
0.0
 11
178.875594
 21
306.772146
 31
0.0
 11
184.836474
 21
321.162982
 31
0.0
 11
194.393569
 21
333.627181
 31
0.0
 11
206.857768
 21
343.184276
 31
0.0
 11
221.248604
 21
349.145155
 31
0.0
 11
236.820010
 21
351.200789
 31
0.0
 11
252.391417
 21
349.145156
 31
0.0
 11
266.782254
 21
343.184277
 31
0.0
 11
279.246454
 21
333.627182
 31
0.0
 11
288.803549
 21
321.162983
 31
0.0
 11
294.764429
 21
306.772146
 31
0.0
 11
296.820063
 21
291.200739
 31
0.0
  0
LWPOLYLINE
  5
10b
100
AcDbEntity
  8
Layer_1
 62
7
100
AcDbPolyline
 90
2
 70
1
 10
296.820063
 20
291.200739
 30
0.0
 10
296.820063
 20
291.200740
 30
0.0
  0
SPLINE
  5
10c
100
AcDbEntity
  8
Layer_1
 62
7
100
AcDbSpline
 70
0
 71
3
 72
25
 73
21
 74
19
 40
0.000000
 40
0.000000
 40
0.000000
 40
0.000000
 40
15.706506
 40
31.283035
 40
46.989542
 40
62.696048
 40
78.272577
 40
93.979083
 40
125.350654
 40
155.791754
 40
187.163325
 40
218.534895
 40
248.975994
 40
280.347564
 40
296.054070
 40
311.630598
 40
327.337104
 40
343.043610
 40
358.620139
 40
374.326644
 40
374.326644
 40
374.326644
 40
374.326644
 10
426.820141
 20
291.200740
 30
0.0
 10
426.420155
 20
285.950244
 30
0.0
 10
425.623494
 20
275.492702
 30
0.0
 10
419.328141
 20
260.857711
 30
0.0
 10
409.749505
 20
248.284468
 30
0.0
 10
397.161369
 20
238.642087
 30
0.0
 10
382.522167
 20
232.585560
 30
0.0
 10
361.619945
 20
229.793230
 30
0.0
 10
335.375894
 20
236.831585
 30
0.0
 10
312.467082
 20
259.785523
 30
0.0
 10
303.954037
 20
291.200739
 30
0.0
 10
312.467083
 20
322.615954
 30
0.0
 10
335.375895
 20
345.569891
 30
0.0
 10
361.619945
 20
352.608246
 30
0.0
 10
382.522167
 20
349.815917
 30
0.0
 10
397.161368
 20
343.759390
 30
0.0
 10
409.749504
 20
334.117009
 30
0.0
 10
419.328140
 20
321.543767
 30
0.0
 10
425.623493
 20
306.908777
 30
0.0
 10
426.420155
 20
296.451235
 30
0.0
 10
426.820141
 20
291.200739
 30
0.0
 11
426.820141
 21
291.200740
 31
0.0
 11
424.764508
 21
275.629333
 31
0.0
 11
418.803629
 21
261.238496
 31
0.0
 11
409.246535
 21
248.774296
 31
0.0
 11
396.782335
 21
239.217201
 31
0.0
 11
382.391499
 21
233.256321
 31
0.0
 11
366.820092
 21
231.200688
 31
0.0
 11
336.536922
 21
239.392457
 31
0.0
 11
315.011817
 21
260.917568
 31
0.0
 11
306.820054
 21
291.200739
 31
0.0
 11
315.011817
 21
321.483910
 31
0.0
 11
336.536923
 21
343.009019
 31
0.0
 11
366.820092
 21
351.200789
 31
0.0
 11
382.391498
 21
349.145155
 31
0.0
 11
396.782334
 21
343.184276
 31
0.0
 11
409.246534
 21
333.627181
 31
0.0
 11
418.803628
 21
321.162982
 31
0.0
 11
424.764508
 21
306.772146
 31
0.0
 11
426.820141
 21
291.200739
 31
0.0
  0
LWPOLYLINE
  5
10d
100
AcDbEntity
  8
Layer_1
 62
7
100
AcDbPolyline
 90
2
 70
1
 10
426.820141
 20
291.200739
 30
0.0
 10
426.820141
 20
291.200740
 30
0.0
  0
SPLINE
  5
10e
100
AcDbEntity
  8
Layer_1
 62
7
100
AcDbSpline
 70
0
 71
3
 72
31
 73
27
 74
25
 40
0.000000
 40
0.000000
 40
0.000000
 40
0.000000
 40
15.706506
 40
31.283035
 40
46.989542
 40
62.696048
 40
78.272577
 40
93.979083
 40
109.685590
 40
125.262119
 40
140.968625
 40
156.675131
 40
172.251661
 40
187.958167
 40
203.664672
 40
219.241201
 40
234.947707
 40
250.654213
 40
266.230741
 40
281.937247
 40
297.643753
 40
313.220282
 40
328.926788
 40
344.633293
 40
360.209822
 40
375.916328
 40
375.916328
 40
375.916328
 40
375.916328
 10
556.820276
 20
291.200740
 30
0.0
 10
556.420302
 20
285.950237
 30
0.0
 10
555.623662
 20
275.492681
 30
0.0
 10
549.328144
 20
260.857793
 30
0.0
 10
539.750143
 20
248.284157
 30
0.0
 10
527.159635
 20
238.643242
 30
0.0
 10
512.529239
 20
232.581273
 30
0.0
 10
496.819970
 20
230.507527
 30
0.0
 10
481.112236
 20
232.581273
 30
0.0
 10
466.477262
 20
238.643242
 30
0.0
 10
453.903650
 20
248.284157
 30
0.0
 10
444.262730
 20
260.857793
 30
0.0
 10
438.200763
 20
275.492681
 30
0.0
 10
436.127017
 20
291.200739
 30
0.0
 10
438.200763
 20
306.908798
 30
0.0
 10
444.262731
 20
321.543685
 30
0.0
 10
453.903651
 20
334.117320
 30
0.0
 10
466.477263
 20
343.758234
 30
0.0
 10
481.112237
 20
349.820203
 30
0.0
 10
496.819970
 20
351.893950
 30
0.0
 10
512.529239
 20
349.820203
 30
0.0
 10
527.159634
 20
343.758234
 30
0.0
 10
539.750142
 20
334.117320
 30
0.0
 10
549.328143
 20
321.543685
 30
0.0
 10
555.623661
 20
306.908798
 30
0.0
 10
556.420301
 20
296.451242
 30
0.0
 10
556.820276
 20
291.200739
 30
0.0
 11
556.820276
 21
291.200740
 31
0.0
 11
554.764644
 21
275.629333
 31
0.0
 11
548.803764
 21
261.238496
 31
0.0
 11
539.246670
 21
248.774296
 31
0.0
 11
526.782470
 21
239.217201
 31
0.0
 11
512.391634
 21
233.256321
 31
0.0
 11
496.820227
 21
231.200688
 31
0.0
 11
481.248820
 21
233.256321
 31
0.0
 11
466.857984
 21
239.217201
 31
0.0
 11
454.393784
 21
248.774296
 31
0.0
 11
444.836690
 21
261.238496
 31
0.0
 11
438.875810
 21
275.629333
 31
0.0
 11
436.820178
 21
291.200739
 31
0.0
 11
438.875811
 21
306.772146
 31
0.0
 11
444.836691
 21
321.162982
 31
0.0
 11
454.393785
 21
333.627181
 31
0.0
 11
466.857985
 21
343.184276
 31
0.0
 11
481.248821
 21
349.145155
 31
0.0
 11
496.820227
 21
351.200789
 31
0.0
 11
512.391633
 21
349.145155
 31
0.0
 11
526.782469
 21
343.184276
 31
0.0
 11
539.246669
 21
333.627181
 31
0.0
 11
548.803763
 21
321.162982
 31
0.0
 11
554.764643
 21
306.772146
 31
0.0
 11
556.820276
 21
291.200739
 31
0.0
  0
LWPOLYLINE
  5
10f
100
AcDbEntity
  8
Layer_1
 62
7
100
AcDbPolyline
 90
2
 70
1
 10
556.820276
 20
291.200739
 30
0.0
 10
556.820276
 20
291.200740
 30
0.0
  0
SPLINE
  5
110
100
AcDbEntity
  8
Layer_1
 62
7
100
AcDbSpline
 70
0
 71
3
 72
31
 73
27
 74
25
 40
0.000000
 40
0.000000
 40
0.000000
 40
0.000000
 40
0.588994
 40
1.173114
 40
1.762108
 40
2.351102
 40
2.935222
 40
3.524216
 40
4.113210
 40
4.697329
 40
5.286323
 40
5.875317
 40
6.459437
 40
7.048431
 40
7.637425
 40
8.221545
 40
8.810539
 40
9.399533
 40
9.983653
 40
10.572647
 40
11.161642
 40
11.745762
 40
12.334756
 40
12.923750
 40
13.507870
 40
14.096864
 40
14.096864
 40
14.096864
 40
14.096864
 10
186.569980
 20
343.700786
 30
0.0
 10
186.554981
 20
343.503892
 30
0.0
 10
186.525106
 20
343.111734
 30
0.0
 10
186.289024
 20
342.562925
 30
0.0
 10
185.929849
 20
342.091414
 30
0.0
 10
185.457705
 20
341.729880
 30
0.0
 10
184.909065
 20
341.502556
 30
0.0
 10
184.319967
 20
341.424791
 30
0.0
 10
183.730927
 20
341.502556
 30
0.0
 10
183.182116
 20
341.729880
 30
0.0
 10
182.710605
 20
342.091414
 30
0.0
 10
182.349071
 20
342.562925
 30
0.0
 10
182.121747
 20
343.111734
 30
0.0
 10
182.043981
 20
343.700786
 30
0.0
 10
182.121746
 20
344.289838
 30
0.0
 10
182.349070
 20
344.838646
 30
0.0
 10
182.710605
 20
345.310158
 30
0.0
 10
183.182116
 20
345.671692
 30
0.0
 10
183.730927
 20
345.899016
 30
0.0
 10
184.319967
 20
345.976781
 30
0.0
 10
184.909065
 20
345.899016
 30
0.0
 10
185.457705
 20
345.671692
 30
0.0
 10
185.929849
 20
345.310158
 30
0.0
 10
186.289025
 20
344.838646
 30
0.0
 10
186.525107
 20
344.289838
 30
0.0
 10
186.554981
 20
343.897680
 30
0.0
 10
186.569980
 20
343.700786
 30
0.0
 11
186.569980
 21
343.700786
 31
0.0
 11
186.492893
 21
343.116858
 31
0.0
 11
186.269360
 21
342.577202
 31
0.0
 11
185.910969
 21
342.109794
 31
0.0
 11
185.443561
 21
341.751403
 31
0.0
 11
184.903905
 21
341.527871
 31
0.0
 11
184.319977
 21
341.450785
 31
0.0
 11
183.736049
 21
341.527871
 31
0.0
 11
183.196393
 21
341.751403
 31
0.0
 11
182.728985
 21
342.109794
 31
0.0
 11
182.370594
 21
342.577202
 31
0.0
 11
182.147061
 21
343.116858
 31
0.0
 11
182.069975
 21
343.700786
 31
0.0
 11
182.147061
 21
344.284714
 31
0.0
 11
182.370594
 21
344.824370
 31
0.0
 11
182.728985
 21
345.291778
 31
0.0
 11
183.196393
 21
345.650169
 31
0.0
 11
183.736049
 21
345.873702
 31
0.0
 11
184.319977
 21
345.950788
 31
0.0
 11
184.903905
 21
345.873702
 31
0.0
 11
185.443562
 21
345.650169
 31
0.0
 11
185.910969
 21
345.291778
 31
0.0
 11
186.269360
 21
344.824370
 31
0.0
 11
186.492893
 21
344.284714
 31
0.0
 11
186.569980
 21
343.700786
 31
0.0
  0
LWPOLYLINE
  5
111
100
AcDbEntity
  8
Layer_1
 62
7
100
AcDbPolyline
 90
2
 70
1
 10
186.569980
 20
343.700786
 30
0.0
 10
186.569980
 20
343.700786
 30
0.0
  0
SPLINE
  5
112
100
AcDbEntity
  8
Layer_1
 62
7
100
AcDbSpline
 70
0
 71
3
 72
25
 73
21
 74
19
 40
0.000000
 40
0.000000
 40
0.000000
 40
0.000000
 40
1.176433
 40
2.317974
 40
3.494407
 40
4.083401
 40
4.667520
 40
5.256514
 40
5.845508
 40
6.429628
 40
7.018622
 40
7.607616
 40
8.191736
 40
8.780730
 40
9.369724
 40
9.953844
 40
10.542839
 40
11.719272
 40
12.860813
 40
14.037246
 40
14.037246
 40
14.037246
 40
14.037246
 10
291.570063
 20
343.700786
 30
0.0
 10
291.508151
 20
343.304175
 30
0.0
 10
291.386163
 20
342.522716
 30
0.0
 10
290.491439
 20
341.661944
 30
0.0
 10
289.516030
 20
341.398005
 30
0.0
 10
288.731087
 20
341.502717
 30
0.0
 10
288.182182
 20
341.729837
 30
0.0
 10
287.710697
 20
342.091426
 30
0.0
 10
287.349156
 20
342.562922
 30
0.0
 10
287.121833
 20
343.111734
 30
0.0
 10
287.044067
 20
343.700786
 30
0.0
 10
287.121833
 20
344.289837
 30
0.0
 10
287.349155
 20
344.838650
 30
0.0
 10
287.710697
 20
345.310146
 30
0.0
 10
288.182182
 20
345.671735
 30
0.0
 10
288.731087
 20
345.898855
 30
0.0
 10
289.516030
 20
346.003567
 30
0.0
 10
290.491439
 20
345.739628
 30
0.0
 10
291.386164
 20
344.878856
 30
0.0
 10
291.508151
 20
344.097397
 30
0.0
 10
291.570063
 20
343.700786
 30
0.0
 11
291.570063
 21
343.700786
 31
0.0
 11
291.262872
 21
342.565168
 31
0.0
 11
290.455681
 21
341.757976
 31
0.0
 11
289.320063
 21
341.450785
 31
0.0
 11
288.736136
 21
341.527871
 31
0.0
 11
288.196479
 21
341.751403
 31
0.0
 11
287.729072
 21
342.109794
 31
0.0
 11
287.370680
 21
342.577202
 31
0.0
 11
287.147147
 21
343.116858
 31
0.0
 11
287.070061
 21
343.700786
 31
0.0
 11
287.147147
 21
344.284714
 31
0.0
 11
287.370680
 21
344.824370
 31
0.0
 11
287.729071
 21
345.291778
 31
0.0
 11
288.196479
 21
345.650169
 31
0.0
 11
288.736136
 21
345.873702
 31
0.0
 11
289.320063
 21
345.950788
 31
0.0
 11
290.455682
 21
345.643596
 31
0.0
 11
291.262872
 21
344.836404
 31
0.0
 11
291.570063
 21
343.700786
 31
0.0
  0
LWPOLYLINE
  5
113
100
AcDbEntity
  8
Layer_1
 62
7
100
AcDbPolyline
 90
2
 70
1
 10
291.570063
 20
343.700786
 30
0.0
 10
291.570063
 20
343.700786
 30
0.0
  0
SPLINE
  5
114
100
AcDbEntity
  8
Layer_1
 62
7
100
AcDbSpline
 70
0
 71
3
 72
19
 73
15
 74
13
 40
0.000000
 40
0.000000
 40
0.000000
 40
0.000000
 40
1.176429
 40
2.317966
 40
3.494396
 40
4.670825
 40
5.812362
 40
6.988791
 40
8.165221
 40
9.306758
 40
10.483188
 40
11.659618
 40
12.801155
 40
13.977585
 40
13.977585
 40
13.977585
 40
13.977585
 10
316.570058
 20
343.700786
 30
0.0
 10
316.508218
 20
343.304149
 30
0.0
 10
316.386371
 20
342.522640
 30
0.0
 10
315.490614
 20
341.662261
 30
0.0
 10
314.322135
 20
341.343455
 30
0.0
 10
313.141388
 20
341.662261
 30
0.0
 10
312.281707
 20
342.522640
 30
0.0
 10
311.962676
 20
343.700786
 30
0.0
 10
312.281707
 20
344.878932
 30
0.0
 10
313.141388
 20
345.739311
 30
0.0
 10
314.322135
 20
346.058118
 30
0.0
 10
315.490614
 20
345.739311
 30
0.0
 10
316.386371
 20
344.878932
 30
0.0
 10
316.508218
 20
344.097422
 30
0.0
 10
316.570058
 20
343.700786
 30
0.0
 11
316.570058
 21
343.700786
 31
0.0
 11
316.262869
 21
342.565171
 31
0.0
 11
315.455683
 21
341.757980
 31
0.0
 11
314.320070
 21
341.450785
 31
0.0
 11
313.184457
 21
341.757980
 31
0.0
 11
312.377271
 21
342.565171
 31
0.0
 11
312.070081
 21
343.700786
 31
0.0
 11
312.377270
 21
344.836401
 31
0.0
 11
313.184457
 21
345.643592
 31
0.0
 11
314.320070
 21
345.950788
 31
0.0
 11
315.455683
 21
345.643592
 31
0.0
 11
316.262869
 21
344.836401
 31
0.0
 11
316.570058
 21
343.700786
 31
0.0
  0
LWPOLYLINE
  5
115
100
AcDbEntity
  8
Layer_1
 62
7
100
AcDbPolyline
 90
2
 70
1
 10
316.570058
 20
343.700786
 30
0.0
 10
316.570058
 20
343.700786
 30
0.0
  0
SPLINE
  5
116
100
AcDbEntity
  8
Layer_1
 62
7
100
AcDbSpline
 70
0
 71
3
 72
25
 73
21
 74
19
 40
0.000000
 40
0.000000
 40
0.000000
 40
0.000000
 40
0.588996
 40
1.173118
 40
1.762115
 40
2.351111
 40
2.935233
 40
3.524230
 40
4.700659
 40
5.842196
 40
7.018625
 40
8.195055
 40
9.336592
 40
10.513022
 40
11.102018
 40
11.686141
 40
12.275137
 40
12.864133
 40
13.448256
 40
14.037252
 40
14.037252
 40
14.037252
 40
14.037252
 10
421.570159
 20
343.700786
 30
0.0
 10
421.555159
 20
343.503891
 30
0.0
 10
421.525284
 20
343.111732
 30
0.0
 10
421.289206
 20
342.562918
 30
0.0
 10
420.930004
 20
342.091421
 30
0.0
 10
420.457946
 20
341.729832
 30
0.0
 10
419.908973
 20
341.502714
 30
0.0
 10
419.125139
 20
341.398006
 30
0.0
 10
418.140991
 20
341.661948
 30
0.0
 10
417.281916
 20
342.522720
 30
0.0
 10
416.962679
 20
343.700786
 30
0.0
 10
417.281916
 20
344.878852
 30
0.0
 10
418.140990
 20
345.739624
 30
0.0
 10
419.125138
 20
346.003566
 30
0.0
 10
419.908973
 20
345.898858
 30
0.0
 10
420.457946
 20
345.671740
 30
0.0
 10
420.930005
 20
345.310151
 30
0.0
 10
421.289206
 20
344.838654
 30
0.0
 10
421.525284
 20
344.289840
 30
0.0
 10
421.555159
 20
343.897680
 30
0.0
 10
421.570159
 20
343.700786
 30
0.0
 11
421.570159
 21
343.700786
 31
0.0
 11
421.493072
 21
343.116856
 31
0.0
 11
421.269537
 21
342.577198
 31
0.0
 11
420.911143
 21
342.109789
 31
0.0
 11
420.443732
 21
341.751399
 31
0.0
 11
419.904073
 21
341.527868
 31
0.0
 11
419.320142
 21
341.450785
 31
0.0
 11
418.184529
 21
341.757980
 31
0.0
 11
417.377343
 21
342.565171
 31
0.0
 11
417.070154
 21
343.700786
 31
0.0
 11
417.377342
 21
344.836401
 31
0.0
 11
418.184529
 21
345.643592
 31
0.0
 11
419.320142
 21
345.950788
 31
0.0
 11
419.904073
 21
345.873705
 31
0.0
 11
420.443732
 21
345.650173
 31
0.0
 11
420.911143
 21
345.291783
 31
0.0
 11
421.269537
 21
344.824374
 31
0.0
 11
421.493072
 21
344.284716
 31
0.0
 11
421.570159
 21
343.700786
 31
0.0
  0
LWPOLYLINE
  5
117
100
AcDbEntity
  8
Layer_1
 62
7
100
AcDbPolyline
 90
2
 70
1
 10
421.570159
 20
343.700786
 30
0.0
 10
421.570159
 20
343.700786
 30
0.0
  0
SPLINE
  5
118
100
AcDbEntity
  8
Layer_1
 62
7
100
AcDbSpline
 70
0
 71
3
 72
25
 73
21
 74
19
 40
0.000000
 40
0.000000
 40
0.000000
 40
0.000000
 40
0.588996
 40
1.173118
 40
1.762115
 40
2.351111
 40
2.935233
 40
3.524230
 40
4.700659
 40
5.842196
 40
7.018625
 40
8.195055
 40
9.336592
 40
10.513022
 40
11.102018
 40
11.686141
 40
12.275137
 40
12.864133
 40
13.448256
 40
14.037252
 40
14.037252
 40
14.037252
 40
14.037252
 10
446.570193
 20
343.700786
 30
0.0
 10
446.555194
 20
343.503891
 30
0.0
 10
446.525319
 20
343.111732
 30
0.0
 10
446.289241
 20
342.562918
 30
0.0
 10
445.930039
 20
342.091421
 30
0.0
 10
445.457981
 20
341.729832
 30
0.0
 10
444.909007
 20
341.502714
 30
0.0
 10
444.125173
 20
341.398006
 30
0.0
 10
443.141025
 20
341.661948
 30
0.0
 10
442.281951
 20
342.522720
 30
0.0
 10
441.962713
 20
343.700786
 30
0.0
 10
442.281950
 20
344.878852
 30
0.0
 10
443.141025
 20
345.739624
 30
0.0
 10
444.125173
 20
346.003566
 30
0.0
 10
444.909007
 20
345.898858
 30
0.0
 10
445.457981
 20
345.671740
 30
0.0
 10
445.930039
 20
345.310151
 30
0.0
 10
446.289241
 20
344.838654
 30
0.0
 10
446.525319
 20
344.289840
 30
0.0
 10
446.555194
 20
343.897680
 30
0.0
 10
446.570193
 20
343.700786
 30
0.0
 11
446.570193
 21
343.700786
 31
0.0
 11
446.493106
 21
343.116856
 31
0.0
 11
446.269571
 21
342.577198
 31
0.0
 11
445.911178
 21
342.109789
 31
0.0
 11
445.443767
 21
341.751399
 31
0.0
 11
444.904107
 21
341.527868
 31
0.0
 11
444.320177
 21
341.450785
 31
0.0
 11
443.184564
 21
341.757980
 31
0.0
 11
442.377377
 21
342.565171
 31
0.0
 11
442.070188
 21
343.700786
 31
0.0
 11
442.377377
 21
344.836401
 31
0.0
 11
443.184563
 21
345.643592
 31
0.0
 11
444.320177
 21
345.950788
 31
0.0
 11
444.904107
 21
345.873705
 31
0.0
 11
445.443767
 21
345.650173
 31
0.0
 11
445.911178
 21
345.291783
 31
0.0
 11
446.269572
 21
344.824374
 31
0.0
 11
446.493107
 21
344.284716
 31
0.0
 11
446.570193
 21
343.700786
 31
0.0
  0
LWPOLYLINE
  5
119
100
AcDbEntity
  8
Layer_1
 62
7
100
AcDbPolyline
 90
2
 70
1
 10
446.570193
 20
343.700786
 30
0.0
 10
446.570193
 20
343.700786
 30
0.0
  0
SPLINE
  5
11a
100
AcDbEntity
  8
Layer_1
 62
7
100
AcDbSpline
 70
0
 71
3
 72
25
 73
21
 74
19
 40
0.000000
 40
0.000000
 40
0.000000
 40
0.000000
 40
0.588996
 40
1.173118
 40
1.762115
 40
2.351111
 40
2.935233
 40
3.524230
 40
4.700659
 40
5.842196
 40
7.018625
 40
8.195055
 40
9.336592
 40
10.513022
 40
11.102018
 40
11.686141
 40
12.275137
 40
12.864133
 40
13.448256
 40
14.037252
 40
14.037252
 40
14.037252
 40
14.037252
 10
551.570294
 20
343.700786
 30
0.0
 10
551.555294
 20
343.503891
 30
0.0
 10
551.525419
 20
343.111732
 30
0.0
 10
551.289341
 20
342.562918
 30
0.0
 10
550.930140
 20
342.091421
 30
0.0
 10
550.458081
 20
341.729832
 30
0.0
 10
549.909108
 20
341.502714
 30
0.0
 10
549.125274
 20
341.398006
 30
0.0
 10
548.141126
 20
341.661948
 30
0.0
 10
547.282051
 20
342.522720
 30
0.0
 10
546.962814
 20
343.700786
 30
0.0
 10
547.282051
 20
344.878852
 30
0.0
 10
548.141125
 20
345.739624
 30
0.0
 10
549.125274
 20
346.003566
 30
0.0
 10
549.909108
 20
345.898858
 30
0.0
 10
550.458081
 20
345.671740
 30
0.0
 10
550.930140
 20
345.310151
 30
0.0
 10
551.289342
 20
344.838654
 30
0.0
 10
551.525419
 20
344.289840
 30
0.0
 10
551.555294
 20
343.897680
 30
0.0
 10
551.570294
 20
343.700786
 30
0.0
 11
551.570294
 21
343.700786
 31
0.0
 11
551.493207
 21
343.116856
 31
0.0
 11
551.269672
 21
342.577198
 31
0.0
 11
550.911278
 21
342.109789
 31
0.0
 11
550.443867
 21
341.751399
 31
0.0
 11
549.904208
 21
341.527868
 31
0.0
 11
549.320277
 21
341.450785
 31
0.0
 11
548.184664
 21
341.757980
 31
0.0
 11
547.377478
 21
342.565171
 31
0.0
 11
547.070289
 21
343.700786
 31
0.0
 11
547.377478
 21
344.836401
 31
0.0
 11
548.184664
 21
345.643592
 31
0.0
 11
549.320277
 21
345.950788
 31
0.0
 11
549.904208
 21
345.873705
 31
0.0
 11
550.443868
 21
345.650173
 31
0.0
 11
550.911278
 21
345.291783
 31
0.0
 11
551.269672
 21
344.824374
 31
0.0
 11
551.493207
 21
344.284716
 31
0.0
 11
551.570294
 21
343.700786
 31
0.0
  0
LWPOLYLINE
  5
11b
100
AcDbEntity
  8
Layer_1
 62
7
100
AcDbPolyline
 90
2
 70
1
 10
551.570294
 20
343.700786
 30
0.0
 10
551.570294
 20
343.700786
 30
0.0
  0
SPLINE
  5
11c
100
AcDbEntity
  8
Layer_1
 62
7
100
AcDbSpline
 70
0
 71
3
 72
25
 73
21
 74
19
 40
0.000000
 40
0.000000
 40
0.000000
 40
0.000000
 40
0.588996
 40
1.173118
 40
1.762114
 40
2.351110
 40
2.935232
 40
3.524228
 40
4.700657
 40
5.842194
 40
7.018623
 40
8.195052
 40
9.336590
 40
10.513020
 40
11.102016
 40
11.686139
 40
12.275135
 40
12.864132
 40
13.448254
 40
14.037251
 40
14.037251
 40
14.037251
 40
14.037251
 10
551.570294
 20
238.700695
 30
0.0
 10
551.555294
 20
238.503801
 30
0.0
 10
551.525419
 20
238.111642
 30
0.0
 10
551.289341
 20
237.562828
 30
0.0
 10
550.930139
 20
237.091331
 30
0.0
 10
550.458081
 20
236.729742
 30
0.0
 10
549.909107
 20
236.502625
 30
0.0
 10
549.125274
 20
236.397917
 30
0.0
 10
548.141126
 20
236.661859
 30
0.0
 10
547.282052
 20
237.522630
 30
0.0
 10
546.962814
 20
238.700695
 30
0.0
 10
547.282050
 20
239.878762
 30
0.0
 10
548.141125
 20
240.739534
 30
0.0
 10
549.125274
 20
241.003476
 30
0.0
 10
549.909108
 20
240.898768
 30
0.0
 10
550.458082
 20
240.671650
 30
0.0
 10
550.930140
 20
240.310061
 30
0.0
 10
551.289342
 20
239.838563
 30
0.0
 10
551.525419
 20
239.289749
 30
0.0
 10
551.555294
 20
238.897590
 30
0.0
 10
551.570294
 20
238.700695
 30
0.0
 11
551.570294
 21
238.700695
 31
0.0
 11
551.493207
 21
238.116765
 31
0.0
 11
551.269671
 21
237.577108
 31
0.0
 11
550.911278
 21
237.109700
 31
0.0
 11
550.443867
 21
236.751309
 31
0.0
 11
549.904208
 21
236.527778
 31
0.0
 11
549.320277
 21
236.450695
 31
0.0
 11
548.184665
 21
236.757891
 31
0.0
 11
547.377478
 21
237.565081
 31
0.0
 11
547.070289
 21
238.700695
 31
0.0
 11
547.377477
 21
239.836310
 31
0.0
 11
548.184664
 21
240.643502
 31
0.0
 11
549.320277
 21
240.950698
 31
0.0
 11
549.904208
 21
240.873615
 31
0.0
 11
550.443868
 21
240.650083
 31
0.0
 11
550.911279
 21
240.291692
 31
0.0
 11
551.269672
 21
239.824284
 31
0.0
 11
551.493207
 21
239.284625
 31
0.0
 11
551.570294
 21
238.700695
 31
0.0
  0
LWPOLYLINE
  5
11d
100
AcDbEntity
  8
Layer_1
 62
7
100
AcDbPolyline
 90
2
 70
1
 10
551.570294
 20
238.700695
 30
0.0
 10
551.570294
 20
238.700695
 30
0.0
  0
SPLINE
  5
11e
100
AcDbEntity
  8
Layer_1
 62
7
100
AcDbSpline
 70
0
 71
3
 72
25
 73
21
 74
19
 40
0.000000
 40
0.000000
 40
0.000000
 40
0.000000
 40
0.588996
 40
1.173118
 40
1.762114
 40
2.351110
 40
2.935232
 40
3.524228
 40
4.700657
 40
5.842194
 40
7.018623
 40
8.195052
 40
9.336590
 40
10.513020
 40
11.102016
 40
11.686139
 40
12.275135
 40
12.864132
 40
13.448254
 40
14.037251
 40
14.037251
 40
14.037251
 40
14.037251
 10
446.570193
 20
238.700695
 30
0.0
 10
446.555194
 20
238.503801
 30
0.0
 10
446.525318
 20
238.111642
 30
0.0
 10
446.289240
 20
237.562828
 30
0.0
 10
445.930039
 20
237.091331
 30
0.0
 10
445.457980
 20
236.729742
 30
0.0
 10
444.909007
 20
236.502625
 30
0.0
 10
444.125173
 20
236.397917
 30
0.0
 10
443.141026
 20
236.661859
 30
0.0
 10
442.281951
 20
237.522630
 30
0.0
 10
441.962713
 20
238.700695
 30
0.0
 10
442.281950
 20
239.878762
 30
0.0
 10
443.141025
 20
240.739534
 30
0.0
 10
444.125173
 20
241.003476
 30
0.0
 10
444.909007
 20
240.898768
 30
0.0
 10
445.457981
 20
240.671650
 30
0.0
 10
445.930040
 20
240.310061
 30
0.0
 10
446.289241
 20
239.838563
 30
0.0
 10
446.525319
 20
239.289749
 30
0.0
 10
446.555194
 20
238.897590
 30
0.0
 10
446.570193
 20
238.700695
 30
0.0
 11
446.570193
 21
238.700695
 31
0.0
 11
446.493106
 21
238.116765
 31
0.0
 11
446.269571
 21
237.577108
 31
0.0
 11
445.911177
 21
237.109700
 31
0.0
 11
445.443766
 21
236.751309
 31
0.0
 11
444.904107
 21
236.527778
 31
0.0
 11
444.320177
 21
236.450695
 31
0.0
 11
443.184564
 21
236.757891
 31
0.0
 11
442.377378
 21
237.565081
 31
0.0
 11
442.070188
 21
238.700695
 31
0.0
 11
442.377377
 21
239.836310
 31
0.0
 11
443.184563
 21
240.643502
 31
0.0
 11
444.320177
 21
240.950698
 31
0.0
 11
444.904108
 21
240.873615
 31
0.0
 11
445.443767
 21
240.650083
 31
0.0
 11
445.911178
 21
240.291692
 31
0.0
 11
446.269572
 21
239.824284
 31
0.0
 11
446.493107
 21
239.284625
 31
0.0
 11
446.570193
 21
238.700695
 31
0.0
  0
LWPOLYLINE
  5
11f
100
AcDbEntity
  8
Layer_1
 62
7
100
AcDbPolyline
 90
2
 70
1
 10
446.570193
 20
238.700695
 30
0.0
 10
446.570193
 20
238.700695
 30
0.0
  0
SPLINE
  5
120
100
AcDbEntity
  8
Layer_1
 62
7
100
AcDbSpline
 70
0
 71
3
 72
25
 73
21
 74
19
 40
0.000000
 40
0.000000
 40
0.000000
 40
0.000000
 40
0.588996
 40
1.173118
 40
1.762114
 40
2.351110
 40
2.935232
 40
3.524228
 40
4.700657
 40
5.842194
 40
7.018623
 40
8.195052
 40
9.336590
 40
10.513020
 40
11.102016
 40
11.686139
 40
12.275135
 40
12.864132
 40
13.448254
 40
14.037251
 40
14.037251
 40
14.037251
 40
14.037251
 10
421.570159
 20
238.700695
 30
0.0
 10
421.555159
 20
238.503801
 30
0.0
 10
421.525284
 20
238.111642
 30
0.0
 10
421.289206
 20
237.562828
 30
0.0
 10
420.930004
 20
237.091331
 30
0.0
 10
420.457946
 20
236.729742
 30
0.0
 10
419.908972
 20
236.502625
 30
0.0
 10
419.125139
 20
236.397917
 30
0.0
 10
418.140991
 20
236.661859
 30
0.0
 10
417.281917
 20
237.522630
 30
0.0
 10
416.962679
 20
238.700695
 30
0.0
 10
417.281915
 20
239.878762
 30
0.0
 10
418.140990
 20
240.739534
 30
0.0
 10
419.125138
 20
241.003476
 30
0.0
 10
419.908973
 20
240.898768
 30
0.0
 10
420.457946
 20
240.671650
 30
0.0
 10
420.930005
 20
240.310061
 30
0.0
 10
421.289207
 20
239.838563
 30
0.0
 10
421.525284
 20
239.289749
 30
0.0
 10
421.555159
 20
238.897590
 30
0.0
 10
421.570159
 20
238.700695
 30
0.0
 11
421.570159
 21
238.700695
 31
0.0
 11
421.493071
 21
238.116765
 31
0.0
 11
421.269536
 21
237.577108
 31
0.0
 11
420.911142
 21
237.109700
 31
0.0
 11
420.443732
 21
236.751309
 31
0.0
 11
419.904072
 21
236.527778
 31
0.0
 11
419.320142
 21
236.450695
 31
0.0
 11
418.184529
 21
236.757891
 31
0.0
 11
417.377343
 21
237.565081
 31
0.0
 11
417.070154
 21
238.700695
 31
0.0
 11
417.377342
 21
239.836310
 31
0.0
 11
418.184529
 21
240.643502
 31
0.0
 11
419.320142
 21
240.950698
 31
0.0
 11
419.904073
 21
240.873615
 31
0.0
 11
420.443733
 21
240.650083
 31
0.0
 11
420.911143
 21
240.291692
 31
0.0
 11
421.269537
 21
239.824284
 31
0.0
 11
421.493072
 21
239.284625
 31
0.0
 11
421.570159
 21
238.700695
 31
0.0
  0
LWPOLYLINE
  5
121
100
AcDbEntity
  8
Layer_1
 62
7
100
AcDbPolyline
 90
2
 70
1
 10
421.570159
 20
238.700695
 30
0.0
 10
421.570159
 20
238.700695
 30
0.0
  0
SPLINE
  5
122
100
AcDbEntity
  8
Layer_1
 62
7
100
AcDbSpline
 70
0
 71
3
 72
19
 73
15
 74
13
 40
0.000000
 40
0.000000
 40
0.000000
 40
0.000000
 40
1.176429
 40
2.317965
 40
3.494394
 40
4.670823
 40
5.812360
 40
6.988789
 40
8.165219
 40
9.306756
 40
10.483186
 40
11.659616
 40
12.801153
 40
13.977583
 40
13.977583
 40
13.977583
 40
13.977583
 10
316.570058
 20
238.700695
 30
0.0
 10
316.508218
 20
238.304059
 30
0.0
 10
316.386370
 20
237.522550
 30
0.0
 10
315.490613
 20
236.662172
 30
0.0
 10
314.322135
 20
236.343365
 30
0.0
 10
313.141389
 20
236.662172
 30
0.0
 10
312.281707
 20
237.522550
 30
0.0
 10
311.962676
 20
238.700695
 30
0.0
 10
312.281706
 20
239.878842
 30
0.0
 10
313.141388
 20
240.739221
 30
0.0
 10
314.322135
 20
241.058028
 30
0.0
 10
315.490614
 20
240.739221
 30
0.0
 10
316.386372
 20
239.878842
 30
0.0
 10
316.508218
 20
239.097332
 30
0.0
 10
316.570058
 20
238.700695
 30
0.0
 11
316.570058
 21
238.700695
 31
0.0
 11
316.262869
 21
237.565081
 31
0.0
 11
315.455682
 21
236.757891
 31
0.0
 11
314.320070
 21
236.450695
 31
0.0
 11
313.184457
 21
236.757891
 31
0.0
 11
312.377271
 21
237.565081
 31
0.0
 11
312.070081
 21
238.700695
 31
0.0
 11
312.377270
 21
239.836310
 31
0.0
 11
313.184456
 21
240.643502
 31
0.0
 11
314.320070
 21
240.950698
 31
0.0
 11
315.455683
 21
240.643502
 31
0.0
 11
316.262870
 21
239.836310
 31
0.0
 11
316.570058
 21
238.700695
 31
0.0
  0
LWPOLYLINE
  5
123
100
AcDbEntity
  8
Layer_1
 62
7
100
AcDbPolyline
 90
2
 70
1
 10
316.570058
 20
238.700695
 30
0.0
 10
316.570058
 20
238.700695
 30
0.0
  0
SPLINE
  5
124
100
AcDbEntity
  8
Layer_1
 62
7
100
AcDbSpline
 70
0
 71
3
 72
22
 73
18
 74
16
 40
0.000000
 40
0.000000
 40
0.000000
 40
0.000000
 40
1.176433
 40
2.317973
 40
3.494405
 40
4.670839
 40
5.812380
 40
6.988813
 40
7.577808
 40
8.161928
 40
8.750922
 40
9.339916
 40
9.924036
 40
10.513030
 40
11.689464
 40
12.831005
 40
14.007438
 40
14.007438
 40
14.007438
 40
14.007438
 10
291.570063
 20
238.700695
 30
0.0
 10
291.508222
 20
238.304056
 30
0.0
 10
291.386372
 20
237.522541
 30
0.0
 10
290.490618
 20
236.662186
 30
0.0
 10
289.322104
 20
236.343294
 30
0.0
 10
288.141464
 20
236.662441
 30
0.0
 10
287.281368
 20
237.521537
 30
0.0
 10
287.017262
 20
238.505710
 30
0.0
 10
287.121997
 20
239.289488
 30
0.0
 10
287.349111
 20
239.838629
 30
0.0
 10
287.710708
 20
240.310037
 30
0.0
 10
288.182179
 20
240.671650
 30
0.0
 10
288.731088
 20
240.898764
 30
0.0
 10
289.516029
 20
241.003478
 30
0.0
 10
290.491439
 20
240.739538
 30
0.0
 10
291.386164
 20
239.878766
 30
0.0
 10
291.508151
 20
239.097306
 30
0.0
 10
291.570063
 20
238.700695
 30
0.0
 11
291.570063
 21
238.700695
 31
0.0
 11
291.262872
 21
237.565078
 31
0.0
 11
290.455681
 21
236.757887
 31
0.0
 11
289.320063
 21
236.450695
 31
0.0
 11
288.184445
 21
236.757886
 31
0.0
 11
287.377253
 21
237.565077
 31
0.0
 11
287.070061
 21
238.700695
 31
0.0
 11
287.147147
 21
239.284623
 31
0.0
 11
287.370680
 21
239.824280
 31
0.0
 11
287.729071
 21
240.291687
 31
0.0
 11
288.196479
 21
240.650079
 31
0.0
 11
288.736135
 21
240.873612
 31
0.0
 11
289.320063
 21
240.950698
 31
0.0
 11
290.455682
 21
240.643506
 31
0.0
 11
291.262873
 21
239.836314
 31
0.0
 11
291.570063
 21
238.700695
 31
0.0
  0
LWPOLYLINE
  5
125
100
AcDbEntity
  8
Layer_1
 62
7
100
AcDbPolyline
 90
2
 70
1
 10
291.570063
 20
238.700695
 30
0.0
 10
291.570063
 20
238.700695
 30
0.0
  0
LWPOLYLINE
  5
126
100
AcDbEntity
  8
Layer_1
 62
7
100
AcDbPolyline
 90
2
 70
1
 10
186.569980
 20
238.700695
 30
0.0
 10
186.569980
 20
238.700695
 30
0.0
  0
LWPOLYLINE
  5
127
100
AcDbEntity
  8
Layer_1
 62
7
100
AcDbPolyline
 90
157
 70
1
 10
83.269887
 20
362.400801
 30
0.0
 10
84.769887
 20
362.400801
 30
0.0
 10
84.769887
 20
359.100798
 30
0.0
 10
88.869893
 20
359.100798
 30
0.0
 10
88.869893
 20
362.400801
 30
0.0
 10
90.369893
 20
362.400801
 30
0.0
 10
90.369893
 20
365.700804
 30
0.0
 10
88.869893
 20
365.700804
 30
0.0
 10
88.869893
 20
366.200804
 30
0.0
 10
106.819906
 20
366.200804
 30
0.0
 10
106.819906
 20
371.200808
 30
0.0
 10
136.819931
 20
371.200808
 30
0.0
 10
136.819931
 20
366.200804
 30
0.0
 10
166.819956
 20
366.200804
 30
0.0
 10
166.819956
 20
371.200808
 30
0.0
 10
196.819980
 20
371.200808
 30
0.0
 10
196.819980
 20
366.200804
 30
0.0
 10
226.820005
 20
366.200804
 30
0.0
 10
226.820005
 20
371.200808
 30
0.0
 10
256.820030
 20
371.200808
 30
0.0
 10
256.820030
 20
366.200804
 30
0.0
 10
286.820054
 20
366.200804
 30
0.0
 10
286.820054
 20
371.200808
 30
0.0
 10
316.820079
 20
371.200808
 30
0.0
 10
316.820079
 20
366.200804
 30
0.0
 10
346.820104
 20
366.200804
 30
0.0
 10
346.820104
 20
371.200808
 30
0.0
 10
376.820128
 20
371.200808
 30
0.0
 10
376.820128
 20
366.200804
 30
0.0
 10
406.820153
 20
366.200804
 30
0.0
 10
406.820153
 20
371.200808
 30
0.0
 10
436.820178
 20
371.200808
 30
0.0
 10
436.820178
 20
366.200804
 30
0.0
 10
466.820202
 20
366.200804
 30
0.0
 10
466.820202
 20
371.200808
 30
0.0
 10
496.820227
 20
371.200808
 30
0.0
 10
496.820227
 20
366.200804
 30
0.0
 10
514.770238
 20
366.200804
 30
0.0
 10
514.770238
 20
365.700804
 30
0.0
 10
513.270227
 20
365.700804
 30
0.0
 10
513.270227
 20
362.400801
 30
0.0
 10
514.770238
 20
362.400801
 30
0.0
 10
514.770238
 20
359.100798
 30
0.0
 10
518.870249
 20
359.100798
 30
0.0
 10
518.870249
 20
362.400801
 30
0.0
 10
520.370260
 20
362.400801
 30
0.0
 10
520.370260
 20
365.700804
 30
0.0
 10
518.870249
 20
365.700804
 30
0.0
 10
518.870249
 20
366.200804
 30
0.0
 10
536.820260
 20
366.200804
 30
0.0
 10
536.820260
 20
371.200808
 30
0.0
 10
571.820275
 20
371.200808
 30
0.0
 10
571.820275
 20
339.200782
 30
0.0
 10
576.820293
 20
339.200782
 30
0.0
 10
576.820293
 20
307.200756
 30
0.0
 10
571.820275
 20
307.200756
 30
0.0
 10
571.820275
 20
293.250745
 30
0.0
 10
571.320290
 20
293.250745
 30
0.0
 10
571.320290
 20
294.750745
 30
0.0
 10
568.020293
 20
294.750745
 30
0.0
 10
568.020293
 20
293.250745
 30
0.0
 10
564.720269
 20
293.250745
 30
0.0
 10
564.720269
 20
289.150740
 30
0.0
 10
568.020293
 20
289.150740
 30
0.0
 10
568.020293
 20
287.650740
 30
0.0
 10
571.320290
 20
287.650740
 30
0.0
 10
571.320290
 20
289.150740
 30
0.0
 10
571.820275
 20
289.150740
 30
0.0
 10
571.820275
 20
275.200729
 30
0.0
 10
576.820293
 20
275.200729
 30
0.0
 10
576.820293
 20
243.200703
 30
0.0
 10
571.820275
 20
243.200703
 30
0.0
 10
571.820275
 20
211.200677
 30
0.0
 10
536.820260
 20
211.200677
 30
0.0
 10
536.820260
 20
216.200681
 30
0.0
 10
518.870249
 20
216.200681
 30
0.0
 10
518.870249
 20
216.700683
 30
0.0
 10
520.370260
 20
216.700683
 30
0.0
 10
520.370260
 20
220.000685
 30
0.0
 10
518.870249
 20
220.000685
 30
0.0
 10
518.870249
 20
223.300686
 30
0.0
 10
514.770238
 20
223.300686
 30
0.0
 10
514.770238
 20
220.000685
 30
0.0
 10
513.270227
 20
220.000685
 30
0.0
 10
513.270227
 20
216.700683
 30
0.0
 10
514.770238
 20
216.700683
 30
0.0
 10
514.770238
 20
216.200681
 30
0.0
 10
496.820227
 20
216.200681
 30
0.0
 10
496.820227
 20
211.200677
 30
0.0
 10
466.820202
 20
211.200677
 30
0.0
 10
466.820202
 20
216.200681
 30
0.0
 10
436.820178
 20
216.200681
 30
0.0
 10
436.820178
 20
211.200677
 30
0.0
 10
406.820153
 20
211.200677
 30
0.0
 10
406.820153
 20
216.200681
 30
0.0
 10
376.820128
 20
216.200681
 30
0.0
 10
376.820128
 20
211.200677
 30
0.0
 10
346.820104
 20
211.200677
 30
0.0
 10
346.820104
 20
216.200681
 30
0.0
 10
316.820079
 20
216.200681
 30
0.0
 10
316.820079
 20
211.200677
 30
0.0
 10
286.820054
 20
211.200677
 30
0.0
 10
286.820054
 20
216.200681
 30
0.0
 10
256.820030
 20
216.200681
 30
0.0
 10
256.820030
 20
211.200677
 30
0.0
 10
226.820005
 20
211.200677
 30
0.0
 10
226.820005
 20
216.200681
 30
0.0
 10
196.819980
 20
216.200681
 30
0.0
 10
196.819980
 20
211.200677
 30
0.0
 10
166.819956
 20
211.200677
 30
0.0
 10
166.819956
 20
216.200681
 30
0.0
 10
136.819931
 20
216.200681
 30
0.0
 10
136.819931
 20
211.200677
 30
0.0
 10
106.819906
 20
211.200677
 30
0.0
 10
106.819906
 20
216.200681
 30
0.0
 10
88.869893
 20
216.200681
 30
0.0
 10
88.869893
 20
216.700683
 30
0.0
 10
90.369893
 20
216.700683
 30
0.0
 10
90.369893
 20
220.000685
 30
0.0
 10
88.869893
 20
220.000685
 30
0.0
 10
88.869893
 20
223.300686
 30
0.0
 10
84.769887
 20
223.300686
 30
0.0
 10
84.769887
 20
220.000685
 30
0.0
 10
83.269887
 20
220.000685
 30
0.0
 10
83.269887
 20
216.700683
 30
0.0
 10
84.769887
 20
216.700683
 30
0.0
 10
84.769887
 20
216.200681
 30
0.0
 10
66.819873
 20
216.200681
 30
0.0
 10
66.819873
 20
211.200677
 30
0.0
 10
31.819845
 20
211.200677
 30
0.0
 10
31.819845
 20
243.200703
 30
0.0
 10
26.819841
 20
243.200703
 30
0.0
 10
26.819841
 20
275.200729
 30
0.0
 10
31.819845
 20
275.200729
 30
0.0
 10
31.819845
 20
289.150740
 30
0.0
 10
32.319845
 20
289.150740
 30
0.0
 10
32.319845
 20
287.650740
 30
0.0
 10
35.619848
 20
287.650740
 30
0.0
 10
35.619848
 20
289.150740
 30
0.0
 10
38.919850
 20
289.150740
 30
0.0
 10
38.919850
 20
293.250745
 30
0.0
 10
35.619848
 20
293.250745
 30
0.0
 10
35.619848
 20
294.750745
 30
0.0
 10
32.319845
 20
294.750745
 30
0.0
 10
32.319845
 20
293.250745
 30
0.0
 10
31.819845
 20
293.250745
 30
0.0
 10
31.819845
 20
307.200756
 30
0.0
 10
26.819841
 20
307.200756
 30
0.0
 10
26.819841
 20
339.200782
 30
0.0
 10
31.819845
 20
339.200782
 30
0.0
 10
31.819845
 20
371.200808
 30
0.0
 10
66.819873
 20
371.200808
 30
0.0
 10
66.819873
 20
366.200804
 30
0.0
 10
84.769887
 20
366.200804
 30
0.0
 10
84.769887
 20
365.700804
 30
0.0
 10
83.269887
 20
365.700804
 30
0.0
 10
83.269887
 20
362.400801
 30
0.0
  0
SPLINE
  5
128
100
AcDbEntity
  8
Layer_1
 62
7
100
AcDbSpline
 70
0
 71
3
 72
25
 73
21
 74
19
 40
0.000000
 40
0.000000
 40
0.000000
 40
0.000000
 40
1.176434
 40
2.317974
 40
3.494408
 40
4.670842
 40
5.812382
 40
6.988816
 40
7.577810
 40
8.161930
 40
8.750924
 40
9.339919
 40
9.924039
 40
10.513033
 40
11.102027
 40
11.686147
 40
12.275141
 40
12.864136
 40
13.448256
 40
14.037250
 40
14.037250
 40
14.037250
 40
14.037250
 10
186.569980
 20
238.700695
 30
0.0
 10
186.508138
 20
238.304055
 30
0.0
 10
186.386289
 20
237.522540
 30
0.0
 10
185.490533
 20
236.662184
 30
0.0
 10
184.322018
 20
236.343294
 30
0.0
 10
183.141378
 20
236.662441
 30
0.0
 10
182.281282
 20
237.521537
 30
0.0
 10
182.017176
 20
238.505709
 30
0.0
 10
182.121911
 20
239.289488
 30
0.0
 10
182.349026
 20
239.838626
 30
0.0
 10
182.710617
 20
240.310049
 30
0.0
 10
183.182112
 20
240.671607
 30
0.0
 10
183.730928
 20
240.898925
 30
0.0
 10
184.319967
 20
240.976691
 30
0.0
 10
184.909065
 20
240.898926
 30
0.0
 10
185.457705
 20
240.671602
 30
0.0
 10
185.929850
 20
240.310068
 30
0.0
 10
186.289025
 20
239.838556
 30
0.0
 10
186.525107
 20
239.289748
 30
0.0
 10
186.554981
 20
238.897589
 30
0.0
 10
186.569980
 20
238.700695
 30
0.0
 11
186.569980
 21
238.700695
 31
0.0
 11
186.262788
 21
237.565077
 31
0.0
 11
185.455596
 21
236.757886
 31
0.0
 11
184.319977
 21
236.450695
 31
0.0
 11
183.184358
 21
236.757886
 31
0.0
 11
182.377167
 21
237.565077
 31
0.0
 11
182.069975
 21
238.700695
 31
0.0
 11
182.147061
 21
239.284623
 31
0.0
 11
182.370594
 21
239.824280
 31
0.0
 11
182.728985
 21
240.291687
 31
0.0
 11
183.196392
 21
240.650079
 31
0.0
 11
183.736049
 21
240.873612
 31
0.0
 11
184.319977
 21
240.950698
 31
0.0
 11
184.903905
 21
240.873612
 31
0.0
 11
185.443562
 21
240.650079
 31
0.0
 11
185.910969
 21
240.291687
 31
0.0
 11
186.269361
 21
239.824280
 31
0.0
 11
186.492894
 21
239.284623
 31
0.0
 11
186.569980
 21
238.700695
 31
0.0
  0
LWPOLYLINE
  5
129
100
AcDbEntity
  8
Layer_1
 62
7
100
AcDbPolyline
 90
2
 70
1
 10
53.819863
 20
191.200803
 30
0.0
 10
153.819945
 20
191.200803
 30
0.0
  0
SPLINE
  5
12a
100
AcDbEntity
  8
Layer_1
 62
7
100
AcDbSpline
 70
0
 71
3
 72
10
 73
6
 74
4
 40
0.000000
 40
0.000000
 40
0.000000
 40
0.000000
 40
2.617481
 40
5.151545
 40
7.769026
 40
7.769026
 40
7.769026
 40
7.769026
 10
153.819945
 20
191.200803
 30
0.0
 10
154.697458
 20
191.064358
 30
0.0
 10
156.424518
 20
190.795815
 30
0.0
 10
158.414961
 20
188.805372
 30
0.0
 10
158.683503
 20
187.078312
 30
0.0
 10
158.819949
 20
186.200799
 30
0.0
 11
153.819945
 21
191.200803
 31
0.0
 11
156.347355
 21
190.520062
 31
0.0
 11
158.139208
 21
188.728209
 31
0.0
 11
158.819949
 21
186.200799
 31
0.0
  0
LWPOLYLINE
  5
12b
100
AcDbEntity
  8
Layer_1
 62
7
100
AcDbPolyline
 90
2
 70
1
 10
158.819949
 20
186.200799
 30
0.0
 10
158.819949
 20
76.200707
 30
0.0
  0
SPLINE
  5
12c
100
AcDbEntity
  8
Layer_1
 62
7
100
AcDbSpline
 70
0
 71
3
 72
10
 73
6
 74
4
 40
0.000000
 40
0.000000
 40
0.000000
 40
0.000000
 40
2.617481
 40
5.151544
 40
7.769026
 40
7.769026
 40
7.769026
 40
7.769026
 10
158.819949
 20
76.200707
 30
0.0
 10
158.683503
 20
75.323194
 30
0.0
 10
158.414961
 20
73.596134
 30
0.0
 10
156.424518
 20
71.605691
 30
0.0
 10
154.697458
 20
71.337148
 30
0.0
 10
153.819945
 20
71.200703
 30
0.0
 11
158.819949
 21
76.200707
 31
0.0
 11
158.139208
 21
73.673297
 31
0.0
 11
156.347355
 21
71.881444
 31
0.0
 11
153.819945
 21
71.200703
 31
0.0
  0
LWPOLYLINE
  5
12d
100
AcDbEntity
  8
Layer_1
 62
7
100
AcDbPolyline
 90
2
 70
1
 10
153.819945
 20
71.200703
 30
0.0
 10
53.819863
 20
71.200703
 30
0.0
  0
SPLINE
  5
12e
100
AcDbEntity
  8
Layer_1
 62
7
100
AcDbSpline
 70
0
 71
3
 72
10
 73
6
 74
4
 40
0.000000
 40
0.000000
 40
0.000000
 40
0.000000
 40
2.617481
 40
5.151545
 40
7.769026
 40
7.769026
 40
7.769026
 40
7.769026
 10
53.819863
 20
71.200703
 30
0.0
 10
52.942350
 20
71.337148
 30
0.0
 10
51.215290
 20
71.605691
 30
0.0
 10
49.224847
 20
73.596134
 30
0.0
 10
48.956304
 20
75.323194
 30
0.0
 10
48.819859
 20
76.200707
 30
0.0
 11
53.819863
 21
71.200703
 31
0.0
 11
51.292453
 21
71.881444
 31
0.0
 11
49.500600
 21
73.673297
 31
0.0
 11
48.819859
 21
76.200707
 31
0.0
  0
LWPOLYLINE
  5
12f
100
AcDbEntity
  8
Layer_1
 62
7
100
AcDbPolyline
 90
2
 70
1
 10
48.819859
 20
76.200707
 30
0.0
 10
48.819859
 20
186.200799
 30
0.0
  0
LWPOLYLINE
  5
130
100
AcDbEntity
  8
Layer_1
 62
7
100
AcDbPolyline
 90
2
 70
1
 10
53.819863
 20
191.200803
 30
0.0
 10
53.819863
 20
191.200803
 30
0.0
  0
SPLINE
  5
131
100
AcDbEntity
  8
Layer_1
 62
7
100
AcDbSpline
 70
0
 71
3
 72
10
 73
6
 74
4
 40
0.000000
 40
0.000000
 40
0.000000
 40
0.000000
 40
2.617481
 40
5.151545
 40
7.769026
 40
7.769026
 40
7.769026
 40
7.769026
 10
48.819859
 20
186.200799
 30
0.0
 10
48.956304
 20
187.078312
 30
0.0
 10
49.224847
 20
188.805372
 30
0.0
 10
51.215290
 20
190.795815
 30
0.0
 10
52.942350
 20
191.064358
 30
0.0
 10
53.819863
 20
191.200803
 30
0.0
 11
48.819859
 21
186.200799
 31
0.0
 11
49.500600
 21
188.728209
 31
0.0
 11
51.292453
 21
190.520062
 31
0.0
 11
53.819863
 21
191.200803
 31
0.0
  0
LWPOLYLINE
  5
132
100
AcDbEntity
  8
Layer_1
 62
7
100
AcDbPolyline
 90
2
 70
1
 10
185.819971
 20
191.200803
 30
0.0
 10
285.820053
 20
191.200803
 30
0.0
  0
SPLINE
  5
133
100
AcDbEntity
  8
Layer_1
 62
7
100
AcDbSpline
 70
0
 71
3
 72
10
 73
6
 74
4
 40
0.000000
 40
0.000000
 40
0.000000
 40
0.000000
 40
2.617481
 40
5.151545
 40
7.769026
 40
7.769026
 40
7.769026
 40
7.769026
 10
285.820053
 20
191.200803
 30
0.0
 10
286.697566
 20
191.064358
 30
0.0
 10
288.424626
 20
190.795815
 30
0.0
 10
290.415069
 20
188.805372
 30
0.0
 10
290.683612
 20
187.078312
 30
0.0
 10
290.820058
 20
186.200799
 30
0.0
 11
285.820053
 21
191.200803
 31
0.0
 11
288.347463
 21
190.520062
 31
0.0
 11
290.139316
 21
188.728209
 31
0.0
 11
290.820058
 21
186.200799
 31
0.0
  0
LWPOLYLINE
  5
134
100
AcDbEntity
  8
Layer_1
 62
7
100
AcDbPolyline
 90
2
 70
1
 10
290.820058
 20
186.200799
 30
0.0
 10
290.820058
 20
76.200707
 30
0.0
  0
SPLINE
  5
135
100
AcDbEntity
  8
Layer_1
 62
7
100
AcDbSpline
 70
0
 71
3
 72
10
 73
6
 74
4
 40
0.000000
 40
0.000000
 40
0.000000
 40
0.000000
 40
2.617481
 40
5.151544
 40
7.769026
 40
7.769026
 40
7.769026
 40
7.769026
 10
290.820058
 20
76.200707
 30
0.0
 10
290.683612
 20
75.323194
 30
0.0
 10
290.415069
 20
73.596134
 30
0.0
 10
288.424626
 20
71.605691
 30
0.0
 10
286.697566
 20
71.337148
 30
0.0
 10
285.820053
 20
71.200703
 30
0.0
 11
290.820058
 21
76.200707
 31
0.0
 11
290.139316
 21
73.673297
 31
0.0
 11
288.347463
 21
71.881444
 31
0.0
 11
285.820053
 21
71.200703
 31
0.0
  0
LWPOLYLINE
  5
136
100
AcDbEntity
  8
Layer_1
 62
7
100
AcDbPolyline
 90
2
 70
1
 10
285.820053
 20
71.200703
 30
0.0
 10
185.819971
 20
71.200703
 30
0.0
  0
SPLINE
  5
137
100
AcDbEntity
  8
Layer_1
 62
7
100
AcDbSpline
 70
0
 71
3
 72
10
 73
6
 74
4
 40
0.000000
 40
0.000000
 40
0.000000
 40
0.000000
 40
2.617481
 40
5.151544
 40
7.769026
 40
7.769026
 40
7.769026
 40
7.769026
 10
185.819971
 20
71.200703
 30
0.0
 10
184.942458
 20
71.337148
 30
0.0
 10
183.215398
 20
71.605691
 30
0.0
 10
181.224955
 20
73.596134
 30
0.0
 10
180.956413
 20
75.323194
 30
0.0
 10
180.819967
 20
76.200707
 30
0.0
 11
185.819971
 21
71.200703
 31
0.0
 11
183.292562
 21
71.881444
 31
0.0
 11
181.500708
 21
73.673297
 31
0.0
 11
180.819967
 21
76.200707
 31
0.0
  0
LWPOLYLINE
  5
138
100
AcDbEntity
  8
Layer_1
 62
7
100
AcDbPolyline
 90
2
 70
1
 10
180.819967
 20
76.200707
 30
0.0
 10
180.819967
 20
186.200799
 30
0.0
  0
LWPOLYLINE
  5
139
100
AcDbEntity
  8
Layer_1
 62
7
100
AcDbPolyline
 90
2
 70
1
 10
185.819971
 20
191.200803
 30
0.0
 10
185.819971
 20
191.200803
 30
0.0
  0
SPLINE
  5
13a
100
AcDbEntity
  8
Layer_1
 62
7
100
AcDbSpline
 70
0
 71
3
 72
10
 73
6
 74
4
 40
0.000000
 40
0.000000
 40
0.000000
 40
0.000000
 40
2.617481
 40
5.151545
 40
7.769026
 40
7.769026
 40
7.769026
 40
7.769026
 10
180.819967
 20
186.200799
 30
0.0
 10
180.956413
 20
187.078312
 30
0.0
 10
181.224955
 20
188.805372
 30
0.0
 10
183.215398
 20
190.795815
 30
0.0
 10
184.942458
 20
191.064358
 30
0.0
 10
185.819971
 20
191.200803
 30
0.0
 11
180.819967
 21
186.200799
 31
0.0
 11
181.500708
 21
188.728209
 31
0.0
 11
183.292562
 21
190.520062
 31
0.0
 11
185.819971
 21
191.200803
 31
0.0
  0
LWPOLYLINE
  5
13b
100
AcDbEntity
  8
Layer_1
 62
7
100
AcDbPolyline
 90
2
 70
1
 10
317.820105
 20
191.200803
 30
0.0
 10
417.820187
 20
191.200803
 30
0.0
  0
SPLINE
  5
13c
100
AcDbEntity
  8
Layer_1
 62
7
100
AcDbSpline
 70
0
 71
3
 72
10
 73
6
 74
4
 40
0.000000
 40
0.000000
 40
0.000000
 40
0.000000
 40
2.617469
 40
5.151531
 40
7.769012
 40
7.769012
 40
7.769012
 40
7.769012
 10
417.820187
 20
191.200803
 30
0.0
 10
418.697696
 20
191.064357
 30
0.0
 10
420.424751
 20
190.795812
 30
0.0
 10
422.415188
 20
188.805371
 30
0.0
 10
422.683731
 20
187.078312
 30
0.0
 10
422.820177
 20
186.200799
 30
0.0
 11
417.820187
 21
191.200803
 31
0.0
 11
420.347585
 21
190.520062
 31
0.0
 11
422.139435
 21
188.728209
 31
0.0
 11
422.820177
 21
186.200799
 31
0.0
  0
LWPOLYLINE
  5
13d
100
AcDbEntity
  8
Layer_1
 62
7
100
AcDbPolyline
 90
2
 70
1
 10
422.820177
 20
186.200799
 30
0.0
 10
422.820177
 20
76.200707
 30
0.0
  0
SPLINE
  5
13e
100
AcDbEntity
  8
Layer_1
 62
7
100
AcDbSpline
 70
0
 71
3
 72
10
 73
6
 74
4
 40
0.000000
 40
0.000000
 40
0.000000
 40
0.000000
 40
2.617481
 40
5.151543
 40
7.769012
 40
7.769012
 40
7.769012
 40
7.769012
 10
422.820177
 20
76.200707
 30
0.0
 10
422.683731
 20
75.323194
 30
0.0
 10
422.415188
 20
73.596135
 30
0.0
 10
420.424751
 20
71.605694
 30
0.0
 10
418.697696
 20
71.337149
 30
0.0
 10
417.820187
 20
71.200703
 30
0.0
 11
422.820177
 21
76.200707
 31
0.0
 11
422.139435
 21
73.673297
 31
0.0
 11
420.347585
 21
71.881444
 31
0.0
 11
417.820187
 21
71.200703
 31
0.0
  0
LWPOLYLINE
  5
13f
100
AcDbEntity
  8
Layer_1
 62
7
100
AcDbPolyline
 90
2
 70
1
 10
417.820187
 20
71.200703
 30
0.0
 10
317.820105
 20
71.200703
 30
0.0
  0
SPLINE
  5
140
100
AcDbEntity
  8
Layer_1
 62
7
100
AcDbSpline
 70
0
 71
3
 72
10
 73
6
 74
4
 40
0.000000
 40
0.000000
 40
0.000000
 40
0.000000
 40
2.617488
 40
5.151555
 40
7.769037
 40
7.769037
 40
7.769037
 40
7.769037
 10
317.820105
 20
71.200703
 30
0.0
 10
316.942590
 20
71.337148
 30
0.0
 10
315.215526
 20
71.605690
 30
0.0
 10
313.225077
 20
73.596132
 30
0.0
 10
312.956533
 20
75.323194
 30
0.0
 10
312.820087
 20
76.200707
 30
0.0
 11
317.820105
 21
71.200703
 31
0.0
 11
315.292688
 21
71.881444
 31
0.0
 11
313.500830
 21
73.673297
 31
0.0
 11
312.820087
 21
76.200707
 31
0.0
  0
LWPOLYLINE
  5
141
100
AcDbEntity
  8
Layer_1
 62
7
100
AcDbPolyline
 90
2
 70
1
 10
312.820087
 20
76.200707
 30
0.0
 10
312.820087
 20
186.200799
 30
0.0
  0
LWPOLYLINE
  5
142
100
AcDbEntity
  8
Layer_1
 62
7
100
AcDbPolyline
 90
2
 70
1
 10
317.820105
 20
191.200803
 30
0.0
 10
317.820105
 20
191.200803
 30
0.0
  0
SPLINE
  5
143
100
AcDbEntity
  8
Layer_1
 62
7
100
AcDbSpline
 70
0
 71
3
 72
10
 73
6
 74
4
 40
0.000000
 40
0.000000
 40
0.000000
 40
0.000000
 40
2.617482
 40
5.151548
 40
7.769037
 40
7.769037
 40
7.769037
 40
7.769037
 10
312.820087
 20
186.200799
 30
0.0
 10
312.956533
 20
187.078312
 30
0.0
 10
313.225077
 20
188.805373
 30
0.0
 10
315.215526
 20
190.795816
 30
0.0
 10
316.942590
 20
191.064358
 30
0.0
 10
317.820105
 20
191.200803
 30
0.0
 11
312.820087
 21
186.200799
 31
0.0
 11
313.500830
 21
188.728209
 31
0.0
 11
315.292688
 21
190.520062
 31
0.0
 11
317.820105
 21
191.200803
 31
0.0
  0
LWPOLYLINE
  5
144
100
AcDbEntity
  8
Layer_1
 62
7
100
AcDbPolyline
 90
2
 70
1
 10
449.820208
 20
191.200803
 30
0.0
 10
549.820290
 20
191.200803
 30
0.0
  0
SPLINE
  5
145
100
AcDbEntity
  8
Layer_1
 62
7
100
AcDbSpline
 70
0
 71
3
 72
10
 73
6
 74
4
 40
0.000000
 40
0.000000
 40
0.000000
 40
0.000000
 40
2.617481
 40
5.151539
 40
7.769018
 40
7.769018
 40
7.769018
 40
7.769018
 10
549.820290
 20
191.200803
 30
0.0
 10
550.697804
 20
191.064358
 30
0.0
 10
552.424863
 20
190.795817
 30
0.0
 10
554.415298
 20
188.805369
 30
0.0
 10
554.683837
 20
187.078312
 30
0.0
 10
554.820280
 20
186.200799
 30
0.0
 11
549.820290
 21
191.200803
 31
0.0
 11
552.347700
 21
190.520062
 31
0.0
 11
554.139545
 21
188.728209
 31
0.0
 11
554.820280
 21
186.200799
 31
0.0
  0
LWPOLYLINE
  5
146
100
AcDbEntity
  8
Layer_1
 62
7
100
AcDbPolyline
 90
2
 70
1
 10
554.820280
 20
186.200799
 30
0.0
 10
554.820280
 20
76.200707
 30
0.0
  0
SPLINE
  5
147
100
AcDbEntity
  8
Layer_1
 62
7
100
AcDbSpline
 70
0
 71
3
 72
10
 73
6
 74
4
 40
0.000000
 40
0.000000
 40
0.000000
 40
0.000000
 40
2.617480
 40
5.151537
 40
7.769018
 40
7.769018
 40
7.769018
 40
7.769018
 10
554.820280
 20
76.200707
 30
0.0
 10
554.683837
 20
75.323194
 30
0.0
 10
554.415298
 20
73.596137
 30
0.0
 10
552.424863
 20
71.605689
 30
0.0
 10
550.697804
 20
71.337148
 30
0.0
 10
549.820290
 20
71.200703
 30
0.0
 11
554.820280
 21
76.200707
 31
0.0
 11
554.139545
 21
73.673297
 31
0.0
 11
552.347700
 21
71.881444
 31
0.0
 11
549.820290
 21
71.200703
 31
0.0
  0
LWPOLYLINE
  5
148
100
AcDbEntity
  8
Layer_1
 62
7
100
AcDbPolyline
 90
2
 70
1
 10
549.820290
 20
71.200703
 30
0.0
 10
449.820208
 20
71.200703
 30
0.0
  0
SPLINE
  5
149
100
AcDbEntity
  8
Layer_1
 62
7
100
AcDbSpline
 70
0
 71
3
 72
10
 73
6
 74
4
 40
0.000000
 40
0.000000
 40
0.000000
 40
0.000000
 40
2.617488
 40
5.151555
 40
7.769037
 40
7.769037
 40
7.769037
 40
7.769037
 10
449.820208
 20
71.200703
 30
0.0
 10
448.942693
 20
71.337148
 30
0.0
 10
447.215629
 20
71.605690
 30
0.0
 10
445.225180
 20
73.596132
 30
0.0
 10
444.956636
 20
75.323194
 30
0.0
 10
444.820190
 20
76.200707
 30
0.0
 11
449.820208
 21
71.200703
 31
0.0
 11
447.292791
 21
71.881444
 31
0.0
 11
445.500933
 21
73.673297
 31
0.0
 11
444.820190
 21
76.200707
 31
0.0
  0
LWPOLYLINE
  5
14a
100
AcDbEntity
  8
Layer_1
 62
7
100
AcDbPolyline
 90
2
 70
1
 10
444.820190
 20
76.200707
 30
0.0
 10
444.820190
 20
186.200799
 30
0.0
  0
SPLINE
  5
14b
100
AcDbEntity
  8
Layer_1
 62
7
100
AcDbSpline
 70
0
 71
3
 72
10
 73
6
 74
4
 40
0.000000
 40
0.000000
 40
0.000000
 40
0.000000
 40
2.617482
 40
5.151548
 40
7.769037
 40
7.769037
 40
7.769037
 40
7.769037
 10
444.820190
 20
186.200799
 30
0.0
 10
444.956636
 20
187.078312
 30
0.0
 10
445.225180
 20
188.805373
 30
0.0
 10
447.215629
 20
190.795816
 30
0.0
 10
448.942693
 20
191.064358
 30
0.0
 10
449.820208
 20
191.200803
 30
0.0
 11
444.820190
 21
186.200799
 31
0.0
 11
445.500933
 21
188.728209
 31
0.0
 11
447.292791
 21
190.520062
 31
0.0
 11
449.820208
 21
191.200803
 31
0.0
  0
LWPOLYLINE
  5
14c
100
AcDbEntity
  8
Layer_1
 62
7
100
AcDbPolyline
 90
2
 70
1
 10
449.820208
 20
191.200803
 30
0.0
 10
449.820208
 20
191.200803
 30
0.0
  0
SPLINE
  5
14d
100
AcDbEntity
  8
Layer_1
 62
7
100
AcDbSpline
 70
0
 71
3
 72
19
 73
15
 74
13
 40
0.000000
 40
0.000000
 40
0.000000
 40
0.000000
 40
0.915004
 40
1.802869
 40
2.717873
 40
3.632877
 40
4.520742
 40
5.435746
 40
6.350750
 40
7.238616
 40
8.153620
 40
9.068624
 40
9.956489
 40
10.871493
 40
10.871493
 40
10.871493
 40
10.871493
 10
60.569868
 20
196.200808
 30
0.0
 10
60.521769
 20
195.892312
 30
0.0
 10
60.426999
 20
195.284469
 30
0.0
 10
59.730294
 20
194.615284
 30
0.0
 10
58.821473
 20
194.367330
 30
0.0
 10
57.903110
 20
194.615284
 30
0.0
 10
57.234465
 20
195.284469
 30
0.0
 10
56.986328
 20
196.200808
 30
0.0
 10
57.234465
 20
197.117147
 30
0.0
 10
57.903110
 20
197.786332
 30
0.0
 10
58.821473
 20
198.034286
 30
0.0
 10
59.730294
 20
197.786332
 30
0.0
 10
60.426999
 20
197.117147
 30
0.0
 10
60.521769
 20
196.509304
 30
0.0
 10
60.569868
 20
196.200808
 30
0.0
 11
60.569868
 21
196.200808
 31
0.0
 11
60.330941
 21
195.317549
 31
0.0
 11
59.703126
 21
194.689733
 31
0.0
 11
58.819867
 21
194.450807
 31
0.0
 11
57.936608
 21
194.689733
 31
0.0
 11
57.308793
 21
195.317549
 31
0.0
 11
57.069866
 21
196.200808
 31
0.0
 11
57.308792
 21
197.084067
 31
0.0
 11
57.936608
 21
197.711883
 31
0.0
 11
58.819867
 21
197.950810
 31
0.0
 11
59.703126
 21
197.711883
 31
0.0
 11
60.330941
 21
197.084067
 31
0.0
 11
60.569868
 21
196.200808
 31
0.0
  0
LWPOLYLINE
  5
14e
100
AcDbEntity
  8
Layer_1
 62
7
100
AcDbPolyline
 90
2
 70
1
 10
60.569868
 20
196.200808
 30
0.0
 10
60.569868
 20
196.200808
 30
0.0
  0
SPLINE
  5
14f
100
AcDbEntity
  8
Layer_1
 62
7
100
AcDbSpline
 70
0
 71
3
 72
19
 73
15
 74
13
 40
0.000000
 40
0.000000
 40
0.000000
 40
0.000000
 40
0.915004
 40
1.802869
 40
2.717873
 40
3.632876
 40
4.520741
 40
5.435745
 40
6.350749
 40
7.238614
 40
8.153618
 40
9.068622
 40
9.956487
 40
10.871490
 40
10.871490
 40
10.871490
 40
10.871490
 10
60.569868
 20
66.200696
 30
0.0
 10
60.521769
 20
65.892200
 30
0.0
 10
60.426999
 20
65.284357
 30
0.0
 10
59.730294
 20
64.615172
 30
0.0
 10
58.821473
 20
64.367219
 30
0.0
 10
57.903110
 20
64.615172
 30
0.0
 10
57.234465
 20
65.284357
 30
0.0
 10
56.986328
 20
66.200696
 30
0.0
 10
57.234465
 20
67.117035
 30
0.0
 10
57.903110
 20
67.786219
 30
0.0
 10
58.821473
 20
68.034173
 30
0.0
 10
59.730294
 20
67.786219
 30
0.0
 10
60.426999
 20
67.117035
 30
0.0
 10
60.521769
 20
66.509192
 30
0.0
 10
60.569868
 20
66.200696
 30
0.0
 11
60.569868
 21
66.200696
 31
0.0
 11
60.330941
 21
65.317437
 31
0.0
 11
59.703126
 21
64.689622
 31
0.0
 11
58.819867
 21
64.450695
 31
0.0
 11
57.936608
 21
64.689622
 31
0.0
 11
57.308793
 21
65.317437
 31
0.0
 11
57.069866
 21
66.200696
 31
0.0
 11
57.308793
 21
67.083955
 31
0.0
 11
57.936608
 21
67.711770
 31
0.0
 11
58.819867
 21
67.950697
 31
0.0
 11
59.703126
 21
67.711770
 31
0.0
 11
60.330941
 21
67.083955
 31
0.0
 11
60.569868
 21
66.200696
 31
0.0
  0
LWPOLYLINE
  5
150
100
AcDbEntity
  8
Layer_1
 62
7
100
AcDbPolyline
 90
2
 70
1
 10
60.569868
 20
66.200696
 30
0.0
 10
60.569868
 20
66.200696
 30
0.0
  0
SPLINE
  5
151
100
AcDbEntity
  8
Layer_1
 62
7
100
AcDbSpline
 70
0
 71
3
 72
25
 73
21
 74
19
 40
0.000000
 40
0.000000
 40
0.000000
 40
0.000000
 40
0.458107
 40
0.912423
 40
1.370529
 40
1.828636
 40
2.282952
 40
2.741059
 40
3.656062
 40
4.543928
 40
5.458932
 40
6.373936
 40
7.261801
 40
8.176805
 40
8.634912
 40
9.089228
 40
9.547334
 40
10.005441
 40
10.459757
 40
10.917864
 40
10.917864
 40
10.917864
 40
10.917864
 10
150.569942
 20
196.200808
 30
0.0
 10
150.558275
 20
196.047669
 30
0.0
 10
150.535039
 20
195.742657
 30
0.0
 10
150.351425
 20
195.315803
 30
0.0
 10
150.072047
 20
194.949083
 30
0.0
 10
149.704893
 20
194.667847
 30
0.0
 10
149.277916
 20
194.491198
 30
0.0
 10
148.668267
 20
194.409756
 30
0.0
 10
147.902816
 20
194.615041
 30
0.0
 10
147.234642
 20
195.284531
 30
0.0
 10
146.986345
 20
196.200808
 30
0.0
 10
147.234642
 20
197.117085
 30
0.0
 10
147.902816
 20
197.786575
 30
0.0
 10
148.668267
 20
197.991860
 30
0.0
 10
149.277916
 20
197.910418
 30
0.0
 10
149.704893
 20
197.733770
 30
0.0
 10
150.072047
 20
197.452534
 30
0.0
 10
150.351425
 20
197.085814
 30
0.0
 10
150.535039
 20
196.658960
 30
0.0
 10
150.558275
 20
196.353948
 30
0.0
 10
150.569942
 20
196.200808
 30
0.0
 11
150.569942
 21
196.200808
 31
0.0
 11
150.509985
 21
195.746642
 31
0.0
 11
150.336126
 21
195.326909
 31
0.0
 11
150.057377
 21
194.963370
 31
0.0
 11
149.693838
 21
194.684621
 31
0.0
 11
149.274104
 21
194.510762
 31
0.0
 11
148.819938
 21
194.450807
 31
0.0
 11
147.936679
 21
194.689733
 31
0.0
 11
147.308864
 21
195.317549
 31
0.0
 11
147.069937
 21
196.200808
 31
0.0
 11
147.308864
 21
197.084067
 31
0.0
 11
147.936679
 21
197.711883
 31
0.0
 11
148.819938
 21
197.950810
 31
0.0
 11
149.274104
 21
197.890854
 31
0.0
 11
149.693838
 21
197.716995
 31
0.0
 11
150.057377
 21
197.438247
 31
0.0
 11
150.336126
 21
197.074707
 31
0.0
 11
150.509986
 21
196.654974
 31
0.0
 11
150.569942
 21
196.200808
 31
0.0
  0
LWPOLYLINE
  5
152
100
AcDbEntity
  8
Layer_1
 62
7
100
AcDbPolyline
 90
2
 70
1
 10
150.569942
 20
196.200808
 30
0.0
 10
150.569942
 20
196.200808
 30
0.0
  0
SPLINE
  5
153
100
AcDbEntity
  8
Layer_1
 62
7
100
AcDbSpline
 70
0
 71
3
 72
25
 73
21
 74
19
 40
0.000000
 40
0.000000
 40
0.000000
 40
0.000000
 40
0.458107
 40
0.912422
 40
1.370529
 40
1.828636
 40
2.282951
 40
2.741058
 40
3.656062
 40
4.543927
 40
5.458931
 40
6.373934
 40
7.261799
 40
8.176803
 40
8.634910
 40
9.089225
 40
9.547332
 40
10.005439
 40
10.459754
 40
10.917861
 40
10.917861
 40
10.917861
 40
10.917861
 10
150.569942
 20
66.200696
 30
0.0
 10
150.558275
 20
66.047556
 30
0.0
 10
150.535039
 20
65.742544
 30
0.0
 10
150.351424
 20
65.315690
 30
0.0
 10
150.072047
 20
64.948971
 30
0.0
 10
149.704893
 20
64.667735
 30
0.0
 10
149.277915
 20
64.491087
 30
0.0
 10
148.668267
 20
64.409645
 30
0.0
 10
147.902816
 20
64.614930
 30
0.0
 10
147.234643
 20
65.284419
 30
0.0
 10
146.986345
 20
66.200696
 30
0.0
 10
147.234643
 20
67.116972
 30
0.0
 10
147.902816
 20
67.786462
 30
0.0
 10
148.668267
 20
67.991747
 30
0.0
 10
149.277915
 20
67.910305
 30
0.0
 10
149.704893
 20
67.733657
 30
0.0
 10
150.072047
 20
67.452421
 30
0.0
 10
150.351424
 20
67.085701
 30
0.0
 10
150.535039
 20
66.658847
 30
0.0
 10
150.558275
 20
66.353835
 30
0.0
 10
150.569942
 20
66.200696
 30
0.0
 11
150.569942
 21
66.200696
 31
0.0
 11
150.509985
 21
65.746530
 31
0.0
 11
150.336126
 21
65.326797
 31
0.0
 11
150.057377
 21
64.963258
 31
0.0
 11
149.693837
 21
64.684509
 31
0.0
 11
149.274104
 21
64.510651
 31
0.0
 11
148.819938
 21
64.450695
 31
0.0
 11
147.936679
 21
64.689622
 31
0.0
 11
147.308864
 21
65.317437
 31
0.0
 11
147.069937
 21
66.200696
 31
0.0
 11
147.308864
 21
67.083955
 31
0.0
 11
147.936679
 21
67.711770
 31
0.0
 11
148.819938
 21
67.950697
 31
0.0
 11
149.274104
 21
67.890741
 31
0.0
 11
149.693837
 21
67.716882
 31
0.0
 11
150.057377
 21
67.438134
 31
0.0
 11
150.336126
 21
67.074595
 31
0.0
 11
150.509985
 21
66.654862
 31
0.0
 11
150.569942
 21
66.200696
 31
0.0
  0
LWPOLYLINE
  5
154
100
AcDbEntity
  8
Layer_1
 62
7
100
AcDbPolyline
 90
2
 70
1
 10
150.569942
 20
66.200696
 30
0.0
 10
150.569942
 20
66.200696
 30
0.0
  0
SPLINE
  5
155
100
AcDbEntity
  8
Layer_1
 62
7
100
AcDbSpline
 70
0
 71
3
 72
25
 73
21
 74
19
 40
0.000000
 40
0.000000
 40
0.000000
 40
0.000000
 40
0.458107
 40
0.912423
 40
1.370529
 40
1.828636
 40
2.282952
 40
2.741059
 40
3.656062
 40
4.543928
 40
5.458932
 40
6.373936
 40
7.261801
 40
8.176805
 40
8.634912
 40
9.089228
 40
9.547334
 40
10.005441
 40
10.459757
 40
10.917864
 40
10.917864
 40
10.917864
 40
10.917864
 10
192.569979
 20
196.200808
 30
0.0
 10
192.558313
 20
196.047669
 30
0.0
 10
192.535077
 20
195.742657
 30
0.0
 10
192.351462
 20
195.315803
 30
0.0
 10
192.072085
 20
194.949083
 30
0.0
 10
191.704930
 20
194.667847
 30
0.0
 10
191.277953
 20
194.491198
 30
0.0
 10
190.668305
 20
194.409756
 30
0.0
 10
189.902853
 20
194.615041
 30
0.0
 10
189.234680
 20
195.284531
 30
0.0
 10
188.986383
 20
196.200808
 30
0.0
 10
189.234680
 20
197.117085
 30
0.0
 10
189.902853
 20
197.786575
 30
0.0
 10
190.668305
 20
197.991860
 30
0.0
 10
191.277953
 20
197.910418
 30
0.0
 10
191.704930
 20
197.733770
 30
0.0
 10
192.072085
 20
197.452533
 30
0.0
 10
192.351462
 20
197.085814
 30
0.0
 10
192.535077
 20
196.658960
 30
0.0
 10
192.558313
 20
196.353948
 30
0.0
 10
192.569979
 20
196.200808
 30
0.0
 11
192.569979
 21
196.200808
 31
0.0
 11
192.510023
 21
195.746642
 31
0.0
 11
192.336164
 21
195.326909
 31
0.0
 11
192.057415
 21
194.963370
 31
0.0
 11
191.693875
 21
194.684621
 31
0.0
 11
191.274142
 21
194.510762
 31
0.0
 11
190.819975
 21
194.450807
 31
0.0
 11
189.936716
 21
194.689733
 31
0.0
 11
189.308901
 21
195.317549
 31
0.0
 11
189.069975
 21
196.200808
 31
0.0
 11
189.308901
 21
197.084067
 31
0.0
 11
189.936716
 21
197.711883
 31
0.0
 11
190.819975
 21
197.950810
 31
0.0
 11
191.274142
 21
197.890854
 31
0.0
 11
191.693875
 21
197.716995
 31
0.0
 11
192.057415
 21
197.438247
 31
0.0
 11
192.336164
 21
197.074707
 31
0.0
 11
192.510023
 21
196.654974
 31
0.0
 11
192.569979
 21
196.200808
 31
0.0
  0
LWPOLYLINE
  5
156
100
AcDbEntity
  8
Layer_1
 62
7
100
AcDbPolyline
 90
2
 70
1
 10
192.569979
 20
196.200808
 30
0.0
 10
192.569979
 20
196.200808
 30
0.0
  0
SPLINE
  5
157
100
AcDbEntity
  8
Layer_1
 62
7
100
AcDbSpline
 70
0
 71
3
 72
25
 73
21
 74
19
 40
0.000000
 40
0.000000
 40
0.000000
 40
0.000000
 40
0.458107
 40
0.912422
 40
1.370529
 40
1.828636
 40
2.282951
 40
2.741058
 40
3.656062
 40
4.543927
 40
5.458931
 40
6.373934
 40
7.261799
 40
8.176803
 40
8.634910
 40
9.089225
 40
9.547332
 40
10.005439
 40
10.459754
 40
10.917861
 40
10.917861
 40
10.917861
 40
10.917861
 10
192.569979
 20
66.200696
 30
0.0
 10
192.558313
 20
66.047556
 30
0.0
 10
192.535076
 20
65.742544
 30
0.0
 10
192.351462
 20
65.315690
 30
0.0
 10
192.072084
 20
64.948971
 30
0.0
 10
191.704930
 20
64.667735
 30
0.0
 10
191.277953
 20
64.491087
 30
0.0
 10
190.668305
 20
64.409645
 30
0.0
 10
189.902853
 20
64.614930
 30
0.0
 10
189.234680
 20
65.284419
 30
0.0
 10
188.986382
 20
66.200696
 30
0.0
 10
189.234680
 20
67.116972
 30
0.0
 10
189.902853
 20
67.786462
 30
0.0
 10
190.668305
 20
67.991747
 30
0.0
 10
191.277953
 20
67.910305
 30
0.0
 10
191.704930
 20
67.733657
 30
0.0
 10
192.072084
 20
67.452421
 30
0.0
 10
192.351462
 20
67.085701
 30
0.0
 10
192.535076
 20
66.658847
 30
0.0
 10
192.558313
 20
66.353835
 30
0.0
 10
192.569979
 20
66.200696
 30
0.0
 11
192.569979
 21
66.200696
 31
0.0
 11
192.510023
 21
65.746530
 31
0.0
 11
192.336163
 21
65.326797
 31
0.0
 11
192.057414
 21
64.963258
 31
0.0
 11
191.693875
 21
64.684509
 31
0.0
 11
191.274142
 21
64.510651
 31
0.0
 11
190.819975
 21
64.450695
 31
0.0
 11
189.936717
 21
64.689622
 31
0.0
 11
189.308901
 21
65.317437
 31
0.0
 11
189.069975
 21
66.200696
 31
0.0
 11
189.308901
 21
67.083955
 31
0.0
 11
189.936717
 21
67.711770
 31
0.0
 11
190.819975
 21
67.950697
 31
0.0
 11
191.274142
 21
67.890741
 31
0.0
 11
191.693875
 21
67.716882
 31
0.0
 11
192.057414
 21
67.438134
 31
0.0
 11
192.336163
 21
67.074595
 31
0.0
 11
192.510023
 21
66.654862
 31
0.0
 11
192.569979
 21
66.200696
 31
0.0
  0
LWPOLYLINE
  5
158
100
AcDbEntity
  8
Layer_1
 62
7
100
AcDbPolyline
 90
2
 70
1
 10
192.569979
 20
66.200696
 30
0.0
 10
192.569979
 20
66.200696
 30
0.0
  0
SPLINE
  5
159
100
AcDbEntity
  8
Layer_1
 62
7
100
AcDbSpline
 70
0
 71
3
 72
19
 73
15
 74
13
 40
0.000000
 40
0.000000
 40
0.000000
 40
0.000000
 40
0.915004
 40
1.802869
 40
2.717873
 40
3.632877
 40
4.520742
 40
5.435746
 40
6.350750
 40
7.238616
 40
8.153620
 40
9.068624
 40
9.956489
 40
10.871493
 40
10.871493
 40
10.871493
 40
10.871493
 10
282.570047
 20
196.200808
 30
0.0
 10
282.521949
 20
195.892312
 30
0.0
 10
282.427179
 20
195.284469
 30
0.0
 10
281.730474
 20
194.615284
 30
0.0
 10
280.821653
 20
194.367330
 30
0.0
 10
279.903290
 20
194.615284
 30
0.0
 10
279.234644
 20
195.284469
 30
0.0
 10
278.986508
 20
196.200808
 30
0.0
 10
279.234644
 20
197.117147
 30
0.0
 10
279.903290
 20
197.786332
 30
0.0
 10
280.821653
 20
198.034286
 30
0.0
 10
281.730474
 20
197.786332
 30
0.0
 10
282.427179
 20
197.117147
 30
0.0
 10
282.521949
 20
196.509304
 30
0.0
 10
282.570047
 20
196.200808
 30
0.0
 11
282.570047
 21
196.200808
 31
0.0
 11
282.331121
 21
195.317549
 31
0.0
 11
281.703305
 21
194.689733
 31
0.0
 11
280.820047
 21
194.450807
 31
0.0
 11
279.936788
 21
194.689733
 31
0.0
 11
279.308972
 21
195.317549
 31
0.0
 11
279.070046
 21
196.200808
 31
0.0
 11
279.308972
 21
197.084067
 31
0.0
 11
279.936788
 21
197.711883
 31
0.0
 11
280.820047
 21
197.950810
 31
0.0
 11
281.703306
 21
197.711883
 31
0.0
 11
282.331121
 21
197.084067
 31
0.0
 11
282.570047
 21
196.200808
 31
0.0
  0
LWPOLYLINE
  5
15a
100
AcDbEntity
  8
Layer_1
 62
7
100
AcDbPolyline
 90
2
 70
1
 10
282.570047
 20
196.200808
 30
0.0
 10
282.570047
 20
196.200808
 30
0.0
  0
SPLINE
  5
15b
100
AcDbEntity
  8
Layer_1
 62
7
100
AcDbSpline
 70
0
 71
3
 72
19
 73
15
 74
13
 40
0.000000
 40
0.000000
 40
0.000000
 40
0.000000
 40
0.915004
 40
1.802869
 40
2.717873
 40
3.632876
 40
4.520741
 40
5.435745
 40
6.350749
 40
7.238614
 40
8.153618
 40
9.068622
 40
9.956487
 40
10.871490
 40
10.871490
 40
10.871490
 40
10.871490
 10
282.570047
 20
66.200696
 30
0.0
 10
282.521949
 20
65.892200
 30
0.0
 10
282.427178
 20
65.284357
 30
0.0
 10
281.730474
 20
64.615172
 30
0.0
 10
280.821653
 20
64.367219
 30
0.0
 10
279.903290
 20
64.615172
 30
0.0
 10
279.234645
 20
65.284357
 30
0.0
 10
278.986508
 20
66.200696
 30
0.0
 10
279.234645
 20
67.117035
 30
0.0
 10
279.903290
 20
67.786219
 30
0.0
 10
280.821653
 20
68.034173
 30
0.0
 10
281.730474
 20
67.786219
 30
0.0
 10
282.427178
 20
67.117035
 30
0.0
 10
282.521949
 20
66.509192
 30
0.0
 10
282.570047
 20
66.200696
 30
0.0
 11
282.570047
 21
66.200696
 31
0.0
 11
282.331121
 21
65.317437
 31
0.0
 11
281.703305
 21
64.689622
 31
0.0
 11
280.820047
 21
64.450695
 31
0.0
 11
279.936788
 21
64.689622
 31
0.0
 11
279.308972
 21
65.317437
 31
0.0
 11
279.070046
 21
66.200696
 31
0.0
 11
279.308972
 21
67.083955
 31
0.0
 11
279.936788
 21
67.711770
 31
0.0
 11
280.820047
 21
67.950697
 31
0.0
 11
281.703305
 21
67.711770
 31
0.0
 11
282.331121
 21
67.083955
 31
0.0
 11
282.570047
 21
66.200696
 31
0.0
  0
LWPOLYLINE
  5
15c
100
AcDbEntity
  8
Layer_1
 62
7
100
AcDbPolyline
 90
2
 70
1
 10
282.570047
 20
66.200696
 30
0.0
 10
282.570047
 20
66.200696
 30
0.0
  0
SPLINE
  5
15d
100
AcDbEntity
  8
Layer_1
 62
7
100
AcDbSpline
 70
0
 71
3
 72
31
 73
27
 74
25
 40
0.000000
 40
0.000000
 40
0.000000
 40
0.000000
 40
0.458107
 40
0.912423
 40
1.370529
 40
1.828636
 40
2.282952
 40
2.741059
 40
3.199165
 40
3.653481
 40
4.111588
 40
4.569695
 40
5.024010
 40
5.482117
 40
5.940224
 40
6.394540
 40
6.852646
 40
7.310753
 40
7.765069
 40
8.223176
 40
8.681283
 40
9.135598
 40
9.593705
 40
10.051812
 40
10.506128
 40
10.964235
 40
10.964235
 40
10.964235
 40
10.964235
 10
324.570071
 20
196.200808
 30
0.0
 10
324.558405
 20
196.047668
 30
0.0
 10
324.535169
 20
195.742656
 30
0.0
 10
324.351550
 20
195.315805
 30
0.0
 10
324.072191
 20
194.949074
 30
0.0
 10
323.704967
 20
194.667881
 30
0.0
 10
323.278247
 20
194.491073
 30
0.0
 10
322.820059
 20
194.430590
 30
0.0
 10
322.361917
 20
194.491073
 30
0.0
 10
321.935063
 20
194.667881
 30
0.0
 10
321.568332
 20
194.949074
 30
0.0
 10
321.287138
 20
195.315805
 30
0.0
 10
321.110331
 20
195.742656
 30
0.0
 10
321.049846
 20
196.200808
 30
0.0
 10
321.110331
 20
196.658960
 30
0.0
 10
321.287138
 20
197.085811
 30
0.0
 10
321.568332
 20
197.452543
 30
0.0
 10
321.935063
 20
197.733736
 30
0.0
 10
322.361917
 20
197.910543
 30
0.0
 10
322.820059
 20
197.971027
 30
0.0
 10
323.278247
 20
197.910543
 30
0.0
 10
323.704967
 20
197.733736
 30
0.0
 10
324.072191
 20
197.452543
 30
0.0
 10
324.351550
 20
197.085811
 30
0.0
 10
324.535169
 20
196.658960
 30
0.0
 10
324.558405
 20
196.353948
 30
0.0
 10
324.570071
 20
196.200808
 30
0.0
 11
324.570071
 21
196.200808
 31
0.0
 11
324.510114
 21
195.746642
 31
0.0
 11
324.336255
 21
195.326909
 31
0.0
 11
324.057506
 21
194.963370
 31
0.0
 11
323.693967
 21
194.684621
 31
0.0
 11
323.274233
 21
194.510762
 31
0.0
 11
322.820067
 21
194.450807
 31
0.0
 11
322.365901
 21
194.510762
 31
0.0
 11
321.946167
 21
194.684621
 31
0.0
 11
321.582628
 21
194.963370
 31
0.0
 11
321.303879
 21
195.326909
 31
0.0
 11
321.130019
 21
195.746642
 31
0.0
 11
321.070063
 21
196.200808
 31
0.0
 11
321.130019
 21
196.654974
 31
0.0
 11
321.303879
 21
197.074707
 31
0.0
 11
321.582628
 21
197.438247
 31
0.0
 11
321.946167
 21
197.716995
 31
0.0
 11
322.365901
 21
197.890854
 31
0.0
 11
322.820067
 21
197.950810
 31
0.0
 11
323.274233
 21
197.890854
 31
0.0
 11
323.693967
 21
197.716995
 31
0.0
 11
324.057506
 21
197.438247
 31
0.0
 11
324.336255
 21
197.074707
 31
0.0
 11
324.510115
 21
196.654974
 31
0.0
 11
324.570071
 21
196.200808
 31
0.0
  0
LWPOLYLINE
  5
15e
100
AcDbEntity
  8
Layer_1
 62
7
100
AcDbPolyline
 90
2
 70
1
 10
324.570071
 20
196.200808
 30
0.0
 10
324.570071
 20
196.200808
 30
0.0
  0
SPLINE
  5
15f
100
AcDbEntity
  8
Layer_1
 62
7
100
AcDbSpline
 70
0
 71
3
 72
31
 73
27
 74
25
 40
0.000000
 40
0.000000
 40
0.000000
 40
0.000000
 40
0.458107
 40
0.912422
 40
1.370529
 40
1.828636
 40
2.282951
 40
2.741058
 40
3.199165
 40
3.653480
 40
4.111587
 40
4.569694
 40
5.024009
 40
5.482116
 40
5.940223
 40
6.394538
 40
6.852645
 40
7.310752
 40
7.765067
 40
8.223174
 40
8.681280
 40
9.135596
 40
9.593703
 40
10.051809
 40
10.506125
 40
10.964232
 40
10.964232
 40
10.964232
 40
10.964232
 10
324.570071
 20
66.200696
 30
0.0
 10
324.558405
 20
66.047556
 30
0.0
 10
324.535169
 20
65.742544
 30
0.0
 10
324.351549
 20
65.315693
 30
0.0
 10
324.072191
 20
64.948962
 30
0.0
 10
323.704967
 20
64.667769
 30
0.0
 10
323.278247
 20
64.490962
 30
0.0
 10
322.820059
 20
64.430478
 30
0.0
 10
322.361917
 20
64.490962
 30
0.0
 10
321.935063
 20
64.667769
 30
0.0
 10
321.568332
 20
64.948962
 30
0.0
 10
321.287138
 20
65.315693
 30
0.0
 10
321.110331
 20
65.742544
 30
0.0
 10
321.049846
 20
66.200696
 30
0.0
 10
321.110331
 20
66.658848
 30
0.0
 10
321.287138
 20
67.085699
 30
0.0
 10
321.568332
 20
67.452430
 30
0.0
 10
321.935063
 20
67.733623
 30
0.0
 10
322.361917
 20
67.910430
 30
0.0
 10
322.820059
 20
67.970913
 30
0.0
 10
323.278247
 20
67.910430
 30
0.0
 10
323.704967
 20
67.733623
 30
0.0
 10
324.072191
 20
67.452430
 30
0.0
 10
324.351549
 20
67.085699
 30
0.0
 10
324.535169
 20
66.658848
 30
0.0
 10
324.558405
 20
66.353836
 30
0.0
 10
324.570071
 20
66.200696
 30
0.0
 11
324.570071
 21
66.200696
 31
0.0
 11
324.510114
 21
65.746530
 31
0.0
 11
324.336255
 21
65.326797
 31
0.0
 11
324.057506
 21
64.963258
 31
0.0
 11
323.693966
 21
64.684509
 31
0.0
 11
323.274233
 21
64.510651
 31
0.0
 11
322.820067
 21
64.450695
 31
0.0
 11
322.365901
 21
64.510651
 31
0.0
 11
321.946168
 21
64.684509
 31
0.0
 11
321.582628
 21
64.963258
 31
0.0
 11
321.303879
 21
65.326797
 31
0.0
 11
321.130020
 21
65.746530
 31
0.0
 11
321.070063
 21
66.200696
 31
0.0
 11
321.130020
 21
66.654862
 31
0.0
 11
321.303879
 21
67.074595
 31
0.0
 11
321.582628
 21
67.438134
 31
0.0
 11
321.946168
 21
67.716882
 31
0.0
 11
322.365901
 21
67.890741
 31
0.0
 11
322.820067
 21
67.950697
 31
0.0
 11
323.274233
 21
67.890741
 31
0.0
 11
323.693966
 21
67.716882
 31
0.0
 11
324.057506
 21
67.438134
 31
0.0
 11
324.336255
 21
67.074595
 31
0.0
 11
324.510114
 21
66.654862
 31
0.0
 11
324.570071
 21
66.200696
 31
0.0
  0
LWPOLYLINE
  5
160
100
AcDbEntity
  8
Layer_1
 62
7
100
AcDbPolyline
 90
2
 70
1
 10
324.570071
 20
66.200696
 30
0.0
 10
324.570071
 20
66.200696
 30
0.0
  0
SPLINE
  5
161
100
AcDbEntity
  8
Layer_1
 62
7
100
AcDbSpline
 70
0
 71
3
 72
25
 73
21
 74
19
 40
0.000000
 40
0.000000
 40
0.000000
 40
0.000000
 40
0.914996
 40
1.802853
 40
2.717849
 40
3.175955
 40
3.630271
 40
4.088378
 40
4.546485
 40
5.000800
 40
5.458907
 40
5.917014
 40
6.371330
 40
6.829436
 40
7.287543
 40
7.741859
 40
8.199966
 40
9.114962
 40
10.002819
 40
10.917815
 40
10.917815
 40
10.917815
 40
10.917815
 10
414.570145
 20
196.200808
 30
0.0
 10
414.521992
 20
195.892335
 30
0.0
 10
414.427114
 20
195.284539
 30
0.0
 10
413.731229
 20
194.615053
 30
0.0
 10
412.972585
 20
194.409755
 30
0.0
 10
412.362076
 20
194.491199
 30
0.0
 10
411.935150
 20
194.667847
 30
0.0
 10
411.568439
 20
194.949083
 30
0.0
 10
411.287239
 20
195.315802
 30
0.0
 10
411.110433
 20
195.742657
 30
0.0
 10
411.049948
 20
196.200808
 30
0.0
 10
411.110433
 20
196.658960
 30
0.0
 10
411.287239
 20
197.085814
 30
0.0
 10
411.568438
 20
197.452533
 30
0.0
 10
411.935150
 20
197.733770
 30
0.0
 10
412.362076
 20
197.910418
 30
0.0
 10
412.972585
 20
197.991862
 30
0.0
 10
413.731229
 20
197.786564
 30
0.0
 10
414.427114
 20
197.117077
 30
0.0
 10
414.521992
 20
196.509281
 30
0.0
 10
414.570145
 20
196.200808
 30
0.0
 11
414.570145
 21
196.200808
 31
0.0
 11
414.331223
 21
195.317557
 31
0.0
 11
413.703417
 21
194.689742
 31
0.0
 11
412.820169
 21
194.450807
 31
0.0
 11
412.366003
 21
194.510762
 31
0.0
 11
411.946270
 21
194.684621
 31
0.0
 11
411.582730
 21
194.963370
 31
0.0
 11
411.303981
 21
195.326909
 31
0.0
 11
411.130122
 21
195.746642
 31
0.0
 11
411.070166
 21
196.200808
 31
0.0
 11
411.130122
 21
196.654974
 31
0.0
 11
411.303981
 21
197.074707
 31
0.0
 11
411.582730
 21
197.438247
 31
0.0
 11
411.946270
 21
197.716995
 31
0.0
 11
412.366003
 21
197.890854
 31
0.0
 11
412.820169
 21
197.950810
 31
0.0
 11
413.703417
 21
197.711874
 31
0.0
 11
414.331223
 21
197.084060
 31
0.0
 11
414.570145
 21
196.200808
 31
0.0
  0
LWPOLYLINE
  5
162
100
AcDbEntity
  8
Layer_1
 62
7
100
AcDbPolyline
 90
2
 70
1
 10
414.570145
 20
196.200808
 30
0.0
 10
414.570145
 20
196.200808
 30
0.0
  0
SPLINE
  5
163
100
AcDbEntity
  8
Layer_1
 62
7
100
AcDbSpline
 70
0
 71
3
 72
25
 73
21
 74
19
 40
0.000000
 40
0.000000
 40
0.000000
 40
0.000000
 40
0.914995
 40
1.802853
 40
2.717848
 40
3.175955
 40
3.630270
 40
4.088377
 40
4.546484
 40
5.000799
 40
5.458906
 40
5.917013
 40
6.371328
 40
6.829435
 40
7.287542
 40
7.741857
 40
8.199964
 40
9.114959
 40
10.002817
 40
10.917812
 40
10.917812
 40
10.917812
 40
10.917812
 10
414.570145
 20
66.200696
 30
0.0
 10
414.521992
 20
65.892223
 30
0.0
 10
414.427114
 20
65.284427
 30
0.0
 10
413.731229
 20
64.614941
 30
0.0
 10
412.972585
 20
64.409643
 30
0.0
 10
412.362076
 20
64.491087
 30
0.0
 10
411.935150
 20
64.667735
 30
0.0
 10
411.568439
 20
64.948971
 30
0.0
 10
411.287240
 20
65.315690
 30
0.0
 10
411.110433
 20
65.742545
 30
0.0
 10
411.049948
 20
66.200696
 30
0.0
 10
411.110433
 20
66.658847
 30
0.0
 10
411.287240
 20
67.085701
 30
0.0
 10
411.568439
 20
67.452421
 30
0.0
 10
411.935150
 20
67.733657
 30
0.0
 10
412.362076
 20
67.910305
 30
0.0
 10
412.972585
 20
67.991749
 30
0.0
 10
413.731229
 20
67.786451
 30
0.0
 10
414.427114
 20
67.116964
 30
0.0
 10
414.521992
 20
66.509168
 30
0.0
 10
414.570145
 20
66.200696
 30
0.0
 11
414.570145
 21
66.200696
 31
0.0
 11
414.331222
 21
65.317445
 31
0.0
 11
413.703417
 21
64.689630
 31
0.0
 11
412.820169
 21
64.450695
 31
0.0
 11
412.366003
 21
64.510651
 31
0.0
 11
411.946270
 21
64.684509
 31
0.0
 11
411.582730
 21
64.963258
 31
0.0
 11
411.303981
 21
65.326797
 31
0.0
 11
411.130122
 21
65.746530
 31
0.0
 11
411.070166
 21
66.200696
 31
0.0
 11
411.130122
 21
66.654862
 31
0.0
 11
411.303981
 21
67.074595
 31
0.0
 11
411.582730
 21
67.438134
 31
0.0
 11
411.946270
 21
67.716882
 31
0.0
 11
412.366003
 21
67.890741
 31
0.0
 11
412.820169
 21
67.950697
 31
0.0
 11
413.703417
 21
67.711762
 31
0.0
 11
414.331222
 21
67.083947
 31
0.0
 11
414.570145
 21
66.200696
 31
0.0
  0
LWPOLYLINE
  5
164
100
AcDbEntity
  8
Layer_1
 62
7
100
AcDbPolyline
 90
2
 70
1
 10
414.570145
 20
66.200696
 30
0.0
 10
414.570145
 20
66.200696
 30
0.0
  0
SPLINE
  5
165
100
AcDbEntity
  8
Layer_1
 62
7
100
AcDbSpline
 70
0
 71
3
 72
31
 73
27
 74
25
 40
0.000000
 40
0.000000
 40
0.000000
 40
0.000000
 40
0.458107
 40
0.912423
 40
1.370529
 40
1.828636
 40
2.282952
 40
2.741059
 40
3.199165
 40
3.653481
 40
4.111588
 40
4.569695
 40
5.024010
 40
5.482117
 40
5.940224
 40
6.394540
 40
6.852646
 40
7.310753
 40
7.765069
 40
8.223176
 40
8.681283
 40
9.135598
 40
9.593705
 40
10.051812
 40
10.506128
 40
10.964235
 40
10.964235
 40
10.964235
 40
10.964235
 10
456.570173
 20
196.200808
 30
0.0
 10
456.558507
 20
196.047668
 30
0.0
 10
456.535272
 20
195.742656
 30
0.0
 10
456.351652
 20
195.315805
 30
0.0
 10
456.072294
 20
194.949074
 30
0.0
 10
455.705070
 20
194.667881
 30
0.0
 10
455.278350
 20
194.491073
 30
0.0
 10
454.820162
 20
194.430590
 30
0.0
 10
454.362020
 20
194.491073
 30
0.0
 10
453.935166
 20
194.667881
 30
0.0
 10
453.568435
 20
194.949074
 30
0.0
 10
453.287241
 20
195.315805
 30
0.0
 10
453.110433
 20
195.742656
 30
0.0
 10
453.049949
 20
196.200808
 30
0.0
 10
453.110433
 20
196.658960
 30
0.0
 10
453.287241
 20
197.085811
 30
0.0
 10
453.568435
 20
197.452543
 30
0.0
 10
453.935166
 20
197.733736
 30
0.0
 10
454.362020
 20
197.910543
 30
0.0
 10
454.820162
 20
197.971027
 30
0.0
 10
455.278350
 20
197.910543
 30
0.0
 10
455.705070
 20
197.733736
 30
0.0
 10
456.072294
 20
197.452543
 30
0.0
 10
456.351653
 20
197.085811
 30
0.0
 10
456.535272
 20
196.658960
 30
0.0
 10
456.558507
 20
196.353948
 30
0.0
 10
456.570173
 20
196.200808
 30
0.0
 11
456.570173
 21
196.200808
 31
0.0
 11
456.510217
 21
195.746642
 31
0.0
 11
456.336358
 21
195.326909
 31
0.0
 11
456.057609
 21
194.963370
 31
0.0
 11
455.694069
 21
194.684621
 31
0.0
 11
455.274336
 21
194.510762
 31
0.0
 11
454.820170
 21
194.450807
 31
0.0
 11
454.366003
 21
194.510762
 31
0.0
 11
453.946270
 21
194.684621
 31
0.0
 11
453.582731
 21
194.963370
 31
0.0
 11
453.303982
 21
195.326909
 31
0.0
 11
453.130122
 21
195.746642
 31
0.0
 11
453.070166
 21
196.200808
 31
0.0
 11
453.130122
 21
196.654974
 31
0.0
 11
453.303982
 21
197.074707
 31
0.0
 11
453.582731
 21
197.438247
 31
0.0
 11
453.946270
 21
197.716995
 31
0.0
 11
454.366003
 21
197.890854
 31
0.0
 11
454.820170
 21
197.950810
 31
0.0
 11
455.274336
 21
197.890854
 31
0.0
 11
455.694070
 21
197.716995
 31
0.0
 11
456.057609
 21
197.438247
 31
0.0
 11
456.336358
 21
197.074707
 31
0.0
 11
456.510217
 21
196.654974
 31
0.0
 11
456.570173
 21
196.200808
 31
0.0
  0
LWPOLYLINE
  5
166
100
AcDbEntity
  8
Layer_1
 62
7
100
AcDbPolyline
 90
2
 70
1
 10
456.570173
 20
196.200808
 30
0.0
 10
456.570173
 20
196.200808
 30
0.0
  0
SPLINE
  5
167
100
AcDbEntity
  8
Layer_1
 62
7
100
AcDbSpline
 70
0
 71
3
 72
31
 73
27
 74
25
 40
0.000000
 40
0.000000
 40
0.000000
 40
0.000000
 40
0.458107
 40
0.912422
 40
1.370529
 40
1.828636
 40
2.282951
 40
2.741058
 40
3.199165
 40
3.653480
 40
4.111587
 40
4.569694
 40
5.024009
 40
5.482116
 40
5.940223
 40
6.394538
 40
6.852645
 40
7.310752
 40
7.765067
 40
8.223174
 40
8.681280
 40
9.135596
 40
9.593703
 40
10.051809
 40
10.506125
 40
10.964232
 40
10.964232
 40
10.964232
 40
10.964232
 10
456.570173
 20
66.200696
 30
0.0
 10
456.558507
 20
66.047556
 30
0.0
 10
456.535272
 20
65.742544
 30
0.0
 10
456.351652
 20
65.315693
 30
0.0
 10
456.072294
 20
64.948962
 30
0.0
 10
455.705070
 20
64.667769
 30
0.0
 10
455.278350
 20
64.490962
 30
0.0
 10
454.820162
 20
64.430478
 30
0.0
 10
454.362020
 20
64.490962
 30
0.0
 10
453.935166
 20
64.667769
 30
0.0
 10
453.568435
 20
64.948962
 30
0.0
 10
453.287241
 20
65.315693
 30
0.0
 10
453.110434
 20
65.742544
 30
0.0
 10
453.049949
 20
66.200696
 30
0.0
 10
453.110434
 20
66.658848
 30
0.0
 10
453.287241
 20
67.085699
 30
0.0
 10
453.568435
 20
67.452430
 30
0.0
 10
453.935166
 20
67.733623
 30
0.0
 10
454.362020
 20
67.910430
 30
0.0
 10
454.820162
 20
67.970913
 30
0.0
 10
455.278350
 20
67.910430
 30
0.0
 10
455.705070
 20
67.733623
 30
0.0
 10
456.072294
 20
67.452430
 30
0.0
 10
456.351652
 20
67.085699
 30
0.0
 10
456.535272
 20
66.658848
 30
0.0
 10
456.558507
 20
66.353836
 30
0.0
 10
456.570173
 20
66.200696
 30
0.0
 11
456.570173
 21
66.200696
 31
0.0
 11
456.510217
 21
65.746530
 31
0.0
 11
456.336358
 21
65.326797
 31
0.0
 11
456.057609
 21
64.963258
 31
0.0
 11
455.694069
 21
64.684509
 31
0.0
 11
455.274336
 21
64.510651
 31
0.0
 11
454.820170
 21
64.450695
 31
0.0
 11
454.366004
 21
64.510651
 31
0.0
 11
453.946270
 21
64.684509
 31
0.0
 11
453.582731
 21
64.963258
 31
0.0
 11
453.303982
 21
65.326797
 31
0.0
 11
453.130123
 21
65.746530
 31
0.0
 11
453.070166
 21
66.200696
 31
0.0
 11
453.130123
 21
66.654862
 31
0.0
 11
453.303982
 21
67.074595
 31
0.0
 11
453.582731
 21
67.438134
 31
0.0
 11
453.946270
 21
67.716882
 31
0.0
 11
454.366004
 21
67.890741
 31
0.0
 11
454.820170
 21
67.950697
 31
0.0
 11
455.274336
 21
67.890741
 31
0.0
 11
455.694069
 21
67.716882
 31
0.0
 11
456.057609
 21
67.438134
 31
0.0
 11
456.336358
 21
67.074595
 31
0.0
 11
456.510217
 21
66.654862
 31
0.0
 11
456.570173
 21
66.200696
 31
0.0
  0
LWPOLYLINE
  5
168
100
AcDbEntity
  8
Layer_1
 62
7
100
AcDbPolyline
 90
2
 70
1
 10
456.570173
 20
66.200696
 30
0.0
 10
456.570173
 20
66.200696
 30
0.0
  0
SPLINE
  5
169
100
AcDbEntity
  8
Layer_1
 62
7
100
AcDbSpline
 70
0
 71
3
 72
31
 73
27
 74
25
 40
0.000000
 40
0.000000
 40
0.000000
 40
0.000000
 40
0.458107
 40
0.912423
 40
1.370529
 40
1.828636
 40
2.282952
 40
2.741059
 40
3.199165
 40
3.653481
 40
4.111588
 40
4.569695
 40
5.024010
 40
5.482117
 40
5.940224
 40
6.394540
 40
6.852646
 40
7.310753
 40
7.765069
 40
8.223176
 40
8.681283
 40
9.135598
 40
9.593705
 40
10.051812
 40
10.506128
 40
10.964235
 40
10.964235
 40
10.964235
 40
10.964235
 10
546.570276
 20
196.200808
 30
0.0
 10
546.558610
 20
196.047668
 30
0.0
 10
546.535374
 20
195.742656
 30
0.0
 10
546.351755
 20
195.315805
 30
0.0
 10
546.072396
 20
194.949074
 30
0.0
 10
545.705172
 20
194.667881
 30
0.0
 10
545.278452
 20
194.491073
 30
0.0
 10
544.820265
 20
194.430590
 30
0.0
 10
544.362122
 20
194.491073
 30
0.0
 10
543.935268
 20
194.667881
 30
0.0
 10
543.568537
 20
194.949074
 30
0.0
 10
543.287343
 20
195.315805
 30
0.0
 10
543.110536
 20
195.742656
 30
0.0
 10
543.050051
 20
196.200808
 30
0.0
 10
543.110536
 20
196.658960
 30
0.0
 10
543.287343
 20
197.085811
 30
0.0
 10
543.568537
 20
197.452543
 30
0.0
 10
543.935268
 20
197.733736
 30
0.0
 10
544.362122
 20
197.910543
 30
0.0
 10
544.820265
 20
197.971027
 30
0.0
 10
545.278452
 20
197.910543
 30
0.0
 10
545.705172
 20
197.733736
 30
0.0
 10
546.072396
 20
197.452543
 30
0.0
 10
546.351755
 20
197.085811
 30
0.0
 10
546.535374
 20
196.658960
 30
0.0
 10
546.558610
 20
196.353948
 30
0.0
 10
546.570276
 20
196.200808
 30
0.0
 11
546.570276
 21
196.200808
 31
0.0
 11
546.510320
 21
195.746642
 31
0.0
 11
546.336460
 21
195.326909
 31
0.0
 11
546.057711
 21
194.963370
 31
0.0
 11
545.694172
 21
194.684621
 31
0.0
 11
545.274438
 21
194.510762
 31
0.0
 11
544.820272
 21
194.450807
 31
0.0
 11
544.366106
 21
194.510762
 31
0.0
 11
543.946372
 21
194.684621
 31
0.0
 11
543.582833
 21
194.963370
 31
0.0
 11
543.304084
 21
195.326909
 31
0.0
 11
543.130225
 21
195.746642
 31
0.0
 11
543.070269
 21
196.200808
 31
0.0
 11
543.130225
 21
196.654974
 31
0.0
 11
543.304084
 21
197.074707
 31
0.0
 11
543.582833
 21
197.438247
 31
0.0
 11
543.946372
 21
197.716995
 31
0.0
 11
544.366106
 21
197.890854
 31
0.0
 11
544.820272
 21
197.950810
 31
0.0
 11
545.274439
 21
197.890854
 31
0.0
 11
545.694172
 21
197.716995
 31
0.0
 11
546.057711
 21
197.438247
 31
0.0
 11
546.336460
 21
197.074707
 31
0.0
 11
546.510320
 21
196.654974
 31
0.0
 11
546.570276
 21
196.200808
 31
0.0
  0
LWPOLYLINE
  5
16a
100
AcDbEntity
  8
Layer_1
 62
7
100
AcDbPolyline
 90
2
 70
1
 10
546.570276
 20
196.200808
 30
0.0
 10
546.570276
 20
196.200808
 30
0.0
  0
LWPOLYLINE
  5
16b
100
AcDbEntity
  8
Layer_1
 62
7
100
AcDbPolyline
 90
2
 70
1
 10
546.570276
 20
66.200696
 30
0.0
 10
546.570276
 20
66.200696
 30
0.0
  0
SPLINE
  5
16c
100
AcDbEntity
  8
Layer_1
 62
7
100
AcDbSpline
 70
0
 71
3
 72
31
 73
27
 74
25
 40
0.000000
 40
0.000000
 40
0.000000
 40
0.000000
 40
0.458107
 40
0.912422
 40
1.370529
 40
1.828636
 40
2.282951
 40
2.741058
 40
3.199165
 40
3.653480
 40
4.111587
 40
4.569694
 40
5.024009
 40
5.482116
 40
5.940223
 40
6.394538
 40
6.852645
 40
7.310752
 40
7.765067
 40
8.223174
 40
8.681280
 40
9.135596
 40
9.593703
 40
10.051809
 40
10.506125
 40
10.964232
 40
10.964232
 40
10.964232
 40
10.964232
 10
546.570276
 20
66.200696
 30
0.0
 10
546.558610
 20
66.047556
 30
0.0
 10
546.535374
 20
65.742544
 30
0.0
 10
546.351755
 20
65.315693
 30
0.0
 10
546.072396
 20
64.948962
 30
0.0
 10
545.705172
 20
64.667769
 30
0.0
 10
545.278452
 20
64.490962
 30
0.0
 10
544.820265
 20
64.430478
 30
0.0
 10
544.362122
 20
64.490962
 30
0.0
 10
543.935268
 20
64.667769
 30
0.0
 10
543.568537
 20
64.948962
 30
0.0
 10
543.287344
 20
65.315693
 30
0.0
 10
543.110536
 20
65.742544
 30
0.0
 10
543.050051
 20
66.200696
 30
0.0
 10
543.110536
 20
66.658848
 30
0.0
 10
543.287344
 20
67.085699
 30
0.0
 10
543.568537
 20
67.452430
 30
0.0
 10
543.935268
 20
67.733623
 30
0.0
 10
544.362122
 20
67.910430
 30
0.0
 10
544.820265
 20
67.970913
 30
0.0
 10
545.278452
 20
67.910430
 30
0.0
 10
545.705172
 20
67.733623
 30
0.0
 10
546.072396
 20
67.452430
 30
0.0
 10
546.351755
 20
67.085699
 30
0.0
 10
546.535374
 20
66.658848
 30
0.0
 10
546.558610
 20
66.353836
 30
0.0
 10
546.570276
 20
66.200696
 30
0.0
 11
546.570276
 21
66.200696
 31
0.0
 11
546.510319
 21
65.746530
 31
0.0
 11
546.336460
 21
65.326797
 31
0.0
 11
546.057711
 21
64.963258
 31
0.0
 11
545.694172
 21
64.684509
 31
0.0
 11
545.274438
 21
64.510651
 31
0.0
 11
544.820272
 21
64.450695
 31
0.0
 11
544.366106
 21
64.510651
 31
0.0
 11
543.946373
 21
64.684509
 31
0.0
 11
543.582833
 21
64.963258
 31
0.0
 11
543.304084
 21
65.326797
 31
0.0
 11
543.130225
 21
65.746530
 31
0.0
 11
543.070269
 21
66.200696
 31
0.0
 11
543.130225
 21
66.654862
 31
0.0
 11
543.304084
 21
67.074595
 31
0.0
 11
543.582833
 21
67.438134
 31
0.0
 11
543.946373
 21
67.716882
 31
0.0
 11
544.366106
 21
67.890741
 31
0.0
 11
544.820272
 21
67.950697
 31
0.0
 11
545.274438
 21
67.890741
 31
0.0
 11
545.694172
 21
67.716882
 31
0.0
 11
546.057711
 21
67.438134
 31
0.0
 11
546.336460
 21
67.074595
 31
0.0
 11
546.510319
 21
66.654862
 31
0.0
 11
546.570276
 21
66.200696
 31
0.0
  0
LWPOLYLINE
  5
16d
100
AcDbEntity
  8
Layer_1
 62
7
100
AcDbPolyline
 90
149
 70
1
 10
88.669890
 20
211.200821
 30
0.0
 10
106.819906
 20
211.200821
 30
0.0
 10
106.819906
 20
206.200817
 30
0.0
 10
136.819931
 20
206.200817
 30
0.0
 10
136.819931
 20
211.200821
 30
0.0
 10
166.819956
 20
211.200821
 30
0.0
 10
166.819956
 20
206.200817
 30
0.0
 10
196.819980
 20
206.200817
 30
0.0
 10
196.819980
 20
211.200821
 30
0.0
 10
226.820005
 20
211.200821
 30
0.0
 10
226.820005
 20
206.200817
 30
0.0
 10
256.820030
 20
206.200817
 30
0.0
 10
256.820030
 20
211.200821
 30
0.0
 10
286.820054
 20
211.200821
 30
0.0
 10
286.820054
 20
206.200817
 30
0.0
 10
316.820079
 20
206.200817
 30
0.0
 10
316.820079
 20
211.200821
 30
0.0
 10
346.820104
 20
211.200821
 30
0.0
 10
346.820104
 20
206.200817
 30
0.0
 10
376.820128
 20
206.200817
 30
0.0
 10
376.820128
 20
211.200821
 30
0.0
 10
406.820153
 20
211.200821
 30
0.0
 10
406.820153
 20
206.200817
 30
0.0
 10
436.820178
 20
206.200817
 30
0.0
 10
436.820178
 20
211.200821
 30
0.0
 10
466.820202
 20
211.200821
 30
0.0
 10
466.820202
 20
206.200817
 30
0.0
 10
496.820227
 20
206.200817
 30
0.0
 10
496.820227
 20
211.200821
 30
0.0
 10
514.970249
 20
211.200821
 30
0.0
 10
514.970249
 20
207.500818
 30
0.0
 10
518.670238
 20
207.500818
 30
0.0
 10
518.670238
 20
211.200821
 30
0.0
 10
536.820260
 20
211.200821
 30
0.0
 10
536.820260
 20
206.200817
 30
0.0
 10
576.820293
 20
206.200817
 30
0.0
 10
576.820293
 20
173.700791
 30
0.0
 10
571.820275
 20
173.700791
 30
0.0
 10
571.820275
 20
157.000777
 30
0.0
 10
571.320290
 20
157.000777
 30
0.0
 10
571.320290
 20
158.500777
 30
0.0
 10
568.020293
 20
158.500777
 30
0.0
 10
568.020293
 20
157.000777
 30
0.0
 10
564.720269
 20
157.000777
 30
0.0
 10
564.720269
 20
152.900774
 30
0.0
 10
568.020293
 20
152.900774
 30
0.0
 10
568.020293
 20
151.400771
 30
0.0
 10
571.320290
 20
151.400771
 30
0.0
 10
571.320290
 20
152.900774
 30
0.0
 10
571.820275
 20
152.900774
 30
0.0
 10
571.820275
 20
136.200759
 30
0.0
 10
576.820293
 20
136.200759
 30
0.0
 10
576.820293
 20
106.200734
 30
0.0
 10
571.820275
 20
106.200734
 30
0.0
 10
571.820275
 20
89.500720
 30
0.0
 10
571.320290
 20
89.500720
 30
0.0
 10
571.320290
 20
91.000722
 30
0.0
 10
568.020293
 20
91.000722
 30
0.0
 10
568.020293
 20
89.500720
 30
0.0
 10
564.720269
 20
89.500720
 30
0.0
 10
564.720269
 20
85.400717
 30
0.0
 10
568.020293
 20
85.400717
 30
0.0
 10
568.020293
 20
83.900717
 30
0.0
 10
571.320290
 20
83.900717
 30
0.0
 10
571.320290
 20
85.400717
 30
0.0
 10
571.820275
 20
85.400717
 30
0.0
 10
571.820275
 20
68.700705
 30
0.0
 10
576.820293
 20
68.700705
 30
0.0
 10
576.820293
 20
36.200677
 30
0.0
 10
536.820260
 20
36.200677
 30
0.0
 10
536.820260
 20
31.200673
 30
0.0
 10
518.670238
 20
31.200673
 30
0.0
 10
518.670238
 20
34.900677
 30
0.0
 10
514.970249
 20
34.900677
 30
0.0
 10
514.970249
 20
31.200673
 30
0.0
 10
496.820227
 20
31.200673
 30
0.0
 10
496.820227
 20
36.200677
 30
0.0
 10
466.820202
 20
36.200677
 30
0.0
 10
466.820202
 20
31.200673
 30
0.0
 10
436.820178
 20
31.200673
 30
0.0
 10
436.820178
 20
36.200677
 30
0.0
 10
406.820153
 20
36.200677
 30
0.0
 10
406.820153
 20
31.200673
 30
0.0
 10
376.820128
 20
31.200673
 30
0.0
 10
376.820128
 20
36.200677
 30
0.0
 10
346.820104
 20
36.200677
 30
0.0
 10
346.820104
 20
31.200673
 30
0.0
 10
316.820079
 20
31.200673
 30
0.0
 10
316.820079
 20
36.200677
 30
0.0
 10
286.820054
 20
36.200677
 30
0.0
 10
286.820054
 20
31.200673
 30
0.0
 10
256.820030
 20
31.200673
 30
0.0
 10
256.820030
 20
36.200677
 30
0.0
 10
226.820005
 20
36.200677
 30
0.0
 10
226.820005
 20
31.200673
 30
0.0
 10
196.819980
 20
31.200673
 30
0.0
 10
196.819980
 20
36.200677
 30
0.0
 10
166.819956
 20
36.200677
 30
0.0
 10
166.819956
 20
31.200673
 30
0.0
 10
136.819931
 20
31.200673
 30
0.0
 10
136.819931
 20
36.200677
 30
0.0
 10
106.819906
 20
36.200677
 30
0.0
 10
106.819906
 20
31.200673
 30
0.0
 10
88.669890
 20
31.200673
 30
0.0
 10
88.669890
 20
34.900677
 30
0.0
 10
84.969889
 20
34.900677
 30
0.0
 10
84.969889
 20
31.200673
 30
0.0
 10
66.819873
 20
31.200673
 30
0.0
 10
66.819873
 20
36.200677
 30
0.0
 10
26.819841
 20
36.200677
 30
0.0
 10
26.819841
 20
68.700705
 30
0.0
 10
31.819845
 20
68.700705
 30
0.0
 10
31.819845
 20
85.400717
 30
0.0
 10
32.319845
 20
85.400717
 30
0.0
 10
32.319845
 20
83.900717
 30
0.0
 10
35.619848
 20
83.900717
 30
0.0
 10
35.619848
 20
85.400717
 30
0.0
 10
38.919850
 20
85.400717
 30
0.0
 10
38.919850
 20
89.500720
 30
0.0
 10
35.619848
 20
89.500720
 30
0.0
 10
35.619848
 20
91.000722
 30
0.0
 10
32.319845
 20
91.000722
 30
0.0
 10
32.319845
 20
89.500720
 30
0.0
 10
31.819845
 20
89.500720
 30
0.0
 10
31.819845
 20
106.200734
 30
0.0
 10
26.819841
 20
106.200734
 30
0.0
 10
26.819841
 20
136.200759
 30
0.0
 10
31.819845
 20
136.200759
 30
0.0
 10
31.819845
 20
152.900774
 30
0.0
 10
32.319845
 20
152.900774
 30
0.0
 10
32.319845
 20
151.400771
 30
0.0
 10
35.619848
 20
151.400771
 30
0.0
 10
35.619848
 20
152.900774
 30
0.0
 10
38.919850
 20
152.900774
 30
0.0
 10
38.919850
 20
157.000777
 30
0.0
 10
35.619848
 20
157.000777
 30
0.0
 10
35.619848
 20
158.500777
 30
0.0
 10
32.319845
 20
158.500777
 30
0.0
 10
32.319845
 20
157.000777
 30
0.0
 10
31.819845
 20
157.000777
 30
0.0
 10
31.819845
 20
173.700791
 30
0.0
 10
26.819841
 20
173.700791
 30
0.0
 10
26.819841
 20
206.200817
 30
0.0
 10
66.819873
 20
206.200817
 30
0.0
 10
66.819873
 20
211.200821
 30
0.0
 10
84.969889
 20
211.200821
 30
0.0
 10
84.969889
 20
207.500818
 30
0.0
 10
88.669890
 20
207.500818
 30
0.0
 10
88.669890
 20
211.200821
 30
0.0
  0
ENDSEC
  0
SECTION
  2
OBJECTS
  0
DICTIONARY
  5
C
330
0
100
AcDbDictionary
  3
ACAD_GROUP
350
D
  3
ACAD_MLINESTYLE
350
17
  0
DICTIONARY
  5
D
330
C
100
AcDbDictionary
  0
DICTIONARY
  5
1A
330
C
100
AcDbDictionary
  0
DICTIONARY
  5
17
330
C
100
AcDbDictionary
  3
STANDARD
350
18
  0
DICTIONARY
  5
19
330
C
100
AcDbDictionary
  0
ENDSEC
  0
EOF
