<?xml version="1.0" encoding="UTF-8" standalone="no"?>
<!-- Created with Inkscape (http://www.inkscape.org/) -->

<svg
   xmlns:dc="http://purl.org/dc/elements/1.1/"
   xmlns:cc="http://creativecommons.org/ns#"
   xmlns:rdf="http://www.w3.org/1999/02/22-rdf-syntax-ns#"
   xmlns:svg="http://www.w3.org/2000/svg"
   xmlns="http://www.w3.org/2000/svg"
   xmlns:sodipodi="http://sodipodi.sourceforge.net/DTD/sodipodi-0.dtd"
   xmlns:inkscape="http://www.inkscape.org/namespaces/inkscape"
   width="600mm"
   height="400mm"
   viewBox="0 0 2125.9842 1417.3228"
   id="svg2"
   version="1.1"
   inkscape:version="0.91 r13725"
   sodipodi:docname="Sheet2.svg">
  <defs
     id="defs4" />
  <sodipodi:namedview
     id="base"
     pagecolor="#ffffff"
     bordercolor="#666666"
     borderopacity="1.0"
     inkscape:pageopacity="0.0"
     inkscape:pageshadow="2"
     inkscape:zoom="0.7"
     inkscape:cx="1014.5425"
     inkscape:cy="606.18584"
     inkscape:document-units="mm"
     inkscape:current-layer="layer1"
     showgrid="true"
     width="600mm"
     inkscape:showpageshadow="false"
     inkscape:window-width="2560"
     inkscape:window-height="1335"
     inkscape:window-x="2552"
     inkscape:window-y="1072"
     inkscape:window-maximized="1">
    <inkscape:grid
       type="xygrid"
       id="grid4136" />
  </sodipodi:namedview>
  <metadata
     id="metadata7">
    <rdf:RDF>
      <cc:Work
         rdf:about="">
        <dc:format>image/svg+xml</dc:format>
        <dc:type
           rdf:resource="http://purl.org/dc/dcmitype/StillImage" />
        <dc:title></dc:title>
      </cc:Work>
    </rdf:RDF>
  </metadata>
  <g
     inkscape:label="Layer 1"
     inkscape:groupmode="layer"
     id="layer1"
     transform="translate(0,364.96063)">
    <g
       transform="translate(99.03544,-273.75989)"
       id="g7054">
      <path
         style="fill:none;stroke:#000000;stroke-width:0.90000075"
         d="M 127.55916,460.63031 A 21.259859,21.259859 0 0 1 106.2993,481.89017 21.259859,21.259859 0 0 1 85.039442,460.63031 21.259859,21.259859 0 0 1 106.2993,439.37045 21.259859,21.259859 0 0 1 127.55916,460.63031 Z"
         id="circle7056" />
      <path
         style="fill:none;stroke:#000000;stroke-width:0.90000075"
         d="m 946.94961,430.51218 54.92129,0 c 0.4908,0 0.8858,0.39508 0.8858,0.88582 l 0,26.57483 c 0,0.49075 -0.395,0.88583 -0.8858,0.88583 l -54.92129,0 c -0.49075,0 -0.88583,-0.39508 -0.88583,-0.88583 l 0,-26.57483 c 0,-0.49074 0.39508,-0.88582 0.88583,-0.88582 z"
         id="rect7058" />
      <path
         style="fill:none;stroke:#000000;stroke-width:0.90000075"
         d="m 200.01985,31.181128 5.31496,0 0,11.692923 14.52758,0 0,-11.692923 5.31496,0 0,-11.692923 -5.31496,0 0,-1.771655 63.60241,0 0,-17.71655 106.2993,0 0,17.71655 106.2993,0 0,-17.71655 106.2993,0 0,17.71655 106.2993,0 0,-17.71655 106.2993,0 0,17.71655 106.2993,0 0,-17.71655 106.2993,0 0,17.71655 106.2993,0 0,-17.71655 106.2993,0 0,17.71655 106.2993,0 0,-17.71655 106.2993,0 0,17.71655 106.2993,0 0,-17.71655 106.2993,0 0,17.71655 63.6024,0 0,1.771655 -5.315,0 0,11.692923 5.315,0 0,11.692923 14.5276,0 0,-11.692923 5.315,0 0,-11.692923 -5.315,0 0,-1.771655 63.6024,0 0,-17.71655 124.0158,0 0,113.38592 17.7166,0 0,113.38592 -17.7166,0 0,49.42917 -1.7716,0 0,-5.31496 -11.6929,0 0,5.31496 -11.693,0 0,14.52758 11.693,0 0,5.31496 11.6929,0 0,-5.31496 1.7716,0 0,49.42917 17.7166,0 0,113.38592 -17.7166,0 0,113.38592 -124.0158,0 0,-17.71655 -63.6024,0 0,-1.77166 5.315,0 0,-11.69292 -5.315,0 0,-11.69292 -14.5276,0 0,11.69292 -5.315,0 0,11.69292 5.315,0 0,1.77166 -63.6024,0 0,17.71655 -106.2993,0 0,-17.71655 -106.2993,0 0,17.71655 -106.2993,0 0,-17.71655 -106.2993,0 0,17.71655 -106.2993,0 0,-17.71655 -106.2993,0 0,17.71655 -106.2993,0 0,-17.71655 -106.2993,0 0,17.71655 -106.2993,0 0,-17.71655 -106.2993,0 0,17.71655 -106.2993,0 0,-17.71655 -106.2993,0 0,17.71655 -106.2993,0 0,-17.71655 -63.60241,0 0,-1.77166 5.31496,0 0,-11.69292 -5.31496,0 0,-11.69292 -14.52758,0 0,11.69292 -5.31496,0 0,11.69292 5.31496,0 0,1.77166 -63.60241,0 0,17.71655 -124.01585,0 0,-113.38592 -17.71655,0 0,-113.38592 17.71655,0 0,-49.42917 1.771655,0 0,5.31496 11.692923,0 0,-5.31496 11.692923,0 0,-14.52758 -11.692923,0 0,-5.31496 -11.692923,0 0,5.31496 -1.771655,0 0,-49.42917 -17.71655,0 0,-113.38592 17.71655,0 0,-113.38592 124.01585,0 0,17.71655 63.60241,0 0,1.771655 -5.31496,0 z"
         id="polygon7060" />
    </g>
    <g
       transform="translate(99.03544,293.1692)"
       id="g7114">
      <path
         style="fill:none;stroke:#000000;stroke-width:0.90000075"
         d="m 821.1621,591.73279 a 6.2007923,6.2007923 0 0 1 -6.2008,6.20079 6.2007923,6.2007923 0 0 1 -6.20079,-6.20079 6.2007923,6.2007923 0 0 1 6.20079,-6.20079 6.2007923,6.2007923 0 0 1 6.2008,6.20079 z"
         id="circle7116" />
      <path
         style="fill:none;stroke:#000000;stroke-width:0.90000075"
         d="m 821.1621,272.83487 a 6.2007923,6.2007923 0 0 1 -6.2008,6.20079 6.2007923,6.2007923 0 0 1 -6.20079,-6.20079 6.2007923,6.2007923 0 0 1 6.20079,-6.20079 6.2007923,6.2007923 0 0 1 6.2008,6.20079 z"
         id="circle7118" />
      <path
         style="fill:none;stroke:#000000;stroke-width:0.90000075"
         d="m 821.1621,531.49652 a 6.2007923,6.2007923 0 0 1 -6.2008,6.20079 6.2007923,6.2007923 0 0 1 -6.20079,-6.20079 6.2007923,6.2007923 0 0 1 6.20079,-6.20079 6.2007923,6.2007923 0 0 1 6.2008,6.20079 z"
         id="circle7120" />
      <path
         style="fill:none;stroke:#000000;stroke-width:0.90000075"
         d="m 821.1621,212.5986 a 6.2007923,6.2007923 0 0 1 -6.2008,6.20079 6.2007923,6.2007923 0 0 1 -6.20079,-6.20079 6.2007923,6.2007923 0 0 1 6.20079,-6.20079 6.2007923,6.2007923 0 0 1 6.2008,6.20079 z"
         id="circle7122" />
      <path
         style="fill:none;stroke:#000000;stroke-width:0.90000075"
         d="m 1140.06,591.73279 a 6.2007923,6.2007923 0 0 1 -6.2007,6.20079 6.2007923,6.2007923 0 0 1 -6.2008,-6.20079 6.2007923,6.2007923 0 0 1 6.2008,-6.20079 6.2007923,6.2007923 0 0 1 6.2007,6.20079 z"
         id="circle7124" />
      <path
         style="fill:none;stroke:#000000;stroke-width:0.90000075"
         d="m 1140.06,272.83487 a 6.2007923,6.2007923 0 0 1 -6.2007,6.20079 6.2007923,6.2007923 0 0 1 -6.2008,-6.20079 6.2007923,6.2007923 0 0 1 6.2008,-6.20079 6.2007923,6.2007923 0 0 1 6.2007,6.20079 z"
         id="circle7126" />
      <path
         style="fill:none;stroke:#000000;stroke-width:0.90000075"
         d="m 1140.06,531.49652 a 6.2007923,6.2007923 0 0 1 -6.2007,6.20079 6.2007923,6.2007923 0 0 1 -6.2008,-6.20079 6.2007923,6.2007923 0 0 1 6.2008,-6.20079 6.2007923,6.2007923 0 0 1 6.2007,6.20079 z"
         id="circle7128" />
      <path
         style="fill:none;stroke:#000000;stroke-width:0.90000075"
         d="m 1140.06,212.5986 a 6.2007923,6.2007923 0 0 1 -6.2007,6.20079 6.2007923,6.2007923 0 0 1 -6.2008,-6.20079 6.2007923,6.2007923 0 0 1 6.2008,-6.20079 6.2007923,6.2007923 0 0 1 6.2007,6.20079 z"
         id="circle7130" />
      <path
         style="fill:none;stroke:#000000;stroke-width:0.90000075"
         d="m 78.838651,70.866203 a 7.9724474,7.9724474 0 0 1 -7.972448,7.972448 7.9724474,7.9724474 0 0 1 -7.972447,-7.972448 7.9724474,7.9724474 0 0 1 7.972447,-7.972447 7.9724474,7.9724474 0 0 1 7.972448,7.972447 z"
         id="circle7132" />
      <path
         style="fill:none;stroke:#000000;stroke-width:0.90000075"
         d="m 1885.9268,70.866203 a 7.9724474,7.9724474 0 0 1 -7.9725,7.972448 7.9724474,7.9724474 0 0 1 -7.9724,-7.972448 7.9724474,7.9724474 0 0 1 7.9724,-7.972447 7.9724474,7.9724474 0 0 1 7.9725,7.972447 z"
         id="circle7134" />
      <path
         style="fill:none;stroke:#000000;stroke-width:0.90000075"
         d="m 1885.9268,566.92963 a 7.9724474,7.9724474 0 0 1 -7.9725,7.97244 7.9724474,7.9724474 0 0 1 -7.9724,-7.97244 7.9724474,7.9724474 0 0 1 7.9724,-7.97245 7.9724474,7.9724474 0 0 1 7.9725,7.97245 z"
         id="circle7136" />
      <path
         style="fill:none;stroke:#000000;stroke-width:0.90000075"
         d="m 78.838651,566.92963 a 7.9724474,7.9724474 0 0 1 -7.972448,7.97244 7.9724474,7.9724474 0 0 1 -7.972447,-7.97244 7.9724474,7.9724474 0 0 1 7.972447,-7.97245 7.9724474,7.9724474 0 0 1 7.972448,7.97245 z"
         id="circle7138" />
      <path
         style="fill:none;stroke:#000000;stroke-width:0.90000075"
         d="m 219.15372,0 64.31108,0 0,17.71655 106.2993,0 0,-17.71655 106.2993,0 0,17.71655 106.2993,0 0,-17.71655 106.2993,0 0,17.71655 106.2993,0 0,-17.71655 106.2993,0 0,17.71655 106.2993,0 0,-17.71655 106.2993,0 0,17.71655 106.2993,0 0,-17.71655 106.2993,0 0,17.71655 106.2993,0 0,-17.71655 106.2993,0 0,17.71655 106.2993,0 0,-17.71655 64.3111,0 0,13.110247 13.1102,0 0,-13.110247 64.3111,0 0,17.71655 141.7324,0 0,115.15757 -17.7166,0 0,59.17328 -1.7716,0 0,-5.31496 -11.6929,0 0,5.31496 -11.693,0 0,14.52757 11.693,0 0,5.31497 11.6929,0 0,-5.31497 1.7716,0 0,59.17328 17.7166,0 0,106.2993 -17.7166,0 0,59.17328 -1.7716,0 0,-5.31497 -11.6929,0 0,5.31497 -11.693,0 0,14.52757 11.693,0 0,5.31496 11.6929,0 0,-5.31496 1.7716,0 0,59.17327 17.7166,0 0,115.15758 -141.7324,0 0,17.71655 -64.3111,0 0,-13.11025 -13.1102,0 0,13.11025 -64.3111,0 0,-17.71655 -106.2993,0 0,17.71655 -106.2993,0 0,-17.71655 -106.2993,0 0,17.71655 -106.2993,0 0,-17.71655 -106.2993,0 0,17.71655 -106.2993,0 0,-17.71655 -106.2993,0 0,17.71655 -106.2993,0 0,-17.71655 -106.2993,0 0,17.71655 -106.2993,0 0,-17.71655 -106.2993,0 0,17.71655 -106.2993,0 0,-17.71655 -106.2993,0 0,17.71655 -64.31108,0 0,-13.11025 -13.11024,0 0,13.11025 -64.31108,0 0,-17.71655 -141.7324,0 0,-115.15758 17.71655,0 0,-59.17327 1.771655,0 0,5.31496 11.692923,0 0,-5.31496 11.692923,0 0,-14.52757 -11.692923,0 0,-5.31497 -11.692923,0 0,5.31497 -1.771655,0 0,-59.17328 -17.71655,0 0,-106.2993 17.71655,0 0,-59.17328 1.771655,0 0,5.31497 11.692923,0 0,-5.31497 11.692923,0 0,-14.52757 -11.692923,0 0,-5.31496 -11.692923,0 0,5.31496 -1.771655,0 0,-59.17328 -17.71655,0 0,-115.15757 141.7324,0 0,-17.71655 64.31108,0 0,13.110247 13.11024,0 z"
         id="polygon7140" />
    </g>
  </g>
</svg>
