<?xml version="1.0" encoding="UTF-8" standalone="no"?>
<!-- Created with Inkscape (http://www.inkscape.org/) -->

<svg
   xmlns:dc="http://purl.org/dc/elements/1.1/"
   xmlns:cc="http://creativecommons.org/ns#"
   xmlns:rdf="http://www.w3.org/1999/02/22-rdf-syntax-ns#"
   xmlns:svg="http://www.w3.org/2000/svg"
   xmlns="http://www.w3.org/2000/svg"
   xmlns:sodipodi="http://sodipodi.sourceforge.net/DTD/sodipodi-0.dtd"
   xmlns:inkscape="http://www.inkscape.org/namespaces/inkscape"
   width="600mm"
   height="400mm"
   viewBox="0 0 2125.9842 1417.3228"
   id="svg2"
   version="1.1"
   inkscape:version="0.91 r13725"
   sodipodi:docname="Sheet3.svg">
  <defs
     id="defs4" />
  <sodipodi:namedview
     id="base"
     pagecolor="#ffffff"
     bordercolor="#666666"
     borderopacity="1.0"
     inkscape:pageopacity="0.0"
     inkscape:pageshadow="2"
     inkscape:zoom="0.7"
     inkscape:cx="673.11389"
     inkscape:cy="814.75727"
     inkscape:document-units="mm"
     inkscape:current-layer="layer1"
     showgrid="true"
     width="600mm"
     inkscape:showpageshadow="false"
     inkscape:window-width="2560"
     inkscape:window-height="1335"
     inkscape:window-x="2552"
     inkscape:window-y="1072"
     inkscape:window-maximized="1">
    <inkscape:grid
       type="xygrid"
       id="grid4136" />
  </sodipodi:namedview>
  <metadata
     id="metadata7">
    <rdf:RDF>
      <cc:Work
         rdf:about="">
        <dc:format>image/svg+xml</dc:format>
        <dc:type
           rdf:resource="http://purl.org/dc/dcmitype/StillImage" />
        <dc:title></dc:title>
      </cc:Work>
    </rdf:RDF>
  </metadata>
  <g
     inkscape:label="Layer 1"
     inkscape:groupmode="layer"
     id="layer1"
     transform="translate(0,364.96063)">
    <g
       transform="translate(19.395296,-347.76439)"
       id="g7062">
      <path
         style="fill:none;stroke:#000000;stroke-width:0.90000075"
         d="m 205.86631,0 59.88194,0 0,17.71655 106.2993,0 0,-17.71655 59.88194,0 0,13.110247 13.11025,0 0,-13.110247 59.88193,0 0,17.71655 132.87413,0 0,95.66937 -17.71655,0 0,113.38592 17.71655,0 0,50.13784 -13.11025,0 0,13.11024 13.11025,0 0,50.13784 -17.71655,0 0,113.38592 17.71655,0 0,95.66937 -132.87413,0 0,17.71655 -59.88193,0 0,-13.11025 -13.11025,0 0,13.11025 -59.88194,0 0,-17.71655 -106.2993,0 0,17.71655 -59.88194,0 0,-13.11025 -13.11025,0 0,13.11025 -59.88194,0 0,-17.71655 -132.87412,0 0,-95.66937 17.71655,0 0,-113.38592 -17.71655,0 0,-50.13784 13.110247,0 0,-13.11024 -13.110247,0 0,-50.13784 17.71655,0 0,-113.38592 -17.71655,0 0,-95.66937 132.87412,0 0,-17.71655 59.88194,0 0,13.110247 13.11025,0 z"
         id="polygon7064" />
    </g>
    <g
       transform="translate(15.109582,276.30756)"
       id="g7066">
      <path
         style="fill:none;stroke:#000000;stroke-width:0.90000075"
         d="m 265.74825,0 0,17.71655 106.2993,0 0,-17.71655 59.88194,0 0,13.110247 13.11025,0 0,-13.110247 59.88193,0 0,17.71655 132.87413,0 0,95.66937 -17.71655,0 0,113.38592 17.71655,0 0,50.13784 -13.11025,0 0,13.11024 13.11025,0 0,50.13784 -17.71655,0 0,113.38592 17.71655,0 0,95.66937 -132.87413,0 0,17.71655 -59.88193,0 0,-13.11025 -13.11025,0 0,13.11025 -59.88194,0 0,-17.71655 -106.2993,0 0,17.71655 -59.88194,0 0,-13.11025 -13.11025,0 0,13.11025 -59.88194,0 0,-17.71655 -132.87412,0 0,-95.66937 17.71655,0 0,-113.38592 -17.71655,0 0,-50.13784 13.110247,0 0,-13.11024 -13.110247,0 0,-50.13784 17.71655,0 0,-113.38592 -17.71655,0 0,-95.66937 132.87412,0 0,-17.71655 59.88194,0 0,13.110247 13.11025,0 0,-13.110247 z"
         id="polygon7068" />
    </g>
  </g>
</svg>
