  0
SECTION
  2
HEADER
  9
$ACADVER
  1
AC1014
  9
$HANDSEED
  5
FFFF
  9
$MEASUREMENT
 70
     1
  0
ENDSEC
  0
SECTION
  2
TABLES
  0
TABLE
  2
VPORT
  5
8
330
0
100
AcDbSymbolTable
 70
     4
  0
VPORT
  5
2E
330
8
100
AcDbSymbolTableRecord
100
AcDbViewportTableRecord
  2
*ACTIVE
 70
     0
 10
0.0
 20
0.0
 11
1.0
 21
1.0
 12
210.0
 22
148.5
 13
0.0
 23
0.0
 14
10.0
 24
10.0
 15
10.0
 25
10.0
 16
0.0
 26
0.0
 36
1.0
 17
0.0
 27
0.0
 37
0.0
 40
341.0
 41
1.24
 42
50.0
 43
0.0
 44
0.0
 50
0.0
 51
0.0
 71
     0
 72
   100
 73
     1
 74
     3
 75
     0
 76
     0
 77
     0
 78
     0
  0
ENDTAB
  0
TABLE
  2
LTYPE
  5
5
330
0
100
AcDbSymbolTable
 70
     1
  0
LTYPE
  5
14
330
5
100
AcDbSymbolTableRecord
100
AcDbLinetypeTableRecord
  2
BYBLOCK
 70
     0
  3

 72
    65
 73
     0
 40
0.0
  0
LTYPE
  5
15
330
5
100
AcDbSymbolTableRecord
100
AcDbLinetypeTableRecord
  2
BYLAYER
 70
     0
  3

 72
    65
 73
     0
 40
0.0
  0
LTYPE
  5
16
330
5
100
AcDbSymbolTableRecord
100
AcDbLinetypeTableRecord
  2
CONTINUOUS
 70
     0
  3
Solid line
 72
    65
 73
     0
 40
0.0
  0
ENDTAB
  0
TABLE
  2
LAYER
  5
2
100
AcDbSymbolTable
 70
2
  0
LAYER
  5
50
100
AcDbSymbolTableRecord
100
AcDbLayerTableRecord
  2
0
 70
0
  6
CONTINUOUS
  0
LAYER
  5
51
100
AcDbSymbolTableRecord
100
AcDbLayerTableRecord
  2
Layer_1
 70
0
  6
CONTINUOUS
  0
ENDTAB
  0
TABLE
  2
STYLE
  5
3
330
0
100
AcDbSymbolTable
 70
     1
  0
STYLE
  5
11
330
3
100
AcDbSymbolTableRecord
100
AcDbTextStyleTableRecord
  2
STANDARD
 70
     0
 40
0.0
 41
1.0
 50
0.0
 71
     0
 42
2.5
  3
txt
  4

  0
ENDTAB
  0
TABLE
  2
VIEW
  5
6
330
0
100
AcDbSymbolTable
 70
     0
  0
ENDTAB
  0
TABLE
  2
UCS
  5
7
330
0
100
AcDbSymbolTable
 70
     0
  0
ENDTAB
  0
TABLE
  2
APPID
  5
9
330
0
100
AcDbSymbolTable
 70
     2
  0
APPID
  5
12
330
9
100
AcDbSymbolTableRecord
100
AcDbRegAppTableRecord
  2
ACAD
 70
     0
  0
ENDTAB
  0
TABLE
  2
DIMSTYLE
  5
A
330
0
100
AcDbSymbolTable
 70
     1
  0
DIMSTYLE
105
27
330
A
100
AcDbSymbolTableRecord
100
AcDbDimStyleTableRecord
  2
ISO-25
 70
     0
  3

  4

  5

  6

  7

 40
1.0
 41
2.5
 42
0.625
 43
3.75
 44
1.25
 45
0.0
 46
0.0
 47
0.0
 48
0.0
140
2.5
141
2.5
142
0.0
143
0.03937007874016
144
1.0
145
0.0
146
1.0
147
0.625
 71
     0
 72
     0
 73
     0
 74
     0
 75
     0
 76
     0
 77
     1
 78
     8
170
     0
171
     3
172
     1
173
     0
174
     0
175
     0
176
     0
177
     0
178
     0
270
     2
271
     2
272
     2
273
     2
274
     3
340
11
275
     0
280
     0
281
     0
282
     0
283
     0
284
     8
285
     0
286
     0
287
     3
288
     0
  0
ENDTAB
  0
TABLE
  2
BLOCK_RECORD
  5
1
330
0
100
AcDbSymbolTable
 70
     1
  0
BLOCK_RECORD
  5
1F
330
1
100
AcDbSymbolTableRecord
100
AcDbBlockTableRecord
  2
*MODEL_SPACE
  0
BLOCK_RECORD
  5
1B
330
1
100
AcDbSymbolTableRecord
100
AcDbBlockTableRecord
  2
*PAPER_SPACE
  0
ENDTAB
  0
ENDSEC
  0
SECTION
  2
BLOCKS
  0
BLOCK
  5
20
330
1F
100
AcDbEntity
  8
0
100
AcDbBlockBegin
  2
*MODEL_SPACE
 70
     0
 10
0.0
 20
0.0
 30
0.0
  3
*MODEL_SPACE
  1

  0
ENDBLK
  5
21
330
1F
100
AcDbEntity
  8
0
100
AcDbBlockEnd
  0
BLOCK
  5
1C
330
1B
100
AcDbEntity
 67
     1
  8
0
100
AcDbBlockBegin
  2
*PAPER_SPACE
  1

  0
ENDBLK
  5
1D
330
1B
100
AcDbEntity
 67
     1
  8
0
100
AcDbBlockEnd
  0
ENDSEC
  0
SECTION
  2
ENTITIES
  0
LWPOLYLINE
  5
100
100
AcDbEntity
  8
Layer_1
 62
7
100
AcDbPolyline
 90
2
 70
1
 10
63.950032
 20
244.261015
 30
0.0
 10
63.950032
 20
244.261015
 30
0.0
  0
SPLINE
  5
101
100
AcDbEntity
  8
Layer_1
 62
7
100
AcDbSpline
 70
0
 71
3
 72
31
 73
27
 74
25
 40
0.000000
 40
0.000000
 40
0.000000
 40
0.000000
 40
1.570651
 40
3.128303
 40
4.698954
 40
6.269605
 40
7.827258
 40
9.397908
 40
10.968559
 40
12.526211
 40
14.096862
 40
15.667512
 40
17.225165
 40
18.795816
 40
20.366466
 40
21.924119
 40
23.494770
 40
25.065420
 40
26.623073
 40
28.193723
 40
29.764374
 40
31.322027
 40
32.892678
 40
34.463328
 40
36.020981
 40
37.591632
 40
37.591632
 40
37.591632
 40
37.591632
 10
63.950032
 20
244.261015
 30
0.0
 10
63.910034
 20
243.735965
 30
0.0
 10
63.830370
 20
242.690209
 30
0.0
 10
63.200818
 20
241.226720
 30
0.0
 10
62.243018
 20
239.969357
 30
0.0
 10
60.983967
 20
239.005265
 30
0.0
 10
59.520928
 20
238.399068
 30
0.0
 10
57.950001
 20
238.191694
 30
0.0
 10
56.379228
 20
238.399068
 30
0.0
 10
54.915730
 20
239.005265
 30
0.0
 10
53.658369
 20
239.969357
 30
0.0
 10
52.694277
 20
241.226720
 30
0.0
 10
52.088081
 20
242.690209
 30
0.0
 10
51.880706
 20
244.261015
 30
0.0
 10
52.088081
 20
245.831821
 30
0.0
 10
52.694277
 20
247.295309
 30
0.0
 10
53.658369
 20
248.552673
 30
0.0
 10
54.915730
 20
249.516764
 30
0.0
 10
56.379228
 20
250.122961
 30
0.0
 10
57.950001
 20
250.330336
 30
0.0
 10
59.520928
 20
250.122961
 30
0.0
 10
60.983967
 20
249.516764
 30
0.0
 10
62.243018
 20
248.552673
 30
0.0
 10
63.200818
 20
247.295309
 30
0.0
 10
63.830370
 20
245.831821
 30
0.0
 10
63.910034
 20
244.786065
 30
0.0
 10
63.950032
 20
244.261015
 30
0.0
 11
63.950032
 21
244.261015
 31
0.0
 11
63.744468
 21
242.703874
 31
0.0
 11
63.148380
 21
241.264790
 31
0.0
 11
62.192671
 21
240.018371
 31
0.0
 11
60.946251
 21
239.062661
 31
0.0
 11
59.507167
 21
238.466573
 31
0.0
 11
57.950027
 21
238.261010
 31
0.0
 11
56.392886
 21
238.466573
 31
0.0
 11
54.953803
 21
239.062661
 31
0.0
 11
53.707383
 21
240.018371
 31
0.0
 11
52.751673
 21
241.264791
 31
0.0
 11
52.155586
 21
242.703874
 31
0.0
 11
51.950022
 21
244.261015
 31
0.0
 11
52.155586
 21
245.818155
 31
0.0
 11
52.751673
 21
247.257239
 31
0.0
 11
53.707383
 21
248.503659
 31
0.0
 11
54.953803
 21
249.459368
 31
0.0
 11
56.392886
 21
250.055456
 31
0.0
 11
57.950027
 21
250.261020
 31
0.0
 11
59.507167
 21
250.055456
 31
0.0
 11
60.946251
 21
249.459369
 31
0.0
 11
62.192671
 21
248.503659
 31
0.0
 11
63.148380
 21
247.257239
 31
0.0
 11
63.744468
 21
245.818155
 31
0.0
 11
63.950032
 21
244.261015
 31
0.0
  0
LWPOLYLINE
  5
102
100
AcDbEntity
  8
Layer_1
 62
7
100
AcDbPolyline
 90
2
 70
1
 10
295.200225
 20
252.761020
 30
0.0
 10
310.700234
 20
252.761020
 30
0.0
  0
SPLINE
  5
103
100
AcDbEntity
  8
Layer_1
 62
7
100
AcDbSpline
 70
0
 71
3
 72
10
 73
6
 74
4
 40
0.000000
 40
0.000000
 40
0.000000
 40
0.000000
 40
0.130878
 40
0.257576
 40
0.388447
 40
0.388447
 40
0.388447
 40
0.388447
 10
310.700234
 20
252.761020
 30
0.0
 10
310.744111
 20
252.754199
 30
0.0
 10
310.830465
 20
252.740774
 30
0.0
 10
310.929982
 20
252.641248
 30
0.0
 10
310.943406
 20
252.554897
 30
0.0
 10
310.950226
 20
252.511022
 30
0.0
 11
310.700234
 21
252.761020
 31
0.0
 11
310.826609
 21
252.726983
 31
0.0
 11
310.916194
 21
252.637391
 31
0.0
 11
310.950226
 21
252.511022
 31
0.0
  0
LWPOLYLINE
  5
104
100
AcDbEntity
  8
Layer_1
 62
7
100
AcDbPolyline
 90
2
 70
1
 10
310.950226
 20
252.511022
 30
0.0
 10
310.950226
 20
245.011015
 30
0.0
  0
SPLINE
  5
105
100
AcDbEntity
  8
Layer_1
 62
7
100
AcDbSpline
 70
0
 71
3
 72
10
 73
6
 74
4
 40
0.000000
 40
0.000000
 40
0.000000
 40
0.000000
 40
0.130873
 40
0.257571
 40
0.388450
 40
0.388450
 40
0.388450
 40
0.388450
 10
310.950226
 20
245.011015
 30
0.0
 10
310.943406
 20
244.967139
 30
0.0
 10
310.929982
 20
244.880788
 30
0.0
 10
310.830465
 20
244.781260
 30
0.0
 10
310.744111
 20
244.767835
 30
0.0
 10
310.700234
 20
244.761014
 30
0.0
 11
310.950226
 21
245.011015
 31
0.0
 11
310.916194
 21
244.884644
 31
0.0
 11
310.826609
 21
244.795051
 31
0.0
 11
310.700234
 21
244.761014
 31
0.0
  0
LWPOLYLINE
  5
106
100
AcDbEntity
  8
Layer_1
 62
7
100
AcDbPolyline
 90
2
 70
1
 10
310.700234
 20
244.761014
 30
0.0
 10
295.200225
 20
244.761014
 30
0.0
  0
SPLINE
  5
107
100
AcDbEntity
  8
Layer_1
 62
7
100
AcDbSpline
 70
0
 71
3
 72
10
 73
6
 74
4
 40
0.000000
 40
0.000000
 40
0.000000
 40
0.000000
 40
0.130874
 40
0.257578
 40
0.388452
 40
0.388452
 40
0.388452
 40
0.388452
 10
295.200225
 20
244.761014
 30
0.0
 10
295.156349
 20
244.767836
 30
0.0
 10
295.069996
 20
244.781263
 30
0.0
 10
294.970474
 20
244.880786
 30
0.0
 10
294.957047
 20
244.967139
 30
0.0
 10
294.950224
 20
245.011015
 30
0.0
 11
295.200225
 21
244.761014
 31
0.0
 11
295.073854
 21
244.795051
 31
0.0
 11
294.984261
 21
244.884644
 31
0.0
 11
294.950224
 21
245.011015
 31
0.0
  0
LWPOLYLINE
  5
108
100
AcDbEntity
  8
Layer_1
 62
7
100
AcDbPolyline
 90
2
 70
1
 10
294.950224
 20
245.011015
 30
0.0
 10
294.950224
 20
252.511022
 30
0.0
  0
LWPOLYLINE
  5
109
100
AcDbEntity
  8
Layer_1
 62
7
100
AcDbPolyline
 90
2
 70
1
 10
295.200225
 20
252.761020
 30
0.0
 10
295.200225
 20
252.761020
 30
0.0
  0
SPLINE
  5
10a
100
AcDbEntity
  8
Layer_1
 62
7
100
AcDbSpline
 70
0
 71
3
 72
10
 73
6
 74
4
 40
0.000000
 40
0.000000
 40
0.000000
 40
0.000000
 40
0.130873
 40
0.257576
 40
0.388450
 40
0.388450
 40
0.388450
 40
0.388450
 10
294.950224
 20
252.511022
 30
0.0
 10
294.957047
 20
252.554897
 30
0.0
 10
294.970474
 20
252.641250
 30
0.0
 10
295.069996
 20
252.740771
 30
0.0
 10
295.156349
 20
252.754198
 30
0.0
 10
295.200225
 20
252.761020
 30
0.0
 11
294.950224
 21
252.511022
 31
0.0
 11
294.984261
 21
252.637391
 31
0.0
 11
295.073854
 21
252.726983
 31
0.0
 11
295.200225
 21
252.761020
 31
0.0
  0
LWPOLYLINE
  5
10b
100
AcDbEntity
  8
Layer_1
 62
7
100
AcDbPolyline
 90
157
 70
1
 10
84.400049
 20
365.461117
 30
0.0
 10
85.900048
 20
365.461117
 30
0.0
 10
85.900048
 20
362.161115
 30
0.0
 10
90.000054
 20
362.161115
 30
0.0
 10
90.000054
 20
365.461117
 30
0.0
 10
91.500054
 20
365.461117
 30
0.0
 10
91.500054
 20
368.761120
 30
0.0
 10
90.000054
 20
368.761120
 30
0.0
 10
90.000054
 20
369.261120
 30
0.0
 10
107.950068
 20
369.261120
 30
0.0
 10
107.950068
 20
374.261124
 30
0.0
 10
137.950092
 20
374.261124
 30
0.0
 10
137.950092
 20
369.261120
 30
0.0
 10
167.950117
 20
369.261120
 30
0.0
 10
167.950117
 20
374.261124
 30
0.0
 10
197.950142
 20
374.261124
 30
0.0
 10
197.950142
 20
369.261120
 30
0.0
 10
227.950166
 20
369.261120
 30
0.0
 10
227.950166
 20
374.261124
 30
0.0
 10
257.950191
 20
374.261124
 30
0.0
 10
257.950191
 20
369.261120
 30
0.0
 10
287.950216
 20
369.261120
 30
0.0
 10
287.950216
 20
374.261124
 30
0.0
 10
317.950240
 20
374.261124
 30
0.0
 10
317.950240
 20
369.261120
 30
0.0
 10
347.950265
 20
369.261120
 30
0.0
 10
347.950265
 20
374.261124
 30
0.0
 10
377.950290
 20
374.261124
 30
0.0
 10
377.950290
 20
369.261120
 30
0.0
 10
407.950314
 20
369.261120
 30
0.0
 10
407.950314
 20
374.261124
 30
0.0
 10
437.950339
 20
374.261124
 30
0.0
 10
437.950339
 20
369.261120
 30
0.0
 10
467.950364
 20
369.261120
 30
0.0
 10
467.950364
 20
374.261124
 30
0.0
 10
497.950388
 20
374.261124
 30
0.0
 10
497.950388
 20
369.261120
 30
0.0
 10
515.900399
 20
369.261120
 30
0.0
 10
515.900399
 20
368.761120
 30
0.0
 10
514.400388
 20
368.761120
 30
0.0
 10
514.400388
 20
365.461117
 30
0.0
 10
515.900399
 20
365.461117
 30
0.0
 10
515.900399
 20
362.161115
 30
0.0
 10
520.000411
 20
362.161115
 30
0.0
 10
520.000411
 20
365.461117
 30
0.0
 10
521.500422
 20
365.461117
 30
0.0
 10
521.500422
 20
368.761120
 30
0.0
 10
520.000411
 20
368.761120
 30
0.0
 10
520.000411
 20
369.261120
 30
0.0
 10
537.950421
 20
369.261120
 30
0.0
 10
537.950421
 20
374.261124
 30
0.0
 10
572.950436
 20
374.261124
 30
0.0
 10
572.950436
 20
342.261098
 30
0.0
 10
577.950454
 20
342.261098
 30
0.0
 10
577.950454
 20
310.261072
 30
0.0
 10
572.950436
 20
310.261072
 30
0.0
 10
572.950436
 20
296.311062
 30
0.0
 10
572.450451
 20
296.311062
 30
0.0
 10
572.450451
 20
297.811061
 30
0.0
 10
569.150455
 20
297.811061
 30
0.0
 10
569.150455
 20
296.311062
 30
0.0
 10
565.850430
 20
296.311062
 30
0.0
 10
565.850430
 20
292.211056
 30
0.0
 10
569.150455
 20
292.211056
 30
0.0
 10
569.150455
 20
290.711056
 30
0.0
 10
572.450451
 20
290.711056
 30
0.0
 10
572.450451
 20
292.211056
 30
0.0
 10
572.950436
 20
292.211056
 30
0.0
 10
572.950436
 20
278.261046
 30
0.0
 10
577.950454
 20
278.261046
 30
0.0
 10
577.950454
 20
246.261019
 30
0.0
 10
572.950436
 20
246.261019
 30
0.0
 10
572.950436
 20
214.260993
 30
0.0
 10
537.950421
 20
214.260993
 30
0.0
 10
537.950421
 20
219.260997
 30
0.0
 10
520.000411
 20
219.260997
 30
0.0
 10
520.000411
 20
219.760999
 30
0.0
 10
521.500422
 20
219.760999
 30
0.0
 10
521.500422
 20
223.061001
 30
0.0
 10
520.000411
 20
223.061001
 30
0.0
 10
520.000411
 20
226.361003
 30
0.0
 10
515.900399
 20
226.361003
 30
0.0
 10
515.900399
 20
223.061001
 30
0.0
 10
514.400388
 20
223.061001
 30
0.0
 10
514.400388
 20
219.760999
 30
0.0
 10
515.900399
 20
219.760999
 30
0.0
 10
515.900399
 20
219.260997
 30
0.0
 10
497.950388
 20
219.260997
 30
0.0
 10
497.950388
 20
214.260993
 30
0.0
 10
467.950364
 20
214.260993
 30
0.0
 10
467.950364
 20
219.260997
 30
0.0
 10
437.950339
 20
219.260997
 30
0.0
 10
437.950339
 20
214.260993
 30
0.0
 10
407.950314
 20
214.260993
 30
0.0
 10
407.950314
 20
219.260997
 30
0.0
 10
377.950290
 20
219.260997
 30
0.0
 10
377.950290
 20
214.260993
 30
0.0
 10
347.950265
 20
214.260993
 30
0.0
 10
347.950265
 20
219.260997
 30
0.0
 10
317.950240
 20
219.260997
 30
0.0
 10
317.950240
 20
214.260993
 30
0.0
 10
287.950216
 20
214.260993
 30
0.0
 10
287.950216
 20
219.260997
 30
0.0
 10
257.950191
 20
219.260997
 30
0.0
 10
257.950191
 20
214.260993
 30
0.0
 10
227.950166
 20
214.260993
 30
0.0
 10
227.950166
 20
219.260997
 30
0.0
 10
197.950142
 20
219.260997
 30
0.0
 10
197.950142
 20
214.260993
 30
0.0
 10
167.950117
 20
214.260993
 30
0.0
 10
167.950117
 20
219.260997
 30
0.0
 10
137.950092
 20
219.260997
 30
0.0
 10
137.950092
 20
214.260993
 30
0.0
 10
107.950068
 20
214.260993
 30
0.0
 10
107.950068
 20
219.260997
 30
0.0
 10
90.000054
 20
219.260997
 30
0.0
 10
90.000054
 20
219.760999
 30
0.0
 10
91.500054
 20
219.760999
 30
0.0
 10
91.500054
 20
223.061001
 30
0.0
 10
90.000054
 20
223.061001
 30
0.0
 10
90.000054
 20
226.361003
 30
0.0
 10
85.900048
 20
226.361003
 30
0.0
 10
85.900048
 20
223.061001
 30
0.0
 10
84.400049
 20
223.061001
 30
0.0
 10
84.400049
 20
219.760999
 30
0.0
 10
85.900048
 20
219.760999
 30
0.0
 10
85.900048
 20
219.260997
 30
0.0
 10
67.950035
 20
219.260997
 30
0.0
 10
67.950035
 20
214.260993
 30
0.0
 10
32.950006
 20
214.260993
 30
0.0
 10
32.950006
 20
246.261019
 30
0.0
 10
27.950002
 20
246.261019
 30
0.0
 10
27.950002
 20
278.261046
 30
0.0
 10
32.950006
 20
278.261046
 30
0.0
 10
32.950006
 20
292.211056
 30
0.0
 10
33.450006
 20
292.211056
 30
0.0
 10
33.450006
 20
290.711056
 30
0.0
 10
36.750009
 20
290.711056
 30
0.0
 10
36.750009
 20
292.211056
 30
0.0
 10
40.050012
 20
292.211056
 30
0.0
 10
40.050012
 20
296.311062
 30
0.0
 10
36.750009
 20
296.311062
 30
0.0
 10
36.750009
 20
297.811061
 30
0.0
 10
33.450006
 20
297.811061
 30
0.0
 10
33.450006
 20
296.311062
 30
0.0
 10
32.950006
 20
296.311062
 30
0.0
 10
32.950006
 20
310.261072
 30
0.0
 10
27.950002
 20
310.261072
 30
0.0
 10
27.950002
 20
342.261098
 30
0.0
 10
32.950006
 20
342.261098
 30
0.0
 10
32.950006
 20
374.261124
 30
0.0
 10
67.950035
 20
374.261124
 30
0.0
 10
67.950035
 20
369.261120
 30
0.0
 10
85.900048
 20
369.261120
 30
0.0
 10
85.900048
 20
368.761120
 30
0.0
 10
84.400049
 20
368.761120
 30
0.0
 10
84.400049
 20
365.461117
 30
0.0
  0
SPLINE
  5
10c
100
AcDbEntity
  8
Layer_1
 62
7
100
AcDbSpline
 70
0
 71
3
 72
25
 73
21
 74
19
 40
0.000000
 40
0.000000
 40
0.000000
 40
0.000000
 40
0.458107
 40
0.912422
 40
1.370529
 40
1.828636
 40
2.282951
 40
2.741058
 40
3.656062
 40
4.543927
 40
5.458931
 40
6.373934
 40
7.261799
 40
8.176803
 40
8.634910
 40
9.089225
 40
9.547332
 40
10.005439
 40
10.459754
 40
10.917861
 40
10.917861
 40
10.917861
 40
10.917861
 10
259.700195
 20
47.260994
 30
0.0
 10
259.688528
 20
47.107854
 30
0.0
 10
259.665292
 20
46.802843
 30
0.0
 10
259.481677
 20
46.375989
 30
0.0
 10
259.202300
 20
46.009269
 30
0.0
 10
258.835146
 20
45.728033
 30
0.0
 10
258.408169
 20
45.551385
 30
0.0
 10
257.798520
 20
45.469943
 30
0.0
 10
257.033069
 20
45.675228
 30
0.0
 10
256.364896
 20
46.344717
 30
0.0
 10
256.116598
 20
47.260994
 30
0.0
 10
256.364896
 20
48.177271
 30
0.0
 10
257.033069
 20
48.846760
 30
0.0
 10
257.798520
 20
49.052045
 30
0.0
 10
258.408169
 20
48.970603
 30
0.0
 10
258.835146
 20
48.793955
 30
0.0
 10
259.202300
 20
48.512719
 30
0.0
 10
259.481677
 20
48.145999
 30
0.0
 10
259.665292
 20
47.719145
 30
0.0
 10
259.688528
 20
47.414133
 30
0.0
 10
259.700195
 20
47.260994
 30
0.0
 11
259.700195
 21
47.260994
 31
0.0
 11
259.640238
 21
46.806828
 31
0.0
 11
259.466379
 21
46.387095
 31
0.0
 11
259.187630
 21
46.023556
 31
0.0
 11
258.824091
 21
45.744807
 31
0.0
 11
258.404357
 21
45.570949
 31
0.0
 11
257.950191
 21
45.510993
 31
0.0
 11
257.066932
 21
45.749920
 31
0.0
 11
256.439117
 21
46.377735
 31
0.0
 11
256.200190
 21
47.260994
 31
0.0
 11
256.439117
 21
48.144253
 31
0.0
 11
257.066932
 21
48.772068
 31
0.0
 11
257.950191
 21
49.010995
 31
0.0
 11
258.404357
 21
48.951039
 31
0.0
 11
258.824091
 21
48.777181
 31
0.0
 11
259.187630
 21
48.498432
 31
0.0
 11
259.466379
 21
48.134893
 31
0.0
 11
259.640238
 21
47.715160
 31
0.0
 11
259.700195
 21
47.260994
 31
0.0
  0
LWPOLYLINE
  5
10d
100
AcDbEntity
  8
Layer_1
 62
7
100
AcDbPolyline
 90
2
 70
1
 10
259.700195
 20
47.260994
 30
0.0
 10
259.700195
 20
47.260994
 30
0.0
  0
SPLINE
  5
10e
100
AcDbEntity
  8
Layer_1
 62
7
100
AcDbSpline
 70
0
 71
3
 72
25
 73
21
 74
19
 40
0.000000
 40
0.000000
 40
0.000000
 40
0.000000
 40
0.458107
 40
0.912422
 40
1.370529
 40
1.828636
 40
2.282951
 40
2.741058
 40
3.656062
 40
4.543927
 40
5.458931
 40
6.373934
 40
7.261799
 40
8.176803
 40
8.634910
 40
9.089225
 40
9.547332
 40
10.005439
 40
10.459754
 40
10.917861
 40
10.917861
 40
10.917861
 40
10.917861
 10
259.700195
 20
137.261074
 30
0.0
 10
259.688528
 20
137.107934
 30
0.0
 10
259.665292
 20
136.802922
 30
0.0
 10
259.481677
 20
136.376068
 30
0.0
 10
259.202300
 20
136.009349
 30
0.0
 10
258.835146
 20
135.728113
 30
0.0
 10
258.408169
 20
135.551464
 30
0.0
 10
257.798520
 20
135.470022
 30
0.0
 10
257.033069
 20
135.675307
 30
0.0
 10
256.364896
 20
136.344797
 30
0.0
 10
256.116598
 20
137.261074
 30
0.0
 10
256.364896
 20
138.177350
 30
0.0
 10
257.033069
 20
138.846840
 30
0.0
 10
257.798520
 20
139.052125
 30
0.0
 10
258.408169
 20
138.970683
 30
0.0
 10
258.835146
 20
138.794034
 30
0.0
 10
259.202300
 20
138.512798
 30
0.0
 10
259.481677
 20
138.146079
 30
0.0
 10
259.665292
 20
137.719225
 30
0.0
 10
259.688528
 20
137.414213
 30
0.0
 10
259.700195
 20
137.261074
 30
0.0
 11
259.700195
 21
137.261074
 31
0.0
 11
259.640238
 21
136.806907
 31
0.0
 11
259.466379
 21
136.387174
 31
0.0
 11
259.187630
 21
136.023635
 31
0.0
 11
258.824091
 21
135.744887
 31
0.0
 11
258.404357
 21
135.571028
 31
0.0
 11
257.950191
 21
135.511073
 31
0.0
 11
257.066932
 21
135.749999
 31
0.0
 11
256.439117
 21
136.377815
 31
0.0
 11
256.200190
 21
137.261074
 31
0.0
 11
256.439117
 21
138.144332
 31
0.0
 11
257.066932
 21
138.772148
 31
0.0
 11
257.950191
 21
139.011074
 31
0.0
 11
258.404357
 21
138.951119
 31
0.0
 11
258.824091
 21
138.777260
 31
0.0
 11
259.187630
 21
138.498512
 31
0.0
 11
259.466379
 21
138.134973
 31
0.0
 11
259.640238
 21
137.715240
 31
0.0
 11
259.700195
 21
137.261074
 31
0.0
  0
LWPOLYLINE
  5
10f
100
AcDbEntity
  8
Layer_1
 62
7
100
AcDbPolyline
 90
2
 70
1
 10
259.700195
 20
137.261074
 30
0.0
 10
259.700195
 20
137.261074
 30
0.0
  0
SPLINE
  5
110
100
AcDbEntity
  8
Layer_1
 62
7
100
AcDbSpline
 70
0
 71
3
 72
25
 73
21
 74
19
 40
0.000000
 40
0.000000
 40
0.000000
 40
0.000000
 40
0.458107
 40
0.912422
 40
1.370529
 40
1.828636
 40
2.282951
 40
2.741058
 40
3.656062
 40
4.543927
 40
5.458931
 40
6.373934
 40
7.261799
 40
8.176803
 40
8.634910
 40
9.089225
 40
9.547332
 40
10.005439
 40
10.459754
 40
10.917861
 40
10.917861
 40
10.917861
 40
10.917861
 10
259.700195
 20
64.261008
 30
0.0
 10
259.688528
 20
64.107868
 30
0.0
 10
259.665292
 20
63.802857
 30
0.0
 10
259.481677
 20
63.376003
 30
0.0
 10
259.202300
 20
63.009283
 30
0.0
 10
258.835146
 20
62.728047
 30
0.0
 10
258.408169
 20
62.551399
 30
0.0
 10
257.798520
 20
62.469957
 30
0.0
 10
257.033069
 20
62.675242
 30
0.0
 10
256.364896
 20
63.344731
 30
0.0
 10
256.116598
 20
64.261008
 30
0.0
 10
256.364896
 20
65.177285
 30
0.0
 10
257.033069
 20
65.846774
 30
0.0
 10
257.798520
 20
66.052059
 30
0.0
 10
258.408169
 20
65.970617
 30
0.0
 10
258.835146
 20
65.793969
 30
0.0
 10
259.202300
 20
65.512733
 30
0.0
 10
259.481677
 20
65.146013
 30
0.0
 10
259.665292
 20
64.719159
 30
0.0
 10
259.688528
 20
64.414147
 30
0.0
 10
259.700195
 20
64.261008
 30
0.0
 11
259.700195
 21
64.261008
 31
0.0
 11
259.640238
 21
63.806842
 31
0.0
 11
259.466379
 21
63.387109
 31
0.0
 11
259.187630
 21
63.023570
 31
0.0
 11
258.824091
 21
62.744821
 31
0.0
 11
258.404357
 21
62.570963
 31
0.0
 11
257.950191
 21
62.511007
 31
0.0
 11
257.066932
 21
62.749934
 31
0.0
 11
256.439117
 21
63.377749
 31
0.0
 11
256.200190
 21
64.261008
 31
0.0
 11
256.439117
 21
65.144267
 31
0.0
 11
257.066932
 21
65.772082
 31
0.0
 11
257.950191
 21
66.011009
 31
0.0
 11
258.404357
 21
65.951053
 31
0.0
 11
258.824091
 21
65.777195
 31
0.0
 11
259.187630
 21
65.498446
 31
0.0
 11
259.466379
 21
65.134907
 31
0.0
 11
259.640238
 21
64.715174
 31
0.0
 11
259.700195
 21
64.261008
 31
0.0
  0
LWPOLYLINE
  5
111
100
AcDbEntity
  8
Layer_1
 62
7
100
AcDbPolyline
 90
2
 70
1
 10
259.700195
 20
64.261008
 30
0.0
 10
259.700195
 20
64.261008
 30
0.0
  0
SPLINE
  5
112
100
AcDbEntity
  8
Layer_1
 62
7
100
AcDbSpline
 70
0
 71
3
 72
25
 73
21
 74
19
 40
0.000000
 40
0.000000
 40
0.000000
 40
0.000000
 40
0.458107
 40
0.912422
 40
1.370529
 40
1.828636
 40
2.282951
 40
2.741058
 40
3.656062
 40
4.543927
 40
5.458931
 40
6.373934
 40
7.261799
 40
8.176803
 40
8.634910
 40
9.089225
 40
9.547332
 40
10.005439
 40
10.459754
 40
10.917861
 40
10.917861
 40
10.917861
 40
10.917861
 10
259.700195
 20
154.261088
 30
0.0
 10
259.688528
 20
154.107948
 30
0.0
 10
259.665292
 20
153.802936
 30
0.0
 10
259.481677
 20
153.376082
 30
0.0
 10
259.202300
 20
153.009363
 30
0.0
 10
258.835146
 20
152.728127
 30
0.0
 10
258.408169
 20
152.551478
 30
0.0
 10
257.798520
 20
152.470036
 30
0.0
 10
257.033069
 20
152.675321
 30
0.0
 10
256.364896
 20
153.344811
 30
0.0
 10
256.116598
 20
154.261088
 30
0.0
 10
256.364896
 20
155.177364
 30
0.0
 10
257.033069
 20
155.846854
 30
0.0
 10
257.798520
 20
156.052139
 30
0.0
 10
258.408169
 20
155.970697
 30
0.0
 10
258.835146
 20
155.794048
 30
0.0
 10
259.202300
 20
155.512812
 30
0.0
 10
259.481677
 20
155.146093
 30
0.0
 10
259.665292
 20
154.719239
 30
0.0
 10
259.688528
 20
154.414227
 30
0.0
 10
259.700195
 20
154.261088
 30
0.0
 11
259.700195
 21
154.261088
 31
0.0
 11
259.640238
 21
153.806921
 31
0.0
 11
259.466379
 21
153.387188
 31
0.0
 11
259.187630
 21
153.023649
 31
0.0
 11
258.824091
 21
152.744901
 31
0.0
 11
258.404357
 21
152.571042
 31
0.0
 11
257.950191
 21
152.511087
 31
0.0
 11
257.066932
 21
152.750013
 31
0.0
 11
256.439117
 21
153.377829
 31
0.0
 11
256.200190
 21
154.261088
 31
0.0
 11
256.439117
 21
155.144346
 31
0.0
 11
257.066932
 21
155.772162
 31
0.0
 11
257.950191
 21
156.011088
 31
0.0
 11
258.404357
 21
155.951133
 31
0.0
 11
258.824091
 21
155.777274
 31
0.0
 11
259.187630
 21
155.498526
 31
0.0
 11
259.466379
 21
155.134987
 31
0.0
 11
259.640238
 21
154.715254
 31
0.0
 11
259.700195
 21
154.261088
 31
0.0
  0
LWPOLYLINE
  5
113
100
AcDbEntity
  8
Layer_1
 62
7
100
AcDbPolyline
 90
2
 70
1
 10
259.700195
 20
154.261088
 30
0.0
 10
259.700195
 20
154.261088
 30
0.0
  0
SPLINE
  5
114
100
AcDbEntity
  8
Layer_1
 62
7
100
AcDbSpline
 70
0
 71
3
 72
25
 73
21
 74
19
 40
0.000000
 40
0.000000
 40
0.000000
 40
0.000000
 40
0.914995
 40
1.802853
 40
2.717848
 40
3.175955
 40
3.630270
 40
4.088377
 40
4.546484
 40
5.000799
 40
5.458906
 40
5.917013
 40
6.371328
 40
6.829435
 40
7.287542
 40
7.741857
 40
8.199964
 40
9.114959
 40
10.002817
 40
10.917812
 40
10.917812
 40
10.917812
 40
10.917812
 10
349.700269
 20
47.260994
 30
0.0
 10
349.652116
 20
46.952521
 30
0.0
 10
349.557238
 20
46.344725
 30
0.0
 10
348.861353
 20
45.675239
 30
0.0
 10
348.102709
 20
45.469941
 30
0.0
 10
347.492200
 20
45.551385
 30
0.0
 10
347.065274
 20
45.728033
 30
0.0
 10
346.698563
 20
46.009269
 30
0.0
 10
346.417364
 20
46.375989
 30
0.0
 10
346.240557
 20
46.802843
 30
0.0
 10
346.180072
 20
47.260994
 30
0.0
 10
346.240557
 20
47.719145
 30
0.0
 10
346.417364
 20
48.145999
 30
0.0
 10
346.698563
 20
48.512719
 30
0.0
 10
347.065274
 20
48.793955
 30
0.0
 10
347.492200
 20
48.970603
 30
0.0
 10
348.102709
 20
49.052047
 30
0.0
 10
348.861353
 20
48.846749
 30
0.0
 10
349.557238
 20
48.177262
 30
0.0
 10
349.652116
 20
47.569466
 30
0.0
 10
349.700269
 20
47.260994
 30
0.0
 11
349.700269
 21
47.260994
 31
0.0
 11
349.461346
 21
46.377743
 31
0.0
 11
348.833541
 21
45.749928
 31
0.0
 11
347.950293
 21
45.510993
 31
0.0
 11
347.496127
 21
45.570949
 31
0.0
 11
347.076394
 21
45.744807
 31
0.0
 11
346.712854
 21
46.023556
 31
0.0
 11
346.434105
 21
46.387095
 31
0.0
 11
346.260246
 21
46.806828
 31
0.0
 11
346.200290
 21
47.260994
 31
0.0
 11
346.260246
 21
47.715160
 31
0.0
 11
346.434105
 21
48.134893
 31
0.0
 11
346.712854
 21
48.498432
 31
0.0
 11
347.076394
 21
48.777181
 31
0.0
 11
347.496127
 21
48.951039
 31
0.0
 11
347.950293
 21
49.010995
 31
0.0
 11
348.833541
 21
48.772060
 31
0.0
 11
349.461346
 21
48.144245
 31
0.0
 11
349.700269
 21
47.260994
 31
0.0
  0
LWPOLYLINE
  5
115
100
AcDbEntity
  8
Layer_1
 62
7
100
AcDbPolyline
 90
2
 70
1
 10
349.700269
 20
47.260994
 30
0.0
 10
349.700269
 20
47.260994
 30
0.0
  0
SPLINE
  5
116
100
AcDbEntity
  8
Layer_1
 62
7
100
AcDbSpline
 70
0
 71
3
 72
25
 73
21
 74
19
 40
0.000000
 40
0.000000
 40
0.000000
 40
0.000000
 40
0.914995
 40
1.802853
 40
2.717848
 40
3.175955
 40
3.630270
 40
4.088377
 40
4.546484
 40
5.000799
 40
5.458906
 40
5.917013
 40
6.371328
 40
6.829435
 40
7.287542
 40
7.741857
 40
8.199964
 40
9.114959
 40
10.002817
 40
10.917812
 40
10.917812
 40
10.917812
 40
10.917812
 10
349.700269
 20
137.261074
 30
0.0
 10
349.652116
 20
136.952601
 30
0.0
 10
349.557238
 20
136.344805
 30
0.0
 10
348.861353
 20
135.675319
 30
0.0
 10
348.102709
 20
135.470021
 30
0.0
 10
347.492200
 20
135.551465
 30
0.0
 10
347.065274
 20
135.728113
 30
0.0
 10
346.698563
 20
136.009349
 30
0.0
 10
346.417364
 20
136.376068
 30
0.0
 10
346.240557
 20
136.802922
 30
0.0
 10
346.180072
 20
137.261074
 30
0.0
 10
346.240557
 20
137.719225
 30
0.0
 10
346.417364
 20
138.146079
 30
0.0
 10
346.698563
 20
138.512798
 30
0.0
 10
347.065274
 20
138.794034
 30
0.0
 10
347.492200
 20
138.970682
 30
0.0
 10
348.102709
 20
139.052126
 30
0.0
 10
348.861353
 20
138.846828
 30
0.0
 10
349.557238
 20
138.177342
 30
0.0
 10
349.652116
 20
137.569546
 30
0.0
 10
349.700269
 20
137.261074
 30
0.0
 11
349.700269
 21
137.261074
 31
0.0
 11
349.461346
 21
136.377822
 31
0.0
 11
348.833541
 21
135.750008
 31
0.0
 11
347.950293
 21
135.511073
 31
0.0
 11
347.496127
 21
135.571028
 31
0.0
 11
347.076394
 21
135.744887
 31
0.0
 11
346.712854
 21
136.023635
 31
0.0
 11
346.434105
 21
136.387174
 31
0.0
 11
346.260246
 21
136.806907
 31
0.0
 11
346.200290
 21
137.261074
 31
0.0
 11
346.260246
 21
137.715240
 31
0.0
 11
346.434105
 21
138.134973
 31
0.0
 11
346.712854
 21
138.498512
 31
0.0
 11
347.076394
 21
138.777260
 31
0.0
 11
347.496127
 21
138.951119
 31
0.0
 11
347.950293
 21
139.011074
 31
0.0
 11
348.833541
 21
138.772139
 31
0.0
 11
349.461346
 21
138.144325
 31
0.0
 11
349.700269
 21
137.261074
 31
0.0
  0
LWPOLYLINE
  5
117
100
AcDbEntity
  8
Layer_1
 62
7
100
AcDbPolyline
 90
2
 70
1
 10
349.700269
 20
137.261074
 30
0.0
 10
349.700269
 20
137.261074
 30
0.0
  0
SPLINE
  5
118
100
AcDbEntity
  8
Layer_1
 62
7
100
AcDbSpline
 70
0
 71
3
 72
25
 73
21
 74
19
 40
0.000000
 40
0.000000
 40
0.000000
 40
0.000000
 40
0.914995
 40
1.802853
 40
2.717848
 40
3.175955
 40
3.630270
 40
4.088377
 40
4.546484
 40
5.000799
 40
5.458906
 40
5.917013
 40
6.371328
 40
6.829435
 40
7.287542
 40
7.741857
 40
8.199964
 40
9.114959
 40
10.002817
 40
10.917812
 40
10.917812
 40
10.917812
 40
10.917812
 10
349.700269
 20
64.261008
 30
0.0
 10
349.652116
 20
63.952535
 30
0.0
 10
349.557238
 20
63.344739
 30
0.0
 10
348.861353
 20
62.675253
 30
0.0
 10
348.102709
 20
62.469955
 30
0.0
 10
347.492200
 20
62.551399
 30
0.0
 10
347.065274
 20
62.728047
 30
0.0
 10
346.698563
 20
63.009283
 30
0.0
 10
346.417364
 20
63.376003
 30
0.0
 10
346.240557
 20
63.802857
 30
0.0
 10
346.180072
 20
64.261008
 30
0.0
 10
346.240557
 20
64.719159
 30
0.0
 10
346.417364
 20
65.146013
 30
0.0
 10
346.698563
 20
65.512733
 30
0.0
 10
347.065274
 20
65.793969
 30
0.0
 10
347.492200
 20
65.970617
 30
0.0
 10
348.102709
 20
66.052061
 30
0.0
 10
348.861353
 20
65.846763
 30
0.0
 10
349.557238
 20
65.177276
 30
0.0
 10
349.652116
 20
64.569480
 30
0.0
 10
349.700269
 20
64.261008
 30
0.0
 11
349.700269
 21
64.261008
 31
0.0
 11
349.461346
 21
63.377757
 31
0.0
 11
348.833541
 21
62.749942
 31
0.0
 11
347.950293
 21
62.511007
 31
0.0
 11
347.496127
 21
62.570963
 31
0.0
 11
347.076394
 21
62.744821
 31
0.0
 11
346.712854
 21
63.023570
 31
0.0
 11
346.434105
 21
63.387109
 31
0.0
 11
346.260246
 21
63.806842
 31
0.0
 11
346.200290
 21
64.261008
 31
0.0
 11
346.260246
 21
64.715174
 31
0.0
 11
346.434105
 21
65.134907
 31
0.0
 11
346.712854
 21
65.498446
 31
0.0
 11
347.076394
 21
65.777195
 31
0.0
 11
347.496127
 21
65.951053
 31
0.0
 11
347.950293
 21
66.011009
 31
0.0
 11
348.833541
 21
65.772074
 31
0.0
 11
349.461346
 21
65.144259
 31
0.0
 11
349.700269
 21
64.261008
 31
0.0
  0
LWPOLYLINE
  5
119
100
AcDbEntity
  8
Layer_1
 62
7
100
AcDbPolyline
 90
2
 70
1
 10
349.700269
 20
64.261008
 30
0.0
 10
349.700269
 20
64.261008
 30
0.0
  0
SPLINE
  5
11a
100
AcDbEntity
  8
Layer_1
 62
7
100
AcDbSpline
 70
0
 71
3
 72
25
 73
21
 74
19
 40
0.000000
 40
0.000000
 40
0.000000
 40
0.000000
 40
0.914995
 40
1.802853
 40
2.717848
 40
3.175955
 40
3.630270
 40
4.088377
 40
4.546484
 40
5.000799
 40
5.458906
 40
5.917013
 40
6.371328
 40
6.829435
 40
7.287542
 40
7.741857
 40
8.199964
 40
9.114959
 40
10.002817
 40
10.917812
 40
10.917812
 40
10.917812
 40
10.917812
 10
349.700269
 20
154.261088
 30
0.0
 10
349.652116
 20
153.952615
 30
0.0
 10
349.557238
 20
153.344819
 30
0.0
 10
348.861353
 20
152.675333
 30
0.0
 10
348.102709
 20
152.470035
 30
0.0
 10
347.492200
 20
152.551479
 30
0.0
 10
347.065274
 20
152.728127
 30
0.0
 10
346.698563
 20
153.009363
 30
0.0
 10
346.417364
 20
153.376082
 30
0.0
 10
346.240557
 20
153.802936
 30
0.0
 10
346.180072
 20
154.261088
 30
0.0
 10
346.240557
 20
154.719239
 30
0.0
 10
346.417364
 20
155.146093
 30
0.0
 10
346.698563
 20
155.512812
 30
0.0
 10
347.065274
 20
155.794048
 30
0.0
 10
347.492200
 20
155.970696
 30
0.0
 10
348.102709
 20
156.052140
 30
0.0
 10
348.861353
 20
155.846842
 30
0.0
 10
349.557238
 20
155.177356
 30
0.0
 10
349.652116
 20
154.569560
 30
0.0
 10
349.700269
 20
154.261088
 30
0.0
 11
349.700269
 21
154.261088
 31
0.0
 11
349.461346
 21
153.377836
 31
0.0
 11
348.833541
 21
152.750022
 31
0.0
 11
347.950293
 21
152.511087
 31
0.0
 11
347.496127
 21
152.571042
 31
0.0
 11
347.076394
 21
152.744901
 31
0.0
 11
346.712854
 21
153.023649
 31
0.0
 11
346.434105
 21
153.387188
 31
0.0
 11
346.260246
 21
153.806921
 31
0.0
 11
346.200290
 21
154.261088
 31
0.0
 11
346.260246
 21
154.715254
 31
0.0
 11
346.434105
 21
155.134987
 31
0.0
 11
346.712854
 21
155.498526
 31
0.0
 11
347.076394
 21
155.777274
 31
0.0
 11
347.496127
 21
155.951133
 31
0.0
 11
347.950293
 21
156.011088
 31
0.0
 11
348.833541
 21
155.772153
 31
0.0
 11
349.461346
 21
155.144339
 31
0.0
 11
349.700269
 21
154.261088
 31
0.0
  0
LWPOLYLINE
  5
11b
100
AcDbEntity
  8
Layer_1
 62
7
100
AcDbPolyline
 90
2
 70
1
 10
349.700269
 20
154.261088
 30
0.0
 10
349.700269
 20
154.261088
 30
0.0
  0
SPLINE
  5
11c
100
AcDbEntity
  8
Layer_1
 62
7
100
AcDbSpline
 70
0
 71
3
 72
28
 73
24
 74
22
 40
0.000000
 40
0.000000
 40
0.000000
 40
0.000000
 40
0.588994
 40
1.173114
 40
1.762108
 40
2.351102
 40
2.935222
 40
3.524216
 40
4.113210
 40
4.697330
 40
5.286324
 40
5.875318
 40
6.459437
 40
7.048431
 40
8.224865
 40
9.366407
 40
10.542840
 40
11.131834
 40
11.715954
 40
12.304948
 40
12.893942
 40
13.478062
 40
14.067056
 40
14.067056
 40
14.067056
 40
14.067056
 10
50.200021
 20
194.261120
 30
0.0
 10
50.185022
 20
194.064226
 30
0.0
 10
50.155148
 20
193.672067
 30
0.0
 10
49.919066
 20
193.123259
 30
0.0
 10
49.559891
 20
192.651748
 30
0.0
 10
49.087747
 20
192.290213
 30
0.0
 10
48.539107
 20
192.062890
 30
0.0
 10
47.950009
 20
191.985124
 30
0.0
 10
47.360970
 20
192.062891
 30
0.0
 10
46.812155
 20
192.290208
 30
0.0
 10
46.340660
 20
192.651766
 30
0.0
 10
45.979068
 20
193.123190
 30
0.0
 10
45.751957
 20
193.672325
 30
0.0
 10
45.647203
 20
194.456116
 30
0.0
 10
45.911454
 20
195.440192
 30
0.0
 10
46.770953
 20
196.299683
 30
0.0
 10
47.755002
 20
196.563936
 30
0.0
 10
48.538849
 20
196.459182
 30
0.0
 10
49.087817
 20
196.232071
 30
0.0
 10
49.559872
 20
195.870479
 30
0.0
 10
49.919071
 20
195.398983
 30
0.0
 10
50.155147
 20
194.850171
 30
0.0
 10
50.185022
 20
194.458013
 30
0.0
 10
50.200021
 20
194.261120
 30
0.0
 11
50.200021
 21
194.261120
 31
0.0
 11
50.122935
 21
193.677192
 31
0.0
 11
49.899402
 21
193.137535
 31
0.0
 11
49.541011
 21
192.670128
 31
0.0
 11
49.073603
 21
192.311737
 31
0.0
 11
48.533947
 21
192.088204
 31
0.0
 11
47.950019
 21
192.011118
 31
0.0
 11
47.366092
 21
192.088204
 31
0.0
 11
46.826435
 21
192.311737
 31
0.0
 11
46.359028
 21
192.670128
 31
0.0
 11
46.000637
 21
193.137535
 31
0.0
 11
45.777104
 21
193.677192
 31
0.0
 11
45.700018
 21
194.261120
 31
0.0
 11
46.007209
 21
195.396738
 31
0.0
 11
46.814400
 21
196.203930
 31
0.0
 11
47.950019
 21
196.511121
 31
0.0
 11
48.533947
 21
196.434035
 31
0.0
 11
49.073603
 21
196.210502
 31
0.0
 11
49.541011
 21
195.852111
 31
0.0
 11
49.899402
 21
195.384704
 31
0.0
 11
50.122935
 21
194.845047
 31
0.0
 11
50.200021
 21
194.261120
 31
0.0
  0
LWPOLYLINE
  5
11d
100
AcDbEntity
  8
Layer_1
 62
7
100
AcDbPolyline
 90
2
 70
1
 10
50.200021
 20
194.261120
 30
0.0
 10
50.200021
 20
194.261120
 30
0.0
  0
SPLINE
  5
11e
100
AcDbEntity
  8
Layer_1
 62
7
100
AcDbSpline
 70
0
 71
3
 72
25
 73
21
 74
19
 40
0.000000
 40
0.000000
 40
0.000000
 40
0.000000
 40
0.588996
 40
1.173119
 40
1.762115
 40
2.351112
 40
2.935234
 40
3.524230
 40
4.700660
 40
5.842197
 40
7.018627
 40
8.195056
 40
9.336594
 40
10.513023
 40
11.102020
 40
11.686142
 40
12.275138
 40
12.864135
 40
13.448257
 40
14.037253
 40
14.037253
 40
14.037253
 40
14.037253
 10
560.200454
 20
194.261120
 30
0.0
 10
560.185455
 20
194.064225
 30
0.0
 10
560.155580
 20
193.672066
 30
0.0
 10
559.919502
 20
193.123252
 30
0.0
 10
559.560300
 20
192.651754
 30
0.0
 10
559.088242
 20
192.290165
 30
0.0
 10
558.539268
 20
192.063047
 30
0.0
 10
557.755434
 20
191.958339
 30
0.0
 10
556.771286
 20
192.222281
 30
0.0
 10
555.912211
 20
193.083053
 30
0.0
 10
555.592974
 20
194.261120
 30
0.0
 10
555.912211
 20
195.439186
 30
0.0
 10
556.771286
 20
196.299958
 30
0.0
 10
557.755434
 20
196.563900
 30
0.0
 10
558.539268
 20
196.459192
 30
0.0
 10
559.088242
 20
196.232074
 30
0.0
 10
559.560300
 20
195.870485
 30
0.0
 10
559.919502
 20
195.398988
 30
0.0
 10
560.155580
 20
194.850173
 30
0.0
 10
560.185455
 20
194.458014
 30
0.0
 10
560.200454
 20
194.261120
 30
0.0
 11
560.200454
 21
194.261120
 31
0.0
 11
560.123368
 21
193.677189
 31
0.0
 11
559.899833
 21
193.137531
 31
0.0
 11
559.541439
 21
192.670123
 31
0.0
 11
559.074028
 21
192.311732
 31
0.0
 11
558.534368
 21
192.088201
 31
0.0
 11
557.950438
 21
192.011118
 31
0.0
 11
556.814824
 21
192.318313
 31
0.0
 11
556.007638
 21
193.125504
 31
0.0
 11
555.700449
 21
194.261120
 31
0.0
 11
556.007638
 21
195.396735
 31
0.0
 11
556.814825
 21
196.203926
 31
0.0
 11
557.950438
 21
196.511121
 31
0.0
 11
558.534368
 21
196.434038
 31
0.0
 11
559.074028
 21
196.210507
 31
0.0
 11
559.541439
 21
195.852116
 31
0.0
 11
559.899833
 21
195.384708
 31
0.0
 11
560.123367
 21
194.845050
 31
0.0
 11
560.200454
 21
194.261120
 31
0.0
  0
LWPOLYLINE
  5
11f
100
AcDbEntity
  8
Layer_1
 62
7
100
AcDbPolyline
 90
2
 70
1
 10
560.200454
 20
194.261120
 30
0.0
 10
560.200454
 20
194.261120
 30
0.0
  0
SPLINE
  5
120
100
AcDbEntity
  8
Layer_1
 62
7
100
AcDbSpline
 70
0
 71
3
 72
25
 73
21
 74
19
 40
0.000000
 40
0.000000
 40
0.000000
 40
0.000000
 40
0.588996
 40
1.173118
 40
1.762114
 40
2.351110
 40
2.935232
 40
3.524228
 40
4.700657
 40
5.842194
 40
7.018623
 40
8.195052
 40
9.336590
 40
10.513020
 40
11.102016
 40
11.686139
 40
12.275135
 40
12.864132
 40
13.448254
 40
14.037251
 40
14.037251
 40
14.037251
 40
14.037251
 10
560.200454
 20
54.260997
 30
0.0
 10
560.185455
 20
54.064103
 30
0.0
 10
560.155579
 20
53.671943
 30
0.0
 10
559.919501
 20
53.123130
 30
0.0
 10
559.560300
 20
52.651633
 30
0.0
 10
559.088241
 20
52.290044
 30
0.0
 10
558.539268
 20
52.062926
 30
0.0
 10
557.755434
 20
51.958219
 30
0.0
 10
556.771287
 20
52.222161
 30
0.0
 10
555.912212
 20
53.082932
 30
0.0
 10
555.592974
 20
54.260997
 30
0.0
 10
555.912211
 20
55.439063
 30
0.0
 10
556.771286
 20
56.299836
 30
0.0
 10
557.755434
 20
56.563778
 30
0.0
 10
558.539268
 20
56.459070
 30
0.0
 10
559.088242
 20
56.231952
 30
0.0
 10
559.560301
 20
55.870363
 30
0.0
 10
559.919502
 20
55.398865
 30
0.0
 10
560.155580
 20
54.850051
 30
0.0
 10
560.185455
 20
54.457891
 30
0.0
 10
560.200454
 20
54.260997
 30
0.0
 11
560.200454
 21
54.260997
 31
0.0
 11
560.123367
 21
53.677067
 31
0.0
 11
559.899832
 21
53.137409
 31
0.0
 11
559.541438
 21
52.670001
 31
0.0
 11
559.074027
 21
52.311611
 31
0.0
 11
558.534368
 21
52.088080
 31
0.0
 11
557.950438
 21
52.010997
 31
0.0
 11
556.814825
 21
52.318192
 31
0.0
 11
556.007639
 21
53.125383
 31
0.0
 11
555.700449
 21
54.260997
 31
0.0
 11
556.007638
 21
55.396612
 31
0.0
 11
556.814824
 21
56.203804
 31
0.0
 11
557.950438
 21
56.510999
 31
0.0
 11
558.534368
 21
56.433916
 31
0.0
 11
559.074028
 21
56.210385
 31
0.0
 11
559.541439
 21
55.851994
 31
0.0
 11
559.899833
 21
55.384585
 31
0.0
 11
560.123368
 21
54.844927
 31
0.0
 11
560.200454
 21
54.260997
 31
0.0
  0
LWPOLYLINE
  5
121
100
AcDbEntity
  8
Layer_1
 62
7
100
AcDbPolyline
 90
2
 70
1
 10
560.200454
 20
54.260997
 30
0.0
 10
560.200454
 20
54.260997
 30
0.0
  0
LWPOLYLINE
  5
122
100
AcDbEntity
  8
Layer_1
 62
7
100
AcDbPolyline
 90
2
 70
1
 10
50.200021
 20
54.260997
 30
0.0
 10
50.200021
 20
54.260997
 30
0.0
  0
SPLINE
  5
123
100
AcDbEntity
  8
Layer_1
 62
7
100
AcDbSpline
 70
0
 71
3
 72
25
 73
21
 74
19
 40
0.000000
 40
0.000000
 40
0.000000
 40
0.000000
 40
1.176433
 40
2.317974
 40
3.494407
 40
4.670841
 40
5.812381
 40
6.988815
 40
7.577809
 40
8.161929
 40
8.750923
 40
9.339917
 40
9.924037
 40
10.513031
 40
11.102025
 40
11.686145
 40
12.275139
 40
12.864133
 40
13.448253
 40
14.037247
 40
14.037247
 40
14.037247
 40
14.037247
 10
50.200021
 20
54.260997
 30
0.0
 10
50.138180
 20
53.864357
 30
0.0
 10
50.016330
 20
53.082842
 30
0.0
 10
49.120575
 20
52.222486
 30
0.0
 10
47.952061
 20
51.903596
 30
0.0
 10
46.771420
 20
52.222743
 30
0.0
 10
45.911325
 20
53.081839
 30
0.0
 10
45.647219
 20
54.066011
 30
0.0
 10
45.751954
 20
54.849790
 30
0.0
 10
45.979069
 20
55.398927
 30
0.0
 10
46.340659
 20
55.870350
 30
0.0
 10
46.812155
 20
56.231908
 30
0.0
 10
47.360970
 20
56.459226
 30
0.0
 10
47.950009
 20
56.536993
 30
0.0
 10
48.539107
 20
56.459227
 30
0.0
 10
49.087747
 20
56.231904
 30
0.0
 10
49.559891
 20
55.870369
 30
0.0
 10
49.919066
 20
55.398858
 30
0.0
 10
50.155148
 20
54.850049
 30
0.0
 10
50.185022
 20
54.457891
 30
0.0
 10
50.200021
 20
54.260997
 30
0.0
 11
50.200021
 21
54.260997
 31
0.0
 11
49.892829
 21
53.125379
 31
0.0
 11
49.085638
 21
52.318188
 31
0.0
 11
47.950019
 21
52.010997
 31
0.0
 11
46.814401
 21
52.318188
 31
0.0
 11
46.007209
 21
53.125379
 31
0.0
 11
45.700018
 21
54.260997
 31
0.0
 11
45.777104
 21
54.844925
 31
0.0
 11
46.000637
 21
55.384581
 31
0.0
 11
46.359028
 21
55.851989
 31
0.0
 11
46.826435
 21
56.210380
 31
0.0
 11
47.366091
 21
56.433913
 31
0.0
 11
47.950019
 21
56.510999
 31
0.0
 11
48.533947
 21
56.433913
 31
0.0
 11
49.073604
 21
56.210380
 31
0.0
 11
49.541011
 21
55.851989
 31
0.0
 11
49.899402
 21
55.384581
 31
0.0
 11
50.122935
 21
54.844925
 31
0.0
 11
50.200021
 21
54.260997
 31
0.0
  0
LWPOLYLINE
  5
124
100
AcDbEntity
  8
Layer_1
 62
7
100
AcDbPolyline
 90
149
 70
1
 10
89.800052
 20
214.261137
 30
0.0
 10
107.950068
 20
214.261137
 30
0.0
 10
107.950068
 20
209.261133
 30
0.0
 10
137.950092
 20
209.261133
 30
0.0
 10
137.950092
 20
214.261137
 30
0.0
 10
167.950117
 20
214.261137
 30
0.0
 10
167.950117
 20
209.261133
 30
0.0
 10
197.950142
 20
209.261133
 30
0.0
 10
197.950142
 20
214.261137
 30
0.0
 10
227.950166
 20
214.261137
 30
0.0
 10
227.950166
 20
209.261133
 30
0.0
 10
257.950191
 20
209.261133
 30
0.0
 10
257.950191
 20
214.261137
 30
0.0
 10
287.950216
 20
214.261137
 30
0.0
 10
287.950216
 20
209.261133
 30
0.0
 10
317.950240
 20
209.261133
 30
0.0
 10
317.950240
 20
214.261137
 30
0.0
 10
347.950265
 20
214.261137
 30
0.0
 10
347.950265
 20
209.261133
 30
0.0
 10
377.950290
 20
209.261133
 30
0.0
 10
377.950290
 20
214.261137
 30
0.0
 10
407.950314
 20
214.261137
 30
0.0
 10
407.950314
 20
209.261133
 30
0.0
 10
437.950339
 20
209.261133
 30
0.0
 10
437.950339
 20
214.261137
 30
0.0
 10
467.950364
 20
214.261137
 30
0.0
 10
467.950364
 20
209.261133
 30
0.0
 10
497.950388
 20
209.261133
 30
0.0
 10
497.950388
 20
214.261137
 30
0.0
 10
516.100410
 20
214.261137
 30
0.0
 10
516.100410
 20
210.561134
 30
0.0
 10
519.800400
 20
210.561134
 30
0.0
 10
519.800400
 20
214.261137
 30
0.0
 10
537.950421
 20
214.261137
 30
0.0
 10
537.950421
 20
209.261133
 30
0.0
 10
577.950454
 20
209.261133
 30
0.0
 10
577.950454
 20
176.761107
 30
0.0
 10
572.950436
 20
176.761107
 30
0.0
 10
572.950436
 20
160.061093
 30
0.0
 10
572.450451
 20
160.061093
 30
0.0
 10
572.450451
 20
161.561093
 30
0.0
 10
569.150455
 20
161.561093
 30
0.0
 10
569.150455
 20
160.061093
 30
0.0
 10
565.850430
 20
160.061093
 30
0.0
 10
565.850430
 20
155.961090
 30
0.0
 10
569.150455
 20
155.961090
 30
0.0
 10
569.150455
 20
154.461087
 30
0.0
 10
572.450451
 20
154.461087
 30
0.0
 10
572.450451
 20
155.961090
 30
0.0
 10
572.950436
 20
155.961090
 30
0.0
 10
572.950436
 20
139.261075
 30
0.0
 10
577.950454
 20
139.261075
 30
0.0
 10
577.950454
 20
109.261051
 30
0.0
 10
572.950436
 20
109.261051
 30
0.0
 10
572.950436
 20
92.561036
 30
0.0
 10
572.450451
 20
92.561036
 30
0.0
 10
572.450451
 20
94.061039
 30
0.0
 10
569.150455
 20
94.061039
 30
0.0
 10
569.150455
 20
92.561036
 30
0.0
 10
565.850430
 20
92.561036
 30
0.0
 10
565.850430
 20
88.461033
 30
0.0
 10
569.150455
 20
88.461033
 30
0.0
 10
569.150455
 20
86.961033
 30
0.0
 10
572.450451
 20
86.961033
 30
0.0
 10
572.450451
 20
88.461033
 30
0.0
 10
572.950436
 20
88.461033
 30
0.0
 10
572.950436
 20
71.761021
 30
0.0
 10
577.950454
 20
71.761021
 30
0.0
 10
577.950454
 20
39.260993
 30
0.0
 10
537.950421
 20
39.260993
 30
0.0
 10
537.950421
 20
34.260989
 30
0.0
 10
519.800400
 20
34.260989
 30
0.0
 10
519.800400
 20
37.960993
 30
0.0
 10
516.100410
 20
37.960993
 30
0.0
 10
516.100410
 20
34.260989
 30
0.0
 10
497.950388
 20
34.260989
 30
0.0
 10
497.950388
 20
39.260993
 30
0.0
 10
467.950364
 20
39.260993
 30
0.0
 10
467.950364
 20
34.260989
 30
0.0
 10
437.950339
 20
34.260989
 30
0.0
 10
437.950339
 20
39.260993
 30
0.0
 10
407.950314
 20
39.260993
 30
0.0
 10
407.950314
 20
34.260989
 30
0.0
 10
377.950290
 20
34.260989
 30
0.0
 10
377.950290
 20
39.260993
 30
0.0
 10
347.950265
 20
39.260993
 30
0.0
 10
347.950265
 20
34.260989
 30
0.0
 10
317.950240
 20
34.260989
 30
0.0
 10
317.950240
 20
39.260993
 30
0.0
 10
287.950216
 20
39.260993
 30
0.0
 10
287.950216
 20
34.260989
 30
0.0
 10
257.950191
 20
34.260989
 30
0.0
 10
257.950191
 20
39.260993
 30
0.0
 10
227.950166
 20
39.260993
 30
0.0
 10
227.950166
 20
34.260989
 30
0.0
 10
197.950142
 20
34.260989
 30
0.0
 10
197.950142
 20
39.260993
 30
0.0
 10
167.950117
 20
39.260993
 30
0.0
 10
167.950117
 20
34.260989
 30
0.0
 10
137.950092
 20
34.260989
 30
0.0
 10
137.950092
 20
39.260993
 30
0.0
 10
107.950068
 20
39.260993
 30
0.0
 10
107.950068
 20
34.260989
 30
0.0
 10
89.800052
 20
34.260989
 30
0.0
 10
89.800052
 20
37.960993
 30
0.0
 10
86.100051
 20
37.960993
 30
0.0
 10
86.100051
 20
34.260989
 30
0.0
 10
67.950035
 20
34.260989
 30
0.0
 10
67.950035
 20
39.260993
 30
0.0
 10
27.950002
 20
39.260993
 30
0.0
 10
27.950002
 20
71.761021
 30
0.0
 10
32.950006
 20
71.761021
 30
0.0
 10
32.950006
 20
88.461033
 30
0.0
 10
33.450006
 20
88.461033
 30
0.0
 10
33.450006
 20
86.961033
 30
0.0
 10
36.750009
 20
86.961033
 30
0.0
 10
36.750009
 20
88.461033
 30
0.0
 10
40.050012
 20
88.461033
 30
0.0
 10
40.050012
 20
92.561036
 30
0.0
 10
36.750009
 20
92.561036
 30
0.0
 10
36.750009
 20
94.061039
 30
0.0
 10
33.450006
 20
94.061039
 30
0.0
 10
33.450006
 20
92.561036
 30
0.0
 10
32.950006
 20
92.561036
 30
0.0
 10
32.950006
 20
109.261051
 30
0.0
 10
27.950002
 20
109.261051
 30
0.0
 10
27.950002
 20
139.261075
 30
0.0
 10
32.950006
 20
139.261075
 30
0.0
 10
32.950006
 20
155.961090
 30
0.0
 10
33.450006
 20
155.961090
 30
0.0
 10
33.450006
 20
154.461087
 30
0.0
 10
36.750009
 20
154.461087
 30
0.0
 10
36.750009
 20
155.961090
 30
0.0
 10
40.050012
 20
155.961090
 30
0.0
 10
40.050012
 20
160.061093
 30
0.0
 10
36.750009
 20
160.061093
 30
0.0
 10
36.750009
 20
161.561093
 30
0.0
 10
33.450006
 20
161.561093
 30
0.0
 10
33.450006
 20
160.061093
 30
0.0
 10
32.950006
 20
160.061093
 30
0.0
 10
32.950006
 20
176.761107
 30
0.0
 10
27.950002
 20
176.761107
 30
0.0
 10
27.950002
 20
209.261133
 30
0.0
 10
67.950035
 20
209.261133
 30
0.0
 10
67.950035
 20
214.261137
 30
0.0
 10
86.100051
 20
214.261137
 30
0.0
 10
86.100051
 20
210.561134
 30
0.0
 10
89.800052
 20
210.561134
 30
0.0
 10
89.800052
 20
214.261137
 30
0.0
  0
ENDSEC
  0
SECTION
  2
OBJECTS
  0
DICTIONARY
  5
C
330
0
100
AcDbDictionary
  3
ACAD_GROUP
350
D
  3
ACAD_MLINESTYLE
350
17
  0
DICTIONARY
  5
D
330
C
100
AcDbDictionary
  0
DICTIONARY
  5
1A
330
C
100
AcDbDictionary
  0
DICTIONARY
  5
17
330
C
100
AcDbDictionary
  3
STANDARD
350
18
  0
DICTIONARY
  5
19
330
C
100
AcDbDictionary
  0
ENDSEC
  0
EOF
